%TF.GenerationSoftware,KiCad,Pcbnew,9.0.7*%
%TF.CreationDate,2026-03-24T10:18:17+01:00*%
%TF.ProjectId,premier_jet,7072656d-6965-4725-9f6a-65742e6b6963,rev?*%
%TF.SameCoordinates,Original*%
%TF.FileFunction,Copper,L2,Inr*%
%TF.FilePolarity,Positive*%
%FSLAX46Y46*%
G04 Gerber Fmt 4.6, Leading zero omitted, Abs format (unit mm)*
G04 Created by KiCad (PCBNEW 9.0.7) date 2026-03-24 10:18:17*
%MOMM*%
%LPD*%
G01*
G04 APERTURE LIST*
G04 Aperture macros list*
%AMRoundRect*
0 Rectangle with rounded corners*
0 $1 Rounding radius*
0 $2 $3 $4 $5 $6 $7 $8 $9 X,Y pos of 4 corners*
0 Add a 4 corners polygon primitive as box body*
4,1,4,$2,$3,$4,$5,$6,$7,$8,$9,$2,$3,0*
0 Add four circle primitives for the rounded corners*
1,1,$1+$1,$2,$3*
1,1,$1+$1,$4,$5*
1,1,$1+$1,$6,$7*
1,1,$1+$1,$8,$9*
0 Add four rect primitives between the rounded corners*
20,1,$1+$1,$2,$3,$4,$5,0*
20,1,$1+$1,$4,$5,$6,$7,0*
20,1,$1+$1,$6,$7,$8,$9,0*
20,1,$1+$1,$8,$9,$2,$3,0*%
G04 Aperture macros list end*
%TA.AperFunction,ComponentPad*%
%ADD10RoundRect,0.250000X-0.350000X-0.625000X0.350000X-0.625000X0.350000X0.625000X-0.350000X0.625000X0*%
%TD*%
%TA.AperFunction,ComponentPad*%
%ADD11O,1.200000X1.750000*%
%TD*%
%TA.AperFunction,ComponentPad*%
%ADD12C,6.400000*%
%TD*%
%TA.AperFunction,ComponentPad*%
%ADD13RoundRect,0.250000X-0.625000X0.350000X-0.625000X-0.350000X0.625000X-0.350000X0.625000X0.350000X0*%
%TD*%
%TA.AperFunction,ComponentPad*%
%ADD14O,1.750000X1.200000*%
%TD*%
%TA.AperFunction,HeatsinkPad*%
%ADD15O,2.100000X1.000000*%
%TD*%
%TA.AperFunction,HeatsinkPad*%
%ADD16O,1.800000X1.000000*%
%TD*%
%TA.AperFunction,ViaPad*%
%ADD17C,0.800000*%
%TD*%
%TA.AperFunction,ViaPad*%
%ADD18C,0.500000*%
%TD*%
%TA.AperFunction,ViaPad*%
%ADD19C,1.200000*%
%TD*%
G04 APERTURE END LIST*
D10*
%TO.N,/Motor/OA1*%
%TO.C,J4*%
X76250000Y-151000000D03*
D11*
%TO.N,/Motor/OA2*%
X78250000Y-151000000D03*
%TO.N,/Motor/OB1*%
X80250000Y-151000000D03*
%TO.N,/Motor/OB2*%
X82250000Y-151000000D03*
%TD*%
D12*
%TO.N,GND*%
%TO.C,H3*%
X120000000Y-150000000D03*
%TD*%
D10*
%TO.N,/Motor2/OA1*%
%TO.C,J2*%
X103750000Y-151000000D03*
D11*
%TO.N,/Motor2/OA2*%
X105750000Y-151000000D03*
%TO.N,/Motor2/OB1*%
X107750000Y-151000000D03*
%TO.N,/Motor2/OB2*%
X109750000Y-151000000D03*
%TD*%
D13*
%TO.N,/+5V*%
%TO.C,J1*%
X63500000Y-122420000D03*
D14*
%TO.N,/PWM_NEOPIXEL*%
X63500000Y-124420000D03*
%TO.N,GND*%
X63500000Y-126420000D03*
%TD*%
D15*
%TO.N,GND*%
%TO.C,J7*%
X118075000Y-117070000D03*
D16*
X122255000Y-117070000D03*
D15*
X118075000Y-108430000D03*
D16*
X122255000Y-108430000D03*
%TD*%
D12*
%TO.N,GND*%
%TO.C,H2*%
X120000000Y-95000000D03*
%TD*%
%TO.N,GND*%
%TO.C,H4*%
X65000000Y-95000000D03*
%TD*%
%TO.N,GND*%
%TO.C,H1*%
X65000000Y-150000000D03*
%TD*%
D10*
%TO.N,/Motor1/OA1*%
%TO.C,J3*%
X90000000Y-151000000D03*
D11*
%TO.N,/Motor1/OA2*%
X92000000Y-151000000D03*
%TO.N,/Motor1/OB1*%
X94000000Y-151000000D03*
%TO.N,/Motor1/OB2*%
X96000000Y-151000000D03*
%TD*%
D17*
%TO.N,/+5V*%
X69250000Y-100250000D03*
X73000000Y-99000000D03*
X112250000Y-139500000D03*
D18*
X98836662Y-124350000D03*
D17*
X74250000Y-97750000D03*
X117054702Y-123667947D03*
X71750000Y-97750000D03*
X74250000Y-99000000D03*
X79500000Y-111000000D03*
X69250000Y-99000000D03*
X70500000Y-99000000D03*
X81500000Y-123500000D03*
X70500000Y-97750000D03*
X74250000Y-100000000D03*
X68000000Y-100250000D03*
X68000000Y-99000000D03*
X73000000Y-96500000D03*
X66750000Y-99000000D03*
X69250000Y-96500000D03*
X71750000Y-99000000D03*
D18*
X93500000Y-139500000D03*
D17*
X69250000Y-97750000D03*
X70500000Y-96500000D03*
D18*
X76000000Y-139750000D03*
D17*
X74250000Y-96500000D03*
X73000000Y-97750000D03*
X71750000Y-96500000D03*
X79500000Y-109000000D03*
X67750000Y-122250000D03*
%TO.N,GND*%
X100000000Y-140000000D03*
X96308608Y-146558608D03*
X98191392Y-146558608D03*
X77500000Y-130250000D03*
D18*
X115750000Y-117750000D03*
D17*
X104691392Y-146058608D03*
D19*
X120250000Y-125500000D03*
D17*
X91375000Y-129625000D03*
D19*
X118250000Y-107250000D03*
D17*
X104500000Y-118250000D03*
X75000000Y-115000000D03*
X87600000Y-137600000D03*
X105000000Y-135000000D03*
D18*
X97750000Y-121750000D03*
D17*
X107500000Y-102500000D03*
X70000000Y-150000000D03*
X69700000Y-137700000D03*
X82600000Y-139500000D03*
X110250000Y-112250000D03*
X105000000Y-145000000D03*
X85000000Y-135000000D03*
X120000000Y-115000000D03*
X65000000Y-135000000D03*
X115000000Y-150000000D03*
X64750000Y-139500000D03*
X76500000Y-143000000D03*
X70000000Y-130000000D03*
X105725000Y-137975000D03*
X115000000Y-105000000D03*
X85000000Y-105000000D03*
X115000000Y-145000000D03*
X70000000Y-120000000D03*
X77250000Y-125250000D03*
X75000000Y-130000000D03*
X97250000Y-101500000D03*
X115000000Y-120000000D03*
X100000000Y-135000000D03*
X115000000Y-95000000D03*
X112000000Y-128750000D03*
X85000000Y-150000000D03*
X75000000Y-110000000D03*
X100000000Y-145000000D03*
X100000000Y-110000000D03*
X65500000Y-114750000D03*
X112000000Y-130750000D03*
X120000000Y-135000000D03*
X79500000Y-130250000D03*
X101750000Y-139500000D03*
X70000000Y-115000000D03*
X70000000Y-135000000D03*
X120000000Y-120000000D03*
X102500000Y-91250000D03*
D18*
X65000000Y-129250000D03*
D17*
X110000000Y-105000000D03*
X94000000Y-104750000D03*
X78816392Y-146433608D03*
X92191392Y-146558608D03*
X100000000Y-91250000D03*
X75948449Y-129051551D03*
X90000000Y-100000000D03*
X109933607Y-146183607D03*
X96500000Y-130725386D03*
X116000000Y-130500000D03*
X120250000Y-108430000D03*
D18*
X94500000Y-109750000D03*
D17*
X120000000Y-105000000D03*
X102558608Y-146308608D03*
X85000000Y-130000000D03*
X80000000Y-100000000D03*
X120250000Y-117070000D03*
X89183608Y-146683608D03*
X90000000Y-130000000D03*
X80000000Y-105000000D03*
X115000000Y-100000000D03*
D18*
X91500000Y-118555000D03*
D17*
X115000000Y-140000000D03*
X100000000Y-150000000D03*
X94750000Y-91250000D03*
X90000000Y-95000000D03*
X89500000Y-111250000D03*
X84441392Y-146308608D03*
X65000000Y-145000000D03*
X85000000Y-145000000D03*
X75000000Y-105000000D03*
X107750000Y-119500000D03*
X112066393Y-146183607D03*
X120000000Y-130000000D03*
X110000000Y-95000000D03*
X70000000Y-145000000D03*
X75000000Y-120000000D03*
X113750000Y-128750000D03*
X105000000Y-125000000D03*
X110000000Y-100000000D03*
X110000000Y-115000000D03*
X110000000Y-130000000D03*
X85000000Y-100000000D03*
X84750000Y-124250000D03*
X82433608Y-146433608D03*
X74808608Y-146808608D03*
X85000000Y-115000000D03*
X66500000Y-119500000D03*
X120000000Y-100000000D03*
X120000000Y-110000000D03*
X110000000Y-110000000D03*
X105000000Y-105000000D03*
D19*
X78250000Y-110000000D03*
%TO.N,/+3.3V*%
X89000000Y-109000000D03*
D17*
X92750000Y-105000000D03*
D19*
X85500000Y-109000000D03*
X101050663Y-122731873D03*
X106500000Y-107500000D03*
X105000000Y-91250000D03*
X89000000Y-117500000D03*
D18*
%TO.N,/Motor2/OA1*%
X103750000Y-146250000D03*
X113175007Y-131875021D03*
%TO.N,/Motor2/OA2*%
X106500000Y-146250000D03*
X112069264Y-134180736D03*
%TO.N,/Motor2/OB1*%
X108250000Y-146250000D03*
X113753538Y-134250000D03*
%TO.N,/Motor2/OB2*%
X115250000Y-131750000D03*
X111000000Y-146250000D03*
%TO.N,/Motor1/OA1*%
X90250000Y-146750000D03*
D17*
X94775021Y-131750000D03*
%TO.N,/Motor1/OA2*%
X93865160Y-134494500D03*
D18*
X91250000Y-146750000D03*
%TO.N,/Motor1/OB1*%
X94250000Y-146750000D03*
D17*
X95874965Y-134251999D03*
%TO.N,/Motor1/OB2*%
X96827699Y-131718592D03*
D18*
X97250000Y-146750000D03*
D17*
%TO.N,/Motor/OA1*%
X77476423Y-131676766D03*
D18*
X76250000Y-146500000D03*
%TO.N,/Motor/OA2*%
X77750000Y-146500000D03*
D17*
X75975049Y-134111959D03*
%TO.N,/Motor/OB1*%
X78250002Y-134248963D03*
D18*
X80500000Y-146500000D03*
D17*
%TO.N,/Motor/OB2*%
X79224979Y-131750000D03*
D18*
X83500000Y-146500000D03*
D17*
%TO.N,/PWM_NEOPIXEL*%
X85969669Y-119719669D03*
X88799000Y-113969669D03*
%TO.N,/T_NRST*%
X91250000Y-105750000D03*
X90250000Y-112500000D03*
%TO.N,/T_VCP_TX*%
X87250000Y-107500000D03*
X89305331Y-99055331D03*
%TO.N,/UART_RXTX_2*%
X98000000Y-124500000D03*
X100000000Y-105000000D03*
%TO.N,/UART_RXTX_3*%
X94250000Y-103500000D03*
X80500000Y-124250000D03*
%TO.N,/UART_RXTX_1*%
X116500000Y-124500000D03*
X97000000Y-104000000D03*
%TO.N,/DIR_3*%
X78500000Y-124500000D03*
X106140564Y-120109436D03*
%TO.N,/CHOPPER_MODE_3*%
X100000000Y-106000000D03*
X79250000Y-125250000D03*
%TO.N,/PWM_MOTOR_2*%
X90250000Y-113500000D03*
X86327790Y-122577790D03*
X84250000Y-122500000D03*
X93530331Y-122780331D03*
%TO.N,/DIR_1*%
X113280331Y-124469669D03*
X110750000Y-124500000D03*
%TO.N,/PWM_MOTOR_3*%
X94000000Y-115000000D03*
X86750000Y-123577790D03*
%TO.N,/DIR_2*%
X97250000Y-122844669D03*
X96000000Y-125000000D03*
%TO.N,/MS2*%
X95405331Y-120905331D03*
X92500000Y-129250000D03*
X92750000Y-121250000D03*
X110742965Y-128261286D03*
X79291857Y-123041857D03*
X74750000Y-125250000D03*
%TO.N,/MS1*%
X110750000Y-125500000D03*
X93431130Y-128885305D03*
%TO.N,/CHOPPER_MODE_2*%
X105500000Y-113000000D03*
X97174937Y-125250000D03*
%TO.N,/V_USB*%
X115500000Y-112500000D03*
X115500000Y-108000000D03*
X115500000Y-116500000D03*
%TD*%
%TA.AperFunction,Conductor*%
%TO.N,GND*%
G36*
X104011458Y-90520185D02*
G01*
X104057213Y-90572989D01*
X104067157Y-90642147D01*
X104054904Y-90680794D01*
X103980129Y-90827549D01*
X103926597Y-90992302D01*
X103899500Y-91163389D01*
X103899500Y-91336610D01*
X103916190Y-91441991D01*
X103926598Y-91507701D01*
X103980127Y-91672445D01*
X104058768Y-91826788D01*
X104160586Y-91966928D01*
X104283072Y-92089414D01*
X104423212Y-92191232D01*
X104577555Y-92269873D01*
X104742299Y-92323402D01*
X104913389Y-92350500D01*
X104913390Y-92350500D01*
X105086610Y-92350500D01*
X105086611Y-92350500D01*
X105257701Y-92323402D01*
X105422445Y-92269873D01*
X105576788Y-92191232D01*
X105716928Y-92089414D01*
X105839414Y-91966928D01*
X105941232Y-91826788D01*
X106019873Y-91672445D01*
X106073402Y-91507701D01*
X106100500Y-91336611D01*
X106100500Y-91163389D01*
X106073402Y-90992299D01*
X106019873Y-90827555D01*
X105990662Y-90770224D01*
X105945096Y-90680794D01*
X105932200Y-90612125D01*
X105958477Y-90547385D01*
X106015583Y-90507128D01*
X106055581Y-90500500D01*
X119934108Y-90500500D01*
X119997294Y-90500500D01*
X120002702Y-90500617D01*
X120386771Y-90517386D01*
X120397506Y-90518326D01*
X120775971Y-90568152D01*
X120786597Y-90570025D01*
X121159284Y-90652648D01*
X121169710Y-90655442D01*
X121533765Y-90770227D01*
X121543911Y-90773920D01*
X121896578Y-90920000D01*
X121906369Y-90924566D01*
X122036489Y-90992302D01*
X122244942Y-91100816D01*
X122254310Y-91106224D01*
X122576244Y-91311318D01*
X122585105Y-91317523D01*
X122887930Y-91549889D01*
X122896217Y-91556843D01*
X123177635Y-91814715D01*
X123185284Y-91822364D01*
X123443156Y-92103782D01*
X123450110Y-92112069D01*
X123682476Y-92414894D01*
X123688681Y-92423755D01*
X123893775Y-92745689D01*
X123899183Y-92755057D01*
X124075430Y-93093623D01*
X124080002Y-93103427D01*
X124226075Y-93456078D01*
X124229775Y-93466244D01*
X124344554Y-93830278D01*
X124347354Y-93840727D01*
X124429971Y-94213389D01*
X124431849Y-94224042D01*
X124481671Y-94602473D01*
X124482614Y-94613249D01*
X124499382Y-94997297D01*
X124499500Y-95002706D01*
X124499500Y-149997293D01*
X124499382Y-150002702D01*
X124482614Y-150386750D01*
X124481671Y-150397526D01*
X124431849Y-150775957D01*
X124429971Y-150786610D01*
X124347354Y-151159272D01*
X124344554Y-151169721D01*
X124229775Y-151533755D01*
X124226075Y-151543921D01*
X124080002Y-151896572D01*
X124075430Y-151906376D01*
X123899183Y-152244942D01*
X123893775Y-152254310D01*
X123688681Y-152576244D01*
X123682476Y-152585105D01*
X123450110Y-152887930D01*
X123443156Y-152896217D01*
X123185284Y-153177635D01*
X123177635Y-153185284D01*
X122896217Y-153443156D01*
X122887930Y-153450110D01*
X122585105Y-153682476D01*
X122576244Y-153688681D01*
X122254310Y-153893775D01*
X122244942Y-153899183D01*
X121906376Y-154075430D01*
X121896572Y-154080002D01*
X121543921Y-154226075D01*
X121533755Y-154229775D01*
X121169721Y-154344554D01*
X121159272Y-154347354D01*
X120786610Y-154429971D01*
X120775957Y-154431849D01*
X120397526Y-154481671D01*
X120386750Y-154482614D01*
X120002703Y-154499382D01*
X119997294Y-154499500D01*
X65109031Y-154499500D01*
X65101426Y-154499499D01*
X65101423Y-154499499D01*
X65070961Y-154499499D01*
X65038233Y-154499499D01*
X65038232Y-154499498D01*
X65032827Y-154499381D01*
X64648778Y-154482617D01*
X64638002Y-154481674D01*
X64448784Y-154456764D01*
X64259568Y-154431854D01*
X64248915Y-154429976D01*
X63876250Y-154347361D01*
X63865801Y-154344561D01*
X63501763Y-154229781D01*
X63491598Y-154226081D01*
X63138956Y-154080015D01*
X63129152Y-154075444D01*
X62790571Y-153899192D01*
X62781202Y-153893783D01*
X62679833Y-153829204D01*
X62459263Y-153688687D01*
X62450415Y-153682490D01*
X62288201Y-153558021D01*
X62147589Y-153450126D01*
X62139302Y-153443173D01*
X61967585Y-153285825D01*
X61857863Y-153185284D01*
X61850220Y-153177640D01*
X61850215Y-153177635D01*
X61592343Y-152896217D01*
X61585397Y-152887939D01*
X61353026Y-152585110D01*
X61346821Y-152576248D01*
X61141726Y-152254314D01*
X61136332Y-152244973D01*
X60960073Y-151906383D01*
X60955501Y-151896579D01*
X60873016Y-151697445D01*
X60809424Y-151543921D01*
X60805727Y-151533764D01*
X60690943Y-151169715D01*
X60688149Y-151159289D01*
X60605526Y-150786604D01*
X60603650Y-150775958D01*
X60591143Y-150680956D01*
X60553826Y-150397508D01*
X60552886Y-150386771D01*
X60550188Y-150324983D01*
X75149500Y-150324983D01*
X75149500Y-151675001D01*
X75149501Y-151675018D01*
X75160000Y-151777796D01*
X75160001Y-151777799D01*
X75215185Y-151944331D01*
X75215187Y-151944336D01*
X75238870Y-151982732D01*
X75307288Y-152093656D01*
X75431344Y-152217712D01*
X75580666Y-152309814D01*
X75747203Y-152364999D01*
X75849991Y-152375500D01*
X76650008Y-152375499D01*
X76650016Y-152375498D01*
X76650019Y-152375498D01*
X76706302Y-152369748D01*
X76752797Y-152364999D01*
X76919334Y-152309814D01*
X77068656Y-152217712D01*
X77192712Y-152093656D01*
X77232310Y-152029456D01*
X77284258Y-151982732D01*
X77353220Y-151971509D01*
X77417303Y-151999352D01*
X77425530Y-152006872D01*
X77533072Y-152114414D01*
X77673212Y-152216232D01*
X77827555Y-152294873D01*
X77992299Y-152348402D01*
X78163389Y-152375500D01*
X78163390Y-152375500D01*
X78336610Y-152375500D01*
X78336611Y-152375500D01*
X78507701Y-152348402D01*
X78672445Y-152294873D01*
X78826788Y-152216232D01*
X78966928Y-152114414D01*
X79089414Y-151991928D01*
X79149682Y-151908975D01*
X79205012Y-151866311D01*
X79274626Y-151860332D01*
X79336421Y-151892938D01*
X79350315Y-151908973D01*
X79410586Y-151991928D01*
X79533072Y-152114414D01*
X79673212Y-152216232D01*
X79827555Y-152294873D01*
X79992299Y-152348402D01*
X80163389Y-152375500D01*
X80163390Y-152375500D01*
X80336610Y-152375500D01*
X80336611Y-152375500D01*
X80507701Y-152348402D01*
X80672445Y-152294873D01*
X80826788Y-152216232D01*
X80966928Y-152114414D01*
X81089414Y-151991928D01*
X81149682Y-151908975D01*
X81205012Y-151866311D01*
X81274626Y-151860332D01*
X81336421Y-151892938D01*
X81350315Y-151908973D01*
X81410586Y-151991928D01*
X81533072Y-152114414D01*
X81673212Y-152216232D01*
X81827555Y-152294873D01*
X81992299Y-152348402D01*
X82163389Y-152375500D01*
X82163390Y-152375500D01*
X82336610Y-152375500D01*
X82336611Y-152375500D01*
X82507701Y-152348402D01*
X82672445Y-152294873D01*
X82826788Y-152216232D01*
X82966928Y-152114414D01*
X83089414Y-151991928D01*
X83191232Y-151851788D01*
X83269873Y-151697445D01*
X83323402Y-151532701D01*
X83350500Y-151361611D01*
X83350500Y-150638389D01*
X83323402Y-150467299D01*
X83277160Y-150324983D01*
X88899500Y-150324983D01*
X88899500Y-151675001D01*
X88899501Y-151675018D01*
X88910000Y-151777796D01*
X88910001Y-151777799D01*
X88965185Y-151944331D01*
X88965187Y-151944336D01*
X88988870Y-151982732D01*
X89057288Y-152093656D01*
X89181344Y-152217712D01*
X89330666Y-152309814D01*
X89497203Y-152364999D01*
X89599991Y-152375500D01*
X90400008Y-152375499D01*
X90400016Y-152375498D01*
X90400019Y-152375498D01*
X90456302Y-152369748D01*
X90502797Y-152364999D01*
X90669334Y-152309814D01*
X90818656Y-152217712D01*
X90942712Y-152093656D01*
X90982310Y-152029456D01*
X91034258Y-151982732D01*
X91103220Y-151971509D01*
X91167303Y-151999352D01*
X91175530Y-152006872D01*
X91283072Y-152114414D01*
X91423212Y-152216232D01*
X91577555Y-152294873D01*
X91742299Y-152348402D01*
X91913389Y-152375500D01*
X91913390Y-152375500D01*
X92086610Y-152375500D01*
X92086611Y-152375500D01*
X92257701Y-152348402D01*
X92422445Y-152294873D01*
X92576788Y-152216232D01*
X92716928Y-152114414D01*
X92839414Y-151991928D01*
X92899682Y-151908975D01*
X92955012Y-151866311D01*
X93024626Y-151860332D01*
X93086421Y-151892938D01*
X93100315Y-151908973D01*
X93160586Y-151991928D01*
X93283072Y-152114414D01*
X93423212Y-152216232D01*
X93577555Y-152294873D01*
X93742299Y-152348402D01*
X93913389Y-152375500D01*
X93913390Y-152375500D01*
X94086610Y-152375500D01*
X94086611Y-152375500D01*
X94257701Y-152348402D01*
X94422445Y-152294873D01*
X94576788Y-152216232D01*
X94716928Y-152114414D01*
X94839414Y-151991928D01*
X94899682Y-151908975D01*
X94955012Y-151866311D01*
X95024626Y-151860332D01*
X95086421Y-151892938D01*
X95100315Y-151908973D01*
X95160586Y-151991928D01*
X95283072Y-152114414D01*
X95423212Y-152216232D01*
X95577555Y-152294873D01*
X95742299Y-152348402D01*
X95913389Y-152375500D01*
X95913390Y-152375500D01*
X96086610Y-152375500D01*
X96086611Y-152375500D01*
X96257701Y-152348402D01*
X96422445Y-152294873D01*
X96576788Y-152216232D01*
X96716928Y-152114414D01*
X96839414Y-151991928D01*
X96941232Y-151851788D01*
X97019873Y-151697445D01*
X97073402Y-151532701D01*
X97100500Y-151361611D01*
X97100500Y-150638389D01*
X97073402Y-150467299D01*
X97027160Y-150324983D01*
X102649500Y-150324983D01*
X102649500Y-151675001D01*
X102649501Y-151675018D01*
X102660000Y-151777796D01*
X102660001Y-151777799D01*
X102715185Y-151944331D01*
X102715187Y-151944336D01*
X102738870Y-151982732D01*
X102807288Y-152093656D01*
X102931344Y-152217712D01*
X103080666Y-152309814D01*
X103247203Y-152364999D01*
X103349991Y-152375500D01*
X104150008Y-152375499D01*
X104150016Y-152375498D01*
X104150019Y-152375498D01*
X104206302Y-152369748D01*
X104252797Y-152364999D01*
X104419334Y-152309814D01*
X104568656Y-152217712D01*
X104692712Y-152093656D01*
X104732310Y-152029456D01*
X104784258Y-151982732D01*
X104853220Y-151971509D01*
X104917303Y-151999352D01*
X104925530Y-152006872D01*
X105033072Y-152114414D01*
X105173212Y-152216232D01*
X105327555Y-152294873D01*
X105492299Y-152348402D01*
X105663389Y-152375500D01*
X105663390Y-152375500D01*
X105836610Y-152375500D01*
X105836611Y-152375500D01*
X106007701Y-152348402D01*
X106172445Y-152294873D01*
X106326788Y-152216232D01*
X106466928Y-152114414D01*
X106589414Y-151991928D01*
X106649682Y-151908975D01*
X106705012Y-151866311D01*
X106774626Y-151860332D01*
X106836421Y-151892938D01*
X106850315Y-151908973D01*
X106910586Y-151991928D01*
X107033072Y-152114414D01*
X107173212Y-152216232D01*
X107327555Y-152294873D01*
X107492299Y-152348402D01*
X107663389Y-152375500D01*
X107663390Y-152375500D01*
X107836610Y-152375500D01*
X107836611Y-152375500D01*
X108007701Y-152348402D01*
X108172445Y-152294873D01*
X108326788Y-152216232D01*
X108466928Y-152114414D01*
X108589414Y-151991928D01*
X108649682Y-151908975D01*
X108705012Y-151866311D01*
X108774626Y-151860332D01*
X108836421Y-151892938D01*
X108850315Y-151908973D01*
X108910586Y-151991928D01*
X109033072Y-152114414D01*
X109173212Y-152216232D01*
X109327555Y-152294873D01*
X109492299Y-152348402D01*
X109663389Y-152375500D01*
X109663390Y-152375500D01*
X109836610Y-152375500D01*
X109836611Y-152375500D01*
X110007701Y-152348402D01*
X110172445Y-152294873D01*
X110326788Y-152216232D01*
X110466928Y-152114414D01*
X110589414Y-151991928D01*
X110691232Y-151851788D01*
X110769873Y-151697445D01*
X110823402Y-151532701D01*
X110850500Y-151361611D01*
X110850500Y-150638389D01*
X110823402Y-150467299D01*
X110769873Y-150302555D01*
X110691232Y-150148212D01*
X110589414Y-150008072D01*
X110466928Y-149885586D01*
X110326788Y-149783768D01*
X110172445Y-149705127D01*
X110007701Y-149651598D01*
X110007699Y-149651597D01*
X110007698Y-149651597D01*
X109876271Y-149630781D01*
X109836611Y-149624500D01*
X109663389Y-149624500D01*
X109623728Y-149630781D01*
X109492302Y-149651597D01*
X109327552Y-149705128D01*
X109173211Y-149783768D01*
X109093256Y-149841859D01*
X109033072Y-149885586D01*
X109033070Y-149885588D01*
X109033069Y-149885588D01*
X108910588Y-150008069D01*
X108910581Y-150008078D01*
X108850317Y-150091023D01*
X108794987Y-150133689D01*
X108725374Y-150139667D01*
X108663579Y-150107061D01*
X108649683Y-150091023D01*
X108589418Y-150008078D01*
X108589414Y-150008072D01*
X108466928Y-149885586D01*
X108326788Y-149783768D01*
X108172445Y-149705127D01*
X108007701Y-149651598D01*
X108007699Y-149651597D01*
X108007698Y-149651597D01*
X107876271Y-149630781D01*
X107836611Y-149624500D01*
X107663389Y-149624500D01*
X107623728Y-149630781D01*
X107492302Y-149651597D01*
X107327552Y-149705128D01*
X107173211Y-149783768D01*
X107093256Y-149841859D01*
X107033072Y-149885586D01*
X107033070Y-149885588D01*
X107033069Y-149885588D01*
X106910588Y-150008069D01*
X106910581Y-150008078D01*
X106850317Y-150091023D01*
X106794987Y-150133689D01*
X106725374Y-150139667D01*
X106663579Y-150107061D01*
X106649683Y-150091023D01*
X106589418Y-150008078D01*
X106589414Y-150008072D01*
X106466928Y-149885586D01*
X106326788Y-149783768D01*
X106172445Y-149705127D01*
X106007701Y-149651598D01*
X106007699Y-149651597D01*
X106007698Y-149651597D01*
X105876271Y-149630781D01*
X105836611Y-149624500D01*
X105663389Y-149624500D01*
X105623728Y-149630781D01*
X105492302Y-149651597D01*
X105327552Y-149705128D01*
X105173211Y-149783768D01*
X105033073Y-149885585D01*
X104925530Y-149993128D01*
X104864207Y-150026612D01*
X104794515Y-150021628D01*
X104738582Y-149979756D01*
X104732310Y-149970543D01*
X104692712Y-149906344D01*
X104568656Y-149782288D01*
X104443559Y-149705128D01*
X104419336Y-149690187D01*
X104419331Y-149690185D01*
X104417862Y-149689698D01*
X104252797Y-149635001D01*
X104252795Y-149635000D01*
X104150010Y-149624500D01*
X103349998Y-149624500D01*
X103349980Y-149624501D01*
X103247203Y-149635000D01*
X103247200Y-149635001D01*
X103080668Y-149690185D01*
X103080663Y-149690187D01*
X102931342Y-149782289D01*
X102807289Y-149906342D01*
X102715187Y-150055663D01*
X102715186Y-150055666D01*
X102660001Y-150222203D01*
X102660001Y-150222204D01*
X102660000Y-150222204D01*
X102649500Y-150324983D01*
X97027160Y-150324983D01*
X97019873Y-150302555D01*
X96941232Y-150148212D01*
X96839414Y-150008072D01*
X96716928Y-149885586D01*
X96576788Y-149783768D01*
X96422445Y-149705127D01*
X96257701Y-149651598D01*
X96257699Y-149651597D01*
X96257698Y-149651597D01*
X96126271Y-149630781D01*
X96086611Y-149624500D01*
X95913389Y-149624500D01*
X95873728Y-149630781D01*
X95742302Y-149651597D01*
X95577552Y-149705128D01*
X95423211Y-149783768D01*
X95343256Y-149841859D01*
X95283072Y-149885586D01*
X95283070Y-149885588D01*
X95283069Y-149885588D01*
X95160588Y-150008069D01*
X95160581Y-150008078D01*
X95100317Y-150091023D01*
X95044987Y-150133689D01*
X94975374Y-150139667D01*
X94913579Y-150107061D01*
X94899683Y-150091023D01*
X94839418Y-150008078D01*
X94839414Y-150008072D01*
X94716928Y-149885586D01*
X94576788Y-149783768D01*
X94422445Y-149705127D01*
X94257701Y-149651598D01*
X94257699Y-149651597D01*
X94257698Y-149651597D01*
X94126271Y-149630781D01*
X94086611Y-149624500D01*
X93913389Y-149624500D01*
X93873728Y-149630781D01*
X93742302Y-149651597D01*
X93577552Y-149705128D01*
X93423211Y-149783768D01*
X93343256Y-149841859D01*
X93283072Y-149885586D01*
X93283070Y-149885588D01*
X93283069Y-149885588D01*
X93160588Y-150008069D01*
X93160581Y-150008078D01*
X93100317Y-150091023D01*
X93044987Y-150133689D01*
X92975374Y-150139667D01*
X92913579Y-150107061D01*
X92899683Y-150091023D01*
X92839418Y-150008078D01*
X92839414Y-150008072D01*
X92716928Y-149885586D01*
X92576788Y-149783768D01*
X92422445Y-149705127D01*
X92257701Y-149651598D01*
X92257699Y-149651597D01*
X92257698Y-149651597D01*
X92126271Y-149630781D01*
X92086611Y-149624500D01*
X91913389Y-149624500D01*
X91873728Y-149630781D01*
X91742302Y-149651597D01*
X91577552Y-149705128D01*
X91423211Y-149783768D01*
X91283073Y-149885585D01*
X91175530Y-149993128D01*
X91114207Y-150026612D01*
X91044515Y-150021628D01*
X90988582Y-149979756D01*
X90982310Y-149970543D01*
X90942712Y-149906344D01*
X90818656Y-149782288D01*
X90693559Y-149705128D01*
X90669336Y-149690187D01*
X90669331Y-149690185D01*
X90667862Y-149689698D01*
X90502797Y-149635001D01*
X90502795Y-149635000D01*
X90400010Y-149624500D01*
X89599998Y-149624500D01*
X89599980Y-149624501D01*
X89497203Y-149635000D01*
X89497200Y-149635001D01*
X89330668Y-149690185D01*
X89330663Y-149690187D01*
X89181342Y-149782289D01*
X89057289Y-149906342D01*
X88965187Y-150055663D01*
X88965186Y-150055666D01*
X88910001Y-150222203D01*
X88910001Y-150222204D01*
X88910000Y-150222204D01*
X88899500Y-150324983D01*
X83277160Y-150324983D01*
X83269873Y-150302555D01*
X83191232Y-150148212D01*
X83089414Y-150008072D01*
X82966928Y-149885586D01*
X82826788Y-149783768D01*
X82672445Y-149705127D01*
X82507701Y-149651598D01*
X82507699Y-149651597D01*
X82507698Y-149651597D01*
X82376271Y-149630781D01*
X82336611Y-149624500D01*
X82163389Y-149624500D01*
X82123728Y-149630781D01*
X81992302Y-149651597D01*
X81827552Y-149705128D01*
X81673211Y-149783768D01*
X81593256Y-149841859D01*
X81533072Y-149885586D01*
X81533070Y-149885588D01*
X81533069Y-149885588D01*
X81410588Y-150008069D01*
X81410581Y-150008078D01*
X81350317Y-150091023D01*
X81294987Y-150133689D01*
X81225374Y-150139667D01*
X81163579Y-150107061D01*
X81149683Y-150091023D01*
X81089418Y-150008078D01*
X81089414Y-150008072D01*
X80966928Y-149885586D01*
X80826788Y-149783768D01*
X80672445Y-149705127D01*
X80507701Y-149651598D01*
X80507699Y-149651597D01*
X80507698Y-149651597D01*
X80376271Y-149630781D01*
X80336611Y-149624500D01*
X80163389Y-149624500D01*
X80123728Y-149630781D01*
X79992302Y-149651597D01*
X79827552Y-149705128D01*
X79673211Y-149783768D01*
X79593256Y-149841859D01*
X79533072Y-149885586D01*
X79533070Y-149885588D01*
X79533069Y-149885588D01*
X79410588Y-150008069D01*
X79410581Y-150008078D01*
X79350317Y-150091023D01*
X79294987Y-150133689D01*
X79225374Y-150139667D01*
X79163579Y-150107061D01*
X79149683Y-150091023D01*
X79089418Y-150008078D01*
X79089414Y-150008072D01*
X78966928Y-149885586D01*
X78826788Y-149783768D01*
X78672445Y-149705127D01*
X78507701Y-149651598D01*
X78507699Y-149651597D01*
X78507698Y-149651597D01*
X78376271Y-149630781D01*
X78336611Y-149624500D01*
X78163389Y-149624500D01*
X78123728Y-149630781D01*
X77992302Y-149651597D01*
X77827552Y-149705128D01*
X77673211Y-149783768D01*
X77533073Y-149885585D01*
X77425530Y-149993128D01*
X77364207Y-150026612D01*
X77294515Y-150021628D01*
X77238582Y-149979756D01*
X77232310Y-149970543D01*
X77192712Y-149906344D01*
X77068656Y-149782288D01*
X76943559Y-149705128D01*
X76919336Y-149690187D01*
X76919331Y-149690185D01*
X76917862Y-149689698D01*
X76752797Y-149635001D01*
X76752795Y-149635000D01*
X76650010Y-149624500D01*
X75849998Y-149624500D01*
X75849980Y-149624501D01*
X75747203Y-149635000D01*
X75747200Y-149635001D01*
X75580668Y-149690185D01*
X75580663Y-149690187D01*
X75431342Y-149782289D01*
X75307289Y-149906342D01*
X75215187Y-150055663D01*
X75215186Y-150055666D01*
X75160001Y-150222203D01*
X75160001Y-150222204D01*
X75160000Y-150222204D01*
X75149500Y-150324983D01*
X60550188Y-150324983D01*
X60536152Y-150003484D01*
X60536034Y-149998075D01*
X60536034Y-149926274D01*
X60535984Y-149925545D01*
X60533819Y-146573920D01*
X75499499Y-146573920D01*
X75528340Y-146718907D01*
X75528343Y-146718917D01*
X75584912Y-146855488D01*
X75584919Y-146855501D01*
X75667048Y-146978415D01*
X75667051Y-146978419D01*
X75771580Y-147082948D01*
X75771584Y-147082951D01*
X75894498Y-147165080D01*
X75894511Y-147165087D01*
X76031082Y-147221656D01*
X76031087Y-147221658D01*
X76031091Y-147221658D01*
X76031092Y-147221659D01*
X76176079Y-147250500D01*
X76176082Y-147250500D01*
X76323920Y-147250500D01*
X76434944Y-147228415D01*
X76468913Y-147221658D01*
X76605495Y-147165084D01*
X76728416Y-147082951D01*
X76832951Y-146978416D01*
X76896898Y-146882713D01*
X76950510Y-146837908D01*
X77019835Y-146829201D01*
X77082862Y-146859355D01*
X77103102Y-146882713D01*
X77167048Y-146978415D01*
X77167051Y-146978419D01*
X77271580Y-147082948D01*
X77271584Y-147082951D01*
X77394498Y-147165080D01*
X77394511Y-147165087D01*
X77531082Y-147221656D01*
X77531087Y-147221658D01*
X77531091Y-147221658D01*
X77531092Y-147221659D01*
X77676079Y-147250500D01*
X77676082Y-147250500D01*
X77823920Y-147250500D01*
X77934944Y-147228415D01*
X77968913Y-147221658D01*
X78105495Y-147165084D01*
X78228416Y-147082951D01*
X78332951Y-146978416D01*
X78415084Y-146855495D01*
X78471658Y-146718913D01*
X78494220Y-146605488D01*
X78500500Y-146573920D01*
X79749499Y-146573920D01*
X79778340Y-146718907D01*
X79778343Y-146718917D01*
X79834912Y-146855488D01*
X79834919Y-146855501D01*
X79917048Y-146978415D01*
X79917051Y-146978419D01*
X80021580Y-147082948D01*
X80021584Y-147082951D01*
X80144498Y-147165080D01*
X80144511Y-147165087D01*
X80281082Y-147221656D01*
X80281087Y-147221658D01*
X80281091Y-147221658D01*
X80281092Y-147221659D01*
X80426079Y-147250500D01*
X80426082Y-147250500D01*
X80573920Y-147250500D01*
X80684944Y-147228415D01*
X80718913Y-147221658D01*
X80855495Y-147165084D01*
X80978416Y-147082951D01*
X81082951Y-146978416D01*
X81165084Y-146855495D01*
X81221658Y-146718913D01*
X81244220Y-146605488D01*
X81250500Y-146573920D01*
X82749499Y-146573920D01*
X82778340Y-146718907D01*
X82778343Y-146718917D01*
X82834912Y-146855488D01*
X82834919Y-146855501D01*
X82917048Y-146978415D01*
X82917051Y-146978419D01*
X83021580Y-147082948D01*
X83021584Y-147082951D01*
X83144498Y-147165080D01*
X83144511Y-147165087D01*
X83281082Y-147221656D01*
X83281087Y-147221658D01*
X83281091Y-147221658D01*
X83281092Y-147221659D01*
X83426079Y-147250500D01*
X83426082Y-147250500D01*
X83573920Y-147250500D01*
X83684944Y-147228415D01*
X83718913Y-147221658D01*
X83855495Y-147165084D01*
X83978416Y-147082951D01*
X84082951Y-146978416D01*
X84165084Y-146855495D01*
X84178163Y-146823920D01*
X89499499Y-146823920D01*
X89528340Y-146968907D01*
X89528343Y-146968917D01*
X89584912Y-147105488D01*
X89584919Y-147105501D01*
X89667048Y-147228415D01*
X89667051Y-147228419D01*
X89771580Y-147332948D01*
X89771584Y-147332951D01*
X89894498Y-147415080D01*
X89894511Y-147415087D01*
X90031082Y-147471656D01*
X90031087Y-147471658D01*
X90031091Y-147471658D01*
X90031092Y-147471659D01*
X90176079Y-147500500D01*
X90176082Y-147500500D01*
X90323920Y-147500500D01*
X90421462Y-147481096D01*
X90468913Y-147471658D01*
X90605495Y-147415084D01*
X90681111Y-147364559D01*
X90747786Y-147343682D01*
X90815166Y-147362166D01*
X90818848Y-147364531D01*
X90894505Y-147415084D01*
X90894507Y-147415085D01*
X90894511Y-147415087D01*
X91031082Y-147471656D01*
X91031087Y-147471658D01*
X91031091Y-147471658D01*
X91031092Y-147471659D01*
X91176079Y-147500500D01*
X91176082Y-147500500D01*
X91323920Y-147500500D01*
X91421462Y-147481096D01*
X91468913Y-147471658D01*
X91605495Y-147415084D01*
X91728416Y-147332951D01*
X91832951Y-147228416D01*
X91915084Y-147105495D01*
X91971658Y-146968913D01*
X91997717Y-146837908D01*
X92000500Y-146823920D01*
X93499499Y-146823920D01*
X93528340Y-146968907D01*
X93528343Y-146968917D01*
X93584912Y-147105488D01*
X93584919Y-147105501D01*
X93667048Y-147228415D01*
X93667051Y-147228419D01*
X93771580Y-147332948D01*
X93771584Y-147332951D01*
X93894498Y-147415080D01*
X93894511Y-147415087D01*
X94031082Y-147471656D01*
X94031087Y-147471658D01*
X94031091Y-147471658D01*
X94031092Y-147471659D01*
X94176079Y-147500500D01*
X94176082Y-147500500D01*
X94323920Y-147500500D01*
X94421462Y-147481096D01*
X94468913Y-147471658D01*
X94605495Y-147415084D01*
X94728416Y-147332951D01*
X94832951Y-147228416D01*
X94915084Y-147105495D01*
X94971658Y-146968913D01*
X94997717Y-146837908D01*
X95000500Y-146823920D01*
X96499499Y-146823920D01*
X96528340Y-146968907D01*
X96528343Y-146968917D01*
X96584912Y-147105488D01*
X96584919Y-147105501D01*
X96667048Y-147228415D01*
X96667051Y-147228419D01*
X96771580Y-147332948D01*
X96771584Y-147332951D01*
X96894498Y-147415080D01*
X96894511Y-147415087D01*
X97031082Y-147471656D01*
X97031087Y-147471658D01*
X97031091Y-147471658D01*
X97031092Y-147471659D01*
X97176079Y-147500500D01*
X97176082Y-147500500D01*
X97323920Y-147500500D01*
X97421462Y-147481096D01*
X97468913Y-147471658D01*
X97605495Y-147415084D01*
X97728416Y-147332951D01*
X97832951Y-147228416D01*
X97915084Y-147105495D01*
X97971658Y-146968913D01*
X97997717Y-146837908D01*
X98000500Y-146823920D01*
X98000500Y-146676079D01*
X97971659Y-146531092D01*
X97971658Y-146531091D01*
X97971658Y-146531087D01*
X97971656Y-146531082D01*
X97915087Y-146394511D01*
X97915080Y-146394498D01*
X97867921Y-146323920D01*
X102999499Y-146323920D01*
X103028340Y-146468907D01*
X103028343Y-146468917D01*
X103084912Y-146605488D01*
X103084919Y-146605501D01*
X103167048Y-146728415D01*
X103167051Y-146728419D01*
X103271580Y-146832948D01*
X103271584Y-146832951D01*
X103394498Y-146915080D01*
X103394511Y-146915087D01*
X103531082Y-146971656D01*
X103531087Y-146971658D01*
X103531091Y-146971658D01*
X103531092Y-146971659D01*
X103676079Y-147000500D01*
X103676082Y-147000500D01*
X103823920Y-147000500D01*
X103934944Y-146978415D01*
X103968913Y-146971658D01*
X104105495Y-146915084D01*
X104228416Y-146832951D01*
X104332951Y-146728416D01*
X104415084Y-146605495D01*
X104471658Y-146468913D01*
X104486459Y-146394505D01*
X104500500Y-146323920D01*
X105749499Y-146323920D01*
X105778340Y-146468907D01*
X105778343Y-146468917D01*
X105834912Y-146605488D01*
X105834919Y-146605501D01*
X105917048Y-146728415D01*
X105917051Y-146728419D01*
X106021580Y-146832948D01*
X106021584Y-146832951D01*
X106144498Y-146915080D01*
X106144511Y-146915087D01*
X106281082Y-146971656D01*
X106281087Y-146971658D01*
X106281091Y-146971658D01*
X106281092Y-146971659D01*
X106426079Y-147000500D01*
X106426082Y-147000500D01*
X106573920Y-147000500D01*
X106684944Y-146978415D01*
X106718913Y-146971658D01*
X106855495Y-146915084D01*
X106978416Y-146832951D01*
X107082951Y-146728416D01*
X107165084Y-146605495D01*
X107221658Y-146468913D01*
X107236459Y-146394505D01*
X107250500Y-146323920D01*
X107499499Y-146323920D01*
X107528340Y-146468907D01*
X107528343Y-146468917D01*
X107584912Y-146605488D01*
X107584919Y-146605501D01*
X107667048Y-146728415D01*
X107667051Y-146728419D01*
X107771580Y-146832948D01*
X107771584Y-146832951D01*
X107894498Y-146915080D01*
X107894511Y-146915087D01*
X108031082Y-146971656D01*
X108031087Y-146971658D01*
X108031091Y-146971658D01*
X108031092Y-146971659D01*
X108176079Y-147000500D01*
X108176082Y-147000500D01*
X108323920Y-147000500D01*
X108434944Y-146978415D01*
X108468913Y-146971658D01*
X108605495Y-146915084D01*
X108728416Y-146832951D01*
X108832951Y-146728416D01*
X108915084Y-146605495D01*
X108971658Y-146468913D01*
X108986459Y-146394505D01*
X109000500Y-146323920D01*
X110249499Y-146323920D01*
X110278340Y-146468907D01*
X110278343Y-146468917D01*
X110334912Y-146605488D01*
X110334919Y-146605501D01*
X110417048Y-146728415D01*
X110417051Y-146728419D01*
X110521580Y-146832948D01*
X110521584Y-146832951D01*
X110644498Y-146915080D01*
X110644511Y-146915087D01*
X110781082Y-146971656D01*
X110781087Y-146971658D01*
X110781091Y-146971658D01*
X110781092Y-146971659D01*
X110926079Y-147000500D01*
X110926082Y-147000500D01*
X111073920Y-147000500D01*
X111184944Y-146978415D01*
X111218913Y-146971658D01*
X111355495Y-146915084D01*
X111478416Y-146832951D01*
X111582951Y-146728416D01*
X111665084Y-146605495D01*
X111721658Y-146468913D01*
X111736459Y-146394505D01*
X111750500Y-146323920D01*
X111750500Y-146176079D01*
X111721659Y-146031092D01*
X111721658Y-146031091D01*
X111721658Y-146031087D01*
X111674422Y-145917048D01*
X111665087Y-145894511D01*
X111665080Y-145894498D01*
X111582951Y-145771584D01*
X111582948Y-145771580D01*
X111478419Y-145667051D01*
X111478415Y-145667048D01*
X111355501Y-145584919D01*
X111355488Y-145584912D01*
X111218917Y-145528343D01*
X111218907Y-145528340D01*
X111073920Y-145499500D01*
X111073918Y-145499500D01*
X110926082Y-145499500D01*
X110926080Y-145499500D01*
X110781092Y-145528340D01*
X110781082Y-145528343D01*
X110644511Y-145584912D01*
X110644498Y-145584919D01*
X110521584Y-145667048D01*
X110521580Y-145667051D01*
X110417051Y-145771580D01*
X110417048Y-145771584D01*
X110334919Y-145894498D01*
X110334912Y-145894511D01*
X110278343Y-146031082D01*
X110278340Y-146031092D01*
X110249500Y-146176079D01*
X110249500Y-146176082D01*
X110249500Y-146323918D01*
X110249500Y-146323920D01*
X110249499Y-146323920D01*
X109000500Y-146323920D01*
X109000500Y-146176079D01*
X108971659Y-146031092D01*
X108971658Y-146031091D01*
X108971658Y-146031087D01*
X108924422Y-145917048D01*
X108915087Y-145894511D01*
X108915080Y-145894498D01*
X108832951Y-145771584D01*
X108832948Y-145771580D01*
X108728419Y-145667051D01*
X108728415Y-145667048D01*
X108605501Y-145584919D01*
X108605488Y-145584912D01*
X108468917Y-145528343D01*
X108468907Y-145528340D01*
X108323920Y-145499500D01*
X108323918Y-145499500D01*
X108176082Y-145499500D01*
X108176080Y-145499500D01*
X108031092Y-145528340D01*
X108031082Y-145528343D01*
X107894511Y-145584912D01*
X107894498Y-145584919D01*
X107771584Y-145667048D01*
X107771580Y-145667051D01*
X107667051Y-145771580D01*
X107667048Y-145771584D01*
X107584919Y-145894498D01*
X107584912Y-145894511D01*
X107528343Y-146031082D01*
X107528340Y-146031092D01*
X107499500Y-146176079D01*
X107499500Y-146176082D01*
X107499500Y-146323918D01*
X107499500Y-146323920D01*
X107499499Y-146323920D01*
X107250500Y-146323920D01*
X107250500Y-146176079D01*
X107221659Y-146031092D01*
X107221658Y-146031091D01*
X107221658Y-146031087D01*
X107174422Y-145917048D01*
X107165087Y-145894511D01*
X107165080Y-145894498D01*
X107082951Y-145771584D01*
X107082948Y-145771580D01*
X106978419Y-145667051D01*
X106978415Y-145667048D01*
X106855501Y-145584919D01*
X106855488Y-145584912D01*
X106718917Y-145528343D01*
X106718907Y-145528340D01*
X106573920Y-145499500D01*
X106573918Y-145499500D01*
X106426082Y-145499500D01*
X106426080Y-145499500D01*
X106281092Y-145528340D01*
X106281082Y-145528343D01*
X106144511Y-145584912D01*
X106144498Y-145584919D01*
X106021584Y-145667048D01*
X106021580Y-145667051D01*
X105917051Y-145771580D01*
X105917048Y-145771584D01*
X105834919Y-145894498D01*
X105834912Y-145894511D01*
X105778343Y-146031082D01*
X105778340Y-146031092D01*
X105749500Y-146176079D01*
X105749500Y-146176082D01*
X105749500Y-146323918D01*
X105749500Y-146323920D01*
X105749499Y-146323920D01*
X104500500Y-146323920D01*
X104500500Y-146176079D01*
X104471659Y-146031092D01*
X104471658Y-146031091D01*
X104471658Y-146031087D01*
X104424422Y-145917048D01*
X104415087Y-145894511D01*
X104415080Y-145894498D01*
X104332951Y-145771584D01*
X104332948Y-145771580D01*
X104228419Y-145667051D01*
X104228415Y-145667048D01*
X104105501Y-145584919D01*
X104105488Y-145584912D01*
X103968917Y-145528343D01*
X103968907Y-145528340D01*
X103823920Y-145499500D01*
X103823918Y-145499500D01*
X103676082Y-145499500D01*
X103676080Y-145499500D01*
X103531092Y-145528340D01*
X103531082Y-145528343D01*
X103394511Y-145584912D01*
X103394498Y-145584919D01*
X103271584Y-145667048D01*
X103271580Y-145667051D01*
X103167051Y-145771580D01*
X103167048Y-145771584D01*
X103084919Y-145894498D01*
X103084912Y-145894511D01*
X103028343Y-146031082D01*
X103028340Y-146031092D01*
X102999500Y-146176079D01*
X102999500Y-146176082D01*
X102999500Y-146323918D01*
X102999500Y-146323920D01*
X102999499Y-146323920D01*
X97867921Y-146323920D01*
X97832951Y-146271584D01*
X97832948Y-146271580D01*
X97728419Y-146167051D01*
X97728415Y-146167048D01*
X97605501Y-146084919D01*
X97605488Y-146084912D01*
X97468917Y-146028343D01*
X97468907Y-146028340D01*
X97323920Y-145999500D01*
X97323918Y-145999500D01*
X97176082Y-145999500D01*
X97176080Y-145999500D01*
X97031092Y-146028340D01*
X97031082Y-146028343D01*
X96894511Y-146084912D01*
X96894498Y-146084919D01*
X96771584Y-146167048D01*
X96771580Y-146167051D01*
X96667051Y-146271580D01*
X96667048Y-146271584D01*
X96584919Y-146394498D01*
X96584912Y-146394511D01*
X96528343Y-146531082D01*
X96528340Y-146531092D01*
X96499500Y-146676079D01*
X96499500Y-146676082D01*
X96499500Y-146823918D01*
X96499500Y-146823920D01*
X96499499Y-146823920D01*
X95000500Y-146823920D01*
X95000500Y-146676079D01*
X94971659Y-146531092D01*
X94971658Y-146531091D01*
X94971658Y-146531087D01*
X94971656Y-146531082D01*
X94915087Y-146394511D01*
X94915080Y-146394498D01*
X94832951Y-146271584D01*
X94832948Y-146271580D01*
X94728419Y-146167051D01*
X94728415Y-146167048D01*
X94605501Y-146084919D01*
X94605488Y-146084912D01*
X94468917Y-146028343D01*
X94468907Y-146028340D01*
X94323920Y-145999500D01*
X94323918Y-145999500D01*
X94176082Y-145999500D01*
X94176080Y-145999500D01*
X94031092Y-146028340D01*
X94031082Y-146028343D01*
X93894511Y-146084912D01*
X93894498Y-146084919D01*
X93771584Y-146167048D01*
X93771580Y-146167051D01*
X93667051Y-146271580D01*
X93667048Y-146271584D01*
X93584919Y-146394498D01*
X93584912Y-146394511D01*
X93528343Y-146531082D01*
X93528340Y-146531092D01*
X93499500Y-146676079D01*
X93499500Y-146676082D01*
X93499500Y-146823918D01*
X93499500Y-146823920D01*
X93499499Y-146823920D01*
X92000500Y-146823920D01*
X92000500Y-146676079D01*
X91971659Y-146531092D01*
X91971658Y-146531091D01*
X91971658Y-146531087D01*
X91971656Y-146531082D01*
X91915087Y-146394511D01*
X91915080Y-146394498D01*
X91832951Y-146271584D01*
X91832948Y-146271580D01*
X91728419Y-146167051D01*
X91728415Y-146167048D01*
X91605501Y-146084919D01*
X91605488Y-146084912D01*
X91468917Y-146028343D01*
X91468907Y-146028340D01*
X91323920Y-145999500D01*
X91323918Y-145999500D01*
X91176082Y-145999500D01*
X91176080Y-145999500D01*
X91031092Y-146028340D01*
X91031082Y-146028343D01*
X90894511Y-146084912D01*
X90894498Y-146084919D01*
X90818891Y-146135439D01*
X90752213Y-146156317D01*
X90684833Y-146137832D01*
X90681109Y-146135439D01*
X90605501Y-146084919D01*
X90605488Y-146084912D01*
X90468917Y-146028343D01*
X90468907Y-146028340D01*
X90323920Y-145999500D01*
X90323918Y-145999500D01*
X90176082Y-145999500D01*
X90176080Y-145999500D01*
X90031092Y-146028340D01*
X90031082Y-146028343D01*
X89894511Y-146084912D01*
X89894498Y-146084919D01*
X89771584Y-146167048D01*
X89771580Y-146167051D01*
X89667051Y-146271580D01*
X89667048Y-146271584D01*
X89584919Y-146394498D01*
X89584912Y-146394511D01*
X89528343Y-146531082D01*
X89528340Y-146531092D01*
X89499500Y-146676079D01*
X89499500Y-146676082D01*
X89499500Y-146823918D01*
X89499500Y-146823920D01*
X89499499Y-146823920D01*
X84178163Y-146823920D01*
X84221658Y-146718913D01*
X84244220Y-146605488D01*
X84250500Y-146573920D01*
X84250500Y-146426079D01*
X84221659Y-146281092D01*
X84221658Y-146281091D01*
X84221658Y-146281087D01*
X84217720Y-146271580D01*
X84165087Y-146144511D01*
X84165080Y-146144498D01*
X84082951Y-146021584D01*
X84082948Y-146021580D01*
X83978419Y-145917051D01*
X83978415Y-145917048D01*
X83855501Y-145834919D01*
X83855488Y-145834912D01*
X83718917Y-145778343D01*
X83718907Y-145778340D01*
X83573920Y-145749500D01*
X83573918Y-145749500D01*
X83426082Y-145749500D01*
X83426080Y-145749500D01*
X83281092Y-145778340D01*
X83281082Y-145778343D01*
X83144511Y-145834912D01*
X83144498Y-145834919D01*
X83021584Y-145917048D01*
X83021580Y-145917051D01*
X82917051Y-146021580D01*
X82917048Y-146021584D01*
X82834919Y-146144498D01*
X82834912Y-146144511D01*
X82778343Y-146281082D01*
X82778340Y-146281092D01*
X82749500Y-146426079D01*
X82749500Y-146426082D01*
X82749500Y-146573918D01*
X82749500Y-146573920D01*
X82749499Y-146573920D01*
X81250500Y-146573920D01*
X81250500Y-146426079D01*
X81221659Y-146281092D01*
X81221658Y-146281091D01*
X81221658Y-146281087D01*
X81217720Y-146271580D01*
X81165087Y-146144511D01*
X81165080Y-146144498D01*
X81082951Y-146021584D01*
X81082948Y-146021580D01*
X80978419Y-145917051D01*
X80978415Y-145917048D01*
X80855501Y-145834919D01*
X80855488Y-145834912D01*
X80718917Y-145778343D01*
X80718907Y-145778340D01*
X80573920Y-145749500D01*
X80573918Y-145749500D01*
X80426082Y-145749500D01*
X80426080Y-145749500D01*
X80281092Y-145778340D01*
X80281082Y-145778343D01*
X80144511Y-145834912D01*
X80144498Y-145834919D01*
X80021584Y-145917048D01*
X80021580Y-145917051D01*
X79917051Y-146021580D01*
X79917048Y-146021584D01*
X79834919Y-146144498D01*
X79834912Y-146144511D01*
X79778343Y-146281082D01*
X79778340Y-146281092D01*
X79749500Y-146426079D01*
X79749500Y-146426082D01*
X79749500Y-146573918D01*
X79749500Y-146573920D01*
X79749499Y-146573920D01*
X78500500Y-146573920D01*
X78500500Y-146426079D01*
X78471659Y-146281092D01*
X78471658Y-146281091D01*
X78471658Y-146281087D01*
X78467720Y-146271580D01*
X78415087Y-146144511D01*
X78415080Y-146144498D01*
X78332951Y-146021584D01*
X78332948Y-146021580D01*
X78228419Y-145917051D01*
X78228415Y-145917048D01*
X78105501Y-145834919D01*
X78105488Y-145834912D01*
X77968917Y-145778343D01*
X77968907Y-145778340D01*
X77823920Y-145749500D01*
X77823918Y-145749500D01*
X77676082Y-145749500D01*
X77676080Y-145749500D01*
X77531092Y-145778340D01*
X77531082Y-145778343D01*
X77394511Y-145834912D01*
X77394498Y-145834919D01*
X77271584Y-145917048D01*
X77271580Y-145917051D01*
X77167051Y-146021580D01*
X77167048Y-146021584D01*
X77103102Y-146117286D01*
X77049489Y-146162091D01*
X76980164Y-146170798D01*
X76917137Y-146140643D01*
X76896898Y-146117286D01*
X76832951Y-146021584D01*
X76832948Y-146021580D01*
X76728419Y-145917051D01*
X76728415Y-145917048D01*
X76605501Y-145834919D01*
X76605488Y-145834912D01*
X76468917Y-145778343D01*
X76468907Y-145778340D01*
X76323920Y-145749500D01*
X76323918Y-145749500D01*
X76176082Y-145749500D01*
X76176080Y-145749500D01*
X76031092Y-145778340D01*
X76031082Y-145778343D01*
X75894511Y-145834912D01*
X75894498Y-145834919D01*
X75771584Y-145917048D01*
X75771580Y-145917051D01*
X75667051Y-146021580D01*
X75667048Y-146021584D01*
X75584919Y-146144498D01*
X75584912Y-146144511D01*
X75528343Y-146281082D01*
X75528340Y-146281092D01*
X75499500Y-146426079D01*
X75499500Y-146426082D01*
X75499500Y-146573918D01*
X75499500Y-146573920D01*
X75499499Y-146573920D01*
X60533819Y-146573920D01*
X60529458Y-139823920D01*
X75249499Y-139823920D01*
X75278340Y-139968907D01*
X75278343Y-139968917D01*
X75334912Y-140105488D01*
X75334919Y-140105501D01*
X75417048Y-140228415D01*
X75417051Y-140228419D01*
X75521580Y-140332948D01*
X75521584Y-140332951D01*
X75644498Y-140415080D01*
X75644511Y-140415087D01*
X75781082Y-140471656D01*
X75781087Y-140471658D01*
X75781091Y-140471658D01*
X75781092Y-140471659D01*
X75926079Y-140500500D01*
X75926082Y-140500500D01*
X76073920Y-140500500D01*
X76171462Y-140481096D01*
X76218913Y-140471658D01*
X76355495Y-140415084D01*
X76478416Y-140332951D01*
X76582951Y-140228416D01*
X76665084Y-140105495D01*
X76721658Y-139968913D01*
X76750500Y-139823918D01*
X76750500Y-139676082D01*
X76750500Y-139676079D01*
X76730178Y-139573920D01*
X92749499Y-139573920D01*
X92778340Y-139718907D01*
X92778343Y-139718917D01*
X92834912Y-139855488D01*
X92834919Y-139855501D01*
X92917048Y-139978415D01*
X92917051Y-139978419D01*
X93021580Y-140082948D01*
X93021584Y-140082951D01*
X93144498Y-140165080D01*
X93144511Y-140165087D01*
X93281082Y-140221656D01*
X93281087Y-140221658D01*
X93281091Y-140221658D01*
X93281092Y-140221659D01*
X93426079Y-140250500D01*
X93426082Y-140250500D01*
X93573920Y-140250500D01*
X93684944Y-140228415D01*
X93718913Y-140221658D01*
X93855495Y-140165084D01*
X93978416Y-140082951D01*
X94082951Y-139978416D01*
X94165084Y-139855495D01*
X94221658Y-139718913D01*
X94247561Y-139588693D01*
X94250500Y-139573920D01*
X94250500Y-139426080D01*
X94247561Y-139411304D01*
X111349500Y-139411304D01*
X111349500Y-139588695D01*
X111384103Y-139762658D01*
X111384106Y-139762667D01*
X111451983Y-139926540D01*
X111451990Y-139926553D01*
X111550535Y-140074034D01*
X111550538Y-140074038D01*
X111675961Y-140199461D01*
X111675965Y-140199464D01*
X111823446Y-140298009D01*
X111823459Y-140298016D01*
X111946363Y-140348923D01*
X111987334Y-140365894D01*
X111987336Y-140365894D01*
X111987341Y-140365896D01*
X112161304Y-140400499D01*
X112161307Y-140400500D01*
X112161309Y-140400500D01*
X112338693Y-140400500D01*
X112338694Y-140400499D01*
X112396682Y-140388964D01*
X112512658Y-140365896D01*
X112512661Y-140365894D01*
X112512666Y-140365894D01*
X112676547Y-140298013D01*
X112824035Y-140199464D01*
X112949464Y-140074035D01*
X113048013Y-139926547D01*
X113115894Y-139762666D01*
X113124597Y-139718917D01*
X113150499Y-139588695D01*
X113150500Y-139588693D01*
X113150500Y-139411306D01*
X113150499Y-139411304D01*
X113115896Y-139237341D01*
X113115893Y-139237332D01*
X113048016Y-139073459D01*
X113048009Y-139073446D01*
X112949464Y-138925965D01*
X112949461Y-138925961D01*
X112824038Y-138800538D01*
X112824034Y-138800535D01*
X112676553Y-138701990D01*
X112676540Y-138701983D01*
X112512667Y-138634106D01*
X112512658Y-138634103D01*
X112338694Y-138599500D01*
X112338691Y-138599500D01*
X112161309Y-138599500D01*
X112161306Y-138599500D01*
X111987341Y-138634103D01*
X111987332Y-138634106D01*
X111823459Y-138701983D01*
X111823446Y-138701990D01*
X111675965Y-138800535D01*
X111675961Y-138800538D01*
X111550538Y-138925961D01*
X111550535Y-138925965D01*
X111451990Y-139073446D01*
X111451983Y-139073459D01*
X111384106Y-139237332D01*
X111384103Y-139237341D01*
X111349500Y-139411304D01*
X94247561Y-139411304D01*
X94221659Y-139281092D01*
X94221658Y-139281091D01*
X94221658Y-139281087D01*
X94174422Y-139167048D01*
X94165087Y-139144511D01*
X94165080Y-139144498D01*
X94082951Y-139021584D01*
X94082948Y-139021580D01*
X93978419Y-138917051D01*
X93978415Y-138917048D01*
X93855501Y-138834919D01*
X93855488Y-138834912D01*
X93718917Y-138778343D01*
X93718907Y-138778340D01*
X93573920Y-138749500D01*
X93573918Y-138749500D01*
X93426082Y-138749500D01*
X93426080Y-138749500D01*
X93281092Y-138778340D01*
X93281082Y-138778343D01*
X93144511Y-138834912D01*
X93144498Y-138834919D01*
X93021584Y-138917048D01*
X93021580Y-138917051D01*
X92917051Y-139021580D01*
X92917048Y-139021584D01*
X92834919Y-139144498D01*
X92834912Y-139144511D01*
X92778343Y-139281082D01*
X92778340Y-139281092D01*
X92749500Y-139426079D01*
X92749500Y-139426080D01*
X92749500Y-139426082D01*
X92749500Y-139573918D01*
X92749500Y-139573920D01*
X92749499Y-139573920D01*
X76730178Y-139573920D01*
X76721659Y-139531092D01*
X76721658Y-139531091D01*
X76721658Y-139531087D01*
X76721656Y-139531082D01*
X76695296Y-139467442D01*
X76665085Y-139394507D01*
X76665080Y-139394498D01*
X76582951Y-139271584D01*
X76582948Y-139271580D01*
X76478419Y-139167051D01*
X76478415Y-139167048D01*
X76355501Y-139084919D01*
X76355488Y-139084912D01*
X76218917Y-139028343D01*
X76218907Y-139028340D01*
X76073920Y-138999500D01*
X76073918Y-138999500D01*
X75926082Y-138999500D01*
X75926080Y-138999500D01*
X75781092Y-139028340D01*
X75781082Y-139028343D01*
X75644511Y-139084912D01*
X75644498Y-139084919D01*
X75521584Y-139167048D01*
X75521580Y-139167051D01*
X75417051Y-139271580D01*
X75417048Y-139271584D01*
X75334919Y-139394498D01*
X75334912Y-139394511D01*
X75278343Y-139531082D01*
X75278340Y-139531092D01*
X75249500Y-139676079D01*
X75249500Y-139676082D01*
X75249500Y-139823918D01*
X75249500Y-139823920D01*
X75249499Y-139823920D01*
X60529458Y-139823920D01*
X60525711Y-134023263D01*
X75074549Y-134023263D01*
X75074549Y-134200654D01*
X75109152Y-134374617D01*
X75109155Y-134374626D01*
X75177032Y-134538499D01*
X75177039Y-134538512D01*
X75275584Y-134685993D01*
X75275587Y-134685997D01*
X75401010Y-134811420D01*
X75401014Y-134811423D01*
X75548495Y-134909968D01*
X75548508Y-134909975D01*
X75648664Y-134951460D01*
X75712383Y-134977853D01*
X75712385Y-134977853D01*
X75712390Y-134977855D01*
X75886353Y-135012458D01*
X75886356Y-135012459D01*
X75886358Y-135012459D01*
X76063742Y-135012459D01*
X76063743Y-135012458D01*
X76123862Y-135000500D01*
X76237707Y-134977855D01*
X76237710Y-134977853D01*
X76237715Y-134977853D01*
X76389247Y-134915087D01*
X76401589Y-134909975D01*
X76401589Y-134909974D01*
X76401596Y-134909972D01*
X76549084Y-134811423D01*
X76674513Y-134685994D01*
X76773062Y-134538506D01*
X76840943Y-134374625D01*
X76847693Y-134340694D01*
X76868620Y-134235483D01*
X76875549Y-134200650D01*
X76875549Y-134160267D01*
X77349502Y-134160267D01*
X77349502Y-134337658D01*
X77384105Y-134511621D01*
X77384108Y-134511630D01*
X77451985Y-134675503D01*
X77451992Y-134675516D01*
X77550537Y-134822997D01*
X77550540Y-134823001D01*
X77675963Y-134948424D01*
X77675967Y-134948427D01*
X77823448Y-135046972D01*
X77823461Y-135046979D01*
X77946365Y-135097886D01*
X77987336Y-135114857D01*
X77987338Y-135114857D01*
X77987343Y-135114859D01*
X78161306Y-135149462D01*
X78161309Y-135149463D01*
X78161311Y-135149463D01*
X78338695Y-135149463D01*
X78338696Y-135149462D01*
X78396684Y-135137927D01*
X78512660Y-135114859D01*
X78512663Y-135114857D01*
X78512668Y-135114857D01*
X78669212Y-135050015D01*
X78676542Y-135046979D01*
X78676542Y-135046978D01*
X78676549Y-135046976D01*
X78824037Y-134948427D01*
X78949466Y-134822998D01*
X79048015Y-134675510D01*
X79115896Y-134511629D01*
X79121960Y-134481147D01*
X79136946Y-134405804D01*
X92964660Y-134405804D01*
X92964660Y-134583195D01*
X92999263Y-134757158D01*
X92999266Y-134757167D01*
X93067143Y-134921040D01*
X93067150Y-134921053D01*
X93165695Y-135068534D01*
X93165698Y-135068538D01*
X93291121Y-135193961D01*
X93291125Y-135193964D01*
X93438606Y-135292509D01*
X93438619Y-135292516D01*
X93561523Y-135343423D01*
X93602494Y-135360394D01*
X93602496Y-135360394D01*
X93602501Y-135360396D01*
X93776464Y-135394999D01*
X93776467Y-135395000D01*
X93776469Y-135395000D01*
X93953853Y-135395000D01*
X93953854Y-135394999D01*
X94011842Y-135383464D01*
X94127818Y-135360396D01*
X94127821Y-135360394D01*
X94127826Y-135360394D01*
X94291707Y-135292513D01*
X94439195Y-135193964D01*
X94564624Y-135068535D01*
X94663173Y-134921047D01*
X94731054Y-134757166D01*
X94745211Y-134685997D01*
X94765659Y-134583195D01*
X94765660Y-134583193D01*
X94765660Y-134548186D01*
X94785345Y-134481147D01*
X94838149Y-134435392D01*
X94907307Y-134425448D01*
X94970863Y-134454473D01*
X95006373Y-134509188D01*
X95006740Y-134509037D01*
X95007560Y-134511018D01*
X95008319Y-134512187D01*
X95009069Y-134514661D01*
X95076948Y-134678539D01*
X95076955Y-134678552D01*
X95175500Y-134826033D01*
X95175503Y-134826037D01*
X95300926Y-134951460D01*
X95300930Y-134951463D01*
X95448411Y-135050008D01*
X95448424Y-135050015D01*
X95571328Y-135100922D01*
X95612299Y-135117893D01*
X95612301Y-135117893D01*
X95612306Y-135117895D01*
X95786269Y-135152498D01*
X95786272Y-135152499D01*
X95786274Y-135152499D01*
X95963658Y-135152499D01*
X95963659Y-135152498D01*
X96021647Y-135140963D01*
X96137623Y-135117895D01*
X96137626Y-135117893D01*
X96137631Y-135117893D01*
X96301512Y-135050012D01*
X96449000Y-134951463D01*
X96574429Y-134826034D01*
X96672978Y-134678546D01*
X96674239Y-134675503D01*
X96730981Y-134538512D01*
X96740859Y-134514665D01*
X96741465Y-134511621D01*
X96775464Y-134340694D01*
X96775465Y-134340692D01*
X96775465Y-134254656D01*
X111318763Y-134254656D01*
X111347604Y-134399643D01*
X111347607Y-134399653D01*
X111404176Y-134536224D01*
X111404183Y-134536237D01*
X111486312Y-134659151D01*
X111486315Y-134659155D01*
X111590844Y-134763684D01*
X111590848Y-134763687D01*
X111713762Y-134845816D01*
X111713775Y-134845823D01*
X111850346Y-134902392D01*
X111850351Y-134902394D01*
X111850355Y-134902394D01*
X111850356Y-134902395D01*
X111995343Y-134931236D01*
X111995346Y-134931236D01*
X112143184Y-134931236D01*
X112240726Y-134911832D01*
X112288177Y-134902394D01*
X112424759Y-134845820D01*
X112547680Y-134763687D01*
X112652215Y-134659152D01*
X112734348Y-134536231D01*
X112787970Y-134406774D01*
X112831808Y-134352375D01*
X112898102Y-134330309D01*
X112965801Y-134347588D01*
X113013412Y-134398724D01*
X113024146Y-134430036D01*
X113031879Y-134468910D01*
X113031881Y-134468917D01*
X113088450Y-134605488D01*
X113088457Y-134605501D01*
X113170586Y-134728415D01*
X113170589Y-134728419D01*
X113275118Y-134832948D01*
X113275122Y-134832951D01*
X113398036Y-134915080D01*
X113398049Y-134915087D01*
X113534620Y-134971656D01*
X113534625Y-134971658D01*
X113534629Y-134971658D01*
X113534630Y-134971659D01*
X113679617Y-135000500D01*
X113679620Y-135000500D01*
X113827458Y-135000500D01*
X113941312Y-134977852D01*
X113972451Y-134971658D01*
X114109033Y-134915084D01*
X114231954Y-134832951D01*
X114336489Y-134728416D01*
X114418622Y-134605495D01*
X114475196Y-134468913D01*
X114487556Y-134406779D01*
X114504038Y-134323920D01*
X114504038Y-134176079D01*
X114475197Y-134031092D01*
X114475196Y-134031091D01*
X114475196Y-134031087D01*
X114457900Y-133989331D01*
X114418625Y-133894511D01*
X114418618Y-133894498D01*
X114336489Y-133771584D01*
X114336486Y-133771580D01*
X114231957Y-133667051D01*
X114231953Y-133667048D01*
X114109039Y-133584919D01*
X114109026Y-133584912D01*
X113972455Y-133528343D01*
X113972445Y-133528340D01*
X113827458Y-133499500D01*
X113827456Y-133499500D01*
X113679620Y-133499500D01*
X113679618Y-133499500D01*
X113534630Y-133528340D01*
X113534620Y-133528343D01*
X113398049Y-133584912D01*
X113398036Y-133584919D01*
X113275122Y-133667048D01*
X113275118Y-133667051D01*
X113170589Y-133771580D01*
X113170586Y-133771584D01*
X113088457Y-133894498D01*
X113088450Y-133894511D01*
X113034833Y-134023957D01*
X112990992Y-134078361D01*
X112924698Y-134100426D01*
X112856999Y-134083147D01*
X112809388Y-134032010D01*
X112798655Y-134000697D01*
X112790923Y-133961828D01*
X112790922Y-133961827D01*
X112790922Y-133961823D01*
X112773791Y-133920465D01*
X112734351Y-133825247D01*
X112734344Y-133825234D01*
X112652215Y-133702320D01*
X112652212Y-133702316D01*
X112547683Y-133597787D01*
X112547679Y-133597784D01*
X112424765Y-133515655D01*
X112424752Y-133515648D01*
X112288181Y-133459079D01*
X112288171Y-133459076D01*
X112143184Y-133430236D01*
X112143182Y-133430236D01*
X111995346Y-133430236D01*
X111995344Y-133430236D01*
X111850356Y-133459076D01*
X111850346Y-133459079D01*
X111713775Y-133515648D01*
X111713762Y-133515655D01*
X111590848Y-133597784D01*
X111590844Y-133597787D01*
X111486315Y-133702316D01*
X111486312Y-133702320D01*
X111404183Y-133825234D01*
X111404176Y-133825247D01*
X111347607Y-133961818D01*
X111347604Y-133961828D01*
X111318764Y-134106815D01*
X111318764Y-134106818D01*
X111318764Y-134254654D01*
X111318764Y-134254656D01*
X111318763Y-134254656D01*
X96775465Y-134254656D01*
X96775465Y-134163305D01*
X96767829Y-134124918D01*
X96767829Y-134124917D01*
X96740861Y-133989340D01*
X96740858Y-133989331D01*
X96739600Y-133986295D01*
X96701583Y-133894511D01*
X96672981Y-133825458D01*
X96672974Y-133825445D01*
X96574429Y-133677964D01*
X96574426Y-133677960D01*
X96449003Y-133552537D01*
X96448999Y-133552534D01*
X96301518Y-133453989D01*
X96301505Y-133453982D01*
X96137632Y-133386105D01*
X96137623Y-133386102D01*
X95963659Y-133351499D01*
X95963656Y-133351499D01*
X95786274Y-133351499D01*
X95786271Y-133351499D01*
X95612306Y-133386102D01*
X95612297Y-133386105D01*
X95448424Y-133453982D01*
X95448411Y-133453989D01*
X95300930Y-133552534D01*
X95300926Y-133552537D01*
X95175503Y-133677960D01*
X95175500Y-133677964D01*
X95076955Y-133825445D01*
X95076948Y-133825458D01*
X95009071Y-133989331D01*
X95009068Y-133989340D01*
X94974465Y-134163303D01*
X94974465Y-134198312D01*
X94954780Y-134265351D01*
X94901976Y-134311106D01*
X94832818Y-134321050D01*
X94769262Y-134292025D01*
X94733751Y-134237310D01*
X94733385Y-134237462D01*
X94732565Y-134235483D01*
X94731807Y-134234315D01*
X94731055Y-134231837D01*
X94663176Y-134067959D01*
X94663169Y-134067946D01*
X94564624Y-133920465D01*
X94564621Y-133920461D01*
X94439198Y-133795038D01*
X94439194Y-133795035D01*
X94291713Y-133696490D01*
X94291700Y-133696483D01*
X94127827Y-133628606D01*
X94127818Y-133628603D01*
X93953854Y-133594000D01*
X93953851Y-133594000D01*
X93776469Y-133594000D01*
X93776466Y-133594000D01*
X93602501Y-133628603D01*
X93602492Y-133628606D01*
X93438619Y-133696483D01*
X93438606Y-133696490D01*
X93291125Y-133795035D01*
X93291121Y-133795038D01*
X93165698Y-133920461D01*
X93165695Y-133920465D01*
X93067150Y-134067946D01*
X93067143Y-134067959D01*
X92999266Y-134231832D01*
X92999263Y-134231841D01*
X92964660Y-134405804D01*
X79136946Y-134405804D01*
X79142969Y-134375526D01*
X79142969Y-134375524D01*
X79143150Y-134374617D01*
X79150502Y-134337654D01*
X79150502Y-134160272D01*
X79150502Y-134160269D01*
X79150501Y-134160267D01*
X79115898Y-133986304D01*
X79115895Y-133986295D01*
X79048018Y-133822422D01*
X79048011Y-133822409D01*
X78949466Y-133674928D01*
X78949463Y-133674924D01*
X78824040Y-133549501D01*
X78824036Y-133549498D01*
X78676555Y-133450953D01*
X78676542Y-133450946D01*
X78512669Y-133383069D01*
X78512660Y-133383066D01*
X78338696Y-133348463D01*
X78338693Y-133348463D01*
X78161311Y-133348463D01*
X78161308Y-133348463D01*
X77987343Y-133383066D01*
X77987334Y-133383069D01*
X77823461Y-133450946D01*
X77823448Y-133450953D01*
X77675967Y-133549498D01*
X77675963Y-133549501D01*
X77550540Y-133674924D01*
X77550537Y-133674928D01*
X77451992Y-133822409D01*
X77451985Y-133822422D01*
X77384108Y-133986295D01*
X77384105Y-133986304D01*
X77349502Y-134160267D01*
X76875549Y-134160267D01*
X76875549Y-134023268D01*
X76875549Y-134023265D01*
X76875548Y-134023263D01*
X76840945Y-133849300D01*
X76840942Y-133849291D01*
X76830977Y-133825234D01*
X76808754Y-133771580D01*
X76773065Y-133685418D01*
X76773058Y-133685405D01*
X76674513Y-133537924D01*
X76674510Y-133537920D01*
X76549087Y-133412497D01*
X76549083Y-133412494D01*
X76401602Y-133313949D01*
X76401589Y-133313942D01*
X76237716Y-133246065D01*
X76237707Y-133246062D01*
X76063743Y-133211459D01*
X76063740Y-133211459D01*
X75886358Y-133211459D01*
X75886355Y-133211459D01*
X75712390Y-133246062D01*
X75712381Y-133246065D01*
X75548508Y-133313942D01*
X75548495Y-133313949D01*
X75401014Y-133412494D01*
X75401010Y-133412497D01*
X75275587Y-133537920D01*
X75275584Y-133537924D01*
X75177039Y-133685405D01*
X75177032Y-133685418D01*
X75109155Y-133849291D01*
X75109152Y-133849300D01*
X75074549Y-134023263D01*
X60525711Y-134023263D01*
X60524789Y-132596677D01*
X60524138Y-131588070D01*
X76575923Y-131588070D01*
X76575923Y-131765461D01*
X76610526Y-131939424D01*
X76610529Y-131939433D01*
X76678406Y-132103306D01*
X76678413Y-132103319D01*
X76776958Y-132250800D01*
X76776961Y-132250804D01*
X76902384Y-132376227D01*
X76902388Y-132376230D01*
X77049869Y-132474775D01*
X77049882Y-132474782D01*
X77150844Y-132516601D01*
X77213757Y-132542660D01*
X77213759Y-132542660D01*
X77213764Y-132542662D01*
X77387727Y-132577265D01*
X77387730Y-132577266D01*
X77387732Y-132577266D01*
X77565116Y-132577266D01*
X77565117Y-132577265D01*
X77623105Y-132565730D01*
X77739081Y-132542662D01*
X77739084Y-132542660D01*
X77739089Y-132542660D01*
X77902970Y-132474779D01*
X78050458Y-132376230D01*
X78175887Y-132250801D01*
X78223132Y-132180095D01*
X78276744Y-132135289D01*
X78346069Y-132126582D01*
X78409096Y-132156736D01*
X78429336Y-132180094D01*
X78525514Y-132324034D01*
X78525517Y-132324038D01*
X78650940Y-132449461D01*
X78650944Y-132449464D01*
X78798425Y-132548009D01*
X78798438Y-132548016D01*
X78886491Y-132584488D01*
X78962313Y-132615894D01*
X78962315Y-132615894D01*
X78962320Y-132615896D01*
X79136283Y-132650499D01*
X79136286Y-132650500D01*
X79136288Y-132650500D01*
X79313672Y-132650500D01*
X79313673Y-132650499D01*
X79371661Y-132638964D01*
X79487637Y-132615896D01*
X79487640Y-132615894D01*
X79487645Y-132615894D01*
X79651526Y-132548013D01*
X79799014Y-132449464D01*
X79924443Y-132324035D01*
X80022992Y-132176547D01*
X80090873Y-132012666D01*
X80097121Y-131981259D01*
X80125478Y-131838695D01*
X80125479Y-131838693D01*
X80125479Y-131661306D01*
X80125478Y-131661304D01*
X93874521Y-131661304D01*
X93874521Y-131838695D01*
X93909124Y-132012658D01*
X93909127Y-132012667D01*
X93977004Y-132176540D01*
X93977011Y-132176553D01*
X94075556Y-132324034D01*
X94075559Y-132324038D01*
X94200982Y-132449461D01*
X94200986Y-132449464D01*
X94348467Y-132548009D01*
X94348480Y-132548016D01*
X94436533Y-132584488D01*
X94512355Y-132615894D01*
X94512357Y-132615894D01*
X94512362Y-132615896D01*
X94686325Y-132650499D01*
X94686328Y-132650500D01*
X94686330Y-132650500D01*
X94863714Y-132650500D01*
X94863715Y-132650499D01*
X94921703Y-132638964D01*
X95037679Y-132615896D01*
X95037682Y-132615894D01*
X95037687Y-132615894D01*
X95201568Y-132548013D01*
X95349056Y-132449464D01*
X95474485Y-132324035D01*
X95573034Y-132176547D01*
X95640915Y-132012666D01*
X95647163Y-131981259D01*
X95675520Y-131838695D01*
X95675521Y-131838693D01*
X95675521Y-131661308D01*
X95672874Y-131648002D01*
X95672874Y-131648000D01*
X95669273Y-131629896D01*
X95927199Y-131629896D01*
X95927199Y-131807287D01*
X95961802Y-131981250D01*
X95961805Y-131981259D01*
X96029682Y-132145132D01*
X96029689Y-132145145D01*
X96128234Y-132292626D01*
X96128237Y-132292630D01*
X96253660Y-132418053D01*
X96253664Y-132418056D01*
X96401145Y-132516601D01*
X96401158Y-132516608D01*
X96524062Y-132567515D01*
X96565033Y-132584486D01*
X96565035Y-132584486D01*
X96565040Y-132584488D01*
X96739003Y-132619091D01*
X96739006Y-132619092D01*
X96739008Y-132619092D01*
X96916392Y-132619092D01*
X96916393Y-132619091D01*
X96974381Y-132607556D01*
X97090357Y-132584488D01*
X97090360Y-132584486D01*
X97090365Y-132584486D01*
X97254246Y-132516605D01*
X97401734Y-132418056D01*
X97527163Y-132292627D01*
X97625712Y-132145139D01*
X97633399Y-132126582D01*
X97646920Y-132093938D01*
X97693593Y-131981258D01*
X97700022Y-131948941D01*
X112424506Y-131948941D01*
X112453347Y-132093928D01*
X112453350Y-132093938D01*
X112509919Y-132230509D01*
X112509926Y-132230522D01*
X112592055Y-132353436D01*
X112592058Y-132353440D01*
X112696587Y-132457969D01*
X112696591Y-132457972D01*
X112819505Y-132540101D01*
X112819518Y-132540108D01*
X112926655Y-132584485D01*
X112956094Y-132596679D01*
X112956098Y-132596679D01*
X112956099Y-132596680D01*
X113101086Y-132625521D01*
X113101089Y-132625521D01*
X113248927Y-132625521D01*
X113346469Y-132606117D01*
X113393920Y-132596679D01*
X113530502Y-132540105D01*
X113653423Y-132457972D01*
X113757958Y-132353437D01*
X113840091Y-132230516D01*
X113896665Y-132093934D01*
X113906103Y-132046483D01*
X113925507Y-131948941D01*
X113925507Y-131823920D01*
X114499499Y-131823920D01*
X114528340Y-131968907D01*
X114528343Y-131968917D01*
X114584912Y-132105488D01*
X114584919Y-132105501D01*
X114667048Y-132228415D01*
X114667051Y-132228419D01*
X114771580Y-132332948D01*
X114771584Y-132332951D01*
X114894498Y-132415080D01*
X114894511Y-132415087D01*
X114998046Y-132457972D01*
X115031087Y-132471658D01*
X115031091Y-132471658D01*
X115031092Y-132471659D01*
X115176079Y-132500500D01*
X115176082Y-132500500D01*
X115323920Y-132500500D01*
X115421462Y-132481096D01*
X115468913Y-132471658D01*
X115605495Y-132415084D01*
X115728416Y-132332951D01*
X115832951Y-132228416D01*
X115915084Y-132105495D01*
X115971658Y-131968913D01*
X115997561Y-131838693D01*
X116000500Y-131823920D01*
X116000500Y-131676079D01*
X115971659Y-131531092D01*
X115971658Y-131531091D01*
X115971658Y-131531087D01*
X115953534Y-131487332D01*
X115915087Y-131394511D01*
X115915080Y-131394498D01*
X115832951Y-131271584D01*
X115832948Y-131271580D01*
X115728419Y-131167051D01*
X115728415Y-131167048D01*
X115605501Y-131084919D01*
X115605488Y-131084912D01*
X115468917Y-131028343D01*
X115468907Y-131028340D01*
X115323920Y-130999500D01*
X115323918Y-130999500D01*
X115176082Y-130999500D01*
X115176080Y-130999500D01*
X115031092Y-131028340D01*
X115031082Y-131028343D01*
X114894511Y-131084912D01*
X114894498Y-131084919D01*
X114771584Y-131167048D01*
X114771580Y-131167051D01*
X114667051Y-131271580D01*
X114667048Y-131271584D01*
X114584919Y-131394498D01*
X114584912Y-131394511D01*
X114528343Y-131531082D01*
X114528340Y-131531092D01*
X114499500Y-131676079D01*
X114499500Y-131676082D01*
X114499500Y-131823918D01*
X114499500Y-131823920D01*
X114499499Y-131823920D01*
X113925507Y-131823920D01*
X113925507Y-131801100D01*
X113904239Y-131694182D01*
X113896666Y-131656113D01*
X113896665Y-131656112D01*
X113896665Y-131656108D01*
X113885810Y-131629901D01*
X113840094Y-131519532D01*
X113840087Y-131519519D01*
X113757958Y-131396605D01*
X113757955Y-131396601D01*
X113653426Y-131292072D01*
X113653422Y-131292069D01*
X113530508Y-131209940D01*
X113530495Y-131209933D01*
X113393924Y-131153364D01*
X113393914Y-131153361D01*
X113248927Y-131124521D01*
X113248925Y-131124521D01*
X113101089Y-131124521D01*
X113101087Y-131124521D01*
X112956099Y-131153361D01*
X112956089Y-131153364D01*
X112819518Y-131209933D01*
X112819505Y-131209940D01*
X112696591Y-131292069D01*
X112696587Y-131292072D01*
X112592058Y-131396601D01*
X112592055Y-131396605D01*
X112509926Y-131519519D01*
X112509919Y-131519532D01*
X112453350Y-131656103D01*
X112453347Y-131656113D01*
X112424507Y-131801100D01*
X112424507Y-131801103D01*
X112424507Y-131948939D01*
X112424507Y-131948941D01*
X112424506Y-131948941D01*
X97700022Y-131948941D01*
X97721951Y-131838693D01*
X97728199Y-131807283D01*
X97728199Y-131629901D01*
X97728199Y-131629898D01*
X97728198Y-131629896D01*
X97693595Y-131455933D01*
X97693592Y-131455924D01*
X97625715Y-131292051D01*
X97625708Y-131292038D01*
X97527163Y-131144557D01*
X97527160Y-131144553D01*
X97401737Y-131019130D01*
X97401733Y-131019127D01*
X97254252Y-130920582D01*
X97254239Y-130920575D01*
X97090366Y-130852698D01*
X97090357Y-130852695D01*
X96916393Y-130818092D01*
X96916390Y-130818092D01*
X96739008Y-130818092D01*
X96739005Y-130818092D01*
X96565040Y-130852695D01*
X96565031Y-130852698D01*
X96401158Y-130920575D01*
X96401145Y-130920582D01*
X96253664Y-131019127D01*
X96253660Y-131019130D01*
X96128237Y-131144553D01*
X96128234Y-131144557D01*
X96029689Y-131292038D01*
X96029682Y-131292051D01*
X95961805Y-131455924D01*
X95961802Y-131455933D01*
X95927199Y-131629896D01*
X95669273Y-131629896D01*
X95640917Y-131487341D01*
X95640914Y-131487332D01*
X95627905Y-131455926D01*
X95602467Y-131394511D01*
X95573037Y-131323459D01*
X95573030Y-131323446D01*
X95474485Y-131175965D01*
X95474482Y-131175961D01*
X95349059Y-131050538D01*
X95349055Y-131050535D01*
X95201574Y-130951990D01*
X95201561Y-130951983D01*
X95037688Y-130884106D01*
X95037679Y-130884103D01*
X94863715Y-130849500D01*
X94863712Y-130849500D01*
X94686330Y-130849500D01*
X94686327Y-130849500D01*
X94512362Y-130884103D01*
X94512353Y-130884106D01*
X94348480Y-130951983D01*
X94348467Y-130951990D01*
X94200986Y-131050535D01*
X94200982Y-131050538D01*
X94075559Y-131175961D01*
X94075556Y-131175965D01*
X93977011Y-131323446D01*
X93977004Y-131323459D01*
X93909127Y-131487332D01*
X93909124Y-131487341D01*
X93874521Y-131661304D01*
X80125478Y-131661304D01*
X80090875Y-131487341D01*
X80090872Y-131487332D01*
X80077863Y-131455926D01*
X80052425Y-131394511D01*
X80022995Y-131323459D01*
X80022988Y-131323446D01*
X79924443Y-131175965D01*
X79924440Y-131175961D01*
X79799017Y-131050538D01*
X79799013Y-131050535D01*
X79651532Y-130951990D01*
X79651519Y-130951983D01*
X79487646Y-130884106D01*
X79487637Y-130884103D01*
X79313673Y-130849500D01*
X79313670Y-130849500D01*
X79136288Y-130849500D01*
X79136285Y-130849500D01*
X78962320Y-130884103D01*
X78962311Y-130884106D01*
X78798438Y-130951983D01*
X78798425Y-130951990D01*
X78650944Y-131050535D01*
X78650940Y-131050538D01*
X78525517Y-131175961D01*
X78525512Y-131175967D01*
X78478268Y-131246672D01*
X78424655Y-131291476D01*
X78355330Y-131300183D01*
X78292303Y-131270028D01*
X78272065Y-131246671D01*
X78247517Y-131209933D01*
X78175887Y-131102731D01*
X78175884Y-131102727D01*
X78050461Y-130977304D01*
X78050457Y-130977301D01*
X77902976Y-130878756D01*
X77902963Y-130878749D01*
X77739090Y-130810872D01*
X77739081Y-130810869D01*
X77565117Y-130776266D01*
X77565114Y-130776266D01*
X77387732Y-130776266D01*
X77387729Y-130776266D01*
X77213764Y-130810869D01*
X77213755Y-130810872D01*
X77049882Y-130878749D01*
X77049869Y-130878756D01*
X76902388Y-130977301D01*
X76902384Y-130977304D01*
X76776961Y-131102727D01*
X76776958Y-131102731D01*
X76678413Y-131250212D01*
X76678406Y-131250225D01*
X76610529Y-131414098D01*
X76610526Y-131414107D01*
X76575923Y-131588070D01*
X60524138Y-131588070D01*
X60524134Y-131582063D01*
X60522570Y-129161304D01*
X91599500Y-129161304D01*
X91599500Y-129338695D01*
X91634103Y-129512658D01*
X91634106Y-129512667D01*
X91701983Y-129676540D01*
X91701990Y-129676553D01*
X91800535Y-129824034D01*
X91800538Y-129824038D01*
X91925961Y-129949461D01*
X91925965Y-129949464D01*
X92073446Y-130048009D01*
X92073459Y-130048016D01*
X92196363Y-130098923D01*
X92237334Y-130115894D01*
X92237336Y-130115894D01*
X92237341Y-130115896D01*
X92411304Y-130150499D01*
X92411307Y-130150500D01*
X92411309Y-130150500D01*
X92588693Y-130150500D01*
X92588694Y-130150499D01*
X92646682Y-130138964D01*
X92762658Y-130115896D01*
X92762661Y-130115894D01*
X92762666Y-130115894D01*
X92926547Y-130048013D01*
X93074035Y-129949464D01*
X93074038Y-129949461D01*
X93203772Y-129819728D01*
X93204627Y-129820583D01*
X93257075Y-129784845D01*
X93319395Y-129781221D01*
X93342439Y-129785805D01*
X93519823Y-129785805D01*
X93519824Y-129785804D01*
X93577812Y-129774269D01*
X93693788Y-129751201D01*
X93693791Y-129751199D01*
X93693796Y-129751199D01*
X93857677Y-129683318D01*
X94005165Y-129584769D01*
X94130594Y-129459340D01*
X94229143Y-129311852D01*
X94297024Y-129147971D01*
X94301160Y-129127182D01*
X94331629Y-128974000D01*
X94331630Y-128973998D01*
X94331630Y-128796611D01*
X94331629Y-128796609D01*
X94297026Y-128622646D01*
X94297023Y-128622637D01*
X94229146Y-128458764D01*
X94229139Y-128458751D01*
X94130594Y-128311270D01*
X94130591Y-128311266D01*
X94005168Y-128185843D01*
X94005164Y-128185840D01*
X93985334Y-128172590D01*
X109842465Y-128172590D01*
X109842465Y-128349981D01*
X109877068Y-128523944D01*
X109877071Y-128523953D01*
X109944948Y-128687826D01*
X109944955Y-128687839D01*
X110043500Y-128835320D01*
X110043503Y-128835324D01*
X110168926Y-128960747D01*
X110168930Y-128960750D01*
X110316411Y-129059295D01*
X110316424Y-129059302D01*
X110439328Y-129110209D01*
X110480299Y-129127180D01*
X110480301Y-129127180D01*
X110480306Y-129127182D01*
X110654269Y-129161785D01*
X110654272Y-129161786D01*
X110654274Y-129161786D01*
X110831658Y-129161786D01*
X110831659Y-129161785D01*
X110901108Y-129147971D01*
X111005623Y-129127182D01*
X111005626Y-129127180D01*
X111005631Y-129127180D01*
X111169512Y-129059299D01*
X111317000Y-128960750D01*
X111442429Y-128835321D01*
X111540978Y-128687833D01*
X111545896Y-128675961D01*
X111567983Y-128622637D01*
X111608859Y-128523952D01*
X111621829Y-128458751D01*
X111643464Y-128349981D01*
X111643465Y-128349979D01*
X111643465Y-128172592D01*
X111643464Y-128172590D01*
X111608861Y-127998627D01*
X111608858Y-127998618D01*
X111540981Y-127834745D01*
X111540974Y-127834732D01*
X111442429Y-127687251D01*
X111442426Y-127687247D01*
X111317003Y-127561824D01*
X111316999Y-127561821D01*
X111169518Y-127463276D01*
X111169505Y-127463269D01*
X111005632Y-127395392D01*
X111005623Y-127395389D01*
X110831659Y-127360786D01*
X110831656Y-127360786D01*
X110654274Y-127360786D01*
X110654271Y-127360786D01*
X110480306Y-127395389D01*
X110480297Y-127395392D01*
X110316424Y-127463269D01*
X110316411Y-127463276D01*
X110168930Y-127561821D01*
X110168926Y-127561824D01*
X110043503Y-127687247D01*
X110043500Y-127687251D01*
X109944955Y-127834732D01*
X109944948Y-127834745D01*
X109877071Y-127998618D01*
X109877068Y-127998627D01*
X109842465Y-128172590D01*
X93985334Y-128172590D01*
X93857683Y-128087295D01*
X93857670Y-128087288D01*
X93693797Y-128019411D01*
X93693788Y-128019408D01*
X93519824Y-127984805D01*
X93519821Y-127984805D01*
X93342439Y-127984805D01*
X93342436Y-127984805D01*
X93168471Y-128019408D01*
X93168462Y-128019411D01*
X93004589Y-128087288D01*
X93004576Y-128087295D01*
X92857096Y-128185839D01*
X92792228Y-128250708D01*
X92731666Y-128311270D01*
X92731664Y-128311272D01*
X92727360Y-128315577D01*
X92726510Y-128314727D01*
X92674010Y-128350473D01*
X92611735Y-128354083D01*
X92588695Y-128349500D01*
X92588691Y-128349500D01*
X92411309Y-128349500D01*
X92411306Y-128349500D01*
X92237341Y-128384103D01*
X92237332Y-128384106D01*
X92073459Y-128451983D01*
X92073446Y-128451990D01*
X91925965Y-128550535D01*
X91925961Y-128550538D01*
X91800538Y-128675961D01*
X91800535Y-128675965D01*
X91701990Y-128823446D01*
X91701983Y-128823459D01*
X91634106Y-128987332D01*
X91634103Y-128987341D01*
X91599500Y-129161304D01*
X60522570Y-129161304D01*
X60522566Y-129155297D01*
X60522116Y-128458751D01*
X60517956Y-122019983D01*
X62124500Y-122019983D01*
X62124500Y-122820001D01*
X62124501Y-122820019D01*
X62135000Y-122922796D01*
X62135001Y-122922799D01*
X62190185Y-123089331D01*
X62190187Y-123089336D01*
X62206568Y-123115893D01*
X62282288Y-123238656D01*
X62406344Y-123362712D01*
X62470543Y-123402310D01*
X62517268Y-123454258D01*
X62528489Y-123523221D01*
X62500646Y-123587303D01*
X62493128Y-123595530D01*
X62385585Y-123703073D01*
X62283768Y-123843211D01*
X62205128Y-123997552D01*
X62151597Y-124162302D01*
X62129703Y-124300536D01*
X62124500Y-124333389D01*
X62124500Y-124506611D01*
X62125864Y-124515222D01*
X62137500Y-124588693D01*
X62151598Y-124677701D01*
X62200568Y-124828415D01*
X62205128Y-124842447D01*
X62240212Y-124911304D01*
X62283768Y-124996788D01*
X62385586Y-125136928D01*
X62508072Y-125259414D01*
X62561199Y-125298013D01*
X62591449Y-125319991D01*
X62634114Y-125375322D01*
X62640093Y-125444935D01*
X62607487Y-125506730D01*
X62591448Y-125520627D01*
X62508404Y-125580961D01*
X62508399Y-125580965D01*
X62385967Y-125703397D01*
X62284195Y-125843475D01*
X62205591Y-125997744D01*
X62152085Y-126162415D01*
X62150884Y-126169999D01*
X62150885Y-126170000D01*
X63219670Y-126170000D01*
X63199925Y-126189745D01*
X63150556Y-126275255D01*
X63125000Y-126370630D01*
X63125000Y-126469370D01*
X63150556Y-126564745D01*
X63199925Y-126650255D01*
X63219670Y-126670000D01*
X62150885Y-126670000D01*
X62152085Y-126677584D01*
X62205591Y-126842255D01*
X62284195Y-126996524D01*
X62385967Y-127136602D01*
X62508397Y-127259032D01*
X62648475Y-127360804D01*
X62802742Y-127439408D01*
X62967415Y-127492914D01*
X63138429Y-127520000D01*
X63250000Y-127520000D01*
X63250000Y-126700330D01*
X63269745Y-126720075D01*
X63355255Y-126769444D01*
X63450630Y-126795000D01*
X63549370Y-126795000D01*
X63644745Y-126769444D01*
X63730255Y-126720075D01*
X63750000Y-126700330D01*
X63750000Y-127520000D01*
X63861571Y-127520000D01*
X64032584Y-127492914D01*
X64197257Y-127439408D01*
X64351524Y-127360804D01*
X64491602Y-127259032D01*
X64614032Y-127136602D01*
X64715804Y-126996524D01*
X64794408Y-126842255D01*
X64847914Y-126677584D01*
X64849115Y-126670000D01*
X63780330Y-126670000D01*
X63800075Y-126650255D01*
X63849444Y-126564745D01*
X63875000Y-126469370D01*
X63875000Y-126370630D01*
X63849444Y-126275255D01*
X63800075Y-126189745D01*
X63780330Y-126170000D01*
X64849115Y-126170000D01*
X64849115Y-126169999D01*
X64847914Y-126162415D01*
X64794408Y-125997744D01*
X64715804Y-125843475D01*
X64614032Y-125703397D01*
X64491602Y-125580967D01*
X64408551Y-125520628D01*
X64365885Y-125465298D01*
X64359906Y-125395685D01*
X64392511Y-125333889D01*
X64408551Y-125319991D01*
X64438801Y-125298013D01*
X64491928Y-125259414D01*
X64590038Y-125161304D01*
X73849500Y-125161304D01*
X73849500Y-125338695D01*
X73884103Y-125512658D01*
X73884106Y-125512667D01*
X73951983Y-125676540D01*
X73951990Y-125676553D01*
X74050535Y-125824034D01*
X74050538Y-125824038D01*
X74175961Y-125949461D01*
X74175965Y-125949464D01*
X74323446Y-126048009D01*
X74323459Y-126048016D01*
X74446363Y-126098923D01*
X74487334Y-126115894D01*
X74487336Y-126115894D01*
X74487341Y-126115896D01*
X74661304Y-126150499D01*
X74661307Y-126150500D01*
X74661309Y-126150500D01*
X74838693Y-126150500D01*
X74838694Y-126150499D01*
X74896682Y-126138964D01*
X75012658Y-126115896D01*
X75012661Y-126115894D01*
X75012666Y-126115894D01*
X75176547Y-126048013D01*
X75324035Y-125949464D01*
X75449464Y-125824035D01*
X75548013Y-125676547D01*
X75615894Y-125512666D01*
X75624082Y-125471506D01*
X75644239Y-125370168D01*
X75650500Y-125338691D01*
X75650500Y-125161309D01*
X75650500Y-125161306D01*
X75650499Y-125161304D01*
X75615896Y-124987341D01*
X75615893Y-124987332D01*
X75548016Y-124823459D01*
X75548009Y-124823446D01*
X75449464Y-124675965D01*
X75449461Y-124675961D01*
X75324038Y-124550538D01*
X75324034Y-124550535D01*
X75260854Y-124508319D01*
X75176553Y-124451990D01*
X75176540Y-124451983D01*
X75078330Y-124411304D01*
X77599500Y-124411304D01*
X77599500Y-124588695D01*
X77634103Y-124762658D01*
X77634106Y-124762667D01*
X77701983Y-124926540D01*
X77701990Y-124926553D01*
X77800535Y-125074034D01*
X77800538Y-125074038D01*
X77925961Y-125199461D01*
X77925965Y-125199464D01*
X78073446Y-125298009D01*
X78073459Y-125298016D01*
X78126513Y-125319991D01*
X78237334Y-125365894D01*
X78278493Y-125374081D01*
X78340403Y-125406465D01*
X78374977Y-125467181D01*
X78375918Y-125471506D01*
X78384104Y-125512660D01*
X78384107Y-125512670D01*
X78451983Y-125676540D01*
X78451990Y-125676553D01*
X78550535Y-125824034D01*
X78550538Y-125824038D01*
X78675961Y-125949461D01*
X78675965Y-125949464D01*
X78823446Y-126048009D01*
X78823459Y-126048016D01*
X78946363Y-126098923D01*
X78987334Y-126115894D01*
X78987336Y-126115894D01*
X78987341Y-126115896D01*
X79161304Y-126150499D01*
X79161307Y-126150500D01*
X79161309Y-126150500D01*
X79338693Y-126150500D01*
X79338694Y-126150499D01*
X79396682Y-126138964D01*
X79512658Y-126115896D01*
X79512661Y-126115894D01*
X79512666Y-126115894D01*
X79676547Y-126048013D01*
X79824035Y-125949464D01*
X79949464Y-125824035D01*
X80048013Y-125676547D01*
X80115894Y-125512666D01*
X80124082Y-125471506D01*
X80144239Y-125370168D01*
X80150500Y-125338691D01*
X80150500Y-125249716D01*
X80170185Y-125182677D01*
X80222989Y-125136922D01*
X80292147Y-125126978D01*
X80298692Y-125128099D01*
X80411306Y-125150500D01*
X80411309Y-125150500D01*
X80588693Y-125150500D01*
X80588694Y-125150499D01*
X80656952Y-125136922D01*
X80762658Y-125115896D01*
X80762661Y-125115894D01*
X80762666Y-125115894D01*
X80926547Y-125048013D01*
X81074035Y-124949464D01*
X81112195Y-124911304D01*
X95099500Y-124911304D01*
X95099500Y-125088695D01*
X95134103Y-125262658D01*
X95134106Y-125262667D01*
X95201983Y-125426540D01*
X95201990Y-125426553D01*
X95300535Y-125574034D01*
X95300538Y-125574038D01*
X95425961Y-125699461D01*
X95425965Y-125699464D01*
X95573446Y-125798009D01*
X95573459Y-125798016D01*
X95683209Y-125843475D01*
X95737334Y-125865894D01*
X95737336Y-125865894D01*
X95737341Y-125865896D01*
X95911304Y-125900499D01*
X95911307Y-125900500D01*
X95911309Y-125900500D01*
X96088693Y-125900500D01*
X96088694Y-125900499D01*
X96146682Y-125888964D01*
X96262658Y-125865896D01*
X96262661Y-125865894D01*
X96262666Y-125865894D01*
X96355546Y-125827421D01*
X96366196Y-125823011D01*
X96435665Y-125815542D01*
X96498144Y-125846818D01*
X96501301Y-125849863D01*
X96551937Y-125900499D01*
X96600903Y-125949465D01*
X96748383Y-126048009D01*
X96748396Y-126048016D01*
X96871300Y-126098923D01*
X96912271Y-126115894D01*
X96912273Y-126115894D01*
X96912278Y-126115896D01*
X97086241Y-126150499D01*
X97086244Y-126150500D01*
X97086246Y-126150500D01*
X97263630Y-126150500D01*
X97263631Y-126150499D01*
X97321619Y-126138964D01*
X97437595Y-126115896D01*
X97437598Y-126115894D01*
X97437603Y-126115894D01*
X97601484Y-126048013D01*
X97748972Y-125949464D01*
X97874401Y-125824035D01*
X97972950Y-125676547D01*
X98040831Y-125512666D01*
X98045925Y-125487054D01*
X98078306Y-125425145D01*
X98139021Y-125390569D01*
X98143277Y-125389641D01*
X98262666Y-125365894D01*
X98426547Y-125298013D01*
X98574035Y-125199464D01*
X98641023Y-125132475D01*
X98702343Y-125098992D01*
X98752895Y-125098541D01*
X98762743Y-125100500D01*
X98762744Y-125100500D01*
X98910582Y-125100500D01*
X99008124Y-125081096D01*
X99055575Y-125071658D01*
X99192157Y-125015084D01*
X99315078Y-124932951D01*
X99419613Y-124828416D01*
X99501746Y-124705495D01*
X99558320Y-124568913D01*
X99569508Y-124512669D01*
X99587162Y-124423920D01*
X99587162Y-124411304D01*
X109849500Y-124411304D01*
X109849500Y-124588695D01*
X109884103Y-124762658D01*
X109884106Y-124762667D01*
X109951983Y-124926540D01*
X109951990Y-124926553D01*
X109955037Y-124931113D01*
X109975912Y-124997792D01*
X109957425Y-125065171D01*
X109955037Y-125068887D01*
X109951990Y-125073446D01*
X109951983Y-125073459D01*
X109884106Y-125237332D01*
X109884103Y-125237341D01*
X109849500Y-125411304D01*
X109849500Y-125588695D01*
X109884103Y-125762658D01*
X109884106Y-125762667D01*
X109951983Y-125926540D01*
X109951990Y-125926553D01*
X110050535Y-126074034D01*
X110050538Y-126074038D01*
X110175961Y-126199461D01*
X110175965Y-126199464D01*
X110323446Y-126298009D01*
X110323459Y-126298016D01*
X110446363Y-126348923D01*
X110487334Y-126365894D01*
X110487336Y-126365894D01*
X110487341Y-126365896D01*
X110661304Y-126400499D01*
X110661307Y-126400500D01*
X110661309Y-126400500D01*
X110838693Y-126400500D01*
X110838694Y-126400499D01*
X110896682Y-126388964D01*
X111012658Y-126365896D01*
X111012661Y-126365894D01*
X111012666Y-126365894D01*
X111176547Y-126298013D01*
X111324035Y-126199464D01*
X111449464Y-126074035D01*
X111548013Y-125926547D01*
X111615894Y-125762666D01*
X111627684Y-125703397D01*
X111650499Y-125588695D01*
X111650500Y-125588693D01*
X111650500Y-125411306D01*
X111650499Y-125411304D01*
X111615896Y-125237341D01*
X111615893Y-125237332D01*
X111548015Y-125073457D01*
X111548014Y-125073455D01*
X111548013Y-125073453D01*
X111544965Y-125068892D01*
X111524086Y-125002217D01*
X111542569Y-124934837D01*
X111544962Y-124931113D01*
X111548013Y-124926547D01*
X111615894Y-124762666D01*
X111620932Y-124737341D01*
X111650499Y-124588695D01*
X111650500Y-124588693D01*
X111650500Y-124411307D01*
X111648067Y-124399075D01*
X111648067Y-124399073D01*
X111644467Y-124380973D01*
X112379831Y-124380973D01*
X112379831Y-124558364D01*
X112414434Y-124732327D01*
X112414437Y-124732336D01*
X112482314Y-124896209D01*
X112482321Y-124896222D01*
X112580866Y-125043703D01*
X112580869Y-125043707D01*
X112706292Y-125169130D01*
X112706296Y-125169133D01*
X112853777Y-125267678D01*
X112853790Y-125267685D01*
X112976694Y-125318592D01*
X113017665Y-125335563D01*
X113017667Y-125335563D01*
X113017672Y-125335565D01*
X113191635Y-125370168D01*
X113191638Y-125370169D01*
X113191640Y-125370169D01*
X113369024Y-125370169D01*
X113369025Y-125370168D01*
X113427013Y-125358633D01*
X113542989Y-125335565D01*
X113542992Y-125335563D01*
X113542997Y-125335563D01*
X113706878Y-125267682D01*
X113854366Y-125169133D01*
X113979795Y-125043704D01*
X114078344Y-124896216D01*
X114146225Y-124732335D01*
X114151566Y-124705488D01*
X114176077Y-124582261D01*
X114180831Y-124558360D01*
X114180831Y-124411304D01*
X115599500Y-124411304D01*
X115599500Y-124588695D01*
X115634103Y-124762658D01*
X115634106Y-124762667D01*
X115701983Y-124926540D01*
X115701990Y-124926553D01*
X115800535Y-125074034D01*
X115800538Y-125074038D01*
X115925961Y-125199461D01*
X115925965Y-125199464D01*
X116073446Y-125298009D01*
X116073459Y-125298016D01*
X116171659Y-125338691D01*
X116237334Y-125365894D01*
X116237336Y-125365894D01*
X116237341Y-125365896D01*
X116411304Y-125400499D01*
X116411307Y-125400500D01*
X116411309Y-125400500D01*
X116588693Y-125400500D01*
X116588694Y-125400499D01*
X116646682Y-125388964D01*
X116762658Y-125365896D01*
X116762661Y-125365894D01*
X116762666Y-125365894D01*
X116926547Y-125298013D01*
X117074035Y-125199464D01*
X117199464Y-125074035D01*
X117298013Y-124926547D01*
X117365894Y-124762666D01*
X117370932Y-124737341D01*
X117400499Y-124588695D01*
X117400500Y-124588693D01*
X117400500Y-124582261D01*
X117420185Y-124515222D01*
X117472989Y-124469467D01*
X117477039Y-124467703D01*
X117481249Y-124465960D01*
X117628737Y-124367411D01*
X117754166Y-124241982D01*
X117852715Y-124094494D01*
X117920596Y-123930613D01*
X117921407Y-123926540D01*
X117952503Y-123770205D01*
X117955202Y-123756638D01*
X117955202Y-123579256D01*
X117955202Y-123579253D01*
X117955201Y-123579251D01*
X117920598Y-123405288D01*
X117920595Y-123405279D01*
X117852718Y-123241406D01*
X117852711Y-123241393D01*
X117754166Y-123093912D01*
X117754163Y-123093908D01*
X117628740Y-122968485D01*
X117628736Y-122968482D01*
X117481255Y-122869937D01*
X117481242Y-122869930D01*
X117317369Y-122802053D01*
X117317360Y-122802050D01*
X117143396Y-122767447D01*
X117143393Y-122767447D01*
X116966011Y-122767447D01*
X116966008Y-122767447D01*
X116792043Y-122802050D01*
X116792034Y-122802053D01*
X116628161Y-122869930D01*
X116628148Y-122869937D01*
X116480667Y-122968482D01*
X116480663Y-122968485D01*
X116355240Y-123093908D01*
X116355237Y-123093912D01*
X116256692Y-123241393D01*
X116256685Y-123241406D01*
X116188808Y-123405279D01*
X116188805Y-123405288D01*
X116154202Y-123579251D01*
X116154202Y-123585685D01*
X116134517Y-123652724D01*
X116081713Y-123698479D01*
X116077658Y-123700245D01*
X116073455Y-123701985D01*
X116073446Y-123701990D01*
X115925965Y-123800535D01*
X115925961Y-123800538D01*
X115800538Y-123925961D01*
X115800535Y-123925965D01*
X115701990Y-124073446D01*
X115701983Y-124073459D01*
X115634106Y-124237332D01*
X115634103Y-124237341D01*
X115599500Y-124411304D01*
X114180831Y-124411304D01*
X114180831Y-124380978D01*
X114180831Y-124380975D01*
X114180830Y-124380973D01*
X114146227Y-124207010D01*
X114146224Y-124207001D01*
X114144148Y-124201990D01*
X114123369Y-124151824D01*
X114078347Y-124043128D01*
X114078340Y-124043115D01*
X113979795Y-123895634D01*
X113979792Y-123895630D01*
X113854369Y-123770207D01*
X113854365Y-123770204D01*
X113706884Y-123671659D01*
X113706871Y-123671652D01*
X113542998Y-123603775D01*
X113542989Y-123603772D01*
X113369025Y-123569169D01*
X113369022Y-123569169D01*
X113191640Y-123569169D01*
X113191637Y-123569169D01*
X113017672Y-123603772D01*
X113017663Y-123603775D01*
X112853790Y-123671652D01*
X112853777Y-123671659D01*
X112706296Y-123770204D01*
X112706292Y-123770207D01*
X112580869Y-123895630D01*
X112580866Y-123895634D01*
X112482321Y-124043115D01*
X112482314Y-124043128D01*
X112414437Y-124207001D01*
X112414434Y-124207010D01*
X112379831Y-124380973D01*
X111644467Y-124380973D01*
X111616819Y-124241985D01*
X111615894Y-124237334D01*
X111580477Y-124151828D01*
X111548016Y-124073459D01*
X111548009Y-124073446D01*
X111449464Y-123925965D01*
X111449461Y-123925961D01*
X111324038Y-123800538D01*
X111324034Y-123800535D01*
X111176553Y-123701990D01*
X111176540Y-123701983D01*
X111012667Y-123634106D01*
X111012658Y-123634103D01*
X110838694Y-123599500D01*
X110838691Y-123599500D01*
X110661309Y-123599500D01*
X110661306Y-123599500D01*
X110487341Y-123634103D01*
X110487332Y-123634106D01*
X110323459Y-123701983D01*
X110323446Y-123701990D01*
X110175965Y-123800535D01*
X110175961Y-123800538D01*
X110050538Y-123925961D01*
X110050535Y-123925965D01*
X109951990Y-124073446D01*
X109951983Y-124073459D01*
X109884106Y-124237332D01*
X109884103Y-124237341D01*
X109849500Y-124411304D01*
X99587162Y-124411304D01*
X99587162Y-124276079D01*
X99558321Y-124131092D01*
X99558320Y-124131091D01*
X99558320Y-124131087D01*
X99534690Y-124074038D01*
X99501749Y-123994511D01*
X99501742Y-123994498D01*
X99419613Y-123871584D01*
X99419610Y-123871580D01*
X99315081Y-123767051D01*
X99315077Y-123767048D01*
X99192163Y-123684919D01*
X99192150Y-123684912D01*
X99055579Y-123628343D01*
X99055569Y-123628340D01*
X98910582Y-123599500D01*
X98910580Y-123599500D01*
X98762744Y-123599500D01*
X98762742Y-123599500D01*
X98617754Y-123628340D01*
X98617744Y-123628343D01*
X98480702Y-123685108D01*
X98411233Y-123692577D01*
X98385798Y-123685108D01*
X98262667Y-123634106D01*
X98262658Y-123634103D01*
X98088694Y-123599500D01*
X98088691Y-123599500D01*
X98060648Y-123599500D01*
X97993609Y-123579815D01*
X97947854Y-123527011D01*
X97937910Y-123457853D01*
X97957546Y-123406609D01*
X98048009Y-123271222D01*
X98048009Y-123271221D01*
X98048013Y-123271216D01*
X98115894Y-123107335D01*
X98119475Y-123089336D01*
X98143513Y-122968485D01*
X98150500Y-122933360D01*
X98150500Y-122755978D01*
X98150500Y-122755975D01*
X98132320Y-122664582D01*
X98132320Y-122664581D01*
X98128477Y-122645262D01*
X99950163Y-122645262D01*
X99950163Y-122818484D01*
X99950405Y-122820009D01*
X99973920Y-122968483D01*
X99977261Y-122989574D01*
X100030790Y-123154318D01*
X100109431Y-123308661D01*
X100211249Y-123448801D01*
X100333735Y-123571287D01*
X100473875Y-123673105D01*
X100628218Y-123751746D01*
X100792962Y-123805275D01*
X100964052Y-123832373D01*
X100964053Y-123832373D01*
X101137273Y-123832373D01*
X101137274Y-123832373D01*
X101308364Y-123805275D01*
X101473108Y-123751746D01*
X101627451Y-123673105D01*
X101767591Y-123571287D01*
X101890077Y-123448801D01*
X101991895Y-123308661D01*
X102070536Y-123154318D01*
X102124065Y-122989574D01*
X102151163Y-122818484D01*
X102151163Y-122645262D01*
X102124065Y-122474172D01*
X102070536Y-122309428D01*
X101991895Y-122155085D01*
X101890077Y-122014945D01*
X101767591Y-121892459D01*
X101627451Y-121790641D01*
X101473108Y-121712000D01*
X101308364Y-121658471D01*
X101308362Y-121658470D01*
X101308361Y-121658470D01*
X101154529Y-121634106D01*
X101137274Y-121631373D01*
X100964052Y-121631373D01*
X100946797Y-121634106D01*
X100792965Y-121658470D01*
X100628215Y-121712001D01*
X100473874Y-121790641D01*
X100427912Y-121824035D01*
X100333735Y-121892459D01*
X100333733Y-121892461D01*
X100333732Y-121892461D01*
X100211251Y-122014942D01*
X100211251Y-122014943D01*
X100211249Y-122014945D01*
X100168745Y-122073446D01*
X100109431Y-122155084D01*
X100030791Y-122309425D01*
X100030790Y-122309427D01*
X100030790Y-122309428D01*
X100020494Y-122341115D01*
X99977260Y-122474175D01*
X99959122Y-122588695D01*
X99950163Y-122645262D01*
X98128477Y-122645262D01*
X98115896Y-122582010D01*
X98115893Y-122582001D01*
X98048016Y-122418128D01*
X98048009Y-122418115D01*
X97949464Y-122270634D01*
X97949461Y-122270630D01*
X97824038Y-122145207D01*
X97824034Y-122145204D01*
X97676553Y-122046659D01*
X97676540Y-122046652D01*
X97512667Y-121978775D01*
X97512658Y-121978772D01*
X97338694Y-121944169D01*
X97338691Y-121944169D01*
X97161309Y-121944169D01*
X97161306Y-121944169D01*
X96987341Y-121978772D01*
X96987332Y-121978775D01*
X96823459Y-122046652D01*
X96823446Y-122046659D01*
X96675965Y-122145204D01*
X96675961Y-122145207D01*
X96550538Y-122270630D01*
X96550535Y-122270634D01*
X96451990Y-122418115D01*
X96451983Y-122418128D01*
X96384106Y-122582001D01*
X96384103Y-122582010D01*
X96349500Y-122755973D01*
X96349500Y-122933364D01*
X96384103Y-123107327D01*
X96384106Y-123107336D01*
X96451983Y-123271209D01*
X96451990Y-123271222D01*
X96550535Y-123418703D01*
X96550538Y-123418707D01*
X96675961Y-123544130D01*
X96675965Y-123544133D01*
X96823446Y-123642678D01*
X96823459Y-123642685D01*
X96943911Y-123692577D01*
X96987334Y-123710563D01*
X96987336Y-123710563D01*
X96987341Y-123710565D01*
X97161304Y-123745168D01*
X97161307Y-123745169D01*
X97189352Y-123745169D01*
X97256391Y-123764854D01*
X97302146Y-123817658D01*
X97312090Y-123886816D01*
X97292454Y-123938060D01*
X97201990Y-124073446D01*
X97201983Y-124073459D01*
X97134106Y-124237332D01*
X97134103Y-124237341D01*
X97129011Y-124262946D01*
X97096626Y-124324857D01*
X97035911Y-124359431D01*
X97031586Y-124360372D01*
X96912277Y-124384104D01*
X96912274Y-124384105D01*
X96912272Y-124384105D01*
X96912271Y-124384106D01*
X96883365Y-124396079D01*
X96808740Y-124426989D01*
X96739271Y-124434456D01*
X96676792Y-124403181D01*
X96673608Y-124400108D01*
X96574038Y-124300538D01*
X96574034Y-124300535D01*
X96426553Y-124201990D01*
X96426540Y-124201983D01*
X96262667Y-124134106D01*
X96262658Y-124134103D01*
X96088694Y-124099500D01*
X96088691Y-124099500D01*
X95911309Y-124099500D01*
X95911306Y-124099500D01*
X95737341Y-124134103D01*
X95737332Y-124134106D01*
X95573459Y-124201983D01*
X95573446Y-124201990D01*
X95425965Y-124300535D01*
X95425961Y-124300538D01*
X95300538Y-124425961D01*
X95300535Y-124425965D01*
X95201990Y-124573446D01*
X95201983Y-124573459D01*
X95134106Y-124737332D01*
X95134103Y-124737341D01*
X95099500Y-124911304D01*
X81112195Y-124911304D01*
X81199464Y-124824035D01*
X81298013Y-124676547D01*
X81365894Y-124512666D01*
X81368352Y-124500307D01*
X81400736Y-124438399D01*
X81461451Y-124403824D01*
X81489969Y-124400500D01*
X81588693Y-124400500D01*
X81588694Y-124400499D01*
X81671124Y-124384103D01*
X81762658Y-124365896D01*
X81762661Y-124365894D01*
X81762666Y-124365894D01*
X81926547Y-124298013D01*
X82074035Y-124199464D01*
X82199464Y-124074035D01*
X82298013Y-123926547D01*
X82365894Y-123762666D01*
X82367093Y-123756642D01*
X82397489Y-123603829D01*
X82400500Y-123588691D01*
X82400500Y-123411309D01*
X82400500Y-123411306D01*
X82400499Y-123411304D01*
X82365896Y-123237341D01*
X82365893Y-123237332D01*
X82298016Y-123073459D01*
X82298009Y-123073446D01*
X82199464Y-122925965D01*
X82199461Y-122925961D01*
X82074038Y-122800538D01*
X82074034Y-122800535D01*
X81926553Y-122701990D01*
X81926540Y-122701983D01*
X81762667Y-122634106D01*
X81762658Y-122634103D01*
X81588694Y-122599500D01*
X81588691Y-122599500D01*
X81411309Y-122599500D01*
X81411306Y-122599500D01*
X81237341Y-122634103D01*
X81237332Y-122634106D01*
X81073459Y-122701983D01*
X81073446Y-122701990D01*
X80925965Y-122800535D01*
X80925961Y-122800538D01*
X80800538Y-122925961D01*
X80800535Y-122925965D01*
X80701990Y-123073446D01*
X80701983Y-123073459D01*
X80634107Y-123237329D01*
X80634105Y-123237335D01*
X80631647Y-123249695D01*
X80619574Y-123272772D01*
X80611067Y-123297386D01*
X80603640Y-123303230D01*
X80599260Y-123311605D01*
X80576628Y-123324491D01*
X80556163Y-123340599D01*
X80544329Y-123342882D01*
X80538543Y-123346177D01*
X80521868Y-123348934D01*
X80515966Y-123349500D01*
X80411309Y-123349500D01*
X80313874Y-123368881D01*
X80307650Y-123369478D01*
X80279231Y-123364012D01*
X80250411Y-123361434D01*
X80245340Y-123357495D01*
X80239037Y-123356283D01*
X80218088Y-123336324D01*
X80195234Y-123318571D01*
X80193098Y-123312516D01*
X80188450Y-123308088D01*
X80181615Y-123279967D01*
X80171990Y-123252681D01*
X80172670Y-123243161D01*
X80171950Y-123240195D01*
X80173126Y-123236791D01*
X80174195Y-123221852D01*
X80177173Y-123206884D01*
X80183177Y-123176696D01*
X80192357Y-123130550D01*
X80192357Y-122953163D01*
X80192356Y-122953161D01*
X80157753Y-122779198D01*
X80157750Y-122779189D01*
X80152886Y-122767447D01*
X80125774Y-122701990D01*
X80089873Y-122615316D01*
X80089866Y-122615303D01*
X79995522Y-122474108D01*
X79991322Y-122467823D01*
X79991318Y-122467818D01*
X79934804Y-122411304D01*
X83349500Y-122411304D01*
X83349500Y-122588695D01*
X83384103Y-122762658D01*
X83384106Y-122762667D01*
X83451983Y-122926540D01*
X83451990Y-122926553D01*
X83550535Y-123074034D01*
X83550538Y-123074038D01*
X83675961Y-123199461D01*
X83675965Y-123199464D01*
X83823446Y-123298009D01*
X83823459Y-123298016D01*
X83939732Y-123346177D01*
X83987334Y-123365894D01*
X83987336Y-123365894D01*
X83987341Y-123365896D01*
X84161304Y-123400499D01*
X84161307Y-123400500D01*
X84161309Y-123400500D01*
X84338693Y-123400500D01*
X84338694Y-123400499D01*
X84421109Y-123384106D01*
X84512658Y-123365896D01*
X84512661Y-123365894D01*
X84512666Y-123365894D01*
X84676547Y-123298013D01*
X84824035Y-123199464D01*
X84949464Y-123074035D01*
X85048013Y-122926547D01*
X85049566Y-122922799D01*
X85067986Y-122878328D01*
X85115894Y-122762666D01*
X85117225Y-122755978D01*
X85145205Y-122615310D01*
X85150500Y-122588691D01*
X85150500Y-122489094D01*
X85427290Y-122489094D01*
X85427290Y-122666485D01*
X85461893Y-122840448D01*
X85461896Y-122840457D01*
X85529773Y-123004330D01*
X85529780Y-123004343D01*
X85628325Y-123151824D01*
X85628328Y-123151828D01*
X85753751Y-123277251D01*
X85753755Y-123277254D01*
X85806571Y-123312545D01*
X85851376Y-123366157D01*
X85860083Y-123435482D01*
X85859298Y-123439836D01*
X85849500Y-123489098D01*
X85849500Y-123666485D01*
X85884103Y-123840448D01*
X85884106Y-123840457D01*
X85951983Y-124004330D01*
X85951990Y-124004343D01*
X86050535Y-124151824D01*
X86050538Y-124151828D01*
X86175961Y-124277251D01*
X86175965Y-124277254D01*
X86323446Y-124375799D01*
X86323459Y-124375806D01*
X86391102Y-124403824D01*
X86487334Y-124443684D01*
X86487336Y-124443684D01*
X86487341Y-124443686D01*
X86661304Y-124478289D01*
X86661307Y-124478290D01*
X86661309Y-124478290D01*
X86838693Y-124478290D01*
X86838694Y-124478289D01*
X86900688Y-124465958D01*
X87012658Y-124443686D01*
X87012661Y-124443684D01*
X87012666Y-124443684D01*
X87176547Y-124375803D01*
X87324035Y-124277254D01*
X87449464Y-124151825D01*
X87548013Y-124004337D01*
X87615894Y-123840456D01*
X87623835Y-123800538D01*
X87638964Y-123724472D01*
X87650500Y-123666481D01*
X87650500Y-123489099D01*
X87650500Y-123489098D01*
X87650500Y-123489096D01*
X87650499Y-123489094D01*
X87615896Y-123315131D01*
X87615893Y-123315122D01*
X87612979Y-123308088D01*
X87567987Y-123199464D01*
X87548016Y-123151249D01*
X87548009Y-123151236D01*
X87449464Y-123003755D01*
X87449461Y-123003751D01*
X87324038Y-122878328D01*
X87324030Y-122878322D01*
X87271218Y-122843034D01*
X87226412Y-122789422D01*
X87217705Y-122720097D01*
X87218481Y-122715789D01*
X87228290Y-122666481D01*
X87228290Y-122489099D01*
X87228290Y-122489096D01*
X87228289Y-122489094D01*
X87193686Y-122315131D01*
X87193683Y-122315122D01*
X87125806Y-122151249D01*
X87125799Y-122151236D01*
X87027254Y-122003755D01*
X87027251Y-122003751D01*
X86901828Y-121878328D01*
X86901824Y-121878325D01*
X86754343Y-121779780D01*
X86754330Y-121779773D01*
X86590457Y-121711896D01*
X86590448Y-121711893D01*
X86416484Y-121677290D01*
X86416481Y-121677290D01*
X86239099Y-121677290D01*
X86239096Y-121677290D01*
X86065131Y-121711893D01*
X86065122Y-121711896D01*
X85901249Y-121779773D01*
X85901236Y-121779780D01*
X85753755Y-121878325D01*
X85753751Y-121878328D01*
X85628328Y-122003751D01*
X85628325Y-122003755D01*
X85529780Y-122151236D01*
X85529773Y-122151249D01*
X85461896Y-122315122D01*
X85461893Y-122315131D01*
X85427290Y-122489094D01*
X85150500Y-122489094D01*
X85150500Y-122411309D01*
X85150500Y-122411306D01*
X85150499Y-122411304D01*
X85115896Y-122237341D01*
X85115893Y-122237332D01*
X85048016Y-122073459D01*
X85048009Y-122073446D01*
X84949464Y-121925965D01*
X84949461Y-121925961D01*
X84824038Y-121800538D01*
X84824034Y-121800535D01*
X84676553Y-121701990D01*
X84676540Y-121701983D01*
X84512667Y-121634106D01*
X84512658Y-121634103D01*
X84338694Y-121599500D01*
X84338691Y-121599500D01*
X84161309Y-121599500D01*
X84161306Y-121599500D01*
X83987341Y-121634103D01*
X83987332Y-121634106D01*
X83823459Y-121701983D01*
X83823446Y-121701990D01*
X83675965Y-121800535D01*
X83675961Y-121800538D01*
X83550538Y-121925961D01*
X83550535Y-121925965D01*
X83451990Y-122073446D01*
X83451983Y-122073459D01*
X83384106Y-122237332D01*
X83384103Y-122237341D01*
X83349500Y-122411304D01*
X79934804Y-122411304D01*
X79865895Y-122342395D01*
X79865891Y-122342392D01*
X79718410Y-122243847D01*
X79718397Y-122243840D01*
X79554524Y-122175963D01*
X79554515Y-122175960D01*
X79380551Y-122141357D01*
X79380548Y-122141357D01*
X79203166Y-122141357D01*
X79203163Y-122141357D01*
X79029198Y-122175960D01*
X79029189Y-122175963D01*
X78865316Y-122243840D01*
X78865303Y-122243847D01*
X78717822Y-122342392D01*
X78717818Y-122342395D01*
X78592395Y-122467818D01*
X78592392Y-122467822D01*
X78493847Y-122615303D01*
X78493840Y-122615316D01*
X78425963Y-122779189D01*
X78425960Y-122779198D01*
X78391357Y-122953161D01*
X78391357Y-123130552D01*
X78425960Y-123304515D01*
X78425963Y-123304524D01*
X78479908Y-123434760D01*
X78487377Y-123504229D01*
X78456101Y-123566708D01*
X78396012Y-123602360D01*
X78389539Y-123603829D01*
X78237340Y-123634104D01*
X78237332Y-123634106D01*
X78073459Y-123701983D01*
X78073446Y-123701990D01*
X77925965Y-123800535D01*
X77925961Y-123800538D01*
X77800538Y-123925961D01*
X77800535Y-123925965D01*
X77701990Y-124073446D01*
X77701983Y-124073459D01*
X77634106Y-124237332D01*
X77634103Y-124237341D01*
X77599500Y-124411304D01*
X75078330Y-124411304D01*
X75012667Y-124384106D01*
X75012658Y-124384103D01*
X74838694Y-124349500D01*
X74838691Y-124349500D01*
X74661309Y-124349500D01*
X74661306Y-124349500D01*
X74487341Y-124384103D01*
X74487332Y-124384106D01*
X74323459Y-124451983D01*
X74323446Y-124451990D01*
X74175965Y-124550535D01*
X74175961Y-124550538D01*
X74050538Y-124675961D01*
X74050535Y-124675965D01*
X73951990Y-124823446D01*
X73951983Y-124823459D01*
X73884106Y-124987332D01*
X73884103Y-124987341D01*
X73849500Y-125161304D01*
X64590038Y-125161304D01*
X64614414Y-125136928D01*
X64716232Y-124996788D01*
X64794873Y-124842445D01*
X64848402Y-124677701D01*
X64875500Y-124506611D01*
X64875500Y-124333389D01*
X64848402Y-124162299D01*
X64794873Y-123997555D01*
X64716232Y-123843212D01*
X64614414Y-123703072D01*
X64506872Y-123595530D01*
X64473387Y-123534207D01*
X64478371Y-123464515D01*
X64520243Y-123408582D01*
X64529457Y-123402310D01*
X64593656Y-123362712D01*
X64717712Y-123238656D01*
X64809814Y-123089334D01*
X64864999Y-122922797D01*
X64875500Y-122820009D01*
X64875499Y-122161304D01*
X66849500Y-122161304D01*
X66849500Y-122338695D01*
X66884103Y-122512658D01*
X66884106Y-122512667D01*
X66951983Y-122676540D01*
X66951990Y-122676553D01*
X67050535Y-122824034D01*
X67050538Y-122824038D01*
X67175961Y-122949461D01*
X67175965Y-122949464D01*
X67323446Y-123048009D01*
X67323459Y-123048016D01*
X67434264Y-123093912D01*
X67487334Y-123115894D01*
X67487336Y-123115894D01*
X67487341Y-123115896D01*
X67661304Y-123150499D01*
X67661307Y-123150500D01*
X67661309Y-123150500D01*
X67838693Y-123150500D01*
X67838694Y-123150499D01*
X67938976Y-123130552D01*
X68012658Y-123115896D01*
X68012661Y-123115894D01*
X68012666Y-123115894D01*
X68176547Y-123048013D01*
X68324035Y-122949464D01*
X68449464Y-122824035D01*
X68548013Y-122676547D01*
X68615894Y-122512666D01*
X68620583Y-122489096D01*
X68638964Y-122396682D01*
X68650500Y-122338691D01*
X68650500Y-122161309D01*
X68650500Y-122161306D01*
X68650499Y-122161304D01*
X68615896Y-121987341D01*
X68615893Y-121987332D01*
X68613817Y-121982321D01*
X68586844Y-121917200D01*
X68548016Y-121823459D01*
X68548009Y-121823446D01*
X68449464Y-121675965D01*
X68449461Y-121675961D01*
X68324038Y-121550538D01*
X68324034Y-121550535D01*
X68176553Y-121451990D01*
X68176540Y-121451983D01*
X68012667Y-121384106D01*
X68012658Y-121384103D01*
X67838694Y-121349500D01*
X67838691Y-121349500D01*
X67661309Y-121349500D01*
X67661306Y-121349500D01*
X67487341Y-121384103D01*
X67487332Y-121384106D01*
X67323459Y-121451983D01*
X67323446Y-121451990D01*
X67175965Y-121550535D01*
X67175961Y-121550538D01*
X67050538Y-121675961D01*
X67050535Y-121675965D01*
X66951990Y-121823446D01*
X66951983Y-121823459D01*
X66884106Y-121987332D01*
X66884103Y-121987341D01*
X66849500Y-122161304D01*
X64875499Y-122161304D01*
X64875499Y-122019992D01*
X64874983Y-122014945D01*
X64864999Y-121917203D01*
X64864998Y-121917200D01*
X64852116Y-121878325D01*
X64809814Y-121750666D01*
X64717712Y-121601344D01*
X64593656Y-121477288D01*
X64444334Y-121385186D01*
X64277797Y-121330001D01*
X64277795Y-121330000D01*
X64175010Y-121319500D01*
X62824998Y-121319500D01*
X62824981Y-121319501D01*
X62722203Y-121330000D01*
X62722200Y-121330001D01*
X62555668Y-121385185D01*
X62555663Y-121385187D01*
X62406342Y-121477289D01*
X62282289Y-121601342D01*
X62190187Y-121750663D01*
X62190185Y-121750668D01*
X62173661Y-121800535D01*
X62135001Y-121917203D01*
X62135001Y-121917204D01*
X62135000Y-121917204D01*
X62124500Y-122019983D01*
X60517956Y-122019983D01*
X60517401Y-121161304D01*
X91849500Y-121161304D01*
X91849500Y-121338695D01*
X91884103Y-121512658D01*
X91884106Y-121512667D01*
X91951983Y-121676540D01*
X91951990Y-121676553D01*
X92050535Y-121824034D01*
X92050538Y-121824038D01*
X92175961Y-121949461D01*
X92175965Y-121949464D01*
X92323446Y-122048009D01*
X92323459Y-122048016D01*
X92402768Y-122080866D01*
X92487334Y-122115894D01*
X92487336Y-122115894D01*
X92487341Y-122115896D01*
X92615344Y-122141357D01*
X92661309Y-122150500D01*
X92661310Y-122150500D01*
X92661868Y-122150611D01*
X92723779Y-122182995D01*
X92758353Y-122243711D01*
X92754614Y-122313481D01*
X92740781Y-122341115D01*
X92732325Y-122353770D01*
X92732314Y-122353790D01*
X92664437Y-122517663D01*
X92664434Y-122517672D01*
X92629831Y-122691635D01*
X92629831Y-122869026D01*
X92664434Y-123042989D01*
X92664437Y-123042998D01*
X92732314Y-123206871D01*
X92732321Y-123206884D01*
X92830866Y-123354365D01*
X92830869Y-123354369D01*
X92956292Y-123479792D01*
X92956296Y-123479795D01*
X93103777Y-123578340D01*
X93103790Y-123578347D01*
X93224486Y-123628340D01*
X93267665Y-123646225D01*
X93267667Y-123646225D01*
X93267672Y-123646227D01*
X93441635Y-123680830D01*
X93441638Y-123680831D01*
X93441640Y-123680831D01*
X93619024Y-123680831D01*
X93619025Y-123680830D01*
X93691164Y-123666481D01*
X93792989Y-123646227D01*
X93792992Y-123646225D01*
X93792997Y-123646225D01*
X93954676Y-123579256D01*
X93956871Y-123578347D01*
X93956871Y-123578346D01*
X93956878Y-123578344D01*
X94104366Y-123479795D01*
X94229795Y-123354366D01*
X94328344Y-123206878D01*
X94396225Y-123042997D01*
X94403917Y-123004330D01*
X94430649Y-122869937D01*
X94430831Y-122869022D01*
X94430831Y-122691640D01*
X94430831Y-122691637D01*
X94430830Y-122691635D01*
X94396227Y-122517672D01*
X94396224Y-122517663D01*
X94328347Y-122353790D01*
X94328340Y-122353777D01*
X94229795Y-122206296D01*
X94229792Y-122206292D01*
X94104369Y-122080869D01*
X94104365Y-122080866D01*
X93956884Y-121982321D01*
X93956871Y-121982314D01*
X93792998Y-121914437D01*
X93792989Y-121914434D01*
X93618462Y-121879719D01*
X93556551Y-121847334D01*
X93521977Y-121786618D01*
X93525716Y-121716849D01*
X93539553Y-121689208D01*
X93548013Y-121676547D01*
X93615894Y-121512666D01*
X93622518Y-121479369D01*
X93641251Y-121385187D01*
X93650500Y-121338691D01*
X93650500Y-121161309D01*
X93650500Y-121161306D01*
X93650499Y-121161304D01*
X93615896Y-120987341D01*
X93615893Y-120987332D01*
X93562342Y-120858046D01*
X93562336Y-120858033D01*
X93548013Y-120823453D01*
X93548011Y-120823450D01*
X93548009Y-120823446D01*
X93543458Y-120816635D01*
X94504831Y-120816635D01*
X94504831Y-120994026D01*
X94539434Y-121167989D01*
X94539437Y-121167998D01*
X94607314Y-121331871D01*
X94607321Y-121331884D01*
X94705866Y-121479365D01*
X94705869Y-121479369D01*
X94831292Y-121604792D01*
X94831296Y-121604795D01*
X94978777Y-121703340D01*
X94978790Y-121703347D01*
X95093023Y-121750663D01*
X95142665Y-121771225D01*
X95142667Y-121771225D01*
X95142672Y-121771227D01*
X95316635Y-121805830D01*
X95316638Y-121805831D01*
X95316640Y-121805831D01*
X95494024Y-121805831D01*
X95494025Y-121805830D01*
X95590612Y-121786618D01*
X95667989Y-121771227D01*
X95667992Y-121771225D01*
X95667997Y-121771225D01*
X95831878Y-121703344D01*
X95979366Y-121604795D01*
X96104795Y-121479366D01*
X96203344Y-121331878D01*
X96204122Y-121330001D01*
X96213289Y-121307866D01*
X96271225Y-121167997D01*
X96272556Y-121161309D01*
X96305830Y-120994026D01*
X96305831Y-120994024D01*
X96305831Y-120816637D01*
X96305830Y-120816635D01*
X96271227Y-120642672D01*
X96271224Y-120642663D01*
X96261906Y-120620168D01*
X96233065Y-120550538D01*
X96203347Y-120478790D01*
X96203340Y-120478777D01*
X96104795Y-120331296D01*
X96104792Y-120331292D01*
X95979369Y-120205869D01*
X95979365Y-120205866D01*
X95847499Y-120117755D01*
X95831884Y-120107321D01*
X95831871Y-120107314D01*
X95667998Y-120039437D01*
X95667989Y-120039434D01*
X95574006Y-120020740D01*
X105240064Y-120020740D01*
X105240064Y-120198131D01*
X105274667Y-120372094D01*
X105274670Y-120372103D01*
X105342547Y-120535976D01*
X105342554Y-120535989D01*
X105441099Y-120683470D01*
X105441102Y-120683474D01*
X105566525Y-120808897D01*
X105566529Y-120808900D01*
X105714010Y-120907445D01*
X105714023Y-120907452D01*
X105836927Y-120958359D01*
X105877898Y-120975330D01*
X105877900Y-120975330D01*
X105877905Y-120975332D01*
X106051868Y-121009935D01*
X106051871Y-121009936D01*
X106051873Y-121009936D01*
X106229257Y-121009936D01*
X106229258Y-121009935D01*
X106287246Y-120998400D01*
X106403222Y-120975332D01*
X106403225Y-120975330D01*
X106403230Y-120975330D01*
X106567111Y-120907449D01*
X106714599Y-120808900D01*
X106840028Y-120683471D01*
X106938577Y-120535983D01*
X107006458Y-120372102D01*
X107022053Y-120293704D01*
X107039524Y-120205867D01*
X107041064Y-120198127D01*
X107041064Y-120020745D01*
X107041064Y-120020742D01*
X107041063Y-120020740D01*
X107006460Y-119846777D01*
X107006457Y-119846768D01*
X106938580Y-119682895D01*
X106938573Y-119682882D01*
X106840028Y-119535401D01*
X106840025Y-119535397D01*
X106714602Y-119409974D01*
X106714598Y-119409971D01*
X106567117Y-119311426D01*
X106567104Y-119311419D01*
X106403231Y-119243542D01*
X106403222Y-119243539D01*
X106229258Y-119208936D01*
X106229255Y-119208936D01*
X106051873Y-119208936D01*
X106051870Y-119208936D01*
X105877905Y-119243539D01*
X105877896Y-119243542D01*
X105714023Y-119311419D01*
X105714010Y-119311426D01*
X105566529Y-119409971D01*
X105566525Y-119409974D01*
X105441102Y-119535397D01*
X105441099Y-119535401D01*
X105342554Y-119682882D01*
X105342547Y-119682895D01*
X105274670Y-119846768D01*
X105274667Y-119846777D01*
X105240064Y-120020740D01*
X95574006Y-120020740D01*
X95494025Y-120004831D01*
X95494022Y-120004831D01*
X95316640Y-120004831D01*
X95316637Y-120004831D01*
X95142672Y-120039434D01*
X95142663Y-120039437D01*
X94978790Y-120107314D01*
X94978777Y-120107321D01*
X94831296Y-120205866D01*
X94831292Y-120205869D01*
X94705869Y-120331292D01*
X94705866Y-120331296D01*
X94607321Y-120478777D01*
X94607314Y-120478790D01*
X94539437Y-120642663D01*
X94539434Y-120642672D01*
X94504831Y-120816635D01*
X93543458Y-120816635D01*
X93449464Y-120675965D01*
X93449461Y-120675961D01*
X93324038Y-120550538D01*
X93324034Y-120550535D01*
X93176553Y-120451990D01*
X93176540Y-120451983D01*
X93012667Y-120384106D01*
X93012658Y-120384103D01*
X92838694Y-120349500D01*
X92838691Y-120349500D01*
X92661309Y-120349500D01*
X92661306Y-120349500D01*
X92487341Y-120384103D01*
X92487332Y-120384106D01*
X92323459Y-120451983D01*
X92323446Y-120451990D01*
X92175965Y-120550535D01*
X92175961Y-120550538D01*
X92050538Y-120675961D01*
X92050535Y-120675965D01*
X91951990Y-120823446D01*
X91951983Y-120823459D01*
X91884106Y-120987332D01*
X91884103Y-120987341D01*
X91849500Y-121161304D01*
X60517401Y-121161304D01*
X60516413Y-119630973D01*
X85069169Y-119630973D01*
X85069169Y-119808364D01*
X85103772Y-119982327D01*
X85103775Y-119982336D01*
X85171652Y-120146209D01*
X85171659Y-120146222D01*
X85270204Y-120293703D01*
X85270207Y-120293707D01*
X85395630Y-120419130D01*
X85395634Y-120419133D01*
X85543115Y-120517678D01*
X85543128Y-120517685D01*
X85587319Y-120535989D01*
X85707003Y-120585563D01*
X85707005Y-120585563D01*
X85707010Y-120585565D01*
X85880973Y-120620168D01*
X85880976Y-120620169D01*
X85880978Y-120620169D01*
X86058362Y-120620169D01*
X86058363Y-120620168D01*
X86116351Y-120608633D01*
X86232327Y-120585565D01*
X86232330Y-120585563D01*
X86232335Y-120585563D01*
X86396216Y-120517682D01*
X86543704Y-120419133D01*
X86669133Y-120293704D01*
X86767682Y-120146216D01*
X86835563Y-119982335D01*
X86870169Y-119808360D01*
X86870169Y-119630978D01*
X86870169Y-119630975D01*
X86870168Y-119630973D01*
X86835565Y-119457010D01*
X86835562Y-119457001D01*
X86767685Y-119293128D01*
X86767678Y-119293115D01*
X86669133Y-119145634D01*
X86669130Y-119145630D01*
X86543707Y-119020207D01*
X86543703Y-119020204D01*
X86396222Y-118921659D01*
X86396209Y-118921652D01*
X86232336Y-118853775D01*
X86232327Y-118853772D01*
X86058363Y-118819169D01*
X86058360Y-118819169D01*
X85880978Y-118819169D01*
X85880975Y-118819169D01*
X85707010Y-118853772D01*
X85707001Y-118853775D01*
X85543128Y-118921652D01*
X85543115Y-118921659D01*
X85395634Y-119020204D01*
X85395630Y-119020207D01*
X85270207Y-119145630D01*
X85270204Y-119145634D01*
X85171659Y-119293115D01*
X85171652Y-119293128D01*
X85103775Y-119457001D01*
X85103772Y-119457010D01*
X85069169Y-119630973D01*
X60516413Y-119630973D01*
X60514980Y-117413389D01*
X87899500Y-117413389D01*
X87899500Y-117586610D01*
X87918641Y-117707466D01*
X87926598Y-117757701D01*
X87980127Y-117922445D01*
X88058768Y-118076788D01*
X88160586Y-118216928D01*
X88283072Y-118339414D01*
X88423212Y-118441232D01*
X88577555Y-118519873D01*
X88742299Y-118573402D01*
X88913389Y-118600500D01*
X88913390Y-118600500D01*
X89086610Y-118600500D01*
X89086611Y-118600500D01*
X89257701Y-118573402D01*
X89422445Y-118519873D01*
X89576788Y-118441232D01*
X89716928Y-118339414D01*
X89839414Y-118216928D01*
X89941232Y-118076788D01*
X90019873Y-117922445D01*
X90073402Y-117757701D01*
X90100500Y-117586611D01*
X90100500Y-117413389D01*
X90073402Y-117242299D01*
X90019873Y-117077555D01*
X89941232Y-116923212D01*
X89839414Y-116783072D01*
X89716928Y-116660586D01*
X89576788Y-116558768D01*
X89556175Y-116548265D01*
X89492266Y-116515702D01*
X89492264Y-116515700D01*
X89422450Y-116480129D01*
X89422447Y-116480128D01*
X89422445Y-116480127D01*
X89257701Y-116426598D01*
X89257699Y-116426597D01*
X89257698Y-116426597D01*
X89161142Y-116411304D01*
X114599500Y-116411304D01*
X114599500Y-116588695D01*
X114634103Y-116762658D01*
X114634106Y-116762667D01*
X114701983Y-116926540D01*
X114701990Y-116926553D01*
X114800535Y-117074034D01*
X114800538Y-117074038D01*
X114925961Y-117199461D01*
X114925965Y-117199464D01*
X115073446Y-117298009D01*
X115073459Y-117298016D01*
X115196363Y-117348923D01*
X115237334Y-117365894D01*
X115237336Y-117365894D01*
X115237341Y-117365896D01*
X115411304Y-117400499D01*
X115411307Y-117400500D01*
X115411309Y-117400500D01*
X115588693Y-117400500D01*
X115588694Y-117400499D01*
X115646682Y-117388964D01*
X115762658Y-117365896D01*
X115762661Y-117365894D01*
X115762666Y-117365894D01*
X115926547Y-117298013D01*
X116074035Y-117199464D01*
X116074038Y-117199461D01*
X116074512Y-117198988D01*
X116199461Y-117074038D01*
X116199464Y-117074035D01*
X116298013Y-116926547D01*
X116334418Y-116838654D01*
X116378256Y-116784254D01*
X116444550Y-116762188D01*
X116512250Y-116779466D01*
X116544830Y-116807442D01*
X116555137Y-116820000D01*
X117358012Y-116820000D01*
X117340795Y-116829940D01*
X117284940Y-116885795D01*
X117245444Y-116954204D01*
X117225000Y-117030504D01*
X117225000Y-117109496D01*
X117245444Y-117185796D01*
X117284940Y-117254205D01*
X117340795Y-117310060D01*
X117358012Y-117320000D01*
X116555138Y-117320000D01*
X116563430Y-117361690D01*
X116563430Y-117361692D01*
X116638807Y-117543671D01*
X116638814Y-117543684D01*
X116748248Y-117707462D01*
X116748251Y-117707466D01*
X116887533Y-117846748D01*
X116887537Y-117846751D01*
X117051315Y-117956185D01*
X117051328Y-117956192D01*
X117233306Y-118031569D01*
X117233318Y-118031572D01*
X117426504Y-118069999D01*
X117426508Y-118070000D01*
X117825000Y-118070000D01*
X117825000Y-117370000D01*
X118325000Y-117370000D01*
X118325000Y-118070000D01*
X118723492Y-118070000D01*
X118723495Y-118069999D01*
X118916681Y-118031572D01*
X118916693Y-118031569D01*
X119098671Y-117956192D01*
X119098684Y-117956185D01*
X119262462Y-117846751D01*
X119262466Y-117846748D01*
X119401748Y-117707466D01*
X119401751Y-117707462D01*
X119511185Y-117543684D01*
X119511192Y-117543671D01*
X119586569Y-117361692D01*
X119586569Y-117361690D01*
X119594862Y-117320000D01*
X118791988Y-117320000D01*
X118809205Y-117310060D01*
X118865060Y-117254205D01*
X118904556Y-117185796D01*
X118925000Y-117109496D01*
X118925000Y-117030504D01*
X118904556Y-116954204D01*
X118865060Y-116885795D01*
X118809205Y-116829940D01*
X118791988Y-116820000D01*
X119594862Y-116820000D01*
X120885138Y-116820000D01*
X121688012Y-116820000D01*
X121670795Y-116829940D01*
X121614940Y-116885795D01*
X121575444Y-116954204D01*
X121555000Y-117030504D01*
X121555000Y-117109496D01*
X121575444Y-117185796D01*
X121614940Y-117254205D01*
X121670795Y-117310060D01*
X121688012Y-117320000D01*
X120885138Y-117320000D01*
X120893430Y-117361690D01*
X120893430Y-117361692D01*
X120968807Y-117543671D01*
X120968814Y-117543684D01*
X121078248Y-117707462D01*
X121078251Y-117707466D01*
X121217533Y-117846748D01*
X121217537Y-117846751D01*
X121381315Y-117956185D01*
X121381328Y-117956192D01*
X121563306Y-118031569D01*
X121563318Y-118031572D01*
X121756504Y-118069999D01*
X121756508Y-118070000D01*
X122005000Y-118070000D01*
X122005000Y-117370000D01*
X122505000Y-117370000D01*
X122505000Y-118070000D01*
X122753492Y-118070000D01*
X122753495Y-118069999D01*
X122946681Y-118031572D01*
X122946693Y-118031569D01*
X123128671Y-117956192D01*
X123128684Y-117956185D01*
X123292462Y-117846751D01*
X123292466Y-117846748D01*
X123431748Y-117707466D01*
X123431751Y-117707462D01*
X123541185Y-117543684D01*
X123541192Y-117543671D01*
X123616569Y-117361692D01*
X123616569Y-117361690D01*
X123624862Y-117320000D01*
X122821988Y-117320000D01*
X122839205Y-117310060D01*
X122895060Y-117254205D01*
X122934556Y-117185796D01*
X122955000Y-117109496D01*
X122955000Y-117030504D01*
X122934556Y-116954204D01*
X122895060Y-116885795D01*
X122839205Y-116829940D01*
X122821988Y-116820000D01*
X123624862Y-116820000D01*
X123616569Y-116778309D01*
X123616569Y-116778307D01*
X123541192Y-116596328D01*
X123541185Y-116596315D01*
X123431751Y-116432537D01*
X123431748Y-116432533D01*
X123292466Y-116293251D01*
X123292462Y-116293248D01*
X123128684Y-116183814D01*
X123128671Y-116183807D01*
X122946693Y-116108430D01*
X122946681Y-116108427D01*
X122753495Y-116070000D01*
X122505000Y-116070000D01*
X122505000Y-116770000D01*
X122005000Y-116770000D01*
X122005000Y-116070000D01*
X121756504Y-116070000D01*
X121563318Y-116108427D01*
X121563306Y-116108430D01*
X121381328Y-116183807D01*
X121381315Y-116183814D01*
X121217537Y-116293248D01*
X121217533Y-116293251D01*
X121078251Y-116432533D01*
X121078248Y-116432537D01*
X120968814Y-116596315D01*
X120968807Y-116596328D01*
X120893430Y-116778307D01*
X120893430Y-116778309D01*
X120885138Y-116820000D01*
X119594862Y-116820000D01*
X119586569Y-116778309D01*
X119586569Y-116778307D01*
X119511192Y-116596328D01*
X119511185Y-116596315D01*
X119401751Y-116432537D01*
X119401748Y-116432533D01*
X119262466Y-116293251D01*
X119262462Y-116293248D01*
X119098684Y-116183814D01*
X119098674Y-116183809D01*
X119089157Y-116179867D01*
X119034754Y-116136026D01*
X119012689Y-116069731D01*
X119029969Y-116002032D01*
X119033648Y-115996597D01*
X119035512Y-115993367D01*
X119035515Y-115993365D01*
X119111281Y-115862135D01*
X119150500Y-115715766D01*
X119150500Y-115564234D01*
X119111281Y-115417865D01*
X119035515Y-115286635D01*
X118928365Y-115179485D01*
X118862750Y-115141602D01*
X118797136Y-115103719D01*
X118723950Y-115084109D01*
X118650766Y-115064500D01*
X118499234Y-115064500D01*
X118352863Y-115103719D01*
X118221635Y-115179485D01*
X118221632Y-115179487D01*
X118114487Y-115286632D01*
X118114485Y-115286635D01*
X118038719Y-115417863D01*
X117999500Y-115564234D01*
X117999500Y-115715765D01*
X118038719Y-115862136D01*
X118060869Y-115900500D01*
X118114485Y-115993365D01*
X118221635Y-116100515D01*
X118263000Y-116124397D01*
X118311216Y-116174964D01*
X118325000Y-116231784D01*
X118325000Y-116770000D01*
X117825000Y-116770000D01*
X117825000Y-116070000D01*
X117426504Y-116070000D01*
X117233318Y-116108427D01*
X117233306Y-116108430D01*
X117051328Y-116183807D01*
X117051315Y-116183814D01*
X116887537Y-116293248D01*
X116887533Y-116293251D01*
X116748251Y-116432533D01*
X116748248Y-116432537D01*
X116638814Y-116596315D01*
X116635941Y-116601692D01*
X116634756Y-116601059D01*
X116595220Y-116650121D01*
X116528926Y-116672186D01*
X116461227Y-116654907D01*
X116413616Y-116603770D01*
X116400500Y-116548265D01*
X116400500Y-116411306D01*
X116400499Y-116411304D01*
X116365896Y-116237341D01*
X116365893Y-116237332D01*
X116298016Y-116073459D01*
X116298009Y-116073446D01*
X116199464Y-115925965D01*
X116199461Y-115925961D01*
X116074038Y-115800538D01*
X116074034Y-115800535D01*
X115926553Y-115701990D01*
X115926540Y-115701983D01*
X115850936Y-115670668D01*
X115762667Y-115634106D01*
X115762658Y-115634103D01*
X115588694Y-115599500D01*
X115588691Y-115599500D01*
X115411309Y-115599500D01*
X115411306Y-115599500D01*
X115237341Y-115634103D01*
X115237332Y-115634106D01*
X115073459Y-115701983D01*
X115073446Y-115701990D01*
X114925965Y-115800535D01*
X114925961Y-115800538D01*
X114800538Y-115925961D01*
X114800535Y-115925965D01*
X114701990Y-116073446D01*
X114701983Y-116073459D01*
X114634106Y-116237332D01*
X114634103Y-116237341D01*
X114599500Y-116411304D01*
X89161142Y-116411304D01*
X89126271Y-116405781D01*
X89086611Y-116399500D01*
X88913389Y-116399500D01*
X88873728Y-116405781D01*
X88742302Y-116426597D01*
X88577552Y-116480128D01*
X88423211Y-116558768D01*
X88364132Y-116601692D01*
X88283072Y-116660586D01*
X88283070Y-116660588D01*
X88283069Y-116660588D01*
X88160588Y-116783069D01*
X88160588Y-116783070D01*
X88160586Y-116783072D01*
X88155230Y-116790444D01*
X88058768Y-116923211D01*
X87980128Y-117077552D01*
X87926597Y-117242302D01*
X87899500Y-117413389D01*
X60514980Y-117413389D01*
X60513364Y-114911304D01*
X93099500Y-114911304D01*
X93099500Y-115088695D01*
X93134103Y-115262658D01*
X93134106Y-115262667D01*
X93201983Y-115426540D01*
X93201990Y-115426553D01*
X93300535Y-115574034D01*
X93300538Y-115574038D01*
X93425961Y-115699461D01*
X93425965Y-115699464D01*
X93573446Y-115798009D01*
X93573459Y-115798016D01*
X93696363Y-115848923D01*
X93737334Y-115865894D01*
X93737336Y-115865894D01*
X93737341Y-115865896D01*
X93911304Y-115900499D01*
X93911307Y-115900500D01*
X93911309Y-115900500D01*
X94088693Y-115900500D01*
X94088694Y-115900499D01*
X94146682Y-115888964D01*
X94262658Y-115865896D01*
X94262661Y-115865894D01*
X94262666Y-115865894D01*
X94426547Y-115798013D01*
X94574035Y-115699464D01*
X94699464Y-115574035D01*
X94798013Y-115426547D01*
X94865894Y-115262666D01*
X94882440Y-115179487D01*
X94900499Y-115088695D01*
X94900500Y-115088693D01*
X94900500Y-114911306D01*
X94900499Y-114911304D01*
X94865896Y-114737341D01*
X94865893Y-114737332D01*
X94798016Y-114573459D01*
X94798009Y-114573446D01*
X94699464Y-114425965D01*
X94699461Y-114425961D01*
X94574038Y-114300538D01*
X94574034Y-114300535D01*
X94426553Y-114201990D01*
X94426540Y-114201983D01*
X94262667Y-114134106D01*
X94262658Y-114134103D01*
X94088694Y-114099500D01*
X94088691Y-114099500D01*
X93911309Y-114099500D01*
X93911306Y-114099500D01*
X93737341Y-114134103D01*
X93737332Y-114134106D01*
X93573459Y-114201983D01*
X93573446Y-114201990D01*
X93425965Y-114300535D01*
X93425961Y-114300538D01*
X93300538Y-114425961D01*
X93300535Y-114425965D01*
X93201990Y-114573446D01*
X93201983Y-114573459D01*
X93134106Y-114737332D01*
X93134103Y-114737341D01*
X93099500Y-114911304D01*
X60513364Y-114911304D01*
X60512698Y-113880973D01*
X87898500Y-113880973D01*
X87898500Y-114058364D01*
X87933103Y-114232327D01*
X87933106Y-114232336D01*
X88000983Y-114396209D01*
X88000990Y-114396222D01*
X88099535Y-114543703D01*
X88099538Y-114543707D01*
X88224961Y-114669130D01*
X88224965Y-114669133D01*
X88372446Y-114767678D01*
X88372459Y-114767685D01*
X88495363Y-114818592D01*
X88536334Y-114835563D01*
X88536336Y-114835563D01*
X88536341Y-114835565D01*
X88710304Y-114870168D01*
X88710307Y-114870169D01*
X88710309Y-114870169D01*
X88887693Y-114870169D01*
X88887694Y-114870168D01*
X88945682Y-114858633D01*
X89061658Y-114835565D01*
X89061661Y-114835563D01*
X89061666Y-114835563D01*
X89132803Y-114806097D01*
X89170083Y-114790656D01*
X89225541Y-114767685D01*
X89225544Y-114767683D01*
X89225547Y-114767682D01*
X89373035Y-114669133D01*
X89498464Y-114543704D01*
X89597013Y-114396216D01*
X89620136Y-114340389D01*
X89663975Y-114285987D01*
X89730269Y-114263921D01*
X89797968Y-114281199D01*
X89803583Y-114284736D01*
X89823453Y-114298013D01*
X89823455Y-114298014D01*
X89823459Y-114298016D01*
X89925766Y-114340392D01*
X89987334Y-114365894D01*
X89987336Y-114365894D01*
X89987341Y-114365896D01*
X90161304Y-114400499D01*
X90161307Y-114400500D01*
X90161309Y-114400500D01*
X90338693Y-114400500D01*
X90338694Y-114400499D01*
X90396682Y-114388964D01*
X90512658Y-114365896D01*
X90512661Y-114365894D01*
X90512666Y-114365894D01*
X90676547Y-114298013D01*
X90824035Y-114199464D01*
X90949464Y-114074035D01*
X91048013Y-113926547D01*
X91115894Y-113762666D01*
X91128467Y-113699461D01*
X91150499Y-113588695D01*
X91150500Y-113588693D01*
X91150500Y-113411306D01*
X91150499Y-113411304D01*
X91115896Y-113237341D01*
X91115893Y-113237332D01*
X91048015Y-113073457D01*
X91048014Y-113073455D01*
X91048013Y-113073453D01*
X91044965Y-113068892D01*
X91024086Y-113002217D01*
X91035142Y-112948773D01*
X91039329Y-112939542D01*
X91048013Y-112926547D01*
X91054327Y-112911304D01*
X104599500Y-112911304D01*
X104599500Y-113088695D01*
X104634103Y-113262658D01*
X104634106Y-113262667D01*
X104701983Y-113426540D01*
X104701990Y-113426553D01*
X104800535Y-113574034D01*
X104800538Y-113574038D01*
X104925961Y-113699461D01*
X104925965Y-113699464D01*
X105073446Y-113798009D01*
X105073459Y-113798016D01*
X105196363Y-113848923D01*
X105237334Y-113865894D01*
X105237336Y-113865894D01*
X105237341Y-113865896D01*
X105411304Y-113900499D01*
X105411307Y-113900500D01*
X105411309Y-113900500D01*
X105588693Y-113900500D01*
X105588694Y-113900499D01*
X105646682Y-113888964D01*
X105762658Y-113865896D01*
X105762661Y-113865894D01*
X105762666Y-113865894D01*
X105926547Y-113798013D01*
X106074035Y-113699464D01*
X106199464Y-113574035D01*
X106298013Y-113426547D01*
X106365894Y-113262666D01*
X106370932Y-113237341D01*
X106391560Y-113133635D01*
X106400500Y-113088691D01*
X106400500Y-112911309D01*
X106400500Y-112911306D01*
X106400499Y-112911304D01*
X106365896Y-112737341D01*
X106365893Y-112737332D01*
X106298016Y-112573459D01*
X106298009Y-112573446D01*
X106231633Y-112474108D01*
X106199464Y-112425965D01*
X106199461Y-112425961D01*
X106184804Y-112411304D01*
X114599500Y-112411304D01*
X114599500Y-112588695D01*
X114634103Y-112762658D01*
X114634106Y-112762667D01*
X114701983Y-112926540D01*
X114701990Y-112926553D01*
X114800535Y-113074034D01*
X114800538Y-113074038D01*
X114925961Y-113199461D01*
X114925965Y-113199464D01*
X115073446Y-113298009D01*
X115073459Y-113298016D01*
X115196363Y-113348923D01*
X115237334Y-113365894D01*
X115237336Y-113365894D01*
X115237341Y-113365896D01*
X115411304Y-113400499D01*
X115411307Y-113400500D01*
X115411309Y-113400500D01*
X115588693Y-113400500D01*
X115588694Y-113400499D01*
X115646682Y-113388964D01*
X115762658Y-113365896D01*
X115762661Y-113365894D01*
X115762666Y-113365894D01*
X115926547Y-113298013D01*
X116074035Y-113199464D01*
X116199464Y-113074035D01*
X116298013Y-112926547D01*
X116365894Y-112762666D01*
X116370932Y-112737341D01*
X116400499Y-112588695D01*
X116400500Y-112588693D01*
X116400500Y-112411306D01*
X116400499Y-112411304D01*
X116365896Y-112237341D01*
X116365893Y-112237332D01*
X116298016Y-112073459D01*
X116298009Y-112073446D01*
X116199464Y-111925965D01*
X116199461Y-111925961D01*
X116074038Y-111800538D01*
X116074034Y-111800535D01*
X115926553Y-111701990D01*
X115926540Y-111701983D01*
X115762667Y-111634106D01*
X115762658Y-111634103D01*
X115588694Y-111599500D01*
X115588691Y-111599500D01*
X115411309Y-111599500D01*
X115411306Y-111599500D01*
X115237341Y-111634103D01*
X115237332Y-111634106D01*
X115073459Y-111701983D01*
X115073446Y-111701990D01*
X114925965Y-111800535D01*
X114925961Y-111800538D01*
X114800538Y-111925961D01*
X114800535Y-111925965D01*
X114701990Y-112073446D01*
X114701983Y-112073459D01*
X114634106Y-112237332D01*
X114634103Y-112237341D01*
X114599500Y-112411304D01*
X106184804Y-112411304D01*
X106074038Y-112300538D01*
X106074034Y-112300535D01*
X105926553Y-112201990D01*
X105926540Y-112201983D01*
X105762667Y-112134106D01*
X105762658Y-112134103D01*
X105588694Y-112099500D01*
X105588691Y-112099500D01*
X105411309Y-112099500D01*
X105411306Y-112099500D01*
X105237341Y-112134103D01*
X105237332Y-112134106D01*
X105073459Y-112201983D01*
X105073446Y-112201990D01*
X104925965Y-112300535D01*
X104925961Y-112300538D01*
X104800538Y-112425961D01*
X104800535Y-112425965D01*
X104701990Y-112573446D01*
X104701983Y-112573459D01*
X104634106Y-112737332D01*
X104634103Y-112737341D01*
X104599500Y-112911304D01*
X91054327Y-112911304D01*
X91115894Y-112762666D01*
X91120932Y-112737341D01*
X91150499Y-112588695D01*
X91150500Y-112588693D01*
X91150500Y-112411306D01*
X91150499Y-112411304D01*
X91115896Y-112237341D01*
X91115893Y-112237332D01*
X91048016Y-112073459D01*
X91048009Y-112073446D01*
X90949464Y-111925965D01*
X90949461Y-111925961D01*
X90824038Y-111800538D01*
X90824034Y-111800535D01*
X90676553Y-111701990D01*
X90676540Y-111701983D01*
X90512667Y-111634106D01*
X90512658Y-111634103D01*
X90338694Y-111599500D01*
X90338691Y-111599500D01*
X90161309Y-111599500D01*
X90161306Y-111599500D01*
X89987341Y-111634103D01*
X89987332Y-111634106D01*
X89823459Y-111701983D01*
X89823446Y-111701990D01*
X89675965Y-111800535D01*
X89675961Y-111800538D01*
X89550538Y-111925961D01*
X89550535Y-111925965D01*
X89451990Y-112073446D01*
X89451983Y-112073459D01*
X89384106Y-112237332D01*
X89384103Y-112237341D01*
X89349500Y-112411304D01*
X89349500Y-112588695D01*
X89384103Y-112762658D01*
X89384106Y-112762667D01*
X89451983Y-112926540D01*
X89451990Y-112926553D01*
X89455037Y-112931113D01*
X89475912Y-112997792D01*
X89464590Y-113051809D01*
X89460485Y-113060734D01*
X89451987Y-113073453D01*
X89427957Y-113131465D01*
X89426960Y-113133635D01*
X89405510Y-113158257D01*
X89385022Y-113183682D01*
X89382684Y-113184459D01*
X89381066Y-113186318D01*
X89349703Y-113195437D01*
X89318728Y-113205747D01*
X89316341Y-113205137D01*
X89313975Y-113205826D01*
X89282664Y-113196542D01*
X89251029Y-113188468D01*
X89247115Y-113186002D01*
X89246987Y-113185964D01*
X89246906Y-113185870D01*
X89245411Y-113184928D01*
X89225553Y-113171659D01*
X89225540Y-113171652D01*
X89061667Y-113103775D01*
X89061658Y-113103772D01*
X88887694Y-113069169D01*
X88887691Y-113069169D01*
X88710309Y-113069169D01*
X88710306Y-113069169D01*
X88536341Y-113103772D01*
X88536332Y-113103775D01*
X88372459Y-113171652D01*
X88372446Y-113171659D01*
X88224965Y-113270204D01*
X88224961Y-113270207D01*
X88099538Y-113395630D01*
X88099535Y-113395634D01*
X88000990Y-113543115D01*
X88000983Y-113543128D01*
X87933106Y-113707001D01*
X87933103Y-113707010D01*
X87898500Y-113880973D01*
X60512698Y-113880973D01*
X60509488Y-108911304D01*
X78599500Y-108911304D01*
X78599500Y-109088695D01*
X78634103Y-109262658D01*
X78634106Y-109262667D01*
X78701983Y-109426540D01*
X78701990Y-109426553D01*
X78800535Y-109574034D01*
X78800538Y-109574038D01*
X78925961Y-109699461D01*
X78925965Y-109699464D01*
X79073446Y-109798009D01*
X79073459Y-109798016D01*
X79173405Y-109839414D01*
X79237334Y-109865894D01*
X79257594Y-109869924D01*
X79300118Y-109878383D01*
X79362028Y-109910768D01*
X79396603Y-109971484D01*
X79392863Y-110041253D01*
X79351996Y-110097925D01*
X79300118Y-110121617D01*
X79237340Y-110134104D01*
X79237332Y-110134106D01*
X79073459Y-110201983D01*
X79073446Y-110201990D01*
X78925965Y-110300535D01*
X78925961Y-110300538D01*
X78800538Y-110425961D01*
X78800535Y-110425965D01*
X78701990Y-110573446D01*
X78701983Y-110573459D01*
X78634106Y-110737332D01*
X78634103Y-110737341D01*
X78599500Y-110911304D01*
X78599500Y-111088695D01*
X78634103Y-111262658D01*
X78634106Y-111262667D01*
X78701983Y-111426540D01*
X78701990Y-111426553D01*
X78800535Y-111574034D01*
X78800538Y-111574038D01*
X78925961Y-111699461D01*
X78925965Y-111699464D01*
X79073446Y-111798009D01*
X79073459Y-111798016D01*
X79196363Y-111848923D01*
X79237334Y-111865894D01*
X79237336Y-111865894D01*
X79237341Y-111865896D01*
X79411304Y-111900499D01*
X79411307Y-111900500D01*
X79411309Y-111900500D01*
X79588693Y-111900500D01*
X79588694Y-111900499D01*
X79646682Y-111888964D01*
X79762658Y-111865896D01*
X79762661Y-111865894D01*
X79762666Y-111865894D01*
X79926547Y-111798013D01*
X80074035Y-111699464D01*
X80199464Y-111574035D01*
X80298013Y-111426547D01*
X80365894Y-111262666D01*
X80400500Y-111088691D01*
X80400500Y-110911309D01*
X80400500Y-110911306D01*
X80400499Y-110911304D01*
X80365896Y-110737341D01*
X80365893Y-110737332D01*
X80298016Y-110573459D01*
X80298009Y-110573446D01*
X80199464Y-110425965D01*
X80199461Y-110425961D01*
X80074038Y-110300538D01*
X80074034Y-110300535D01*
X79926553Y-110201990D01*
X79926540Y-110201983D01*
X79762667Y-110134106D01*
X79762658Y-110134103D01*
X79699882Y-110121617D01*
X79637971Y-110089232D01*
X79603397Y-110028517D01*
X79607136Y-109958747D01*
X79648003Y-109902075D01*
X79699882Y-109878383D01*
X79762658Y-109865896D01*
X79762661Y-109865894D01*
X79762666Y-109865894D01*
X79926547Y-109798013D01*
X80074035Y-109699464D01*
X80199464Y-109574035D01*
X80298013Y-109426547D01*
X80365894Y-109262666D01*
X80366883Y-109257697D01*
X80400499Y-109088695D01*
X80400500Y-109088693D01*
X80400500Y-108913389D01*
X84399500Y-108913389D01*
X84399500Y-109086611D01*
X84426598Y-109257701D01*
X84480127Y-109422445D01*
X84558768Y-109576788D01*
X84660586Y-109716928D01*
X84783072Y-109839414D01*
X84923212Y-109941232D01*
X85077555Y-110019873D01*
X85242299Y-110073402D01*
X85413389Y-110100500D01*
X85413390Y-110100500D01*
X85586610Y-110100500D01*
X85586611Y-110100500D01*
X85757701Y-110073402D01*
X85922445Y-110019873D01*
X86076788Y-109941232D01*
X86216928Y-109839414D01*
X86339414Y-109716928D01*
X86441232Y-109576788D01*
X86519873Y-109422445D01*
X86573402Y-109257701D01*
X86600500Y-109086611D01*
X86600500Y-108913389D01*
X87899500Y-108913389D01*
X87899500Y-109086611D01*
X87926598Y-109257701D01*
X87980127Y-109422445D01*
X88058768Y-109576788D01*
X88160586Y-109716928D01*
X88283072Y-109839414D01*
X88423212Y-109941232D01*
X88577555Y-110019873D01*
X88742299Y-110073402D01*
X88913389Y-110100500D01*
X88913390Y-110100500D01*
X89086610Y-110100500D01*
X89086611Y-110100500D01*
X89257701Y-110073402D01*
X89422445Y-110019873D01*
X89576788Y-109941232D01*
X89716928Y-109839414D01*
X89839414Y-109716928D01*
X89941232Y-109576788D01*
X90019873Y-109422445D01*
X90073402Y-109257701D01*
X90100500Y-109086611D01*
X90100500Y-108913389D01*
X90073402Y-108742299D01*
X90019873Y-108577555D01*
X89941232Y-108423212D01*
X89839414Y-108283072D01*
X89716928Y-108160586D01*
X89576788Y-108058768D01*
X89422445Y-107980127D01*
X89257701Y-107926598D01*
X89257699Y-107926597D01*
X89257698Y-107926597D01*
X89126271Y-107905781D01*
X89086611Y-107899500D01*
X88913389Y-107899500D01*
X88873728Y-107905781D01*
X88742302Y-107926597D01*
X88577552Y-107980128D01*
X88423211Y-108058768D01*
X88382021Y-108088695D01*
X88283072Y-108160586D01*
X88283070Y-108160588D01*
X88283069Y-108160588D01*
X88160588Y-108283069D01*
X88160588Y-108283070D01*
X88160586Y-108283072D01*
X88137967Y-108314204D01*
X88058768Y-108423211D01*
X87980128Y-108577552D01*
X87926597Y-108742302D01*
X87907022Y-108865894D01*
X87899500Y-108913389D01*
X86600500Y-108913389D01*
X86573402Y-108742299D01*
X86519873Y-108577555D01*
X86441232Y-108423212D01*
X86339414Y-108283072D01*
X86216928Y-108160586D01*
X86076788Y-108058768D01*
X85922445Y-107980127D01*
X85757701Y-107926598D01*
X85757699Y-107926597D01*
X85757698Y-107926597D01*
X85626271Y-107905781D01*
X85586611Y-107899500D01*
X85413389Y-107899500D01*
X85373728Y-107905781D01*
X85242302Y-107926597D01*
X85077552Y-107980128D01*
X84923211Y-108058768D01*
X84882021Y-108088695D01*
X84783072Y-108160586D01*
X84783070Y-108160588D01*
X84783069Y-108160588D01*
X84660588Y-108283069D01*
X84660588Y-108283070D01*
X84660586Y-108283072D01*
X84637967Y-108314204D01*
X84558768Y-108423211D01*
X84480128Y-108577552D01*
X84426597Y-108742302D01*
X84407022Y-108865894D01*
X84399500Y-108913389D01*
X80400500Y-108913389D01*
X80400500Y-108911306D01*
X80400499Y-108911304D01*
X80365896Y-108737341D01*
X80365893Y-108737332D01*
X80298016Y-108573459D01*
X80298009Y-108573446D01*
X80199464Y-108425965D01*
X80199461Y-108425961D01*
X80074038Y-108300538D01*
X80074034Y-108300535D01*
X79926553Y-108201990D01*
X79926540Y-108201983D01*
X79762667Y-108134106D01*
X79762658Y-108134103D01*
X79588694Y-108099500D01*
X79588691Y-108099500D01*
X79411309Y-108099500D01*
X79411306Y-108099500D01*
X79237341Y-108134103D01*
X79237332Y-108134106D01*
X79073459Y-108201983D01*
X79073446Y-108201990D01*
X78925965Y-108300535D01*
X78925961Y-108300538D01*
X78800538Y-108425961D01*
X78800535Y-108425965D01*
X78701990Y-108573446D01*
X78701983Y-108573459D01*
X78634106Y-108737332D01*
X78634103Y-108737341D01*
X78599500Y-108911304D01*
X60509488Y-108911304D01*
X60507863Y-106396530D01*
X64449500Y-106396530D01*
X64449500Y-106603469D01*
X64489868Y-106806412D01*
X64489870Y-106806420D01*
X64569058Y-106997596D01*
X64684024Y-107169657D01*
X64830342Y-107315975D01*
X64830345Y-107315977D01*
X65002402Y-107430941D01*
X65193580Y-107510130D01*
X65362887Y-107543807D01*
X65396530Y-107550499D01*
X65396534Y-107550500D01*
X65396535Y-107550500D01*
X65603466Y-107550500D01*
X65603467Y-107550499D01*
X65806420Y-107510130D01*
X65997598Y-107430941D01*
X66169655Y-107315977D01*
X66315977Y-107169655D01*
X66430941Y-106997598D01*
X66510130Y-106806420D01*
X66550500Y-106603465D01*
X66550500Y-106409448D01*
X68849500Y-106409448D01*
X68849500Y-106590551D01*
X68877829Y-106769410D01*
X68933787Y-106941636D01*
X68933788Y-106941639D01*
X68989664Y-107051300D01*
X69000948Y-107073446D01*
X69016006Y-107102997D01*
X69122441Y-107249494D01*
X69122445Y-107249499D01*
X69250500Y-107377554D01*
X69250505Y-107377558D01*
X69375577Y-107468427D01*
X69397006Y-107483996D01*
X69448299Y-107510131D01*
X69558360Y-107566211D01*
X69558363Y-107566212D01*
X69627561Y-107588695D01*
X69730591Y-107622171D01*
X69813429Y-107635291D01*
X69909449Y-107650500D01*
X69909454Y-107650500D01*
X70090551Y-107650500D01*
X70177259Y-107636765D01*
X70269409Y-107622171D01*
X70441639Y-107566211D01*
X70602994Y-107483996D01*
X70703046Y-107411304D01*
X86349500Y-107411304D01*
X86349500Y-107588695D01*
X86384103Y-107762658D01*
X86384106Y-107762667D01*
X86451983Y-107926540D01*
X86451990Y-107926553D01*
X86550535Y-108074034D01*
X86550538Y-108074038D01*
X86675961Y-108199461D01*
X86675965Y-108199464D01*
X86823446Y-108298009D01*
X86823459Y-108298016D01*
X86923405Y-108339414D01*
X86987334Y-108365894D01*
X86987336Y-108365894D01*
X86987341Y-108365896D01*
X87161304Y-108400499D01*
X87161307Y-108400500D01*
X87161309Y-108400500D01*
X87338693Y-108400500D01*
X87338694Y-108400499D01*
X87396682Y-108388964D01*
X87512658Y-108365896D01*
X87512661Y-108365894D01*
X87512666Y-108365894D01*
X87676547Y-108298013D01*
X87824035Y-108199464D01*
X87949464Y-108074035D01*
X88048013Y-107926547D01*
X88049711Y-107922449D01*
X88072720Y-107866898D01*
X88115894Y-107762666D01*
X88116883Y-107757698D01*
X88143840Y-107622171D01*
X88150500Y-107588691D01*
X88150500Y-107413389D01*
X105399500Y-107413389D01*
X105399500Y-107586611D01*
X105399830Y-107588693D01*
X105426597Y-107757697D01*
X105426597Y-107757699D01*
X105426598Y-107757701D01*
X105480127Y-107922445D01*
X105558768Y-108076788D01*
X105660586Y-108216928D01*
X105783072Y-108339414D01*
X105923212Y-108441232D01*
X106077555Y-108519873D01*
X106242299Y-108573402D01*
X106413389Y-108600500D01*
X106413390Y-108600500D01*
X106586610Y-108600500D01*
X106586611Y-108600500D01*
X106757701Y-108573402D01*
X106922445Y-108519873D01*
X107076788Y-108441232D01*
X107216928Y-108339414D01*
X107339414Y-108216928D01*
X107441232Y-108076788D01*
X107519873Y-107922445D01*
X107523493Y-107911304D01*
X114599500Y-107911304D01*
X114599500Y-108088695D01*
X114634103Y-108262658D01*
X114634106Y-108262667D01*
X114701983Y-108426540D01*
X114701990Y-108426553D01*
X114800535Y-108574034D01*
X114800538Y-108574038D01*
X114925961Y-108699461D01*
X114925965Y-108699464D01*
X115073446Y-108798009D01*
X115073459Y-108798016D01*
X115196363Y-108848923D01*
X115237334Y-108865894D01*
X115237336Y-108865894D01*
X115237341Y-108865896D01*
X115411304Y-108900499D01*
X115411307Y-108900500D01*
X115411309Y-108900500D01*
X115588693Y-108900500D01*
X115588694Y-108900499D01*
X115646682Y-108888964D01*
X115762658Y-108865896D01*
X115762661Y-108865894D01*
X115762666Y-108865894D01*
X115926547Y-108798013D01*
X116074035Y-108699464D01*
X116199464Y-108574035D01*
X116298013Y-108426547D01*
X116365894Y-108262666D01*
X116365896Y-108262658D01*
X116367664Y-108256831D01*
X116370178Y-108257593D01*
X116397241Y-108205793D01*
X116457939Y-108171187D01*
X116527710Y-108174891D01*
X116535003Y-108180000D01*
X117358012Y-108180000D01*
X117340795Y-108189940D01*
X117284940Y-108245795D01*
X117245444Y-108314204D01*
X117225000Y-108390504D01*
X117225000Y-108469496D01*
X117245444Y-108545796D01*
X117284940Y-108614205D01*
X117340795Y-108670060D01*
X117358012Y-108680000D01*
X116555138Y-108680000D01*
X116563430Y-108721690D01*
X116563430Y-108721692D01*
X116638807Y-108903671D01*
X116638814Y-108903684D01*
X116748248Y-109067462D01*
X116748251Y-109067466D01*
X116887533Y-109206748D01*
X116887537Y-109206751D01*
X117051315Y-109316185D01*
X117051328Y-109316192D01*
X117233306Y-109391569D01*
X117233318Y-109391572D01*
X117426504Y-109429999D01*
X117426508Y-109430000D01*
X117825000Y-109430000D01*
X117825000Y-108730000D01*
X118325000Y-108730000D01*
X118325000Y-109268215D01*
X118305315Y-109335254D01*
X118263002Y-109375601D01*
X118221638Y-109399483D01*
X118221632Y-109399487D01*
X118114487Y-109506632D01*
X118114485Y-109506635D01*
X118038719Y-109637863D01*
X118021207Y-109703221D01*
X117999500Y-109784234D01*
X117999500Y-109935766D01*
X118019109Y-110008950D01*
X118038719Y-110082136D01*
X118076602Y-110147750D01*
X118114485Y-110213365D01*
X118221635Y-110320515D01*
X118352865Y-110396281D01*
X118499234Y-110435500D01*
X118499236Y-110435500D01*
X118650764Y-110435500D01*
X118650766Y-110435500D01*
X118797135Y-110396281D01*
X118928365Y-110320515D01*
X119035515Y-110213365D01*
X119111281Y-110082135D01*
X119150500Y-109935766D01*
X119150500Y-109784234D01*
X119111281Y-109637865D01*
X119035515Y-109506635D01*
X119035513Y-109506633D01*
X119031451Y-109499597D01*
X119033654Y-109498325D01*
X119013041Y-109445022D01*
X119027073Y-109376576D01*
X119075882Y-109326582D01*
X119089163Y-109320129D01*
X119098682Y-109316186D01*
X119098684Y-109316185D01*
X119262462Y-109206751D01*
X119262466Y-109206748D01*
X119401748Y-109067466D01*
X119401751Y-109067462D01*
X119511185Y-108903684D01*
X119511192Y-108903671D01*
X119586569Y-108721692D01*
X119586569Y-108721690D01*
X119594862Y-108680000D01*
X118791988Y-108680000D01*
X118809205Y-108670060D01*
X118865060Y-108614205D01*
X118904556Y-108545796D01*
X118925000Y-108469496D01*
X118925000Y-108390504D01*
X118904556Y-108314204D01*
X118865060Y-108245795D01*
X118809205Y-108189940D01*
X118791988Y-108180000D01*
X119594862Y-108180000D01*
X120885138Y-108180000D01*
X121688012Y-108180000D01*
X121670795Y-108189940D01*
X121614940Y-108245795D01*
X121575444Y-108314204D01*
X121555000Y-108390504D01*
X121555000Y-108469496D01*
X121575444Y-108545796D01*
X121614940Y-108614205D01*
X121670795Y-108670060D01*
X121688012Y-108680000D01*
X120885138Y-108680000D01*
X120893430Y-108721690D01*
X120893430Y-108721692D01*
X120968807Y-108903671D01*
X120968814Y-108903684D01*
X121078248Y-109067462D01*
X121078251Y-109067466D01*
X121217533Y-109206748D01*
X121217537Y-109206751D01*
X121381315Y-109316185D01*
X121381328Y-109316192D01*
X121563306Y-109391569D01*
X121563318Y-109391572D01*
X121756504Y-109429999D01*
X121756508Y-109430000D01*
X122005000Y-109430000D01*
X122005000Y-108730000D01*
X122505000Y-108730000D01*
X122505000Y-109430000D01*
X122753492Y-109430000D01*
X122753495Y-109429999D01*
X122946681Y-109391572D01*
X122946693Y-109391569D01*
X123128671Y-109316192D01*
X123128684Y-109316185D01*
X123292462Y-109206751D01*
X123292466Y-109206748D01*
X123431748Y-109067466D01*
X123431751Y-109067462D01*
X123541185Y-108903684D01*
X123541192Y-108903671D01*
X123616569Y-108721692D01*
X123616569Y-108721690D01*
X123624862Y-108680000D01*
X122821988Y-108680000D01*
X122839205Y-108670060D01*
X122895060Y-108614205D01*
X122934556Y-108545796D01*
X122955000Y-108469496D01*
X122955000Y-108390504D01*
X122934556Y-108314204D01*
X122895060Y-108245795D01*
X122839205Y-108189940D01*
X122821988Y-108180000D01*
X123624862Y-108180000D01*
X123616569Y-108138309D01*
X123616569Y-108138307D01*
X123541192Y-107956328D01*
X123541185Y-107956315D01*
X123431751Y-107792537D01*
X123431748Y-107792533D01*
X123292466Y-107653251D01*
X123292462Y-107653248D01*
X123128684Y-107543814D01*
X123128671Y-107543807D01*
X122946693Y-107468430D01*
X122946681Y-107468427D01*
X122753495Y-107430000D01*
X122505000Y-107430000D01*
X122505000Y-108130000D01*
X122005000Y-108130000D01*
X122005000Y-107430000D01*
X121756504Y-107430000D01*
X121563318Y-107468427D01*
X121563306Y-107468430D01*
X121381328Y-107543807D01*
X121381315Y-107543814D01*
X121217537Y-107653248D01*
X121217533Y-107653251D01*
X121078251Y-107792533D01*
X121078248Y-107792537D01*
X120968814Y-107956315D01*
X120968807Y-107956328D01*
X120893430Y-108138307D01*
X120893430Y-108138309D01*
X120885138Y-108180000D01*
X119594862Y-108180000D01*
X119586569Y-108138309D01*
X119586569Y-108138307D01*
X119511192Y-107956328D01*
X119511185Y-107956315D01*
X119401751Y-107792537D01*
X119401748Y-107792533D01*
X119262466Y-107653251D01*
X119262462Y-107653248D01*
X119098684Y-107543814D01*
X119098671Y-107543807D01*
X118916693Y-107468430D01*
X118916681Y-107468427D01*
X118723495Y-107430000D01*
X118325000Y-107430000D01*
X118325000Y-108130000D01*
X117825000Y-108130000D01*
X117825000Y-107430000D01*
X117426504Y-107430000D01*
X117233318Y-107468427D01*
X117233306Y-107468430D01*
X117051328Y-107543807D01*
X117051315Y-107543814D01*
X116887537Y-107653248D01*
X116887533Y-107653251D01*
X116748251Y-107792533D01*
X116748248Y-107792537D01*
X116638814Y-107956315D01*
X116635941Y-107961692D01*
X116634756Y-107961059D01*
X116595220Y-108010121D01*
X116528926Y-108032186D01*
X116461227Y-108014907D01*
X116413616Y-107963770D01*
X116402615Y-107917219D01*
X116401097Y-107917369D01*
X116400500Y-107911314D01*
X116400500Y-107911309D01*
X116376874Y-107792533D01*
X116365896Y-107737341D01*
X116365893Y-107737332D01*
X116298016Y-107573459D01*
X116298009Y-107573446D01*
X116199464Y-107425965D01*
X116199461Y-107425961D01*
X116074038Y-107300538D01*
X116074034Y-107300535D01*
X115926553Y-107201990D01*
X115926540Y-107201983D01*
X115762667Y-107134106D01*
X115762658Y-107134103D01*
X115588694Y-107099500D01*
X115588691Y-107099500D01*
X115411309Y-107099500D01*
X115411306Y-107099500D01*
X115237341Y-107134103D01*
X115237332Y-107134106D01*
X115073459Y-107201983D01*
X115073446Y-107201990D01*
X114925965Y-107300535D01*
X114925961Y-107300538D01*
X114800538Y-107425961D01*
X114800535Y-107425965D01*
X114701990Y-107573446D01*
X114701983Y-107573459D01*
X114634106Y-107737332D01*
X114634103Y-107737341D01*
X114599500Y-107911304D01*
X107523493Y-107911304D01*
X107573402Y-107757701D01*
X107600500Y-107586611D01*
X107600500Y-107413389D01*
X107573402Y-107242299D01*
X107519873Y-107077555D01*
X107441232Y-106923212D01*
X107339414Y-106783072D01*
X107216928Y-106660586D01*
X107076788Y-106558768D01*
X106922445Y-106480127D01*
X106757701Y-106426598D01*
X106757699Y-106426597D01*
X106757698Y-106426597D01*
X106626271Y-106405781D01*
X106586611Y-106399500D01*
X106413389Y-106399500D01*
X106373728Y-106405781D01*
X106242302Y-106426597D01*
X106077552Y-106480128D01*
X105923211Y-106558768D01*
X105844586Y-106615893D01*
X105783072Y-106660586D01*
X105783070Y-106660588D01*
X105783069Y-106660588D01*
X105660588Y-106783069D01*
X105660588Y-106783070D01*
X105660586Y-106783072D01*
X105643623Y-106806420D01*
X105558768Y-106923211D01*
X105480128Y-107077552D01*
X105426597Y-107242302D01*
X105405176Y-107377553D01*
X105399500Y-107413389D01*
X88150500Y-107413389D01*
X88150500Y-107411309D01*
X88150500Y-107411306D01*
X88150499Y-107411304D01*
X88115896Y-107237341D01*
X88115893Y-107237332D01*
X88048016Y-107073459D01*
X88048009Y-107073446D01*
X87949464Y-106925965D01*
X87949461Y-106925961D01*
X87824038Y-106800538D01*
X87824034Y-106800535D01*
X87676553Y-106701990D01*
X87676540Y-106701983D01*
X87512667Y-106634106D01*
X87512658Y-106634103D01*
X87338694Y-106599500D01*
X87338691Y-106599500D01*
X87161309Y-106599500D01*
X87161306Y-106599500D01*
X86987341Y-106634103D01*
X86987332Y-106634106D01*
X86823459Y-106701983D01*
X86823446Y-106701990D01*
X86675965Y-106800535D01*
X86675961Y-106800538D01*
X86550538Y-106925961D01*
X86550535Y-106925965D01*
X86451990Y-107073446D01*
X86451983Y-107073459D01*
X86384106Y-107237332D01*
X86384103Y-107237341D01*
X86349500Y-107411304D01*
X70703046Y-107411304D01*
X70749501Y-107377553D01*
X70877553Y-107249501D01*
X70983996Y-107102994D01*
X71066211Y-106941639D01*
X71122171Y-106769409D01*
X71136765Y-106677259D01*
X71150500Y-106590551D01*
X71150500Y-106409448D01*
X71127250Y-106262658D01*
X71122171Y-106230591D01*
X71076067Y-106088695D01*
X71066212Y-106058363D01*
X71066211Y-106058360D01*
X71037698Y-106002402D01*
X70983996Y-105897006D01*
X70912071Y-105798009D01*
X70877558Y-105750505D01*
X70877554Y-105750500D01*
X70788358Y-105661304D01*
X90349500Y-105661304D01*
X90349500Y-105838695D01*
X90384103Y-106012658D01*
X90384106Y-106012667D01*
X90451983Y-106176540D01*
X90451990Y-106176553D01*
X90550535Y-106324034D01*
X90550538Y-106324038D01*
X90675961Y-106449461D01*
X90675965Y-106449464D01*
X90823446Y-106548009D01*
X90823459Y-106548016D01*
X90926138Y-106590546D01*
X90987334Y-106615894D01*
X90987336Y-106615894D01*
X90987341Y-106615896D01*
X91161304Y-106650499D01*
X91161307Y-106650500D01*
X91161309Y-106650500D01*
X91338693Y-106650500D01*
X91338694Y-106650499D01*
X91421124Y-106634103D01*
X91512658Y-106615896D01*
X91512661Y-106615894D01*
X91512666Y-106615894D01*
X91676547Y-106548013D01*
X91824035Y-106449464D01*
X91949464Y-106324035D01*
X92048013Y-106176547D01*
X92115894Y-106012666D01*
X92117936Y-106002403D01*
X92141817Y-105882344D01*
X92174202Y-105820433D01*
X92234917Y-105785859D01*
X92304687Y-105789598D01*
X92321882Y-105797174D01*
X92323452Y-105798013D01*
X92377580Y-105820433D01*
X92487334Y-105865894D01*
X92487336Y-105865894D01*
X92487341Y-105865896D01*
X92661304Y-105900499D01*
X92661307Y-105900500D01*
X92661309Y-105900500D01*
X92838693Y-105900500D01*
X92838694Y-105900499D01*
X92929967Y-105882344D01*
X93012658Y-105865896D01*
X93012661Y-105865894D01*
X93012666Y-105865894D01*
X93176547Y-105798013D01*
X93324035Y-105699464D01*
X93449464Y-105574035D01*
X93548013Y-105426547D01*
X93615894Y-105262666D01*
X93650500Y-105088691D01*
X93650500Y-104911309D01*
X93650500Y-104911306D01*
X93650499Y-104911304D01*
X99099500Y-104911304D01*
X99099500Y-105088695D01*
X99134103Y-105262658D01*
X99134106Y-105262667D01*
X99201983Y-105426540D01*
X99201990Y-105426553D01*
X99205037Y-105431113D01*
X99225912Y-105497792D01*
X99207425Y-105565171D01*
X99205037Y-105568887D01*
X99201990Y-105573446D01*
X99201983Y-105573459D01*
X99134106Y-105737332D01*
X99134103Y-105737341D01*
X99099500Y-105911304D01*
X99099500Y-106088695D01*
X99134103Y-106262658D01*
X99134106Y-106262667D01*
X99201983Y-106426540D01*
X99201990Y-106426553D01*
X99300535Y-106574034D01*
X99300538Y-106574038D01*
X99425961Y-106699461D01*
X99425965Y-106699464D01*
X99573446Y-106798009D01*
X99573459Y-106798016D01*
X99696363Y-106848923D01*
X99737334Y-106865894D01*
X99737336Y-106865894D01*
X99737341Y-106865896D01*
X99911304Y-106900499D01*
X99911307Y-106900500D01*
X99911309Y-106900500D01*
X100088693Y-106900500D01*
X100088694Y-106900499D01*
X100146682Y-106888964D01*
X100262658Y-106865896D01*
X100262661Y-106865894D01*
X100262666Y-106865894D01*
X100402535Y-106807958D01*
X100426540Y-106798016D01*
X100426540Y-106798015D01*
X100426547Y-106798013D01*
X100574035Y-106699464D01*
X100699464Y-106574035D01*
X100798013Y-106426547D01*
X100865894Y-106262666D01*
X100879637Y-106193579D01*
X100900499Y-106088695D01*
X100900500Y-106088693D01*
X100900500Y-105911306D01*
X100900499Y-105911304D01*
X100865896Y-105737341D01*
X100865893Y-105737332D01*
X100798015Y-105573457D01*
X100798014Y-105573455D01*
X100798013Y-105573453D01*
X100794965Y-105568892D01*
X100774086Y-105502217D01*
X100792569Y-105434837D01*
X100794962Y-105431113D01*
X100798013Y-105426547D01*
X100865894Y-105262666D01*
X100900500Y-105088691D01*
X100900500Y-104911309D01*
X100900500Y-104911306D01*
X100900499Y-104911304D01*
X100865896Y-104737341D01*
X100865893Y-104737332D01*
X100798016Y-104573459D01*
X100798009Y-104573446D01*
X100699464Y-104425965D01*
X100699461Y-104425961D01*
X100574038Y-104300538D01*
X100574034Y-104300535D01*
X100426553Y-104201990D01*
X100426540Y-104201983D01*
X100262667Y-104134106D01*
X100262658Y-104134103D01*
X100088694Y-104099500D01*
X100088691Y-104099500D01*
X99911309Y-104099500D01*
X99911306Y-104099500D01*
X99737341Y-104134103D01*
X99737332Y-104134106D01*
X99573459Y-104201983D01*
X99573446Y-104201990D01*
X99425965Y-104300535D01*
X99425961Y-104300538D01*
X99300538Y-104425961D01*
X99300535Y-104425965D01*
X99201990Y-104573446D01*
X99201983Y-104573459D01*
X99134106Y-104737332D01*
X99134103Y-104737341D01*
X99099500Y-104911304D01*
X93650499Y-104911304D01*
X93615896Y-104737341D01*
X93615893Y-104737332D01*
X93548016Y-104573459D01*
X93548009Y-104573446D01*
X93449464Y-104425965D01*
X93449461Y-104425961D01*
X93324038Y-104300538D01*
X93324034Y-104300535D01*
X93176553Y-104201990D01*
X93176540Y-104201983D01*
X93012667Y-104134106D01*
X93012658Y-104134103D01*
X92838694Y-104099500D01*
X92838691Y-104099500D01*
X92661309Y-104099500D01*
X92661306Y-104099500D01*
X92487341Y-104134103D01*
X92487332Y-104134106D01*
X92323459Y-104201983D01*
X92323446Y-104201990D01*
X92175965Y-104300535D01*
X92175961Y-104300538D01*
X92050538Y-104425961D01*
X92050535Y-104425965D01*
X91951990Y-104573446D01*
X91951983Y-104573459D01*
X91884106Y-104737332D01*
X91884104Y-104737340D01*
X91858182Y-104867656D01*
X91825797Y-104929567D01*
X91765081Y-104964141D01*
X91695311Y-104960400D01*
X91678123Y-104952828D01*
X91676552Y-104951988D01*
X91512667Y-104884106D01*
X91512658Y-104884103D01*
X91338694Y-104849500D01*
X91338691Y-104849500D01*
X91161309Y-104849500D01*
X91161306Y-104849500D01*
X90987341Y-104884103D01*
X90987332Y-104884106D01*
X90823459Y-104951983D01*
X90823446Y-104951990D01*
X90675965Y-105050535D01*
X90675961Y-105050538D01*
X90550538Y-105175961D01*
X90550535Y-105175965D01*
X90451990Y-105323446D01*
X90451983Y-105323459D01*
X90384106Y-105487332D01*
X90384103Y-105487341D01*
X90349500Y-105661304D01*
X70788358Y-105661304D01*
X70749499Y-105622445D01*
X70749494Y-105622441D01*
X70602997Y-105516006D01*
X70602996Y-105516005D01*
X70602994Y-105516004D01*
X70546722Y-105487332D01*
X70441639Y-105433788D01*
X70441636Y-105433787D01*
X70269410Y-105377829D01*
X70090551Y-105349500D01*
X70090546Y-105349500D01*
X69909454Y-105349500D01*
X69909449Y-105349500D01*
X69730589Y-105377829D01*
X69558363Y-105433787D01*
X69558360Y-105433788D01*
X69397002Y-105516006D01*
X69250505Y-105622441D01*
X69250500Y-105622445D01*
X69122445Y-105750500D01*
X69122441Y-105750505D01*
X69016006Y-105897002D01*
X68933788Y-106058360D01*
X68933787Y-106058363D01*
X68877829Y-106230589D01*
X68849500Y-106409448D01*
X66550500Y-106409448D01*
X66550500Y-106396535D01*
X66510130Y-106193580D01*
X66430941Y-106002402D01*
X66315977Y-105830345D01*
X66315975Y-105830342D01*
X66169657Y-105684024D01*
X66077490Y-105622441D01*
X65997598Y-105569059D01*
X65806420Y-105489870D01*
X65806412Y-105489868D01*
X65603469Y-105449500D01*
X65603465Y-105449500D01*
X65396535Y-105449500D01*
X65396530Y-105449500D01*
X65193587Y-105489868D01*
X65193579Y-105489870D01*
X65002403Y-105569058D01*
X64830342Y-105684024D01*
X64684024Y-105830342D01*
X64569058Y-106002403D01*
X64489870Y-106193579D01*
X64489868Y-106193587D01*
X64449500Y-106396530D01*
X60507863Y-106396530D01*
X60505934Y-103411304D01*
X93349500Y-103411304D01*
X93349500Y-103588695D01*
X93384103Y-103762658D01*
X93384106Y-103762667D01*
X93451983Y-103926540D01*
X93451990Y-103926553D01*
X93550535Y-104074034D01*
X93550538Y-104074038D01*
X93675961Y-104199461D01*
X93675965Y-104199464D01*
X93823446Y-104298009D01*
X93823459Y-104298016D01*
X93946363Y-104348923D01*
X93987334Y-104365894D01*
X93987336Y-104365894D01*
X93987341Y-104365896D01*
X94161304Y-104400499D01*
X94161307Y-104400500D01*
X94161309Y-104400500D01*
X94338693Y-104400500D01*
X94338694Y-104400499D01*
X94396682Y-104388964D01*
X94512658Y-104365896D01*
X94512661Y-104365894D01*
X94512666Y-104365894D01*
X94676547Y-104298013D01*
X94824035Y-104199464D01*
X94949464Y-104074035D01*
X95048013Y-103926547D01*
X95054327Y-103911304D01*
X96099500Y-103911304D01*
X96099500Y-104088695D01*
X96134103Y-104262658D01*
X96134106Y-104262667D01*
X96201983Y-104426540D01*
X96201990Y-104426553D01*
X96300535Y-104574034D01*
X96300538Y-104574038D01*
X96425961Y-104699461D01*
X96425965Y-104699464D01*
X96573446Y-104798009D01*
X96573459Y-104798016D01*
X96696363Y-104848923D01*
X96737334Y-104865894D01*
X96737336Y-104865894D01*
X96737341Y-104865896D01*
X96911304Y-104900499D01*
X96911307Y-104900500D01*
X96911309Y-104900500D01*
X97088693Y-104900500D01*
X97088694Y-104900499D01*
X97171124Y-104884103D01*
X97262658Y-104865896D01*
X97262661Y-104865894D01*
X97262666Y-104865894D01*
X97426547Y-104798013D01*
X97574035Y-104699464D01*
X97699464Y-104574035D01*
X97798013Y-104426547D01*
X97865894Y-104262666D01*
X97878467Y-104199461D01*
X97900499Y-104088695D01*
X97900500Y-104088693D01*
X97900500Y-103911306D01*
X97900499Y-103911304D01*
X97865896Y-103737341D01*
X97865893Y-103737332D01*
X97798016Y-103573459D01*
X97798009Y-103573446D01*
X97699464Y-103425965D01*
X97699461Y-103425961D01*
X97574038Y-103300538D01*
X97574034Y-103300535D01*
X97426553Y-103201990D01*
X97426540Y-103201983D01*
X97262667Y-103134106D01*
X97262658Y-103134103D01*
X97088694Y-103099500D01*
X97088691Y-103099500D01*
X96911309Y-103099500D01*
X96911306Y-103099500D01*
X96737341Y-103134103D01*
X96737332Y-103134106D01*
X96573459Y-103201983D01*
X96573446Y-103201990D01*
X96425965Y-103300535D01*
X96425961Y-103300538D01*
X96300538Y-103425961D01*
X96300535Y-103425965D01*
X96201990Y-103573446D01*
X96201983Y-103573459D01*
X96134106Y-103737332D01*
X96134103Y-103737341D01*
X96099500Y-103911304D01*
X95054327Y-103911304D01*
X95115894Y-103762666D01*
X95120932Y-103737341D01*
X95150499Y-103588695D01*
X95150500Y-103588693D01*
X95150500Y-103411306D01*
X95150499Y-103411304D01*
X95115896Y-103237341D01*
X95115893Y-103237332D01*
X95048016Y-103073459D01*
X95048009Y-103073446D01*
X94949464Y-102925965D01*
X94949461Y-102925961D01*
X94824038Y-102800538D01*
X94824034Y-102800535D01*
X94676553Y-102701990D01*
X94676540Y-102701983D01*
X94512667Y-102634106D01*
X94512658Y-102634103D01*
X94338694Y-102599500D01*
X94338691Y-102599500D01*
X94161309Y-102599500D01*
X94161306Y-102599500D01*
X93987341Y-102634103D01*
X93987332Y-102634106D01*
X93823459Y-102701983D01*
X93823446Y-102701990D01*
X93675965Y-102800535D01*
X93675961Y-102800538D01*
X93550538Y-102925961D01*
X93550535Y-102925965D01*
X93451990Y-103073446D01*
X93451983Y-103073459D01*
X93384106Y-103237332D01*
X93384103Y-103237341D01*
X93349500Y-103411304D01*
X60505934Y-103411304D01*
X60503027Y-98911304D01*
X65849500Y-98911304D01*
X65849500Y-99088695D01*
X65884103Y-99262658D01*
X65884106Y-99262667D01*
X65951983Y-99426540D01*
X65951990Y-99426553D01*
X66050535Y-99574034D01*
X66050538Y-99574038D01*
X66175961Y-99699461D01*
X66175965Y-99699464D01*
X66323446Y-99798009D01*
X66323459Y-99798016D01*
X66384871Y-99823453D01*
X66487334Y-99865894D01*
X66487336Y-99865894D01*
X66487341Y-99865896D01*
X66661304Y-99900499D01*
X66661307Y-99900500D01*
X66661309Y-99900500D01*
X66838693Y-99900500D01*
X66951308Y-99878099D01*
X66982245Y-99871945D01*
X67051837Y-99878172D01*
X67107014Y-99921035D01*
X67130259Y-99986924D01*
X67128054Y-100017753D01*
X67099500Y-100161304D01*
X67099500Y-100338695D01*
X67134103Y-100512658D01*
X67134106Y-100512667D01*
X67201983Y-100676540D01*
X67201990Y-100676553D01*
X67300535Y-100824034D01*
X67300538Y-100824038D01*
X67425961Y-100949461D01*
X67425965Y-100949464D01*
X67573446Y-101048009D01*
X67573459Y-101048016D01*
X67696363Y-101098923D01*
X67737334Y-101115894D01*
X67737336Y-101115894D01*
X67737341Y-101115896D01*
X67911304Y-101150499D01*
X67911307Y-101150500D01*
X67911309Y-101150500D01*
X68088693Y-101150500D01*
X68088694Y-101150499D01*
X68146682Y-101138964D01*
X68262658Y-101115896D01*
X68262661Y-101115894D01*
X68262666Y-101115894D01*
X68426547Y-101048013D01*
X68556109Y-100961442D01*
X68622786Y-100940564D01*
X68690166Y-100959048D01*
X68693891Y-100961442D01*
X68823453Y-101048013D01*
X68823455Y-101048014D01*
X68823459Y-101048016D01*
X68946363Y-101098923D01*
X68987334Y-101115894D01*
X68987336Y-101115894D01*
X68987341Y-101115896D01*
X69161304Y-101150499D01*
X69161307Y-101150500D01*
X69161309Y-101150500D01*
X69338693Y-101150500D01*
X69338694Y-101150499D01*
X69396682Y-101138964D01*
X69512658Y-101115896D01*
X69512661Y-101115894D01*
X69512666Y-101115894D01*
X69676547Y-101048013D01*
X69824035Y-100949464D01*
X69949464Y-100824035D01*
X70048013Y-100676547D01*
X70115894Y-100512666D01*
X70150500Y-100338691D01*
X70150500Y-100161309D01*
X70150500Y-100161306D01*
X70121945Y-100017754D01*
X70128172Y-99948162D01*
X70171035Y-99892985D01*
X70236924Y-99869740D01*
X70267754Y-99871945D01*
X70411306Y-99900500D01*
X70411309Y-99900500D01*
X70588693Y-99900500D01*
X70588694Y-99900499D01*
X70670003Y-99884326D01*
X70762658Y-99865896D01*
X70762661Y-99865894D01*
X70762666Y-99865894D01*
X70926547Y-99798013D01*
X71056109Y-99711442D01*
X71122786Y-99690564D01*
X71190166Y-99709048D01*
X71193891Y-99711442D01*
X71246784Y-99746784D01*
X71323453Y-99798013D01*
X71323455Y-99798014D01*
X71323459Y-99798016D01*
X71384871Y-99823453D01*
X71487334Y-99865894D01*
X71487336Y-99865894D01*
X71487341Y-99865896D01*
X71661304Y-99900499D01*
X71661307Y-99900500D01*
X71661309Y-99900500D01*
X71838693Y-99900500D01*
X71838694Y-99900499D01*
X71920003Y-99884326D01*
X72012658Y-99865896D01*
X72012661Y-99865894D01*
X72012666Y-99865894D01*
X72176547Y-99798013D01*
X72306109Y-99711442D01*
X72372786Y-99690564D01*
X72440166Y-99709048D01*
X72443891Y-99711442D01*
X72496784Y-99746784D01*
X72573453Y-99798013D01*
X72573455Y-99798014D01*
X72573459Y-99798016D01*
X72634871Y-99823453D01*
X72737334Y-99865894D01*
X72737336Y-99865894D01*
X72737341Y-99865896D01*
X72911304Y-99900499D01*
X72911307Y-99900500D01*
X72911309Y-99900500D01*
X73088693Y-99900500D01*
X73201308Y-99878099D01*
X73270900Y-99884326D01*
X73326077Y-99927189D01*
X73349322Y-99993078D01*
X73349500Y-99999716D01*
X73349500Y-100088695D01*
X73384103Y-100262658D01*
X73384106Y-100262667D01*
X73451983Y-100426540D01*
X73451990Y-100426553D01*
X73550535Y-100574034D01*
X73550538Y-100574038D01*
X73675961Y-100699461D01*
X73675965Y-100699464D01*
X73823446Y-100798009D01*
X73823459Y-100798016D01*
X73946363Y-100848923D01*
X73987334Y-100865894D01*
X73987336Y-100865894D01*
X73987341Y-100865896D01*
X74161304Y-100900499D01*
X74161307Y-100900500D01*
X74161309Y-100900500D01*
X74338693Y-100900500D01*
X74338694Y-100900499D01*
X74396682Y-100888964D01*
X74512658Y-100865896D01*
X74512661Y-100865894D01*
X74512666Y-100865894D01*
X74676547Y-100798013D01*
X74824035Y-100699464D01*
X74949464Y-100574035D01*
X75048013Y-100426547D01*
X75115894Y-100262666D01*
X75150500Y-100088691D01*
X75150500Y-99911309D01*
X75150500Y-99911306D01*
X75150499Y-99911304D01*
X75115896Y-99737341D01*
X75115893Y-99737332D01*
X75048015Y-99573457D01*
X75048014Y-99573455D01*
X75048013Y-99573453D01*
X75044965Y-99568892D01*
X75024086Y-99502217D01*
X75042569Y-99434837D01*
X75044948Y-99431132D01*
X75048013Y-99426547D01*
X75115894Y-99262666D01*
X75150500Y-99088691D01*
X75150500Y-98966635D01*
X88404831Y-98966635D01*
X88404831Y-99144026D01*
X88439434Y-99317989D01*
X88439437Y-99317998D01*
X88507314Y-99481871D01*
X88507321Y-99481884D01*
X88605866Y-99629365D01*
X88605869Y-99629369D01*
X88731292Y-99754792D01*
X88731296Y-99754795D01*
X88878777Y-99853340D01*
X88878790Y-99853347D01*
X88974487Y-99892985D01*
X89042665Y-99921225D01*
X89042667Y-99921225D01*
X89042672Y-99921227D01*
X89216635Y-99955830D01*
X89216638Y-99955831D01*
X89216640Y-99955831D01*
X89394024Y-99955831D01*
X89394025Y-99955830D01*
X89452013Y-99944295D01*
X89567989Y-99921227D01*
X89567992Y-99921225D01*
X89567997Y-99921225D01*
X89731878Y-99853344D01*
X89879366Y-99754795D01*
X90004795Y-99629366D01*
X90103344Y-99481878D01*
X90171225Y-99317997D01*
X90205831Y-99144022D01*
X90205831Y-98966640D01*
X90205831Y-98966637D01*
X90205830Y-98966635D01*
X90171227Y-98792672D01*
X90171224Y-98792663D01*
X90103347Y-98628790D01*
X90103340Y-98628777D01*
X90004795Y-98481296D01*
X90004792Y-98481292D01*
X89879369Y-98355869D01*
X89879365Y-98355866D01*
X89731884Y-98257321D01*
X89731871Y-98257314D01*
X89567998Y-98189437D01*
X89567989Y-98189434D01*
X89394025Y-98154831D01*
X89394022Y-98154831D01*
X89216640Y-98154831D01*
X89216637Y-98154831D01*
X89042672Y-98189434D01*
X89042663Y-98189437D01*
X88878790Y-98257314D01*
X88878777Y-98257321D01*
X88731296Y-98355866D01*
X88731292Y-98355869D01*
X88605869Y-98481292D01*
X88605866Y-98481296D01*
X88507321Y-98628777D01*
X88507314Y-98628790D01*
X88439437Y-98792663D01*
X88439434Y-98792672D01*
X88404831Y-98966635D01*
X75150500Y-98966635D01*
X75150500Y-98911309D01*
X75150500Y-98911306D01*
X75150499Y-98911304D01*
X75115896Y-98737341D01*
X75115893Y-98737332D01*
X75048016Y-98573459D01*
X75048014Y-98573455D01*
X75048013Y-98573453D01*
X74961442Y-98443891D01*
X74940564Y-98377214D01*
X74959048Y-98309834D01*
X74961442Y-98306109D01*
X75039402Y-98189434D01*
X75048013Y-98176547D01*
X75115894Y-98012666D01*
X75150500Y-97838691D01*
X75150500Y-97661309D01*
X75150500Y-97661306D01*
X75150499Y-97661304D01*
X75115896Y-97487341D01*
X75115893Y-97487332D01*
X75048016Y-97323459D01*
X75048014Y-97323455D01*
X75048013Y-97323453D01*
X74961442Y-97193891D01*
X74940564Y-97127214D01*
X74959048Y-97059834D01*
X74961442Y-97056109D01*
X74977352Y-97032296D01*
X75048013Y-96926547D01*
X75115894Y-96762666D01*
X75150500Y-96588691D01*
X75150500Y-96411309D01*
X75150500Y-96411306D01*
X75150499Y-96411304D01*
X75115896Y-96237341D01*
X75115893Y-96237332D01*
X75048016Y-96073459D01*
X75048009Y-96073446D01*
X74949464Y-95925965D01*
X74949461Y-95925961D01*
X74824038Y-95800538D01*
X74824034Y-95800535D01*
X74676553Y-95701990D01*
X74676540Y-95701983D01*
X74512667Y-95634106D01*
X74512658Y-95634103D01*
X74338694Y-95599500D01*
X74338691Y-95599500D01*
X74161309Y-95599500D01*
X74161306Y-95599500D01*
X73987341Y-95634103D01*
X73987332Y-95634106D01*
X73823459Y-95701983D01*
X73823446Y-95701990D01*
X73693891Y-95788557D01*
X73627213Y-95809435D01*
X73559833Y-95790950D01*
X73556109Y-95788557D01*
X73426553Y-95701990D01*
X73426540Y-95701983D01*
X73262667Y-95634106D01*
X73262658Y-95634103D01*
X73088694Y-95599500D01*
X73088691Y-95599500D01*
X72911309Y-95599500D01*
X72911306Y-95599500D01*
X72737341Y-95634103D01*
X72737332Y-95634106D01*
X72573459Y-95701983D01*
X72573446Y-95701990D01*
X72443891Y-95788557D01*
X72377213Y-95809435D01*
X72309833Y-95790950D01*
X72306109Y-95788557D01*
X72176553Y-95701990D01*
X72176540Y-95701983D01*
X72012667Y-95634106D01*
X72012658Y-95634103D01*
X71838694Y-95599500D01*
X71838691Y-95599500D01*
X71661309Y-95599500D01*
X71661306Y-95599500D01*
X71487341Y-95634103D01*
X71487332Y-95634106D01*
X71323459Y-95701983D01*
X71323446Y-95701990D01*
X71193891Y-95788557D01*
X71127213Y-95809435D01*
X71059833Y-95790950D01*
X71056109Y-95788557D01*
X70926553Y-95701990D01*
X70926540Y-95701983D01*
X70762667Y-95634106D01*
X70762658Y-95634103D01*
X70588694Y-95599500D01*
X70588691Y-95599500D01*
X70411309Y-95599500D01*
X70411306Y-95599500D01*
X70237341Y-95634103D01*
X70237332Y-95634106D01*
X70073459Y-95701983D01*
X70073446Y-95701990D01*
X69943891Y-95788557D01*
X69877213Y-95809435D01*
X69809833Y-95790950D01*
X69806109Y-95788557D01*
X69676553Y-95701990D01*
X69676540Y-95701983D01*
X69512667Y-95634106D01*
X69512658Y-95634103D01*
X69338694Y-95599500D01*
X69338691Y-95599500D01*
X69161309Y-95599500D01*
X69161306Y-95599500D01*
X68987341Y-95634103D01*
X68987332Y-95634106D01*
X68823459Y-95701983D01*
X68823446Y-95701990D01*
X68675965Y-95800535D01*
X68675961Y-95800538D01*
X68550538Y-95925961D01*
X68550535Y-95925965D01*
X68451990Y-96073446D01*
X68451983Y-96073459D01*
X68384106Y-96237332D01*
X68384103Y-96237341D01*
X68349500Y-96411304D01*
X68349500Y-96588695D01*
X68384103Y-96762658D01*
X68384106Y-96762667D01*
X68451983Y-96926540D01*
X68451990Y-96926553D01*
X68538557Y-97056109D01*
X68559435Y-97122787D01*
X68540950Y-97190167D01*
X68538557Y-97193891D01*
X68451990Y-97323446D01*
X68451983Y-97323459D01*
X68384106Y-97487332D01*
X68384103Y-97487341D01*
X68349500Y-97661304D01*
X68349500Y-97838695D01*
X68378054Y-97982246D01*
X68371827Y-98051838D01*
X68328964Y-98107015D01*
X68263074Y-98130259D01*
X68232246Y-98128054D01*
X68088695Y-98099500D01*
X68088691Y-98099500D01*
X67911309Y-98099500D01*
X67911306Y-98099500D01*
X67737341Y-98134103D01*
X67737332Y-98134106D01*
X67573459Y-98201983D01*
X67573446Y-98201990D01*
X67443891Y-98288557D01*
X67377213Y-98309435D01*
X67309833Y-98290950D01*
X67306109Y-98288557D01*
X67176553Y-98201990D01*
X67176540Y-98201983D01*
X67012667Y-98134106D01*
X67012658Y-98134103D01*
X66838694Y-98099500D01*
X66838691Y-98099500D01*
X66661309Y-98099500D01*
X66661306Y-98099500D01*
X66487341Y-98134103D01*
X66487332Y-98134106D01*
X66323459Y-98201983D01*
X66323446Y-98201990D01*
X66175965Y-98300535D01*
X66175961Y-98300538D01*
X66050538Y-98425961D01*
X66050535Y-98425965D01*
X65951990Y-98573446D01*
X65951983Y-98573459D01*
X65884106Y-98737332D01*
X65884103Y-98737341D01*
X65849500Y-98911304D01*
X60503027Y-98911304D01*
X60500502Y-95002706D01*
X60500618Y-94997292D01*
X60517386Y-94613226D01*
X60518326Y-94602495D01*
X60568152Y-94224025D01*
X60570025Y-94213405D01*
X60652649Y-93840709D01*
X60655440Y-93830295D01*
X60770230Y-93466227D01*
X60773917Y-93456095D01*
X60920003Y-93103412D01*
X60924561Y-93093638D01*
X61100822Y-92755045D01*
X61106217Y-92745700D01*
X61311325Y-92423744D01*
X61317515Y-92414905D01*
X61549896Y-92112060D01*
X61556834Y-92103791D01*
X61814726Y-91822352D01*
X61822352Y-91814726D01*
X62103791Y-91556834D01*
X62112060Y-91549896D01*
X62414905Y-91317515D01*
X62423744Y-91311325D01*
X62745700Y-91106217D01*
X62755045Y-91100822D01*
X63093638Y-90924561D01*
X63103412Y-90920003D01*
X63456095Y-90773917D01*
X63466227Y-90770230D01*
X63830295Y-90655440D01*
X63840709Y-90652649D01*
X64213405Y-90570025D01*
X64224025Y-90568152D01*
X64602495Y-90518326D01*
X64613226Y-90517386D01*
X64997297Y-90500617D01*
X65002706Y-90500500D01*
X65065892Y-90500500D01*
X103944419Y-90500500D01*
X104011458Y-90520185D01*
G37*
%TD.AperFunction*%
%TD*%
M02*
