%TF.GenerationSoftware,KiCad,Pcbnew,9.0.7*%
%TF.CreationDate,2026-03-24T10:18:18+01:00*%
%TF.ProjectId,premier_jet,7072656d-6965-4725-9f6a-65742e6b6963,rev?*%
%TF.SameCoordinates,Original*%
%TF.FileFunction,Soldermask,Top*%
%TF.FilePolarity,Negative*%
%FSLAX46Y46*%
G04 Gerber Fmt 4.6, Leading zero omitted, Abs format (unit mm)*
G04 Created by KiCad (PCBNEW 9.0.7) date 2026-03-24 10:18:18*
%MOMM*%
%LPD*%
G01*
G04 APERTURE LIST*
G04 Aperture macros list*
%AMRoundRect*
0 Rectangle with rounded corners*
0 $1 Rounding radius*
0 $2 $3 $4 $5 $6 $7 $8 $9 X,Y pos of 4 corners*
0 Add a 4 corners polygon primitive as box body*
4,1,4,$2,$3,$4,$5,$6,$7,$8,$9,$2,$3,0*
0 Add four circle primitives for the rounded corners*
1,1,$1+$1,$2,$3*
1,1,$1+$1,$4,$5*
1,1,$1+$1,$6,$7*
1,1,$1+$1,$8,$9*
0 Add four rect primitives between the rounded corners*
20,1,$1+$1,$2,$3,$4,$5,0*
20,1,$1+$1,$4,$5,$6,$7,0*
20,1,$1+$1,$6,$7,$8,$9,0*
20,1,$1+$1,$8,$9,$2,$3,0*%
G04 Aperture macros list end*
%ADD10RoundRect,0.250000X-0.350000X-0.625000X0.350000X-0.625000X0.350000X0.625000X-0.350000X0.625000X0*%
%ADD11O,1.200000X1.750000*%
%ADD12C,6.400000*%
%ADD13R,0.329400X1.404099*%
%ADD14RoundRect,0.225000X-0.225000X-0.250000X0.225000X-0.250000X0.225000X0.250000X-0.225000X0.250000X0*%
%ADD15RoundRect,0.140000X0.140000X0.170000X-0.140000X0.170000X-0.140000X-0.170000X0.140000X-0.170000X0*%
%ADD16RoundRect,0.075000X-0.700000X-0.075000X0.700000X-0.075000X0.700000X0.075000X-0.700000X0.075000X0*%
%ADD17RoundRect,0.075000X-0.075000X-0.700000X0.075000X-0.700000X0.075000X0.700000X-0.075000X0.700000X0*%
%ADD18C,1.800000*%
%ADD19C,1.600000*%
%ADD20RoundRect,0.250000X-0.750000X0.750000X-0.750000X-0.750000X0.750000X-0.750000X0.750000X0.750000X0*%
%ADD21RoundRect,0.140000X0.170000X-0.140000X0.170000X0.140000X-0.170000X0.140000X-0.170000X-0.140000X0*%
%ADD22RoundRect,0.225000X0.250000X-0.225000X0.250000X0.225000X-0.250000X0.225000X-0.250000X-0.225000X0*%
%ADD23RoundRect,0.250000X-0.262500X-0.450000X0.262500X-0.450000X0.262500X0.450000X-0.262500X0.450000X0*%
%ADD24R,1.000000X3.150000*%
%ADD25RoundRect,0.250000X0.262500X0.450000X-0.262500X0.450000X-0.262500X-0.450000X0.262500X-0.450000X0*%
%ADD26RoundRect,0.140000X-0.140000X-0.170000X0.140000X-0.170000X0.140000X0.170000X-0.140000X0.170000X0*%
%ADD27RoundRect,0.250000X-0.625000X0.350000X-0.625000X-0.350000X0.625000X-0.350000X0.625000X0.350000X0*%
%ADD28O,1.750000X1.200000*%
%ADD29RoundRect,0.225000X0.225000X0.250000X-0.225000X0.250000X-0.225000X-0.250000X0.225000X-0.250000X0*%
%ADD30RoundRect,0.250000X1.500000X0.550000X-1.500000X0.550000X-1.500000X-0.550000X1.500000X-0.550000X0*%
%ADD31RoundRect,0.140000X-0.170000X0.140000X-0.170000X-0.140000X0.170000X-0.140000X0.170000X0.140000X0*%
%ADD32RoundRect,0.135000X0.185000X-0.135000X0.185000X0.135000X-0.185000X0.135000X-0.185000X-0.135000X0*%
%ADD33C,0.650000*%
%ADD34RoundRect,0.150000X0.425000X-0.150000X0.425000X0.150000X-0.425000X0.150000X-0.425000X-0.150000X0*%
%ADD35RoundRect,0.075000X0.500000X-0.075000X0.500000X0.075000X-0.500000X0.075000X-0.500000X-0.075000X0*%
%ADD36O,2.100000X1.000000*%
%ADD37O,1.800000X1.000000*%
%ADD38R,0.914400X0.431800*%
%ADD39RoundRect,0.150000X-0.512500X-0.150000X0.512500X-0.150000X0.512500X0.150000X-0.512500X0.150000X0*%
G04 APERTURE END LIST*
D10*
%TO.C,J4*%
X76250000Y-151000000D03*
D11*
X78250000Y-151000000D03*
X80250000Y-151000000D03*
X82250000Y-151000000D03*
%TD*%
D12*
%TO.C,H3*%
X120000000Y-150000000D03*
%TD*%
D13*
%TO.C,U2*%
X90775091Y-132949948D03*
X91425077Y-132949948D03*
X92075063Y-132949948D03*
X92725049Y-132949948D03*
X93375035Y-132949948D03*
X94025021Y-132949948D03*
X94675007Y-132949948D03*
X95324993Y-132949948D03*
X95974979Y-132949948D03*
X96624965Y-132949948D03*
X97274951Y-132949948D03*
X97924937Y-132949948D03*
X98574923Y-132949948D03*
X99224909Y-132949948D03*
X99224909Y-127050052D03*
X98574923Y-127050052D03*
X97924937Y-127050052D03*
X97274951Y-127050052D03*
X96624965Y-127050052D03*
X95974979Y-127050052D03*
X95324993Y-127050052D03*
X94675007Y-127050052D03*
X94025021Y-127050052D03*
X93375035Y-127050052D03*
X92725049Y-127050052D03*
X92075063Y-127050052D03*
X91425077Y-127050052D03*
X90775091Y-127050052D03*
%TD*%
D14*
%TO.C,C37*%
X94350000Y-148000000D03*
X95900000Y-148000000D03*
%TD*%
%TO.C,C41*%
X108075000Y-148000000D03*
X109625000Y-148000000D03*
%TD*%
D15*
%TO.C,C19*%
X118980000Y-124500000D03*
X118020000Y-124500000D03*
%TD*%
D14*
%TO.C,C38*%
X105075000Y-148000000D03*
X106625000Y-148000000D03*
%TD*%
D16*
%TO.C,U4*%
X92075000Y-109575000D03*
X92075000Y-110075000D03*
X92075000Y-110575000D03*
X92075000Y-111075000D03*
X92075000Y-111575000D03*
X92075000Y-112075000D03*
X92075000Y-112575000D03*
X92075000Y-113075000D03*
X92075000Y-113575000D03*
X92075000Y-114075000D03*
X92075000Y-114575000D03*
X92075000Y-115075000D03*
X92075000Y-115575000D03*
X92075000Y-116075000D03*
X92075000Y-116575000D03*
X92075000Y-117075000D03*
D17*
X94000000Y-119000000D03*
X94500000Y-119000000D03*
X95000000Y-119000000D03*
X95500000Y-119000000D03*
X96000000Y-119000000D03*
X96500000Y-119000000D03*
X97000000Y-119000000D03*
X97500000Y-119000000D03*
X98000000Y-119000000D03*
X98500000Y-119000000D03*
X99000000Y-119000000D03*
X99500000Y-119000000D03*
X100000000Y-119000000D03*
X100500000Y-119000000D03*
X101000000Y-119000000D03*
X101500000Y-119000000D03*
D16*
X103425000Y-117075000D03*
X103425000Y-116575000D03*
X103425000Y-116075000D03*
X103425000Y-115575000D03*
X103425000Y-115075000D03*
X103425000Y-114575000D03*
X103425000Y-114075000D03*
X103425000Y-113575000D03*
X103425000Y-113075000D03*
X103425000Y-112575000D03*
X103425000Y-112075000D03*
X103425000Y-111575000D03*
X103425000Y-111075000D03*
X103425000Y-110575000D03*
X103425000Y-110075000D03*
X103425000Y-109575000D03*
D17*
X101500000Y-107650000D03*
X101000000Y-107650000D03*
X100500000Y-107650000D03*
X100000000Y-107650000D03*
X99500000Y-107650000D03*
X99000000Y-107650000D03*
X98500000Y-107650000D03*
X98000000Y-107650000D03*
X97500000Y-107650000D03*
X97000000Y-107650000D03*
X96500000Y-107650000D03*
X96000000Y-107650000D03*
X95500000Y-107650000D03*
X95000000Y-107650000D03*
X94500000Y-107650000D03*
X94000000Y-107650000D03*
%TD*%
D13*
%TO.C,U1*%
X73275091Y-132949948D03*
X73925077Y-132949948D03*
X74575063Y-132949948D03*
X75225049Y-132949948D03*
X75875035Y-132949948D03*
X76525021Y-132949948D03*
X77175007Y-132949948D03*
X77824993Y-132949948D03*
X78474979Y-132949948D03*
X79124965Y-132949948D03*
X79774951Y-132949948D03*
X80424937Y-132949948D03*
X81074923Y-132949948D03*
X81724909Y-132949948D03*
X81724909Y-127050052D03*
X81074923Y-127050052D03*
X80424937Y-127050052D03*
X79774951Y-127050052D03*
X79124965Y-127050052D03*
X78474979Y-127050052D03*
X77824993Y-127050052D03*
X77175007Y-127050052D03*
X76525021Y-127050052D03*
X75875035Y-127050052D03*
X75225049Y-127050052D03*
X74575063Y-127050052D03*
X73925077Y-127050052D03*
X73275091Y-127050052D03*
%TD*%
D18*
%TO.C,J5*%
X70000000Y-106500000D03*
D19*
X65500000Y-106500000D03*
D20*
X71650000Y-101000000D03*
X65500000Y-101000000D03*
X65500000Y-112000000D03*
X71650000Y-112000000D03*
%TD*%
D14*
%TO.C,C35*%
X97350000Y-148000000D03*
X98900000Y-148000000D03*
%TD*%
D21*
%TO.C,C26*%
X90575000Y-109055000D03*
X90575000Y-108095000D03*
%TD*%
D22*
%TO.C,C42*%
X66500000Y-122275000D03*
X66500000Y-120725000D03*
%TD*%
D23*
%TO.C,R5*%
X113587500Y-109500000D03*
X115412500Y-109500000D03*
%TD*%
D24*
%TO.C,J6*%
X107540000Y-93450000D03*
X107540000Y-98500000D03*
X105000000Y-93450000D03*
X105000000Y-98500000D03*
X102460000Y-93450000D03*
X102460000Y-98500000D03*
X99920000Y-93450000D03*
X99920000Y-98500000D03*
X97380000Y-93450000D03*
X97380000Y-98500000D03*
X94840000Y-93450000D03*
X94840000Y-98500000D03*
X92300000Y-93450000D03*
X92300000Y-98500000D03*
%TD*%
D25*
%TO.C,R4*%
X115412500Y-115000000D03*
X113587500Y-115000000D03*
%TD*%
D10*
%TO.C,J2*%
X103750000Y-151000000D03*
D11*
X105750000Y-151000000D03*
X107750000Y-151000000D03*
X109750000Y-151000000D03*
%TD*%
D14*
%TO.C,C36*%
X88350000Y-148000000D03*
X89900000Y-148000000D03*
%TD*%
D26*
%TO.C,C14*%
X111020000Y-136280000D03*
X111980000Y-136280000D03*
%TD*%
D27*
%TO.C,J1*%
X63500000Y-122420000D03*
D28*
X63500000Y-124420000D03*
X63500000Y-126420000D03*
%TD*%
D29*
%TO.C,C34*%
X92900000Y-148000000D03*
X91350000Y-148000000D03*
%TD*%
D14*
%TO.C,C40*%
X102075000Y-148000000D03*
X103625000Y-148000000D03*
%TD*%
D26*
%TO.C,C4*%
X92540000Y-136500000D03*
X93500000Y-136500000D03*
%TD*%
D14*
%TO.C,C30*%
X83575000Y-148000000D03*
X85125000Y-148000000D03*
%TD*%
D15*
%TO.C,C29*%
X99055000Y-120575000D03*
X98095000Y-120575000D03*
%TD*%
D30*
%TO.C,C22*%
X73500000Y-139500000D03*
X67900000Y-139500000D03*
%TD*%
D21*
%TO.C,C21*%
X104000000Y-108730000D03*
X104000000Y-107770000D03*
%TD*%
D26*
%TO.C,C20*%
X118020000Y-125500000D03*
X118980000Y-125500000D03*
%TD*%
D14*
%TO.C,C31*%
X80575000Y-148000000D03*
X82125000Y-148000000D03*
%TD*%
D31*
%TO.C,C24*%
X90575000Y-117595000D03*
X90575000Y-118555000D03*
%TD*%
D26*
%TO.C,C15*%
X111020000Y-137280000D03*
X111980000Y-137280000D03*
%TD*%
D32*
%TO.C,R1*%
X98750000Y-106010000D03*
X98750000Y-104990000D03*
%TD*%
D26*
%TO.C,C23*%
X101615000Y-121575000D03*
X102575000Y-121575000D03*
%TD*%
D33*
%TO.C,J7*%
X118575000Y-115640000D03*
X118575000Y-109860000D03*
D34*
X117500000Y-115950000D03*
X117500000Y-115150000D03*
D35*
X117500000Y-114000000D03*
X117500000Y-113000000D03*
X117500000Y-112500000D03*
X117500000Y-111500000D03*
D34*
X117500000Y-110350000D03*
X117500000Y-109550000D03*
X117500000Y-109550000D03*
X117500000Y-110350000D03*
D35*
X117500000Y-111000000D03*
X117500000Y-112000000D03*
X117500000Y-113500000D03*
X117500000Y-114500000D03*
D34*
X117500000Y-115150000D03*
X117500000Y-115950000D03*
D36*
X118075000Y-117070000D03*
D37*
X122255000Y-117070000D03*
D36*
X118075000Y-108430000D03*
D37*
X122255000Y-108430000D03*
%TD*%
D15*
%TO.C,C27*%
X99480000Y-121575000D03*
X98520000Y-121575000D03*
%TD*%
D13*
%TO.C,U3*%
X109275091Y-132949948D03*
X109925077Y-132949948D03*
X110575063Y-132949948D03*
X111225049Y-132949948D03*
X111875035Y-132949948D03*
X112525021Y-132949948D03*
X113175007Y-132949948D03*
X113824993Y-132949948D03*
X114474979Y-132949948D03*
X115124965Y-132949948D03*
X115774951Y-132949948D03*
X116424937Y-132949948D03*
X117074923Y-132949948D03*
X117724909Y-132949948D03*
X117724909Y-127050052D03*
X117074923Y-127050052D03*
X116424937Y-127050052D03*
X115774951Y-127050052D03*
X115124965Y-127050052D03*
X114474979Y-127050052D03*
X113824993Y-127050052D03*
X113175007Y-127050052D03*
X112525021Y-127050052D03*
X111875035Y-127050052D03*
X111225049Y-127050052D03*
X110575063Y-127050052D03*
X109925077Y-127050052D03*
X109275091Y-127050052D03*
%TD*%
D26*
%TO.C,C11*%
X99540000Y-125500000D03*
X100500000Y-125500000D03*
%TD*%
D32*
%TO.C,R3*%
X96750000Y-106010000D03*
X96750000Y-104990000D03*
%TD*%
D38*
%TO.C,U5*%
X81204600Y-109060200D03*
X81204600Y-110000000D03*
X81204600Y-110939800D03*
X83795400Y-110952500D03*
X83795400Y-109047500D03*
%TD*%
D15*
%TO.C,C28*%
X99460000Y-122500000D03*
X98500000Y-122500000D03*
%TD*%
D30*
%TO.C,C3*%
X91300000Y-139500000D03*
X85700000Y-139500000D03*
%TD*%
D12*
%TO.C,H2*%
X120000000Y-95000000D03*
%TD*%
D15*
%TO.C,C9*%
X100500000Y-124500000D03*
X99540000Y-124500000D03*
%TD*%
%TO.C,C25*%
X93535000Y-106075000D03*
X92575000Y-106075000D03*
%TD*%
D29*
%TO.C,C18*%
X109550000Y-135000000D03*
X108000000Y-135000000D03*
%TD*%
%TO.C,C8*%
X91000000Y-135000000D03*
X89450000Y-135000000D03*
%TD*%
%TO.C,C32*%
X79125000Y-148000000D03*
X77575000Y-148000000D03*
%TD*%
D26*
%TO.C,C16*%
X74770000Y-137250000D03*
X75730000Y-137250000D03*
%TD*%
%TO.C,C6*%
X92540000Y-135500000D03*
X93500000Y-135500000D03*
%TD*%
%TO.C,C13*%
X74770000Y-136250000D03*
X75730000Y-136250000D03*
%TD*%
%TO.C,C5*%
X92540000Y-137500000D03*
X93500000Y-137500000D03*
%TD*%
D15*
%TO.C,C7*%
X83000000Y-124500000D03*
X82040000Y-124500000D03*
%TD*%
D39*
%TO.C,U6*%
X111725000Y-111300000D03*
X111725000Y-112250000D03*
X111725000Y-113200000D03*
X114000000Y-113200000D03*
X114000000Y-112250000D03*
X114000000Y-111300000D03*
%TD*%
D12*
%TO.C,H4*%
X65000000Y-95000000D03*
%TD*%
D26*
%TO.C,C10*%
X82790000Y-125500000D03*
X83750000Y-125500000D03*
%TD*%
D12*
%TO.C,H1*%
X65000000Y-150000000D03*
%TD*%
D26*
%TO.C,C2*%
X74770000Y-135250000D03*
X75730000Y-135250000D03*
%TD*%
%TO.C,C17*%
X111020000Y-135250000D03*
X111980000Y-135250000D03*
%TD*%
D32*
%TO.C,R2*%
X95250000Y-104510000D03*
X95250000Y-103490000D03*
%TD*%
D10*
%TO.C,J3*%
X90000000Y-151000000D03*
D11*
X92000000Y-151000000D03*
X94000000Y-151000000D03*
X96000000Y-151000000D03*
%TD*%
D29*
%TO.C,C1*%
X73275000Y-135000000D03*
X71725000Y-135000000D03*
%TD*%
D30*
%TO.C,C12*%
X109800000Y-139500000D03*
X104200000Y-139500000D03*
%TD*%
D14*
%TO.C,C33*%
X74575000Y-148000000D03*
X76125000Y-148000000D03*
%TD*%
%TO.C,C39*%
X111075000Y-148000000D03*
X112625000Y-148000000D03*
%TD*%
M02*
