%TF.GenerationSoftware,KiCad,Pcbnew,9.0.7*%
%TF.CreationDate,2026-03-24T10:18:17+01:00*%
%TF.ProjectId,premier_jet,7072656d-6965-4725-9f6a-65742e6b6963,rev?*%
%TF.SameCoordinates,Original*%
%TF.FileFunction,Legend,Top*%
%TF.FilePolarity,Positive*%
%FSLAX46Y46*%
G04 Gerber Fmt 4.6, Leading zero omitted, Abs format (unit mm)*
G04 Created by KiCad (PCBNEW 9.0.7) date 2026-03-24 10:18:17*
%MOMM*%
%LPD*%
G01*
G04 APERTURE LIST*
%ADD10C,0.300000*%
%ADD11C,0.150000*%
%ADD12C,0.120000*%
%ADD13C,0.152400*%
%ADD14C,0.000000*%
G04 APERTURE END LIST*
D10*
X75554510Y-92470996D02*
X75554510Y-90970996D01*
X75554510Y-90970996D02*
X76054510Y-92042425D01*
X76054510Y-92042425D02*
X76554510Y-90970996D01*
X76554510Y-90970996D02*
X76554510Y-92470996D01*
X77197368Y-92042425D02*
X77911654Y-92042425D01*
X77054511Y-92470996D02*
X77554511Y-90970996D01*
X77554511Y-90970996D02*
X78054511Y-92470996D01*
X78554510Y-92470996D02*
X78554510Y-90970996D01*
X78554510Y-90970996D02*
X79411653Y-92470996D01*
X79411653Y-92470996D02*
X79411653Y-90970996D01*
X80054511Y-92399568D02*
X80268797Y-92470996D01*
X80268797Y-92470996D02*
X80625939Y-92470996D01*
X80625939Y-92470996D02*
X80768797Y-92399568D01*
X80768797Y-92399568D02*
X80840225Y-92328139D01*
X80840225Y-92328139D02*
X80911654Y-92185282D01*
X80911654Y-92185282D02*
X80911654Y-92042425D01*
X80911654Y-92042425D02*
X80840225Y-91899568D01*
X80840225Y-91899568D02*
X80768797Y-91828139D01*
X80768797Y-91828139D02*
X80625939Y-91756710D01*
X80625939Y-91756710D02*
X80340225Y-91685282D01*
X80340225Y-91685282D02*
X80197368Y-91613853D01*
X80197368Y-91613853D02*
X80125939Y-91542425D01*
X80125939Y-91542425D02*
X80054511Y-91399568D01*
X80054511Y-91399568D02*
X80054511Y-91256710D01*
X80054511Y-91256710D02*
X80125939Y-91113853D01*
X80125939Y-91113853D02*
X80197368Y-91042425D01*
X80197368Y-91042425D02*
X80340225Y-90970996D01*
X80340225Y-90970996D02*
X80697368Y-90970996D01*
X80697368Y-90970996D02*
X80911654Y-91042425D01*
X81483082Y-92042425D02*
X82197368Y-92042425D01*
X81340225Y-92470996D02*
X81840225Y-90970996D01*
X81840225Y-90970996D02*
X82340225Y-92470996D01*
X83697367Y-92470996D02*
X83197367Y-91756710D01*
X82840224Y-92470996D02*
X82840224Y-90970996D01*
X82840224Y-90970996D02*
X83411653Y-90970996D01*
X83411653Y-90970996D02*
X83554510Y-91042425D01*
X83554510Y-91042425D02*
X83625939Y-91113853D01*
X83625939Y-91113853D02*
X83697367Y-91256710D01*
X83697367Y-91256710D02*
X83697367Y-91470996D01*
X83697367Y-91470996D02*
X83625939Y-91613853D01*
X83625939Y-91613853D02*
X83554510Y-91685282D01*
X83554510Y-91685282D02*
X83411653Y-91756710D01*
X83411653Y-91756710D02*
X82840224Y-91756710D01*
X84340224Y-92470996D02*
X84340224Y-90970996D01*
X84340224Y-90970996D02*
X84697367Y-90970996D01*
X84697367Y-90970996D02*
X84911653Y-91042425D01*
X84911653Y-91042425D02*
X85054510Y-91185282D01*
X85054510Y-91185282D02*
X85125939Y-91328139D01*
X85125939Y-91328139D02*
X85197367Y-91613853D01*
X85197367Y-91613853D02*
X85197367Y-91828139D01*
X85197367Y-91828139D02*
X85125939Y-92113853D01*
X85125939Y-92113853D02*
X85054510Y-92256710D01*
X85054510Y-92256710D02*
X84911653Y-92399568D01*
X84911653Y-92399568D02*
X84697367Y-92470996D01*
X84697367Y-92470996D02*
X84340224Y-92470996D01*
X87411653Y-90970996D02*
X87411653Y-92042425D01*
X87411653Y-92042425D02*
X87340224Y-92256710D01*
X87340224Y-92256710D02*
X87197367Y-92399568D01*
X87197367Y-92399568D02*
X86983081Y-92470996D01*
X86983081Y-92470996D02*
X86840224Y-92470996D01*
X88340224Y-92470996D02*
X88197367Y-92399568D01*
X88197367Y-92399568D02*
X88125938Y-92328139D01*
X88125938Y-92328139D02*
X88054510Y-92185282D01*
X88054510Y-92185282D02*
X88054510Y-91756710D01*
X88054510Y-91756710D02*
X88125938Y-91613853D01*
X88125938Y-91613853D02*
X88197367Y-91542425D01*
X88197367Y-91542425D02*
X88340224Y-91470996D01*
X88340224Y-91470996D02*
X88554510Y-91470996D01*
X88554510Y-91470996D02*
X88697367Y-91542425D01*
X88697367Y-91542425D02*
X88768796Y-91613853D01*
X88768796Y-91613853D02*
X88840224Y-91756710D01*
X88840224Y-91756710D02*
X88840224Y-92185282D01*
X88840224Y-92185282D02*
X88768796Y-92328139D01*
X88768796Y-92328139D02*
X88697367Y-92399568D01*
X88697367Y-92399568D02*
X88554510Y-92470996D01*
X88554510Y-92470996D02*
X88340224Y-92470996D01*
X89483081Y-92470996D02*
X89483081Y-90970996D01*
X90125939Y-92470996D02*
X90125939Y-91685282D01*
X90125939Y-91685282D02*
X90054510Y-91542425D01*
X90054510Y-91542425D02*
X89911653Y-91470996D01*
X89911653Y-91470996D02*
X89697367Y-91470996D01*
X89697367Y-91470996D02*
X89554510Y-91542425D01*
X89554510Y-91542425D02*
X89483081Y-91613853D01*
X91483082Y-92470996D02*
X91483082Y-91685282D01*
X91483082Y-91685282D02*
X91411653Y-91542425D01*
X91411653Y-91542425D02*
X91268796Y-91470996D01*
X91268796Y-91470996D02*
X90983082Y-91470996D01*
X90983082Y-91470996D02*
X90840224Y-91542425D01*
X91483082Y-92399568D02*
X91340224Y-92470996D01*
X91340224Y-92470996D02*
X90983082Y-92470996D01*
X90983082Y-92470996D02*
X90840224Y-92399568D01*
X90840224Y-92399568D02*
X90768796Y-92256710D01*
X90768796Y-92256710D02*
X90768796Y-92113853D01*
X90768796Y-92113853D02*
X90840224Y-91970996D01*
X90840224Y-91970996D02*
X90983082Y-91899568D01*
X90983082Y-91899568D02*
X91340224Y-91899568D01*
X91340224Y-91899568D02*
X91483082Y-91828139D01*
X92197367Y-91470996D02*
X92197367Y-92470996D01*
X92197367Y-91613853D02*
X92268796Y-91542425D01*
X92268796Y-91542425D02*
X92411653Y-91470996D01*
X92411653Y-91470996D02*
X92625939Y-91470996D01*
X92625939Y-91470996D02*
X92768796Y-91542425D01*
X92768796Y-91542425D02*
X92840225Y-91685282D01*
X92840225Y-91685282D02*
X92840225Y-92470996D01*
X93554510Y-91470996D02*
X93554510Y-92470996D01*
X93554510Y-91613853D02*
X93625939Y-91542425D01*
X93625939Y-91542425D02*
X93768796Y-91470996D01*
X93768796Y-91470996D02*
X93983082Y-91470996D01*
X93983082Y-91470996D02*
X94125939Y-91542425D01*
X94125939Y-91542425D02*
X94197368Y-91685282D01*
X94197368Y-91685282D02*
X94197368Y-92470996D01*
X75554510Y-94100198D02*
X76054510Y-94100198D01*
X76268796Y-94885912D02*
X75554510Y-94885912D01*
X75554510Y-94885912D02*
X75554510Y-93385912D01*
X75554510Y-93385912D02*
X76268796Y-93385912D01*
X76768796Y-93885912D02*
X77125939Y-94885912D01*
X77483082Y-93885912D02*
X77125939Y-94885912D01*
X77125939Y-94885912D02*
X76983082Y-95243055D01*
X76983082Y-95243055D02*
X76911653Y-95314484D01*
X76911653Y-95314484D02*
X76768796Y-95385912D01*
X78625939Y-94814484D02*
X78483082Y-94885912D01*
X78483082Y-94885912D02*
X78197368Y-94885912D01*
X78197368Y-94885912D02*
X78054510Y-94814484D01*
X78054510Y-94814484D02*
X77983082Y-94671626D01*
X77983082Y-94671626D02*
X77983082Y-94100198D01*
X77983082Y-94100198D02*
X78054510Y-93957341D01*
X78054510Y-93957341D02*
X78197368Y-93885912D01*
X78197368Y-93885912D02*
X78483082Y-93885912D01*
X78483082Y-93885912D02*
X78625939Y-93957341D01*
X78625939Y-93957341D02*
X78697368Y-94100198D01*
X78697368Y-94100198D02*
X78697368Y-94243055D01*
X78697368Y-94243055D02*
X77983082Y-94385912D01*
X79625939Y-93385912D02*
X79911653Y-93385912D01*
X79911653Y-93385912D02*
X80054510Y-93457341D01*
X80054510Y-93457341D02*
X80197367Y-93600198D01*
X80197367Y-93600198D02*
X80268796Y-93885912D01*
X80268796Y-93885912D02*
X80268796Y-94385912D01*
X80268796Y-94385912D02*
X80197367Y-94671626D01*
X80197367Y-94671626D02*
X80054510Y-94814484D01*
X80054510Y-94814484D02*
X79911653Y-94885912D01*
X79911653Y-94885912D02*
X79625939Y-94885912D01*
X79625939Y-94885912D02*
X79483082Y-94814484D01*
X79483082Y-94814484D02*
X79340224Y-94671626D01*
X79340224Y-94671626D02*
X79268796Y-94385912D01*
X79268796Y-94385912D02*
X79268796Y-93885912D01*
X79268796Y-93885912D02*
X79340224Y-93600198D01*
X79340224Y-93600198D02*
X79483082Y-93457341D01*
X79483082Y-93457341D02*
X79625939Y-93385912D01*
X80697368Y-93385912D02*
X81554511Y-93385912D01*
X81125939Y-94885912D02*
X81125939Y-93385912D01*
X83197367Y-94885912D02*
X83197367Y-93385912D01*
X83197367Y-93385912D02*
X83697367Y-94457341D01*
X83697367Y-94457341D02*
X84197367Y-93385912D01*
X84197367Y-93385912D02*
X84197367Y-94885912D01*
X85554511Y-94885912D02*
X85554511Y-94100198D01*
X85554511Y-94100198D02*
X85483082Y-93957341D01*
X85483082Y-93957341D02*
X85340225Y-93885912D01*
X85340225Y-93885912D02*
X85054511Y-93885912D01*
X85054511Y-93885912D02*
X84911653Y-93957341D01*
X85554511Y-94814484D02*
X85411653Y-94885912D01*
X85411653Y-94885912D02*
X85054511Y-94885912D01*
X85054511Y-94885912D02*
X84911653Y-94814484D01*
X84911653Y-94814484D02*
X84840225Y-94671626D01*
X84840225Y-94671626D02*
X84840225Y-94528769D01*
X84840225Y-94528769D02*
X84911653Y-94385912D01*
X84911653Y-94385912D02*
X85054511Y-94314484D01*
X85054511Y-94314484D02*
X85411653Y-94314484D01*
X85411653Y-94314484D02*
X85554511Y-94243055D01*
X86268796Y-94885912D02*
X86268796Y-93385912D01*
X86411654Y-94314484D02*
X86840225Y-94885912D01*
X86840225Y-93885912D02*
X86268796Y-94457341D01*
X88054511Y-94814484D02*
X87911654Y-94885912D01*
X87911654Y-94885912D02*
X87625940Y-94885912D01*
X87625940Y-94885912D02*
X87483082Y-94814484D01*
X87483082Y-94814484D02*
X87411654Y-94671626D01*
X87411654Y-94671626D02*
X87411654Y-94100198D01*
X87411654Y-94100198D02*
X87483082Y-93957341D01*
X87483082Y-93957341D02*
X87625940Y-93885912D01*
X87625940Y-93885912D02*
X87911654Y-93885912D01*
X87911654Y-93885912D02*
X88054511Y-93957341D01*
X88054511Y-93957341D02*
X88125940Y-94100198D01*
X88125940Y-94100198D02*
X88125940Y-94243055D01*
X88125940Y-94243055D02*
X87411654Y-94385912D01*
X88768796Y-94885912D02*
X88768796Y-93885912D01*
X88768796Y-94171626D02*
X88840225Y-94028769D01*
X88840225Y-94028769D02*
X88911654Y-93957341D01*
X88911654Y-93957341D02*
X89054511Y-93885912D01*
X89054511Y-93885912D02*
X89197368Y-93885912D01*
X75554510Y-96515114D02*
X76054510Y-96515114D01*
X76268796Y-97300828D02*
X75554510Y-97300828D01*
X75554510Y-97300828D02*
X75554510Y-95800828D01*
X75554510Y-95800828D02*
X76268796Y-95800828D01*
X76911653Y-97300828D02*
X76911653Y-95800828D01*
X76911653Y-95800828D02*
X77768796Y-97300828D01*
X77768796Y-97300828D02*
X77768796Y-95800828D01*
X78411654Y-97229400D02*
X78625940Y-97300828D01*
X78625940Y-97300828D02*
X78983082Y-97300828D01*
X78983082Y-97300828D02*
X79125940Y-97229400D01*
X79125940Y-97229400D02*
X79197368Y-97157971D01*
X79197368Y-97157971D02*
X79268797Y-97015114D01*
X79268797Y-97015114D02*
X79268797Y-96872257D01*
X79268797Y-96872257D02*
X79197368Y-96729400D01*
X79197368Y-96729400D02*
X79125940Y-96657971D01*
X79125940Y-96657971D02*
X78983082Y-96586542D01*
X78983082Y-96586542D02*
X78697368Y-96515114D01*
X78697368Y-96515114D02*
X78554511Y-96443685D01*
X78554511Y-96443685D02*
X78483082Y-96372257D01*
X78483082Y-96372257D02*
X78411654Y-96229400D01*
X78411654Y-96229400D02*
X78411654Y-96086542D01*
X78411654Y-96086542D02*
X78483082Y-95943685D01*
X78483082Y-95943685D02*
X78554511Y-95872257D01*
X78554511Y-95872257D02*
X78697368Y-95800828D01*
X78697368Y-95800828D02*
X79054511Y-95800828D01*
X79054511Y-95800828D02*
X79268797Y-95872257D01*
X79911653Y-96515114D02*
X80411653Y-96515114D01*
X80625939Y-97300828D02*
X79911653Y-97300828D01*
X79911653Y-97300828D02*
X79911653Y-95800828D01*
X79911653Y-95800828D02*
X80625939Y-95800828D01*
X81197368Y-96872257D02*
X81911654Y-96872257D01*
X81054511Y-97300828D02*
X81554511Y-95800828D01*
X81554511Y-95800828D02*
X82054511Y-97300828D01*
X83625939Y-95943685D02*
X83697367Y-95872257D01*
X83697367Y-95872257D02*
X83840225Y-95800828D01*
X83840225Y-95800828D02*
X84197367Y-95800828D01*
X84197367Y-95800828D02*
X84340225Y-95872257D01*
X84340225Y-95872257D02*
X84411653Y-95943685D01*
X84411653Y-95943685D02*
X84483082Y-96086542D01*
X84483082Y-96086542D02*
X84483082Y-96229400D01*
X84483082Y-96229400D02*
X84411653Y-96443685D01*
X84411653Y-96443685D02*
X83554510Y-97300828D01*
X83554510Y-97300828D02*
X84483082Y-97300828D01*
X85054510Y-96872257D02*
X85768796Y-96872257D01*
X84911653Y-97300828D02*
X85411653Y-95800828D01*
X85411653Y-95800828D02*
X85911653Y-97300828D01*
D11*
X78916666Y-151954819D02*
X78916666Y-152669104D01*
X78916666Y-152669104D02*
X78869047Y-152811961D01*
X78869047Y-152811961D02*
X78773809Y-152907200D01*
X78773809Y-152907200D02*
X78630952Y-152954819D01*
X78630952Y-152954819D02*
X78535714Y-152954819D01*
X79821428Y-152288152D02*
X79821428Y-152954819D01*
X79583333Y-151907200D02*
X79345238Y-152621485D01*
X79345238Y-152621485D02*
X79964285Y-152621485D01*
X94454819Y-130761904D02*
X95264342Y-130761904D01*
X95264342Y-130761904D02*
X95359580Y-130714285D01*
X95359580Y-130714285D02*
X95407200Y-130666666D01*
X95407200Y-130666666D02*
X95454819Y-130571428D01*
X95454819Y-130571428D02*
X95454819Y-130380952D01*
X95454819Y-130380952D02*
X95407200Y-130285714D01*
X95407200Y-130285714D02*
X95359580Y-130238095D01*
X95359580Y-130238095D02*
X95264342Y-130190476D01*
X95264342Y-130190476D02*
X94454819Y-130190476D01*
X94550057Y-129761904D02*
X94502438Y-129714285D01*
X94502438Y-129714285D02*
X94454819Y-129619047D01*
X94454819Y-129619047D02*
X94454819Y-129380952D01*
X94454819Y-129380952D02*
X94502438Y-129285714D01*
X94502438Y-129285714D02*
X94550057Y-129238095D01*
X94550057Y-129238095D02*
X94645295Y-129190476D01*
X94645295Y-129190476D02*
X94740533Y-129190476D01*
X94740533Y-129190476D02*
X94883390Y-129238095D01*
X94883390Y-129238095D02*
X95454819Y-129809523D01*
X95454819Y-129809523D02*
X95454819Y-129190476D01*
X88704819Y-131999999D02*
X88942914Y-131999999D01*
X88847676Y-132238094D02*
X88942914Y-131999999D01*
X88942914Y-131999999D02*
X88847676Y-131761904D01*
X89133390Y-132142856D02*
X88942914Y-131999999D01*
X88942914Y-131999999D02*
X89133390Y-131857142D01*
X88704819Y-131999999D02*
X88942914Y-131999999D01*
X88847676Y-132238094D02*
X88942914Y-131999999D01*
X88942914Y-131999999D02*
X88847676Y-131761904D01*
X89133390Y-132142856D02*
X88942914Y-131999999D01*
X88942914Y-131999999D02*
X89133390Y-131857142D01*
X94482142Y-146929580D02*
X94434523Y-146977200D01*
X94434523Y-146977200D02*
X94291666Y-147024819D01*
X94291666Y-147024819D02*
X94196428Y-147024819D01*
X94196428Y-147024819D02*
X94053571Y-146977200D01*
X94053571Y-146977200D02*
X93958333Y-146881961D01*
X93958333Y-146881961D02*
X93910714Y-146786723D01*
X93910714Y-146786723D02*
X93863095Y-146596247D01*
X93863095Y-146596247D02*
X93863095Y-146453390D01*
X93863095Y-146453390D02*
X93910714Y-146262914D01*
X93910714Y-146262914D02*
X93958333Y-146167676D01*
X93958333Y-146167676D02*
X94053571Y-146072438D01*
X94053571Y-146072438D02*
X94196428Y-146024819D01*
X94196428Y-146024819D02*
X94291666Y-146024819D01*
X94291666Y-146024819D02*
X94434523Y-146072438D01*
X94434523Y-146072438D02*
X94482142Y-146120057D01*
X94815476Y-146024819D02*
X95434523Y-146024819D01*
X95434523Y-146024819D02*
X95101190Y-146405771D01*
X95101190Y-146405771D02*
X95244047Y-146405771D01*
X95244047Y-146405771D02*
X95339285Y-146453390D01*
X95339285Y-146453390D02*
X95386904Y-146501009D01*
X95386904Y-146501009D02*
X95434523Y-146596247D01*
X95434523Y-146596247D02*
X95434523Y-146834342D01*
X95434523Y-146834342D02*
X95386904Y-146929580D01*
X95386904Y-146929580D02*
X95339285Y-146977200D01*
X95339285Y-146977200D02*
X95244047Y-147024819D01*
X95244047Y-147024819D02*
X94958333Y-147024819D01*
X94958333Y-147024819D02*
X94863095Y-146977200D01*
X94863095Y-146977200D02*
X94815476Y-146929580D01*
X95767857Y-146024819D02*
X96434523Y-146024819D01*
X96434523Y-146024819D02*
X96005952Y-147024819D01*
X108207142Y-146929580D02*
X108159523Y-146977200D01*
X108159523Y-146977200D02*
X108016666Y-147024819D01*
X108016666Y-147024819D02*
X107921428Y-147024819D01*
X107921428Y-147024819D02*
X107778571Y-146977200D01*
X107778571Y-146977200D02*
X107683333Y-146881961D01*
X107683333Y-146881961D02*
X107635714Y-146786723D01*
X107635714Y-146786723D02*
X107588095Y-146596247D01*
X107588095Y-146596247D02*
X107588095Y-146453390D01*
X107588095Y-146453390D02*
X107635714Y-146262914D01*
X107635714Y-146262914D02*
X107683333Y-146167676D01*
X107683333Y-146167676D02*
X107778571Y-146072438D01*
X107778571Y-146072438D02*
X107921428Y-146024819D01*
X107921428Y-146024819D02*
X108016666Y-146024819D01*
X108016666Y-146024819D02*
X108159523Y-146072438D01*
X108159523Y-146072438D02*
X108207142Y-146120057D01*
X109064285Y-146358152D02*
X109064285Y-147024819D01*
X108826190Y-145977200D02*
X108588095Y-146691485D01*
X108588095Y-146691485D02*
X109207142Y-146691485D01*
X110111904Y-147024819D02*
X109540476Y-147024819D01*
X109826190Y-147024819D02*
X109826190Y-146024819D01*
X109826190Y-146024819D02*
X109730952Y-146167676D01*
X109730952Y-146167676D02*
X109635714Y-146262914D01*
X109635714Y-146262914D02*
X109540476Y-146310533D01*
X120107142Y-124609580D02*
X120059523Y-124657200D01*
X120059523Y-124657200D02*
X119916666Y-124704819D01*
X119916666Y-124704819D02*
X119821428Y-124704819D01*
X119821428Y-124704819D02*
X119678571Y-124657200D01*
X119678571Y-124657200D02*
X119583333Y-124561961D01*
X119583333Y-124561961D02*
X119535714Y-124466723D01*
X119535714Y-124466723D02*
X119488095Y-124276247D01*
X119488095Y-124276247D02*
X119488095Y-124133390D01*
X119488095Y-124133390D02*
X119535714Y-123942914D01*
X119535714Y-123942914D02*
X119583333Y-123847676D01*
X119583333Y-123847676D02*
X119678571Y-123752438D01*
X119678571Y-123752438D02*
X119821428Y-123704819D01*
X119821428Y-123704819D02*
X119916666Y-123704819D01*
X119916666Y-123704819D02*
X120059523Y-123752438D01*
X120059523Y-123752438D02*
X120107142Y-123800057D01*
X121059523Y-124704819D02*
X120488095Y-124704819D01*
X120773809Y-124704819D02*
X120773809Y-123704819D01*
X120773809Y-123704819D02*
X120678571Y-123847676D01*
X120678571Y-123847676D02*
X120583333Y-123942914D01*
X120583333Y-123942914D02*
X120488095Y-123990533D01*
X121535714Y-124704819D02*
X121726190Y-124704819D01*
X121726190Y-124704819D02*
X121821428Y-124657200D01*
X121821428Y-124657200D02*
X121869047Y-124609580D01*
X121869047Y-124609580D02*
X121964285Y-124466723D01*
X121964285Y-124466723D02*
X122011904Y-124276247D01*
X122011904Y-124276247D02*
X122011904Y-123895295D01*
X122011904Y-123895295D02*
X121964285Y-123800057D01*
X121964285Y-123800057D02*
X121916666Y-123752438D01*
X121916666Y-123752438D02*
X121821428Y-123704819D01*
X121821428Y-123704819D02*
X121630952Y-123704819D01*
X121630952Y-123704819D02*
X121535714Y-123752438D01*
X121535714Y-123752438D02*
X121488095Y-123800057D01*
X121488095Y-123800057D02*
X121440476Y-123895295D01*
X121440476Y-123895295D02*
X121440476Y-124133390D01*
X121440476Y-124133390D02*
X121488095Y-124228628D01*
X121488095Y-124228628D02*
X121535714Y-124276247D01*
X121535714Y-124276247D02*
X121630952Y-124323866D01*
X121630952Y-124323866D02*
X121821428Y-124323866D01*
X121821428Y-124323866D02*
X121916666Y-124276247D01*
X121916666Y-124276247D02*
X121964285Y-124228628D01*
X121964285Y-124228628D02*
X122011904Y-124133390D01*
X105207142Y-146929580D02*
X105159523Y-146977200D01*
X105159523Y-146977200D02*
X105016666Y-147024819D01*
X105016666Y-147024819D02*
X104921428Y-147024819D01*
X104921428Y-147024819D02*
X104778571Y-146977200D01*
X104778571Y-146977200D02*
X104683333Y-146881961D01*
X104683333Y-146881961D02*
X104635714Y-146786723D01*
X104635714Y-146786723D02*
X104588095Y-146596247D01*
X104588095Y-146596247D02*
X104588095Y-146453390D01*
X104588095Y-146453390D02*
X104635714Y-146262914D01*
X104635714Y-146262914D02*
X104683333Y-146167676D01*
X104683333Y-146167676D02*
X104778571Y-146072438D01*
X104778571Y-146072438D02*
X104921428Y-146024819D01*
X104921428Y-146024819D02*
X105016666Y-146024819D01*
X105016666Y-146024819D02*
X105159523Y-146072438D01*
X105159523Y-146072438D02*
X105207142Y-146120057D01*
X105540476Y-146024819D02*
X106159523Y-146024819D01*
X106159523Y-146024819D02*
X105826190Y-146405771D01*
X105826190Y-146405771D02*
X105969047Y-146405771D01*
X105969047Y-146405771D02*
X106064285Y-146453390D01*
X106064285Y-146453390D02*
X106111904Y-146501009D01*
X106111904Y-146501009D02*
X106159523Y-146596247D01*
X106159523Y-146596247D02*
X106159523Y-146834342D01*
X106159523Y-146834342D02*
X106111904Y-146929580D01*
X106111904Y-146929580D02*
X106064285Y-146977200D01*
X106064285Y-146977200D02*
X105969047Y-147024819D01*
X105969047Y-147024819D02*
X105683333Y-147024819D01*
X105683333Y-147024819D02*
X105588095Y-146977200D01*
X105588095Y-146977200D02*
X105540476Y-146929580D01*
X106730952Y-146453390D02*
X106635714Y-146405771D01*
X106635714Y-146405771D02*
X106588095Y-146358152D01*
X106588095Y-146358152D02*
X106540476Y-146262914D01*
X106540476Y-146262914D02*
X106540476Y-146215295D01*
X106540476Y-146215295D02*
X106588095Y-146120057D01*
X106588095Y-146120057D02*
X106635714Y-146072438D01*
X106635714Y-146072438D02*
X106730952Y-146024819D01*
X106730952Y-146024819D02*
X106921428Y-146024819D01*
X106921428Y-146024819D02*
X107016666Y-146072438D01*
X107016666Y-146072438D02*
X107064285Y-146120057D01*
X107064285Y-146120057D02*
X107111904Y-146215295D01*
X107111904Y-146215295D02*
X107111904Y-146262914D01*
X107111904Y-146262914D02*
X107064285Y-146358152D01*
X107064285Y-146358152D02*
X107016666Y-146405771D01*
X107016666Y-146405771D02*
X106921428Y-146453390D01*
X106921428Y-146453390D02*
X106730952Y-146453390D01*
X106730952Y-146453390D02*
X106635714Y-146501009D01*
X106635714Y-146501009D02*
X106588095Y-146548628D01*
X106588095Y-146548628D02*
X106540476Y-146643866D01*
X106540476Y-146643866D02*
X106540476Y-146834342D01*
X106540476Y-146834342D02*
X106588095Y-146929580D01*
X106588095Y-146929580D02*
X106635714Y-146977200D01*
X106635714Y-146977200D02*
X106730952Y-147024819D01*
X106730952Y-147024819D02*
X106921428Y-147024819D01*
X106921428Y-147024819D02*
X107016666Y-146977200D01*
X107016666Y-146977200D02*
X107064285Y-146929580D01*
X107064285Y-146929580D02*
X107111904Y-146834342D01*
X107111904Y-146834342D02*
X107111904Y-146643866D01*
X107111904Y-146643866D02*
X107064285Y-146548628D01*
X107064285Y-146548628D02*
X107016666Y-146501009D01*
X107016666Y-146501009D02*
X106921428Y-146453390D01*
X99563095Y-105379819D02*
X99563095Y-106189342D01*
X99563095Y-106189342D02*
X99610714Y-106284580D01*
X99610714Y-106284580D02*
X99658333Y-106332200D01*
X99658333Y-106332200D02*
X99753571Y-106379819D01*
X99753571Y-106379819D02*
X99944047Y-106379819D01*
X99944047Y-106379819D02*
X100039285Y-106332200D01*
X100039285Y-106332200D02*
X100086904Y-106284580D01*
X100086904Y-106284580D02*
X100134523Y-106189342D01*
X100134523Y-106189342D02*
X100134523Y-105379819D01*
X101039285Y-105713152D02*
X101039285Y-106379819D01*
X100801190Y-105332200D02*
X100563095Y-106046485D01*
X100563095Y-106046485D02*
X101182142Y-106046485D01*
X76954819Y-130761904D02*
X77764342Y-130761904D01*
X77764342Y-130761904D02*
X77859580Y-130714285D01*
X77859580Y-130714285D02*
X77907200Y-130666666D01*
X77907200Y-130666666D02*
X77954819Y-130571428D01*
X77954819Y-130571428D02*
X77954819Y-130380952D01*
X77954819Y-130380952D02*
X77907200Y-130285714D01*
X77907200Y-130285714D02*
X77859580Y-130238095D01*
X77859580Y-130238095D02*
X77764342Y-130190476D01*
X77764342Y-130190476D02*
X76954819Y-130190476D01*
X77954819Y-129190476D02*
X77954819Y-129761904D01*
X77954819Y-129476190D02*
X76954819Y-129476190D01*
X76954819Y-129476190D02*
X77097676Y-129571428D01*
X77097676Y-129571428D02*
X77192914Y-129666666D01*
X77192914Y-129666666D02*
X77240533Y-129761904D01*
X70954819Y-131999999D02*
X71192914Y-131999999D01*
X71097676Y-132238094D02*
X71192914Y-131999999D01*
X71192914Y-131999999D02*
X71097676Y-131761904D01*
X71383390Y-132142856D02*
X71192914Y-131999999D01*
X71192914Y-131999999D02*
X71383390Y-131857142D01*
X70954819Y-131999999D02*
X71192914Y-131999999D01*
X71097676Y-132238094D02*
X71192914Y-131999999D01*
X71192914Y-131999999D02*
X71097676Y-131761904D01*
X71383390Y-132142856D02*
X71192914Y-131999999D01*
X71192914Y-131999999D02*
X71383390Y-131857142D01*
X74754819Y-103663333D02*
X75469104Y-103663333D01*
X75469104Y-103663333D02*
X75611961Y-103710952D01*
X75611961Y-103710952D02*
X75707200Y-103806190D01*
X75707200Y-103806190D02*
X75754819Y-103949047D01*
X75754819Y-103949047D02*
X75754819Y-104044285D01*
X74754819Y-102710952D02*
X74754819Y-103187142D01*
X74754819Y-103187142D02*
X75231009Y-103234761D01*
X75231009Y-103234761D02*
X75183390Y-103187142D01*
X75183390Y-103187142D02*
X75135771Y-103091904D01*
X75135771Y-103091904D02*
X75135771Y-102853809D01*
X75135771Y-102853809D02*
X75183390Y-102758571D01*
X75183390Y-102758571D02*
X75231009Y-102710952D01*
X75231009Y-102710952D02*
X75326247Y-102663333D01*
X75326247Y-102663333D02*
X75564342Y-102663333D01*
X75564342Y-102663333D02*
X75659580Y-102710952D01*
X75659580Y-102710952D02*
X75707200Y-102758571D01*
X75707200Y-102758571D02*
X75754819Y-102853809D01*
X75754819Y-102853809D02*
X75754819Y-103091904D01*
X75754819Y-103091904D02*
X75707200Y-103187142D01*
X75707200Y-103187142D02*
X75659580Y-103234761D01*
X97482142Y-146929580D02*
X97434523Y-146977200D01*
X97434523Y-146977200D02*
X97291666Y-147024819D01*
X97291666Y-147024819D02*
X97196428Y-147024819D01*
X97196428Y-147024819D02*
X97053571Y-146977200D01*
X97053571Y-146977200D02*
X96958333Y-146881961D01*
X96958333Y-146881961D02*
X96910714Y-146786723D01*
X96910714Y-146786723D02*
X96863095Y-146596247D01*
X96863095Y-146596247D02*
X96863095Y-146453390D01*
X96863095Y-146453390D02*
X96910714Y-146262914D01*
X96910714Y-146262914D02*
X96958333Y-146167676D01*
X96958333Y-146167676D02*
X97053571Y-146072438D01*
X97053571Y-146072438D02*
X97196428Y-146024819D01*
X97196428Y-146024819D02*
X97291666Y-146024819D01*
X97291666Y-146024819D02*
X97434523Y-146072438D01*
X97434523Y-146072438D02*
X97482142Y-146120057D01*
X97815476Y-146024819D02*
X98434523Y-146024819D01*
X98434523Y-146024819D02*
X98101190Y-146405771D01*
X98101190Y-146405771D02*
X98244047Y-146405771D01*
X98244047Y-146405771D02*
X98339285Y-146453390D01*
X98339285Y-146453390D02*
X98386904Y-146501009D01*
X98386904Y-146501009D02*
X98434523Y-146596247D01*
X98434523Y-146596247D02*
X98434523Y-146834342D01*
X98434523Y-146834342D02*
X98386904Y-146929580D01*
X98386904Y-146929580D02*
X98339285Y-146977200D01*
X98339285Y-146977200D02*
X98244047Y-147024819D01*
X98244047Y-147024819D02*
X97958333Y-147024819D01*
X97958333Y-147024819D02*
X97863095Y-146977200D01*
X97863095Y-146977200D02*
X97815476Y-146929580D01*
X99339285Y-146024819D02*
X98863095Y-146024819D01*
X98863095Y-146024819D02*
X98815476Y-146501009D01*
X98815476Y-146501009D02*
X98863095Y-146453390D01*
X98863095Y-146453390D02*
X98958333Y-146405771D01*
X98958333Y-146405771D02*
X99196428Y-146405771D01*
X99196428Y-146405771D02*
X99291666Y-146453390D01*
X99291666Y-146453390D02*
X99339285Y-146501009D01*
X99339285Y-146501009D02*
X99386904Y-146596247D01*
X99386904Y-146596247D02*
X99386904Y-146834342D01*
X99386904Y-146834342D02*
X99339285Y-146929580D01*
X99339285Y-146929580D02*
X99291666Y-146977200D01*
X99291666Y-146977200D02*
X99196428Y-147024819D01*
X99196428Y-147024819D02*
X98958333Y-147024819D01*
X98958333Y-147024819D02*
X98863095Y-146977200D01*
X98863095Y-146977200D02*
X98815476Y-146929580D01*
X89107142Y-107359580D02*
X89059523Y-107407200D01*
X89059523Y-107407200D02*
X88916666Y-107454819D01*
X88916666Y-107454819D02*
X88821428Y-107454819D01*
X88821428Y-107454819D02*
X88678571Y-107407200D01*
X88678571Y-107407200D02*
X88583333Y-107311961D01*
X88583333Y-107311961D02*
X88535714Y-107216723D01*
X88535714Y-107216723D02*
X88488095Y-107026247D01*
X88488095Y-107026247D02*
X88488095Y-106883390D01*
X88488095Y-106883390D02*
X88535714Y-106692914D01*
X88535714Y-106692914D02*
X88583333Y-106597676D01*
X88583333Y-106597676D02*
X88678571Y-106502438D01*
X88678571Y-106502438D02*
X88821428Y-106454819D01*
X88821428Y-106454819D02*
X88916666Y-106454819D01*
X88916666Y-106454819D02*
X89059523Y-106502438D01*
X89059523Y-106502438D02*
X89107142Y-106550057D01*
X89488095Y-106550057D02*
X89535714Y-106502438D01*
X89535714Y-106502438D02*
X89630952Y-106454819D01*
X89630952Y-106454819D02*
X89869047Y-106454819D01*
X89869047Y-106454819D02*
X89964285Y-106502438D01*
X89964285Y-106502438D02*
X90011904Y-106550057D01*
X90011904Y-106550057D02*
X90059523Y-106645295D01*
X90059523Y-106645295D02*
X90059523Y-106740533D01*
X90059523Y-106740533D02*
X90011904Y-106883390D01*
X90011904Y-106883390D02*
X89440476Y-107454819D01*
X89440476Y-107454819D02*
X90059523Y-107454819D01*
X90916666Y-106454819D02*
X90726190Y-106454819D01*
X90726190Y-106454819D02*
X90630952Y-106502438D01*
X90630952Y-106502438D02*
X90583333Y-106550057D01*
X90583333Y-106550057D02*
X90488095Y-106692914D01*
X90488095Y-106692914D02*
X90440476Y-106883390D01*
X90440476Y-106883390D02*
X90440476Y-107264342D01*
X90440476Y-107264342D02*
X90488095Y-107359580D01*
X90488095Y-107359580D02*
X90535714Y-107407200D01*
X90535714Y-107407200D02*
X90630952Y-107454819D01*
X90630952Y-107454819D02*
X90821428Y-107454819D01*
X90821428Y-107454819D02*
X90916666Y-107407200D01*
X90916666Y-107407200D02*
X90964285Y-107359580D01*
X90964285Y-107359580D02*
X91011904Y-107264342D01*
X91011904Y-107264342D02*
X91011904Y-107026247D01*
X91011904Y-107026247D02*
X90964285Y-106931009D01*
X90964285Y-106931009D02*
X90916666Y-106883390D01*
X90916666Y-106883390D02*
X90821428Y-106835771D01*
X90821428Y-106835771D02*
X90630952Y-106835771D01*
X90630952Y-106835771D02*
X90535714Y-106883390D01*
X90535714Y-106883390D02*
X90488095Y-106931009D01*
X90488095Y-106931009D02*
X90440476Y-107026247D01*
X69109580Y-122142857D02*
X69157200Y-122190476D01*
X69157200Y-122190476D02*
X69204819Y-122333333D01*
X69204819Y-122333333D02*
X69204819Y-122428571D01*
X69204819Y-122428571D02*
X69157200Y-122571428D01*
X69157200Y-122571428D02*
X69061961Y-122666666D01*
X69061961Y-122666666D02*
X68966723Y-122714285D01*
X68966723Y-122714285D02*
X68776247Y-122761904D01*
X68776247Y-122761904D02*
X68633390Y-122761904D01*
X68633390Y-122761904D02*
X68442914Y-122714285D01*
X68442914Y-122714285D02*
X68347676Y-122666666D01*
X68347676Y-122666666D02*
X68252438Y-122571428D01*
X68252438Y-122571428D02*
X68204819Y-122428571D01*
X68204819Y-122428571D02*
X68204819Y-122333333D01*
X68204819Y-122333333D02*
X68252438Y-122190476D01*
X68252438Y-122190476D02*
X68300057Y-122142857D01*
X68538152Y-121285714D02*
X69204819Y-121285714D01*
X68157200Y-121523809D02*
X68871485Y-121761904D01*
X68871485Y-121761904D02*
X68871485Y-121142857D01*
X68300057Y-120809523D02*
X68252438Y-120761904D01*
X68252438Y-120761904D02*
X68204819Y-120666666D01*
X68204819Y-120666666D02*
X68204819Y-120428571D01*
X68204819Y-120428571D02*
X68252438Y-120333333D01*
X68252438Y-120333333D02*
X68300057Y-120285714D01*
X68300057Y-120285714D02*
X68395295Y-120238095D01*
X68395295Y-120238095D02*
X68490533Y-120238095D01*
X68490533Y-120238095D02*
X68633390Y-120285714D01*
X68633390Y-120285714D02*
X69204819Y-120857142D01*
X69204819Y-120857142D02*
X69204819Y-120238095D01*
X114083333Y-108304819D02*
X113750000Y-107828628D01*
X113511905Y-108304819D02*
X113511905Y-107304819D01*
X113511905Y-107304819D02*
X113892857Y-107304819D01*
X113892857Y-107304819D02*
X113988095Y-107352438D01*
X113988095Y-107352438D02*
X114035714Y-107400057D01*
X114035714Y-107400057D02*
X114083333Y-107495295D01*
X114083333Y-107495295D02*
X114083333Y-107638152D01*
X114083333Y-107638152D02*
X114035714Y-107733390D01*
X114035714Y-107733390D02*
X113988095Y-107781009D01*
X113988095Y-107781009D02*
X113892857Y-107828628D01*
X113892857Y-107828628D02*
X113511905Y-107828628D01*
X114988095Y-107304819D02*
X114511905Y-107304819D01*
X114511905Y-107304819D02*
X114464286Y-107781009D01*
X114464286Y-107781009D02*
X114511905Y-107733390D01*
X114511905Y-107733390D02*
X114607143Y-107685771D01*
X114607143Y-107685771D02*
X114845238Y-107685771D01*
X114845238Y-107685771D02*
X114940476Y-107733390D01*
X114940476Y-107733390D02*
X114988095Y-107781009D01*
X114988095Y-107781009D02*
X115035714Y-107876247D01*
X115035714Y-107876247D02*
X115035714Y-108114342D01*
X115035714Y-108114342D02*
X114988095Y-108209580D01*
X114988095Y-108209580D02*
X114940476Y-108257200D01*
X114940476Y-108257200D02*
X114845238Y-108304819D01*
X114845238Y-108304819D02*
X114607143Y-108304819D01*
X114607143Y-108304819D02*
X114511905Y-108257200D01*
X114511905Y-108257200D02*
X114464286Y-108209580D01*
X109374819Y-96308333D02*
X110089104Y-96308333D01*
X110089104Y-96308333D02*
X110231961Y-96355952D01*
X110231961Y-96355952D02*
X110327200Y-96451190D01*
X110327200Y-96451190D02*
X110374819Y-96594047D01*
X110374819Y-96594047D02*
X110374819Y-96689285D01*
X109374819Y-95403571D02*
X109374819Y-95594047D01*
X109374819Y-95594047D02*
X109422438Y-95689285D01*
X109422438Y-95689285D02*
X109470057Y-95736904D01*
X109470057Y-95736904D02*
X109612914Y-95832142D01*
X109612914Y-95832142D02*
X109803390Y-95879761D01*
X109803390Y-95879761D02*
X110184342Y-95879761D01*
X110184342Y-95879761D02*
X110279580Y-95832142D01*
X110279580Y-95832142D02*
X110327200Y-95784523D01*
X110327200Y-95784523D02*
X110374819Y-95689285D01*
X110374819Y-95689285D02*
X110374819Y-95498809D01*
X110374819Y-95498809D02*
X110327200Y-95403571D01*
X110327200Y-95403571D02*
X110279580Y-95355952D01*
X110279580Y-95355952D02*
X110184342Y-95308333D01*
X110184342Y-95308333D02*
X109946247Y-95308333D01*
X109946247Y-95308333D02*
X109851009Y-95355952D01*
X109851009Y-95355952D02*
X109803390Y-95403571D01*
X109803390Y-95403571D02*
X109755771Y-95498809D01*
X109755771Y-95498809D02*
X109755771Y-95689285D01*
X109755771Y-95689285D02*
X109803390Y-95784523D01*
X109803390Y-95784523D02*
X109851009Y-95832142D01*
X109851009Y-95832142D02*
X109946247Y-95879761D01*
X114083333Y-117104819D02*
X113750000Y-116628628D01*
X113511905Y-117104819D02*
X113511905Y-116104819D01*
X113511905Y-116104819D02*
X113892857Y-116104819D01*
X113892857Y-116104819D02*
X113988095Y-116152438D01*
X113988095Y-116152438D02*
X114035714Y-116200057D01*
X114035714Y-116200057D02*
X114083333Y-116295295D01*
X114083333Y-116295295D02*
X114083333Y-116438152D01*
X114083333Y-116438152D02*
X114035714Y-116533390D01*
X114035714Y-116533390D02*
X113988095Y-116581009D01*
X113988095Y-116581009D02*
X113892857Y-116628628D01*
X113892857Y-116628628D02*
X113511905Y-116628628D01*
X114940476Y-116438152D02*
X114940476Y-117104819D01*
X114702381Y-116057200D02*
X114464286Y-116771485D01*
X114464286Y-116771485D02*
X115083333Y-116771485D01*
X106416666Y-151954819D02*
X106416666Y-152669104D01*
X106416666Y-152669104D02*
X106369047Y-152811961D01*
X106369047Y-152811961D02*
X106273809Y-152907200D01*
X106273809Y-152907200D02*
X106130952Y-152954819D01*
X106130952Y-152954819D02*
X106035714Y-152954819D01*
X106845238Y-152050057D02*
X106892857Y-152002438D01*
X106892857Y-152002438D02*
X106988095Y-151954819D01*
X106988095Y-151954819D02*
X107226190Y-151954819D01*
X107226190Y-151954819D02*
X107321428Y-152002438D01*
X107321428Y-152002438D02*
X107369047Y-152050057D01*
X107369047Y-152050057D02*
X107416666Y-152145295D01*
X107416666Y-152145295D02*
X107416666Y-152240533D01*
X107416666Y-152240533D02*
X107369047Y-152383390D01*
X107369047Y-152383390D02*
X106797619Y-152954819D01*
X106797619Y-152954819D02*
X107416666Y-152954819D01*
X88482142Y-146929580D02*
X88434523Y-146977200D01*
X88434523Y-146977200D02*
X88291666Y-147024819D01*
X88291666Y-147024819D02*
X88196428Y-147024819D01*
X88196428Y-147024819D02*
X88053571Y-146977200D01*
X88053571Y-146977200D02*
X87958333Y-146881961D01*
X87958333Y-146881961D02*
X87910714Y-146786723D01*
X87910714Y-146786723D02*
X87863095Y-146596247D01*
X87863095Y-146596247D02*
X87863095Y-146453390D01*
X87863095Y-146453390D02*
X87910714Y-146262914D01*
X87910714Y-146262914D02*
X87958333Y-146167676D01*
X87958333Y-146167676D02*
X88053571Y-146072438D01*
X88053571Y-146072438D02*
X88196428Y-146024819D01*
X88196428Y-146024819D02*
X88291666Y-146024819D01*
X88291666Y-146024819D02*
X88434523Y-146072438D01*
X88434523Y-146072438D02*
X88482142Y-146120057D01*
X88815476Y-146024819D02*
X89434523Y-146024819D01*
X89434523Y-146024819D02*
X89101190Y-146405771D01*
X89101190Y-146405771D02*
X89244047Y-146405771D01*
X89244047Y-146405771D02*
X89339285Y-146453390D01*
X89339285Y-146453390D02*
X89386904Y-146501009D01*
X89386904Y-146501009D02*
X89434523Y-146596247D01*
X89434523Y-146596247D02*
X89434523Y-146834342D01*
X89434523Y-146834342D02*
X89386904Y-146929580D01*
X89386904Y-146929580D02*
X89339285Y-146977200D01*
X89339285Y-146977200D02*
X89244047Y-147024819D01*
X89244047Y-147024819D02*
X88958333Y-147024819D01*
X88958333Y-147024819D02*
X88863095Y-146977200D01*
X88863095Y-146977200D02*
X88815476Y-146929580D01*
X90291666Y-146024819D02*
X90101190Y-146024819D01*
X90101190Y-146024819D02*
X90005952Y-146072438D01*
X90005952Y-146072438D02*
X89958333Y-146120057D01*
X89958333Y-146120057D02*
X89863095Y-146262914D01*
X89863095Y-146262914D02*
X89815476Y-146453390D01*
X89815476Y-146453390D02*
X89815476Y-146834342D01*
X89815476Y-146834342D02*
X89863095Y-146929580D01*
X89863095Y-146929580D02*
X89910714Y-146977200D01*
X89910714Y-146977200D02*
X90005952Y-147024819D01*
X90005952Y-147024819D02*
X90196428Y-147024819D01*
X90196428Y-147024819D02*
X90291666Y-146977200D01*
X90291666Y-146977200D02*
X90339285Y-146929580D01*
X90339285Y-146929580D02*
X90386904Y-146834342D01*
X90386904Y-146834342D02*
X90386904Y-146596247D01*
X90386904Y-146596247D02*
X90339285Y-146501009D01*
X90339285Y-146501009D02*
X90291666Y-146453390D01*
X90291666Y-146453390D02*
X90196428Y-146405771D01*
X90196428Y-146405771D02*
X90005952Y-146405771D01*
X90005952Y-146405771D02*
X89910714Y-146453390D01*
X89910714Y-146453390D02*
X89863095Y-146501009D01*
X89863095Y-146501009D02*
X89815476Y-146596247D01*
X113357142Y-136359580D02*
X113309523Y-136407200D01*
X113309523Y-136407200D02*
X113166666Y-136454819D01*
X113166666Y-136454819D02*
X113071428Y-136454819D01*
X113071428Y-136454819D02*
X112928571Y-136407200D01*
X112928571Y-136407200D02*
X112833333Y-136311961D01*
X112833333Y-136311961D02*
X112785714Y-136216723D01*
X112785714Y-136216723D02*
X112738095Y-136026247D01*
X112738095Y-136026247D02*
X112738095Y-135883390D01*
X112738095Y-135883390D02*
X112785714Y-135692914D01*
X112785714Y-135692914D02*
X112833333Y-135597676D01*
X112833333Y-135597676D02*
X112928571Y-135502438D01*
X112928571Y-135502438D02*
X113071428Y-135454819D01*
X113071428Y-135454819D02*
X113166666Y-135454819D01*
X113166666Y-135454819D02*
X113309523Y-135502438D01*
X113309523Y-135502438D02*
X113357142Y-135550057D01*
X114309523Y-136454819D02*
X113738095Y-136454819D01*
X114023809Y-136454819D02*
X114023809Y-135454819D01*
X114023809Y-135454819D02*
X113928571Y-135597676D01*
X113928571Y-135597676D02*
X113833333Y-135692914D01*
X113833333Y-135692914D02*
X113738095Y-135740533D01*
X115166666Y-135788152D02*
X115166666Y-136454819D01*
X114928571Y-135407200D02*
X114690476Y-136121485D01*
X114690476Y-136121485D02*
X115309523Y-136121485D01*
X65854819Y-124753333D02*
X66569104Y-124753333D01*
X66569104Y-124753333D02*
X66711961Y-124800952D01*
X66711961Y-124800952D02*
X66807200Y-124896190D01*
X66807200Y-124896190D02*
X66854819Y-125039047D01*
X66854819Y-125039047D02*
X66854819Y-125134285D01*
X66854819Y-123753333D02*
X66854819Y-124324761D01*
X66854819Y-124039047D02*
X65854819Y-124039047D01*
X65854819Y-124039047D02*
X65997676Y-124134285D01*
X65997676Y-124134285D02*
X66092914Y-124229523D01*
X66092914Y-124229523D02*
X66140533Y-124324761D01*
X91482142Y-146859580D02*
X91434523Y-146907200D01*
X91434523Y-146907200D02*
X91291666Y-146954819D01*
X91291666Y-146954819D02*
X91196428Y-146954819D01*
X91196428Y-146954819D02*
X91053571Y-146907200D01*
X91053571Y-146907200D02*
X90958333Y-146811961D01*
X90958333Y-146811961D02*
X90910714Y-146716723D01*
X90910714Y-146716723D02*
X90863095Y-146526247D01*
X90863095Y-146526247D02*
X90863095Y-146383390D01*
X90863095Y-146383390D02*
X90910714Y-146192914D01*
X90910714Y-146192914D02*
X90958333Y-146097676D01*
X90958333Y-146097676D02*
X91053571Y-146002438D01*
X91053571Y-146002438D02*
X91196428Y-145954819D01*
X91196428Y-145954819D02*
X91291666Y-145954819D01*
X91291666Y-145954819D02*
X91434523Y-146002438D01*
X91434523Y-146002438D02*
X91482142Y-146050057D01*
X91815476Y-145954819D02*
X92434523Y-145954819D01*
X92434523Y-145954819D02*
X92101190Y-146335771D01*
X92101190Y-146335771D02*
X92244047Y-146335771D01*
X92244047Y-146335771D02*
X92339285Y-146383390D01*
X92339285Y-146383390D02*
X92386904Y-146431009D01*
X92386904Y-146431009D02*
X92434523Y-146526247D01*
X92434523Y-146526247D02*
X92434523Y-146764342D01*
X92434523Y-146764342D02*
X92386904Y-146859580D01*
X92386904Y-146859580D02*
X92339285Y-146907200D01*
X92339285Y-146907200D02*
X92244047Y-146954819D01*
X92244047Y-146954819D02*
X91958333Y-146954819D01*
X91958333Y-146954819D02*
X91863095Y-146907200D01*
X91863095Y-146907200D02*
X91815476Y-146859580D01*
X93291666Y-146288152D02*
X93291666Y-146954819D01*
X93053571Y-145907200D02*
X92815476Y-146621485D01*
X92815476Y-146621485D02*
X93434523Y-146621485D01*
X102207142Y-146929580D02*
X102159523Y-146977200D01*
X102159523Y-146977200D02*
X102016666Y-147024819D01*
X102016666Y-147024819D02*
X101921428Y-147024819D01*
X101921428Y-147024819D02*
X101778571Y-146977200D01*
X101778571Y-146977200D02*
X101683333Y-146881961D01*
X101683333Y-146881961D02*
X101635714Y-146786723D01*
X101635714Y-146786723D02*
X101588095Y-146596247D01*
X101588095Y-146596247D02*
X101588095Y-146453390D01*
X101588095Y-146453390D02*
X101635714Y-146262914D01*
X101635714Y-146262914D02*
X101683333Y-146167676D01*
X101683333Y-146167676D02*
X101778571Y-146072438D01*
X101778571Y-146072438D02*
X101921428Y-146024819D01*
X101921428Y-146024819D02*
X102016666Y-146024819D01*
X102016666Y-146024819D02*
X102159523Y-146072438D01*
X102159523Y-146072438D02*
X102207142Y-146120057D01*
X103064285Y-146358152D02*
X103064285Y-147024819D01*
X102826190Y-145977200D02*
X102588095Y-146691485D01*
X102588095Y-146691485D02*
X103207142Y-146691485D01*
X103778571Y-146024819D02*
X103873809Y-146024819D01*
X103873809Y-146024819D02*
X103969047Y-146072438D01*
X103969047Y-146072438D02*
X104016666Y-146120057D01*
X104016666Y-146120057D02*
X104064285Y-146215295D01*
X104064285Y-146215295D02*
X104111904Y-146405771D01*
X104111904Y-146405771D02*
X104111904Y-146643866D01*
X104111904Y-146643866D02*
X104064285Y-146834342D01*
X104064285Y-146834342D02*
X104016666Y-146929580D01*
X104016666Y-146929580D02*
X103969047Y-146977200D01*
X103969047Y-146977200D02*
X103873809Y-147024819D01*
X103873809Y-147024819D02*
X103778571Y-147024819D01*
X103778571Y-147024819D02*
X103683333Y-146977200D01*
X103683333Y-146977200D02*
X103635714Y-146929580D01*
X103635714Y-146929580D02*
X103588095Y-146834342D01*
X103588095Y-146834342D02*
X103540476Y-146643866D01*
X103540476Y-146643866D02*
X103540476Y-146405771D01*
X103540476Y-146405771D02*
X103588095Y-146215295D01*
X103588095Y-146215295D02*
X103635714Y-146120057D01*
X103635714Y-146120057D02*
X103683333Y-146072438D01*
X103683333Y-146072438D02*
X103778571Y-146024819D01*
X94853333Y-136859580D02*
X94805714Y-136907200D01*
X94805714Y-136907200D02*
X94662857Y-136954819D01*
X94662857Y-136954819D02*
X94567619Y-136954819D01*
X94567619Y-136954819D02*
X94424762Y-136907200D01*
X94424762Y-136907200D02*
X94329524Y-136811961D01*
X94329524Y-136811961D02*
X94281905Y-136716723D01*
X94281905Y-136716723D02*
X94234286Y-136526247D01*
X94234286Y-136526247D02*
X94234286Y-136383390D01*
X94234286Y-136383390D02*
X94281905Y-136192914D01*
X94281905Y-136192914D02*
X94329524Y-136097676D01*
X94329524Y-136097676D02*
X94424762Y-136002438D01*
X94424762Y-136002438D02*
X94567619Y-135954819D01*
X94567619Y-135954819D02*
X94662857Y-135954819D01*
X94662857Y-135954819D02*
X94805714Y-136002438D01*
X94805714Y-136002438D02*
X94853333Y-136050057D01*
X95710476Y-136288152D02*
X95710476Y-136954819D01*
X95472381Y-135907200D02*
X95234286Y-136621485D01*
X95234286Y-136621485D02*
X95853333Y-136621485D01*
X83707142Y-146859580D02*
X83659523Y-146907200D01*
X83659523Y-146907200D02*
X83516666Y-146954819D01*
X83516666Y-146954819D02*
X83421428Y-146954819D01*
X83421428Y-146954819D02*
X83278571Y-146907200D01*
X83278571Y-146907200D02*
X83183333Y-146811961D01*
X83183333Y-146811961D02*
X83135714Y-146716723D01*
X83135714Y-146716723D02*
X83088095Y-146526247D01*
X83088095Y-146526247D02*
X83088095Y-146383390D01*
X83088095Y-146383390D02*
X83135714Y-146192914D01*
X83135714Y-146192914D02*
X83183333Y-146097676D01*
X83183333Y-146097676D02*
X83278571Y-146002438D01*
X83278571Y-146002438D02*
X83421428Y-145954819D01*
X83421428Y-145954819D02*
X83516666Y-145954819D01*
X83516666Y-145954819D02*
X83659523Y-146002438D01*
X83659523Y-146002438D02*
X83707142Y-146050057D01*
X84040476Y-145954819D02*
X84659523Y-145954819D01*
X84659523Y-145954819D02*
X84326190Y-146335771D01*
X84326190Y-146335771D02*
X84469047Y-146335771D01*
X84469047Y-146335771D02*
X84564285Y-146383390D01*
X84564285Y-146383390D02*
X84611904Y-146431009D01*
X84611904Y-146431009D02*
X84659523Y-146526247D01*
X84659523Y-146526247D02*
X84659523Y-146764342D01*
X84659523Y-146764342D02*
X84611904Y-146859580D01*
X84611904Y-146859580D02*
X84564285Y-146907200D01*
X84564285Y-146907200D02*
X84469047Y-146954819D01*
X84469047Y-146954819D02*
X84183333Y-146954819D01*
X84183333Y-146954819D02*
X84088095Y-146907200D01*
X84088095Y-146907200D02*
X84040476Y-146859580D01*
X85278571Y-145954819D02*
X85373809Y-145954819D01*
X85373809Y-145954819D02*
X85469047Y-146002438D01*
X85469047Y-146002438D02*
X85516666Y-146050057D01*
X85516666Y-146050057D02*
X85564285Y-146145295D01*
X85564285Y-146145295D02*
X85611904Y-146335771D01*
X85611904Y-146335771D02*
X85611904Y-146573866D01*
X85611904Y-146573866D02*
X85564285Y-146764342D01*
X85564285Y-146764342D02*
X85516666Y-146859580D01*
X85516666Y-146859580D02*
X85469047Y-146907200D01*
X85469047Y-146907200D02*
X85373809Y-146954819D01*
X85373809Y-146954819D02*
X85278571Y-146954819D01*
X85278571Y-146954819D02*
X85183333Y-146907200D01*
X85183333Y-146907200D02*
X85135714Y-146859580D01*
X85135714Y-146859580D02*
X85088095Y-146764342D01*
X85088095Y-146764342D02*
X85040476Y-146573866D01*
X85040476Y-146573866D02*
X85040476Y-146335771D01*
X85040476Y-146335771D02*
X85088095Y-146145295D01*
X85088095Y-146145295D02*
X85135714Y-146050057D01*
X85135714Y-146050057D02*
X85183333Y-146002438D01*
X85183333Y-146002438D02*
X85278571Y-145954819D01*
X95607142Y-121109580D02*
X95559523Y-121157200D01*
X95559523Y-121157200D02*
X95416666Y-121204819D01*
X95416666Y-121204819D02*
X95321428Y-121204819D01*
X95321428Y-121204819D02*
X95178571Y-121157200D01*
X95178571Y-121157200D02*
X95083333Y-121061961D01*
X95083333Y-121061961D02*
X95035714Y-120966723D01*
X95035714Y-120966723D02*
X94988095Y-120776247D01*
X94988095Y-120776247D02*
X94988095Y-120633390D01*
X94988095Y-120633390D02*
X95035714Y-120442914D01*
X95035714Y-120442914D02*
X95083333Y-120347676D01*
X95083333Y-120347676D02*
X95178571Y-120252438D01*
X95178571Y-120252438D02*
X95321428Y-120204819D01*
X95321428Y-120204819D02*
X95416666Y-120204819D01*
X95416666Y-120204819D02*
X95559523Y-120252438D01*
X95559523Y-120252438D02*
X95607142Y-120300057D01*
X95988095Y-120300057D02*
X96035714Y-120252438D01*
X96035714Y-120252438D02*
X96130952Y-120204819D01*
X96130952Y-120204819D02*
X96369047Y-120204819D01*
X96369047Y-120204819D02*
X96464285Y-120252438D01*
X96464285Y-120252438D02*
X96511904Y-120300057D01*
X96511904Y-120300057D02*
X96559523Y-120395295D01*
X96559523Y-120395295D02*
X96559523Y-120490533D01*
X96559523Y-120490533D02*
X96511904Y-120633390D01*
X96511904Y-120633390D02*
X95940476Y-121204819D01*
X95940476Y-121204819D02*
X96559523Y-121204819D01*
X97035714Y-121204819D02*
X97226190Y-121204819D01*
X97226190Y-121204819D02*
X97321428Y-121157200D01*
X97321428Y-121157200D02*
X97369047Y-121109580D01*
X97369047Y-121109580D02*
X97464285Y-120966723D01*
X97464285Y-120966723D02*
X97511904Y-120776247D01*
X97511904Y-120776247D02*
X97511904Y-120395295D01*
X97511904Y-120395295D02*
X97464285Y-120300057D01*
X97464285Y-120300057D02*
X97416666Y-120252438D01*
X97416666Y-120252438D02*
X97321428Y-120204819D01*
X97321428Y-120204819D02*
X97130952Y-120204819D01*
X97130952Y-120204819D02*
X97035714Y-120252438D01*
X97035714Y-120252438D02*
X96988095Y-120300057D01*
X96988095Y-120300057D02*
X96940476Y-120395295D01*
X96940476Y-120395295D02*
X96940476Y-120633390D01*
X96940476Y-120633390D02*
X96988095Y-120728628D01*
X96988095Y-120728628D02*
X97035714Y-120776247D01*
X97035714Y-120776247D02*
X97130952Y-120823866D01*
X97130952Y-120823866D02*
X97321428Y-120823866D01*
X97321428Y-120823866D02*
X97416666Y-120776247D01*
X97416666Y-120776247D02*
X97464285Y-120728628D01*
X97464285Y-120728628D02*
X97511904Y-120633390D01*
X70057142Y-144209580D02*
X70009523Y-144257200D01*
X70009523Y-144257200D02*
X69866666Y-144304819D01*
X69866666Y-144304819D02*
X69771428Y-144304819D01*
X69771428Y-144304819D02*
X69628571Y-144257200D01*
X69628571Y-144257200D02*
X69533333Y-144161961D01*
X69533333Y-144161961D02*
X69485714Y-144066723D01*
X69485714Y-144066723D02*
X69438095Y-143876247D01*
X69438095Y-143876247D02*
X69438095Y-143733390D01*
X69438095Y-143733390D02*
X69485714Y-143542914D01*
X69485714Y-143542914D02*
X69533333Y-143447676D01*
X69533333Y-143447676D02*
X69628571Y-143352438D01*
X69628571Y-143352438D02*
X69771428Y-143304819D01*
X69771428Y-143304819D02*
X69866666Y-143304819D01*
X69866666Y-143304819D02*
X70009523Y-143352438D01*
X70009523Y-143352438D02*
X70057142Y-143400057D01*
X70438095Y-143400057D02*
X70485714Y-143352438D01*
X70485714Y-143352438D02*
X70580952Y-143304819D01*
X70580952Y-143304819D02*
X70819047Y-143304819D01*
X70819047Y-143304819D02*
X70914285Y-143352438D01*
X70914285Y-143352438D02*
X70961904Y-143400057D01*
X70961904Y-143400057D02*
X71009523Y-143495295D01*
X71009523Y-143495295D02*
X71009523Y-143590533D01*
X71009523Y-143590533D02*
X70961904Y-143733390D01*
X70961904Y-143733390D02*
X70390476Y-144304819D01*
X70390476Y-144304819D02*
X71009523Y-144304819D01*
X71390476Y-143400057D02*
X71438095Y-143352438D01*
X71438095Y-143352438D02*
X71533333Y-143304819D01*
X71533333Y-143304819D02*
X71771428Y-143304819D01*
X71771428Y-143304819D02*
X71866666Y-143352438D01*
X71866666Y-143352438D02*
X71914285Y-143400057D01*
X71914285Y-143400057D02*
X71961904Y-143495295D01*
X71961904Y-143495295D02*
X71961904Y-143590533D01*
X71961904Y-143590533D02*
X71914285Y-143733390D01*
X71914285Y-143733390D02*
X71342857Y-144304819D01*
X71342857Y-144304819D02*
X71961904Y-144304819D01*
X103857142Y-107109580D02*
X103809523Y-107157200D01*
X103809523Y-107157200D02*
X103666666Y-107204819D01*
X103666666Y-107204819D02*
X103571428Y-107204819D01*
X103571428Y-107204819D02*
X103428571Y-107157200D01*
X103428571Y-107157200D02*
X103333333Y-107061961D01*
X103333333Y-107061961D02*
X103285714Y-106966723D01*
X103285714Y-106966723D02*
X103238095Y-106776247D01*
X103238095Y-106776247D02*
X103238095Y-106633390D01*
X103238095Y-106633390D02*
X103285714Y-106442914D01*
X103285714Y-106442914D02*
X103333333Y-106347676D01*
X103333333Y-106347676D02*
X103428571Y-106252438D01*
X103428571Y-106252438D02*
X103571428Y-106204819D01*
X103571428Y-106204819D02*
X103666666Y-106204819D01*
X103666666Y-106204819D02*
X103809523Y-106252438D01*
X103809523Y-106252438D02*
X103857142Y-106300057D01*
X104238095Y-106300057D02*
X104285714Y-106252438D01*
X104285714Y-106252438D02*
X104380952Y-106204819D01*
X104380952Y-106204819D02*
X104619047Y-106204819D01*
X104619047Y-106204819D02*
X104714285Y-106252438D01*
X104714285Y-106252438D02*
X104761904Y-106300057D01*
X104761904Y-106300057D02*
X104809523Y-106395295D01*
X104809523Y-106395295D02*
X104809523Y-106490533D01*
X104809523Y-106490533D02*
X104761904Y-106633390D01*
X104761904Y-106633390D02*
X104190476Y-107204819D01*
X104190476Y-107204819D02*
X104809523Y-107204819D01*
X105761904Y-107204819D02*
X105190476Y-107204819D01*
X105476190Y-107204819D02*
X105476190Y-106204819D01*
X105476190Y-106204819D02*
X105380952Y-106347676D01*
X105380952Y-106347676D02*
X105285714Y-106442914D01*
X105285714Y-106442914D02*
X105190476Y-106490533D01*
X120107142Y-125859580D02*
X120059523Y-125907200D01*
X120059523Y-125907200D02*
X119916666Y-125954819D01*
X119916666Y-125954819D02*
X119821428Y-125954819D01*
X119821428Y-125954819D02*
X119678571Y-125907200D01*
X119678571Y-125907200D02*
X119583333Y-125811961D01*
X119583333Y-125811961D02*
X119535714Y-125716723D01*
X119535714Y-125716723D02*
X119488095Y-125526247D01*
X119488095Y-125526247D02*
X119488095Y-125383390D01*
X119488095Y-125383390D02*
X119535714Y-125192914D01*
X119535714Y-125192914D02*
X119583333Y-125097676D01*
X119583333Y-125097676D02*
X119678571Y-125002438D01*
X119678571Y-125002438D02*
X119821428Y-124954819D01*
X119821428Y-124954819D02*
X119916666Y-124954819D01*
X119916666Y-124954819D02*
X120059523Y-125002438D01*
X120059523Y-125002438D02*
X120107142Y-125050057D01*
X120488095Y-125050057D02*
X120535714Y-125002438D01*
X120535714Y-125002438D02*
X120630952Y-124954819D01*
X120630952Y-124954819D02*
X120869047Y-124954819D01*
X120869047Y-124954819D02*
X120964285Y-125002438D01*
X120964285Y-125002438D02*
X121011904Y-125050057D01*
X121011904Y-125050057D02*
X121059523Y-125145295D01*
X121059523Y-125145295D02*
X121059523Y-125240533D01*
X121059523Y-125240533D02*
X121011904Y-125383390D01*
X121011904Y-125383390D02*
X120440476Y-125954819D01*
X120440476Y-125954819D02*
X121059523Y-125954819D01*
X121678571Y-124954819D02*
X121773809Y-124954819D01*
X121773809Y-124954819D02*
X121869047Y-125002438D01*
X121869047Y-125002438D02*
X121916666Y-125050057D01*
X121916666Y-125050057D02*
X121964285Y-125145295D01*
X121964285Y-125145295D02*
X122011904Y-125335771D01*
X122011904Y-125335771D02*
X122011904Y-125573866D01*
X122011904Y-125573866D02*
X121964285Y-125764342D01*
X121964285Y-125764342D02*
X121916666Y-125859580D01*
X121916666Y-125859580D02*
X121869047Y-125907200D01*
X121869047Y-125907200D02*
X121773809Y-125954819D01*
X121773809Y-125954819D02*
X121678571Y-125954819D01*
X121678571Y-125954819D02*
X121583333Y-125907200D01*
X121583333Y-125907200D02*
X121535714Y-125859580D01*
X121535714Y-125859580D02*
X121488095Y-125764342D01*
X121488095Y-125764342D02*
X121440476Y-125573866D01*
X121440476Y-125573866D02*
X121440476Y-125335771D01*
X121440476Y-125335771D02*
X121488095Y-125145295D01*
X121488095Y-125145295D02*
X121535714Y-125050057D01*
X121535714Y-125050057D02*
X121583333Y-125002438D01*
X121583333Y-125002438D02*
X121678571Y-124954819D01*
X80707142Y-146859580D02*
X80659523Y-146907200D01*
X80659523Y-146907200D02*
X80516666Y-146954819D01*
X80516666Y-146954819D02*
X80421428Y-146954819D01*
X80421428Y-146954819D02*
X80278571Y-146907200D01*
X80278571Y-146907200D02*
X80183333Y-146811961D01*
X80183333Y-146811961D02*
X80135714Y-146716723D01*
X80135714Y-146716723D02*
X80088095Y-146526247D01*
X80088095Y-146526247D02*
X80088095Y-146383390D01*
X80088095Y-146383390D02*
X80135714Y-146192914D01*
X80135714Y-146192914D02*
X80183333Y-146097676D01*
X80183333Y-146097676D02*
X80278571Y-146002438D01*
X80278571Y-146002438D02*
X80421428Y-145954819D01*
X80421428Y-145954819D02*
X80516666Y-145954819D01*
X80516666Y-145954819D02*
X80659523Y-146002438D01*
X80659523Y-146002438D02*
X80707142Y-146050057D01*
X81040476Y-145954819D02*
X81659523Y-145954819D01*
X81659523Y-145954819D02*
X81326190Y-146335771D01*
X81326190Y-146335771D02*
X81469047Y-146335771D01*
X81469047Y-146335771D02*
X81564285Y-146383390D01*
X81564285Y-146383390D02*
X81611904Y-146431009D01*
X81611904Y-146431009D02*
X81659523Y-146526247D01*
X81659523Y-146526247D02*
X81659523Y-146764342D01*
X81659523Y-146764342D02*
X81611904Y-146859580D01*
X81611904Y-146859580D02*
X81564285Y-146907200D01*
X81564285Y-146907200D02*
X81469047Y-146954819D01*
X81469047Y-146954819D02*
X81183333Y-146954819D01*
X81183333Y-146954819D02*
X81088095Y-146907200D01*
X81088095Y-146907200D02*
X81040476Y-146859580D01*
X82611904Y-146954819D02*
X82040476Y-146954819D01*
X82326190Y-146954819D02*
X82326190Y-145954819D01*
X82326190Y-145954819D02*
X82230952Y-146097676D01*
X82230952Y-146097676D02*
X82135714Y-146192914D01*
X82135714Y-146192914D02*
X82040476Y-146240533D01*
X89857142Y-120109580D02*
X89809523Y-120157200D01*
X89809523Y-120157200D02*
X89666666Y-120204819D01*
X89666666Y-120204819D02*
X89571428Y-120204819D01*
X89571428Y-120204819D02*
X89428571Y-120157200D01*
X89428571Y-120157200D02*
X89333333Y-120061961D01*
X89333333Y-120061961D02*
X89285714Y-119966723D01*
X89285714Y-119966723D02*
X89238095Y-119776247D01*
X89238095Y-119776247D02*
X89238095Y-119633390D01*
X89238095Y-119633390D02*
X89285714Y-119442914D01*
X89285714Y-119442914D02*
X89333333Y-119347676D01*
X89333333Y-119347676D02*
X89428571Y-119252438D01*
X89428571Y-119252438D02*
X89571428Y-119204819D01*
X89571428Y-119204819D02*
X89666666Y-119204819D01*
X89666666Y-119204819D02*
X89809523Y-119252438D01*
X89809523Y-119252438D02*
X89857142Y-119300057D01*
X90238095Y-119300057D02*
X90285714Y-119252438D01*
X90285714Y-119252438D02*
X90380952Y-119204819D01*
X90380952Y-119204819D02*
X90619047Y-119204819D01*
X90619047Y-119204819D02*
X90714285Y-119252438D01*
X90714285Y-119252438D02*
X90761904Y-119300057D01*
X90761904Y-119300057D02*
X90809523Y-119395295D01*
X90809523Y-119395295D02*
X90809523Y-119490533D01*
X90809523Y-119490533D02*
X90761904Y-119633390D01*
X90761904Y-119633390D02*
X90190476Y-120204819D01*
X90190476Y-120204819D02*
X90809523Y-120204819D01*
X91666666Y-119538152D02*
X91666666Y-120204819D01*
X91428571Y-119157200D02*
X91190476Y-119871485D01*
X91190476Y-119871485D02*
X91809523Y-119871485D01*
X113377142Y-137669580D02*
X113329523Y-137717200D01*
X113329523Y-137717200D02*
X113186666Y-137764819D01*
X113186666Y-137764819D02*
X113091428Y-137764819D01*
X113091428Y-137764819D02*
X112948571Y-137717200D01*
X112948571Y-137717200D02*
X112853333Y-137621961D01*
X112853333Y-137621961D02*
X112805714Y-137526723D01*
X112805714Y-137526723D02*
X112758095Y-137336247D01*
X112758095Y-137336247D02*
X112758095Y-137193390D01*
X112758095Y-137193390D02*
X112805714Y-137002914D01*
X112805714Y-137002914D02*
X112853333Y-136907676D01*
X112853333Y-136907676D02*
X112948571Y-136812438D01*
X112948571Y-136812438D02*
X113091428Y-136764819D01*
X113091428Y-136764819D02*
X113186666Y-136764819D01*
X113186666Y-136764819D02*
X113329523Y-136812438D01*
X113329523Y-136812438D02*
X113377142Y-136860057D01*
X114329523Y-137764819D02*
X113758095Y-137764819D01*
X114043809Y-137764819D02*
X114043809Y-136764819D01*
X114043809Y-136764819D02*
X113948571Y-136907676D01*
X113948571Y-136907676D02*
X113853333Y-137002914D01*
X113853333Y-137002914D02*
X113758095Y-137050533D01*
X115234285Y-136764819D02*
X114758095Y-136764819D01*
X114758095Y-136764819D02*
X114710476Y-137241009D01*
X114710476Y-137241009D02*
X114758095Y-137193390D01*
X114758095Y-137193390D02*
X114853333Y-137145771D01*
X114853333Y-137145771D02*
X115091428Y-137145771D01*
X115091428Y-137145771D02*
X115186666Y-137193390D01*
X115186666Y-137193390D02*
X115234285Y-137241009D01*
X115234285Y-137241009D02*
X115281904Y-137336247D01*
X115281904Y-137336247D02*
X115281904Y-137574342D01*
X115281904Y-137574342D02*
X115234285Y-137669580D01*
X115234285Y-137669580D02*
X115186666Y-137717200D01*
X115186666Y-137717200D02*
X115091428Y-137764819D01*
X115091428Y-137764819D02*
X114853333Y-137764819D01*
X114853333Y-137764819D02*
X114758095Y-137717200D01*
X114758095Y-137717200D02*
X114710476Y-137669580D01*
X99083333Y-104464819D02*
X98750000Y-103988628D01*
X98511905Y-104464819D02*
X98511905Y-103464819D01*
X98511905Y-103464819D02*
X98892857Y-103464819D01*
X98892857Y-103464819D02*
X98988095Y-103512438D01*
X98988095Y-103512438D02*
X99035714Y-103560057D01*
X99035714Y-103560057D02*
X99083333Y-103655295D01*
X99083333Y-103655295D02*
X99083333Y-103798152D01*
X99083333Y-103798152D02*
X99035714Y-103893390D01*
X99035714Y-103893390D02*
X98988095Y-103941009D01*
X98988095Y-103941009D02*
X98892857Y-103988628D01*
X98892857Y-103988628D02*
X98511905Y-103988628D01*
X100035714Y-104464819D02*
X99464286Y-104464819D01*
X99750000Y-104464819D02*
X99750000Y-103464819D01*
X99750000Y-103464819D02*
X99654762Y-103607676D01*
X99654762Y-103607676D02*
X99559524Y-103702914D01*
X99559524Y-103702914D02*
X99464286Y-103750533D01*
X103952142Y-121934580D02*
X103904523Y-121982200D01*
X103904523Y-121982200D02*
X103761666Y-122029819D01*
X103761666Y-122029819D02*
X103666428Y-122029819D01*
X103666428Y-122029819D02*
X103523571Y-121982200D01*
X103523571Y-121982200D02*
X103428333Y-121886961D01*
X103428333Y-121886961D02*
X103380714Y-121791723D01*
X103380714Y-121791723D02*
X103333095Y-121601247D01*
X103333095Y-121601247D02*
X103333095Y-121458390D01*
X103333095Y-121458390D02*
X103380714Y-121267914D01*
X103380714Y-121267914D02*
X103428333Y-121172676D01*
X103428333Y-121172676D02*
X103523571Y-121077438D01*
X103523571Y-121077438D02*
X103666428Y-121029819D01*
X103666428Y-121029819D02*
X103761666Y-121029819D01*
X103761666Y-121029819D02*
X103904523Y-121077438D01*
X103904523Y-121077438D02*
X103952142Y-121125057D01*
X104333095Y-121125057D02*
X104380714Y-121077438D01*
X104380714Y-121077438D02*
X104475952Y-121029819D01*
X104475952Y-121029819D02*
X104714047Y-121029819D01*
X104714047Y-121029819D02*
X104809285Y-121077438D01*
X104809285Y-121077438D02*
X104856904Y-121125057D01*
X104856904Y-121125057D02*
X104904523Y-121220295D01*
X104904523Y-121220295D02*
X104904523Y-121315533D01*
X104904523Y-121315533D02*
X104856904Y-121458390D01*
X104856904Y-121458390D02*
X104285476Y-122029819D01*
X104285476Y-122029819D02*
X104904523Y-122029819D01*
X105237857Y-121029819D02*
X105856904Y-121029819D01*
X105856904Y-121029819D02*
X105523571Y-121410771D01*
X105523571Y-121410771D02*
X105666428Y-121410771D01*
X105666428Y-121410771D02*
X105761666Y-121458390D01*
X105761666Y-121458390D02*
X105809285Y-121506009D01*
X105809285Y-121506009D02*
X105856904Y-121601247D01*
X105856904Y-121601247D02*
X105856904Y-121839342D01*
X105856904Y-121839342D02*
X105809285Y-121934580D01*
X105809285Y-121934580D02*
X105761666Y-121982200D01*
X105761666Y-121982200D02*
X105666428Y-122029819D01*
X105666428Y-122029819D02*
X105380714Y-122029819D01*
X105380714Y-122029819D02*
X105285476Y-121982200D01*
X105285476Y-121982200D02*
X105237857Y-121934580D01*
X120704819Y-119333333D02*
X121419104Y-119333333D01*
X121419104Y-119333333D02*
X121561961Y-119380952D01*
X121561961Y-119380952D02*
X121657200Y-119476190D01*
X121657200Y-119476190D02*
X121704819Y-119619047D01*
X121704819Y-119619047D02*
X121704819Y-119714285D01*
X120704819Y-118952380D02*
X120704819Y-118285714D01*
X120704819Y-118285714D02*
X121704819Y-118714285D01*
X95857142Y-122359580D02*
X95809523Y-122407200D01*
X95809523Y-122407200D02*
X95666666Y-122454819D01*
X95666666Y-122454819D02*
X95571428Y-122454819D01*
X95571428Y-122454819D02*
X95428571Y-122407200D01*
X95428571Y-122407200D02*
X95333333Y-122311961D01*
X95333333Y-122311961D02*
X95285714Y-122216723D01*
X95285714Y-122216723D02*
X95238095Y-122026247D01*
X95238095Y-122026247D02*
X95238095Y-121883390D01*
X95238095Y-121883390D02*
X95285714Y-121692914D01*
X95285714Y-121692914D02*
X95333333Y-121597676D01*
X95333333Y-121597676D02*
X95428571Y-121502438D01*
X95428571Y-121502438D02*
X95571428Y-121454819D01*
X95571428Y-121454819D02*
X95666666Y-121454819D01*
X95666666Y-121454819D02*
X95809523Y-121502438D01*
X95809523Y-121502438D02*
X95857142Y-121550057D01*
X96238095Y-121550057D02*
X96285714Y-121502438D01*
X96285714Y-121502438D02*
X96380952Y-121454819D01*
X96380952Y-121454819D02*
X96619047Y-121454819D01*
X96619047Y-121454819D02*
X96714285Y-121502438D01*
X96714285Y-121502438D02*
X96761904Y-121550057D01*
X96761904Y-121550057D02*
X96809523Y-121645295D01*
X96809523Y-121645295D02*
X96809523Y-121740533D01*
X96809523Y-121740533D02*
X96761904Y-121883390D01*
X96761904Y-121883390D02*
X96190476Y-122454819D01*
X96190476Y-122454819D02*
X96809523Y-122454819D01*
X97142857Y-121454819D02*
X97809523Y-121454819D01*
X97809523Y-121454819D02*
X97380952Y-122454819D01*
X106897733Y-132499998D02*
X107135828Y-132499998D01*
X107040590Y-132738093D02*
X107135828Y-132499998D01*
X107135828Y-132499998D02*
X107040590Y-132261903D01*
X107326304Y-132642855D02*
X107135828Y-132499998D01*
X107135828Y-132499998D02*
X107326304Y-132357141D01*
X106897733Y-132499998D02*
X107135828Y-132499998D01*
X107040590Y-132738093D02*
X107135828Y-132499998D01*
X107135828Y-132499998D02*
X107040590Y-132261903D01*
X107326304Y-132642855D02*
X107135828Y-132499998D01*
X107135828Y-132499998D02*
X107326304Y-132357141D01*
X101607142Y-125859580D02*
X101559523Y-125907200D01*
X101559523Y-125907200D02*
X101416666Y-125954819D01*
X101416666Y-125954819D02*
X101321428Y-125954819D01*
X101321428Y-125954819D02*
X101178571Y-125907200D01*
X101178571Y-125907200D02*
X101083333Y-125811961D01*
X101083333Y-125811961D02*
X101035714Y-125716723D01*
X101035714Y-125716723D02*
X100988095Y-125526247D01*
X100988095Y-125526247D02*
X100988095Y-125383390D01*
X100988095Y-125383390D02*
X101035714Y-125192914D01*
X101035714Y-125192914D02*
X101083333Y-125097676D01*
X101083333Y-125097676D02*
X101178571Y-125002438D01*
X101178571Y-125002438D02*
X101321428Y-124954819D01*
X101321428Y-124954819D02*
X101416666Y-124954819D01*
X101416666Y-124954819D02*
X101559523Y-125002438D01*
X101559523Y-125002438D02*
X101607142Y-125050057D01*
X102559523Y-125954819D02*
X101988095Y-125954819D01*
X102273809Y-125954819D02*
X102273809Y-124954819D01*
X102273809Y-124954819D02*
X102178571Y-125097676D01*
X102178571Y-125097676D02*
X102083333Y-125192914D01*
X102083333Y-125192914D02*
X101988095Y-125240533D01*
X103511904Y-125954819D02*
X102940476Y-125954819D01*
X103226190Y-125954819D02*
X103226190Y-124954819D01*
X103226190Y-124954819D02*
X103130952Y-125097676D01*
X103130952Y-125097676D02*
X103035714Y-125192914D01*
X103035714Y-125192914D02*
X102940476Y-125240533D01*
X96583333Y-103454819D02*
X96250000Y-102978628D01*
X96011905Y-103454819D02*
X96011905Y-102454819D01*
X96011905Y-102454819D02*
X96392857Y-102454819D01*
X96392857Y-102454819D02*
X96488095Y-102502438D01*
X96488095Y-102502438D02*
X96535714Y-102550057D01*
X96535714Y-102550057D02*
X96583333Y-102645295D01*
X96583333Y-102645295D02*
X96583333Y-102788152D01*
X96583333Y-102788152D02*
X96535714Y-102883390D01*
X96535714Y-102883390D02*
X96488095Y-102931009D01*
X96488095Y-102931009D02*
X96392857Y-102978628D01*
X96392857Y-102978628D02*
X96011905Y-102978628D01*
X96916667Y-102454819D02*
X97535714Y-102454819D01*
X97535714Y-102454819D02*
X97202381Y-102835771D01*
X97202381Y-102835771D02*
X97345238Y-102835771D01*
X97345238Y-102835771D02*
X97440476Y-102883390D01*
X97440476Y-102883390D02*
X97488095Y-102931009D01*
X97488095Y-102931009D02*
X97535714Y-103026247D01*
X97535714Y-103026247D02*
X97535714Y-103264342D01*
X97535714Y-103264342D02*
X97488095Y-103359580D01*
X97488095Y-103359580D02*
X97440476Y-103407200D01*
X97440476Y-103407200D02*
X97345238Y-103454819D01*
X97345238Y-103454819D02*
X97059524Y-103454819D01*
X97059524Y-103454819D02*
X96964286Y-103407200D01*
X96964286Y-103407200D02*
X96916667Y-103359580D01*
X81738095Y-106704819D02*
X81738095Y-107514342D01*
X81738095Y-107514342D02*
X81785714Y-107609580D01*
X81785714Y-107609580D02*
X81833333Y-107657200D01*
X81833333Y-107657200D02*
X81928571Y-107704819D01*
X81928571Y-107704819D02*
X82119047Y-107704819D01*
X82119047Y-107704819D02*
X82214285Y-107657200D01*
X82214285Y-107657200D02*
X82261904Y-107609580D01*
X82261904Y-107609580D02*
X82309523Y-107514342D01*
X82309523Y-107514342D02*
X82309523Y-106704819D01*
X83261904Y-106704819D02*
X82785714Y-106704819D01*
X82785714Y-106704819D02*
X82738095Y-107181009D01*
X82738095Y-107181009D02*
X82785714Y-107133390D01*
X82785714Y-107133390D02*
X82880952Y-107085771D01*
X82880952Y-107085771D02*
X83119047Y-107085771D01*
X83119047Y-107085771D02*
X83214285Y-107133390D01*
X83214285Y-107133390D02*
X83261904Y-107181009D01*
X83261904Y-107181009D02*
X83309523Y-107276247D01*
X83309523Y-107276247D02*
X83309523Y-107514342D01*
X83309523Y-107514342D02*
X83261904Y-107609580D01*
X83261904Y-107609580D02*
X83214285Y-107657200D01*
X83214285Y-107657200D02*
X83119047Y-107704819D01*
X83119047Y-107704819D02*
X82880952Y-107704819D01*
X82880952Y-107704819D02*
X82785714Y-107657200D01*
X82785714Y-107657200D02*
X82738095Y-107609580D01*
X80500000Y-106940219D02*
X80500000Y-107178314D01*
X80261905Y-107083076D02*
X80500000Y-107178314D01*
X80500000Y-107178314D02*
X80738095Y-107083076D01*
X80357143Y-107368790D02*
X80500000Y-107178314D01*
X80500000Y-107178314D02*
X80642857Y-107368790D01*
X80500000Y-106940219D02*
X80500000Y-107178314D01*
X80261905Y-107083076D02*
X80500000Y-107178314D01*
X80500000Y-107178314D02*
X80738095Y-107083076D01*
X80357143Y-107368790D02*
X80500000Y-107178314D01*
X80500000Y-107178314D02*
X80642857Y-107368790D01*
X95857142Y-123609580D02*
X95809523Y-123657200D01*
X95809523Y-123657200D02*
X95666666Y-123704819D01*
X95666666Y-123704819D02*
X95571428Y-123704819D01*
X95571428Y-123704819D02*
X95428571Y-123657200D01*
X95428571Y-123657200D02*
X95333333Y-123561961D01*
X95333333Y-123561961D02*
X95285714Y-123466723D01*
X95285714Y-123466723D02*
X95238095Y-123276247D01*
X95238095Y-123276247D02*
X95238095Y-123133390D01*
X95238095Y-123133390D02*
X95285714Y-122942914D01*
X95285714Y-122942914D02*
X95333333Y-122847676D01*
X95333333Y-122847676D02*
X95428571Y-122752438D01*
X95428571Y-122752438D02*
X95571428Y-122704819D01*
X95571428Y-122704819D02*
X95666666Y-122704819D01*
X95666666Y-122704819D02*
X95809523Y-122752438D01*
X95809523Y-122752438D02*
X95857142Y-122800057D01*
X96238095Y-122800057D02*
X96285714Y-122752438D01*
X96285714Y-122752438D02*
X96380952Y-122704819D01*
X96380952Y-122704819D02*
X96619047Y-122704819D01*
X96619047Y-122704819D02*
X96714285Y-122752438D01*
X96714285Y-122752438D02*
X96761904Y-122800057D01*
X96761904Y-122800057D02*
X96809523Y-122895295D01*
X96809523Y-122895295D02*
X96809523Y-122990533D01*
X96809523Y-122990533D02*
X96761904Y-123133390D01*
X96761904Y-123133390D02*
X96190476Y-123704819D01*
X96190476Y-123704819D02*
X96809523Y-123704819D01*
X97380952Y-123133390D02*
X97285714Y-123085771D01*
X97285714Y-123085771D02*
X97238095Y-123038152D01*
X97238095Y-123038152D02*
X97190476Y-122942914D01*
X97190476Y-122942914D02*
X97190476Y-122895295D01*
X97190476Y-122895295D02*
X97238095Y-122800057D01*
X97238095Y-122800057D02*
X97285714Y-122752438D01*
X97285714Y-122752438D02*
X97380952Y-122704819D01*
X97380952Y-122704819D02*
X97571428Y-122704819D01*
X97571428Y-122704819D02*
X97666666Y-122752438D01*
X97666666Y-122752438D02*
X97714285Y-122800057D01*
X97714285Y-122800057D02*
X97761904Y-122895295D01*
X97761904Y-122895295D02*
X97761904Y-122942914D01*
X97761904Y-122942914D02*
X97714285Y-123038152D01*
X97714285Y-123038152D02*
X97666666Y-123085771D01*
X97666666Y-123085771D02*
X97571428Y-123133390D01*
X97571428Y-123133390D02*
X97380952Y-123133390D01*
X97380952Y-123133390D02*
X97285714Y-123181009D01*
X97285714Y-123181009D02*
X97238095Y-123228628D01*
X97238095Y-123228628D02*
X97190476Y-123323866D01*
X97190476Y-123323866D02*
X97190476Y-123514342D01*
X97190476Y-123514342D02*
X97238095Y-123609580D01*
X97238095Y-123609580D02*
X97285714Y-123657200D01*
X97285714Y-123657200D02*
X97380952Y-123704819D01*
X97380952Y-123704819D02*
X97571428Y-123704819D01*
X97571428Y-123704819D02*
X97666666Y-123657200D01*
X97666666Y-123657200D02*
X97714285Y-123609580D01*
X97714285Y-123609580D02*
X97761904Y-123514342D01*
X97761904Y-123514342D02*
X97761904Y-123323866D01*
X97761904Y-123323866D02*
X97714285Y-123228628D01*
X97714285Y-123228628D02*
X97666666Y-123181009D01*
X97666666Y-123181009D02*
X97571428Y-123133390D01*
X88333333Y-144209580D02*
X88285714Y-144257200D01*
X88285714Y-144257200D02*
X88142857Y-144304819D01*
X88142857Y-144304819D02*
X88047619Y-144304819D01*
X88047619Y-144304819D02*
X87904762Y-144257200D01*
X87904762Y-144257200D02*
X87809524Y-144161961D01*
X87809524Y-144161961D02*
X87761905Y-144066723D01*
X87761905Y-144066723D02*
X87714286Y-143876247D01*
X87714286Y-143876247D02*
X87714286Y-143733390D01*
X87714286Y-143733390D02*
X87761905Y-143542914D01*
X87761905Y-143542914D02*
X87809524Y-143447676D01*
X87809524Y-143447676D02*
X87904762Y-143352438D01*
X87904762Y-143352438D02*
X88047619Y-143304819D01*
X88047619Y-143304819D02*
X88142857Y-143304819D01*
X88142857Y-143304819D02*
X88285714Y-143352438D01*
X88285714Y-143352438D02*
X88333333Y-143400057D01*
X88666667Y-143304819D02*
X89285714Y-143304819D01*
X89285714Y-143304819D02*
X88952381Y-143685771D01*
X88952381Y-143685771D02*
X89095238Y-143685771D01*
X89095238Y-143685771D02*
X89190476Y-143733390D01*
X89190476Y-143733390D02*
X89238095Y-143781009D01*
X89238095Y-143781009D02*
X89285714Y-143876247D01*
X89285714Y-143876247D02*
X89285714Y-144114342D01*
X89285714Y-144114342D02*
X89238095Y-144209580D01*
X89238095Y-144209580D02*
X89190476Y-144257200D01*
X89190476Y-144257200D02*
X89095238Y-144304819D01*
X89095238Y-144304819D02*
X88809524Y-144304819D01*
X88809524Y-144304819D02*
X88714286Y-144257200D01*
X88714286Y-144257200D02*
X88666667Y-144209580D01*
X119238095Y-91304819D02*
X119238095Y-90304819D01*
X119238095Y-90781009D02*
X119809523Y-90781009D01*
X119809523Y-91304819D02*
X119809523Y-90304819D01*
X120238095Y-90400057D02*
X120285714Y-90352438D01*
X120285714Y-90352438D02*
X120380952Y-90304819D01*
X120380952Y-90304819D02*
X120619047Y-90304819D01*
X120619047Y-90304819D02*
X120714285Y-90352438D01*
X120714285Y-90352438D02*
X120761904Y-90400057D01*
X120761904Y-90400057D02*
X120809523Y-90495295D01*
X120809523Y-90495295D02*
X120809523Y-90590533D01*
X120809523Y-90590533D02*
X120761904Y-90733390D01*
X120761904Y-90733390D02*
X120190476Y-91304819D01*
X120190476Y-91304819D02*
X120809523Y-91304819D01*
X101583333Y-124609580D02*
X101535714Y-124657200D01*
X101535714Y-124657200D02*
X101392857Y-124704819D01*
X101392857Y-124704819D02*
X101297619Y-124704819D01*
X101297619Y-124704819D02*
X101154762Y-124657200D01*
X101154762Y-124657200D02*
X101059524Y-124561961D01*
X101059524Y-124561961D02*
X101011905Y-124466723D01*
X101011905Y-124466723D02*
X100964286Y-124276247D01*
X100964286Y-124276247D02*
X100964286Y-124133390D01*
X100964286Y-124133390D02*
X101011905Y-123942914D01*
X101011905Y-123942914D02*
X101059524Y-123847676D01*
X101059524Y-123847676D02*
X101154762Y-123752438D01*
X101154762Y-123752438D02*
X101297619Y-123704819D01*
X101297619Y-123704819D02*
X101392857Y-123704819D01*
X101392857Y-123704819D02*
X101535714Y-123752438D01*
X101535714Y-123752438D02*
X101583333Y-123800057D01*
X102059524Y-124704819D02*
X102250000Y-124704819D01*
X102250000Y-124704819D02*
X102345238Y-124657200D01*
X102345238Y-124657200D02*
X102392857Y-124609580D01*
X102392857Y-124609580D02*
X102488095Y-124466723D01*
X102488095Y-124466723D02*
X102535714Y-124276247D01*
X102535714Y-124276247D02*
X102535714Y-123895295D01*
X102535714Y-123895295D02*
X102488095Y-123800057D01*
X102488095Y-123800057D02*
X102440476Y-123752438D01*
X102440476Y-123752438D02*
X102345238Y-123704819D01*
X102345238Y-123704819D02*
X102154762Y-123704819D01*
X102154762Y-123704819D02*
X102059524Y-123752438D01*
X102059524Y-123752438D02*
X102011905Y-123800057D01*
X102011905Y-123800057D02*
X101964286Y-123895295D01*
X101964286Y-123895295D02*
X101964286Y-124133390D01*
X101964286Y-124133390D02*
X102011905Y-124228628D01*
X102011905Y-124228628D02*
X102059524Y-124276247D01*
X102059524Y-124276247D02*
X102154762Y-124323866D01*
X102154762Y-124323866D02*
X102345238Y-124323866D01*
X102345238Y-124323866D02*
X102440476Y-124276247D01*
X102440476Y-124276247D02*
X102488095Y-124228628D01*
X102488095Y-124228628D02*
X102535714Y-124133390D01*
X92357142Y-105359580D02*
X92309523Y-105407200D01*
X92309523Y-105407200D02*
X92166666Y-105454819D01*
X92166666Y-105454819D02*
X92071428Y-105454819D01*
X92071428Y-105454819D02*
X91928571Y-105407200D01*
X91928571Y-105407200D02*
X91833333Y-105311961D01*
X91833333Y-105311961D02*
X91785714Y-105216723D01*
X91785714Y-105216723D02*
X91738095Y-105026247D01*
X91738095Y-105026247D02*
X91738095Y-104883390D01*
X91738095Y-104883390D02*
X91785714Y-104692914D01*
X91785714Y-104692914D02*
X91833333Y-104597676D01*
X91833333Y-104597676D02*
X91928571Y-104502438D01*
X91928571Y-104502438D02*
X92071428Y-104454819D01*
X92071428Y-104454819D02*
X92166666Y-104454819D01*
X92166666Y-104454819D02*
X92309523Y-104502438D01*
X92309523Y-104502438D02*
X92357142Y-104550057D01*
X92738095Y-104550057D02*
X92785714Y-104502438D01*
X92785714Y-104502438D02*
X92880952Y-104454819D01*
X92880952Y-104454819D02*
X93119047Y-104454819D01*
X93119047Y-104454819D02*
X93214285Y-104502438D01*
X93214285Y-104502438D02*
X93261904Y-104550057D01*
X93261904Y-104550057D02*
X93309523Y-104645295D01*
X93309523Y-104645295D02*
X93309523Y-104740533D01*
X93309523Y-104740533D02*
X93261904Y-104883390D01*
X93261904Y-104883390D02*
X92690476Y-105454819D01*
X92690476Y-105454819D02*
X93309523Y-105454819D01*
X94214285Y-104454819D02*
X93738095Y-104454819D01*
X93738095Y-104454819D02*
X93690476Y-104931009D01*
X93690476Y-104931009D02*
X93738095Y-104883390D01*
X93738095Y-104883390D02*
X93833333Y-104835771D01*
X93833333Y-104835771D02*
X94071428Y-104835771D01*
X94071428Y-104835771D02*
X94166666Y-104883390D01*
X94166666Y-104883390D02*
X94214285Y-104931009D01*
X94214285Y-104931009D02*
X94261904Y-105026247D01*
X94261904Y-105026247D02*
X94261904Y-105264342D01*
X94261904Y-105264342D02*
X94214285Y-105359580D01*
X94214285Y-105359580D02*
X94166666Y-105407200D01*
X94166666Y-105407200D02*
X94071428Y-105454819D01*
X94071428Y-105454819D02*
X93833333Y-105454819D01*
X93833333Y-105454819D02*
X93738095Y-105407200D01*
X93738095Y-105407200D02*
X93690476Y-105359580D01*
X105107142Y-135359580D02*
X105059523Y-135407200D01*
X105059523Y-135407200D02*
X104916666Y-135454819D01*
X104916666Y-135454819D02*
X104821428Y-135454819D01*
X104821428Y-135454819D02*
X104678571Y-135407200D01*
X104678571Y-135407200D02*
X104583333Y-135311961D01*
X104583333Y-135311961D02*
X104535714Y-135216723D01*
X104535714Y-135216723D02*
X104488095Y-135026247D01*
X104488095Y-135026247D02*
X104488095Y-134883390D01*
X104488095Y-134883390D02*
X104535714Y-134692914D01*
X104535714Y-134692914D02*
X104583333Y-134597676D01*
X104583333Y-134597676D02*
X104678571Y-134502438D01*
X104678571Y-134502438D02*
X104821428Y-134454819D01*
X104821428Y-134454819D02*
X104916666Y-134454819D01*
X104916666Y-134454819D02*
X105059523Y-134502438D01*
X105059523Y-134502438D02*
X105107142Y-134550057D01*
X106059523Y-135454819D02*
X105488095Y-135454819D01*
X105773809Y-135454819D02*
X105773809Y-134454819D01*
X105773809Y-134454819D02*
X105678571Y-134597676D01*
X105678571Y-134597676D02*
X105583333Y-134692914D01*
X105583333Y-134692914D02*
X105488095Y-134740533D01*
X106630952Y-134883390D02*
X106535714Y-134835771D01*
X106535714Y-134835771D02*
X106488095Y-134788152D01*
X106488095Y-134788152D02*
X106440476Y-134692914D01*
X106440476Y-134692914D02*
X106440476Y-134645295D01*
X106440476Y-134645295D02*
X106488095Y-134550057D01*
X106488095Y-134550057D02*
X106535714Y-134502438D01*
X106535714Y-134502438D02*
X106630952Y-134454819D01*
X106630952Y-134454819D02*
X106821428Y-134454819D01*
X106821428Y-134454819D02*
X106916666Y-134502438D01*
X106916666Y-134502438D02*
X106964285Y-134550057D01*
X106964285Y-134550057D02*
X107011904Y-134645295D01*
X107011904Y-134645295D02*
X107011904Y-134692914D01*
X107011904Y-134692914D02*
X106964285Y-134788152D01*
X106964285Y-134788152D02*
X106916666Y-134835771D01*
X106916666Y-134835771D02*
X106821428Y-134883390D01*
X106821428Y-134883390D02*
X106630952Y-134883390D01*
X106630952Y-134883390D02*
X106535714Y-134931009D01*
X106535714Y-134931009D02*
X106488095Y-134978628D01*
X106488095Y-134978628D02*
X106440476Y-135073866D01*
X106440476Y-135073866D02*
X106440476Y-135264342D01*
X106440476Y-135264342D02*
X106488095Y-135359580D01*
X106488095Y-135359580D02*
X106535714Y-135407200D01*
X106535714Y-135407200D02*
X106630952Y-135454819D01*
X106630952Y-135454819D02*
X106821428Y-135454819D01*
X106821428Y-135454819D02*
X106916666Y-135407200D01*
X106916666Y-135407200D02*
X106964285Y-135359580D01*
X106964285Y-135359580D02*
X107011904Y-135264342D01*
X107011904Y-135264342D02*
X107011904Y-135073866D01*
X107011904Y-135073866D02*
X106964285Y-134978628D01*
X106964285Y-134978628D02*
X106916666Y-134931009D01*
X106916666Y-134931009D02*
X106821428Y-134883390D01*
X87583333Y-135359580D02*
X87535714Y-135407200D01*
X87535714Y-135407200D02*
X87392857Y-135454819D01*
X87392857Y-135454819D02*
X87297619Y-135454819D01*
X87297619Y-135454819D02*
X87154762Y-135407200D01*
X87154762Y-135407200D02*
X87059524Y-135311961D01*
X87059524Y-135311961D02*
X87011905Y-135216723D01*
X87011905Y-135216723D02*
X86964286Y-135026247D01*
X86964286Y-135026247D02*
X86964286Y-134883390D01*
X86964286Y-134883390D02*
X87011905Y-134692914D01*
X87011905Y-134692914D02*
X87059524Y-134597676D01*
X87059524Y-134597676D02*
X87154762Y-134502438D01*
X87154762Y-134502438D02*
X87297619Y-134454819D01*
X87297619Y-134454819D02*
X87392857Y-134454819D01*
X87392857Y-134454819D02*
X87535714Y-134502438D01*
X87535714Y-134502438D02*
X87583333Y-134550057D01*
X88154762Y-134883390D02*
X88059524Y-134835771D01*
X88059524Y-134835771D02*
X88011905Y-134788152D01*
X88011905Y-134788152D02*
X87964286Y-134692914D01*
X87964286Y-134692914D02*
X87964286Y-134645295D01*
X87964286Y-134645295D02*
X88011905Y-134550057D01*
X88011905Y-134550057D02*
X88059524Y-134502438D01*
X88059524Y-134502438D02*
X88154762Y-134454819D01*
X88154762Y-134454819D02*
X88345238Y-134454819D01*
X88345238Y-134454819D02*
X88440476Y-134502438D01*
X88440476Y-134502438D02*
X88488095Y-134550057D01*
X88488095Y-134550057D02*
X88535714Y-134645295D01*
X88535714Y-134645295D02*
X88535714Y-134692914D01*
X88535714Y-134692914D02*
X88488095Y-134788152D01*
X88488095Y-134788152D02*
X88440476Y-134835771D01*
X88440476Y-134835771D02*
X88345238Y-134883390D01*
X88345238Y-134883390D02*
X88154762Y-134883390D01*
X88154762Y-134883390D02*
X88059524Y-134931009D01*
X88059524Y-134931009D02*
X88011905Y-134978628D01*
X88011905Y-134978628D02*
X87964286Y-135073866D01*
X87964286Y-135073866D02*
X87964286Y-135264342D01*
X87964286Y-135264342D02*
X88011905Y-135359580D01*
X88011905Y-135359580D02*
X88059524Y-135407200D01*
X88059524Y-135407200D02*
X88154762Y-135454819D01*
X88154762Y-135454819D02*
X88345238Y-135454819D01*
X88345238Y-135454819D02*
X88440476Y-135407200D01*
X88440476Y-135407200D02*
X88488095Y-135359580D01*
X88488095Y-135359580D02*
X88535714Y-135264342D01*
X88535714Y-135264342D02*
X88535714Y-135073866D01*
X88535714Y-135073866D02*
X88488095Y-134978628D01*
X88488095Y-134978628D02*
X88440476Y-134931009D01*
X88440476Y-134931009D02*
X88345238Y-134883390D01*
X77707142Y-146859580D02*
X77659523Y-146907200D01*
X77659523Y-146907200D02*
X77516666Y-146954819D01*
X77516666Y-146954819D02*
X77421428Y-146954819D01*
X77421428Y-146954819D02*
X77278571Y-146907200D01*
X77278571Y-146907200D02*
X77183333Y-146811961D01*
X77183333Y-146811961D02*
X77135714Y-146716723D01*
X77135714Y-146716723D02*
X77088095Y-146526247D01*
X77088095Y-146526247D02*
X77088095Y-146383390D01*
X77088095Y-146383390D02*
X77135714Y-146192914D01*
X77135714Y-146192914D02*
X77183333Y-146097676D01*
X77183333Y-146097676D02*
X77278571Y-146002438D01*
X77278571Y-146002438D02*
X77421428Y-145954819D01*
X77421428Y-145954819D02*
X77516666Y-145954819D01*
X77516666Y-145954819D02*
X77659523Y-146002438D01*
X77659523Y-146002438D02*
X77707142Y-146050057D01*
X78040476Y-145954819D02*
X78659523Y-145954819D01*
X78659523Y-145954819D02*
X78326190Y-146335771D01*
X78326190Y-146335771D02*
X78469047Y-146335771D01*
X78469047Y-146335771D02*
X78564285Y-146383390D01*
X78564285Y-146383390D02*
X78611904Y-146431009D01*
X78611904Y-146431009D02*
X78659523Y-146526247D01*
X78659523Y-146526247D02*
X78659523Y-146764342D01*
X78659523Y-146764342D02*
X78611904Y-146859580D01*
X78611904Y-146859580D02*
X78564285Y-146907200D01*
X78564285Y-146907200D02*
X78469047Y-146954819D01*
X78469047Y-146954819D02*
X78183333Y-146954819D01*
X78183333Y-146954819D02*
X78088095Y-146907200D01*
X78088095Y-146907200D02*
X78040476Y-146859580D01*
X79040476Y-146050057D02*
X79088095Y-146002438D01*
X79088095Y-146002438D02*
X79183333Y-145954819D01*
X79183333Y-145954819D02*
X79421428Y-145954819D01*
X79421428Y-145954819D02*
X79516666Y-146002438D01*
X79516666Y-146002438D02*
X79564285Y-146050057D01*
X79564285Y-146050057D02*
X79611904Y-146145295D01*
X79611904Y-146145295D02*
X79611904Y-146240533D01*
X79611904Y-146240533D02*
X79564285Y-146383390D01*
X79564285Y-146383390D02*
X78992857Y-146954819D01*
X78992857Y-146954819D02*
X79611904Y-146954819D01*
X77107142Y-137859580D02*
X77059523Y-137907200D01*
X77059523Y-137907200D02*
X76916666Y-137954819D01*
X76916666Y-137954819D02*
X76821428Y-137954819D01*
X76821428Y-137954819D02*
X76678571Y-137907200D01*
X76678571Y-137907200D02*
X76583333Y-137811961D01*
X76583333Y-137811961D02*
X76535714Y-137716723D01*
X76535714Y-137716723D02*
X76488095Y-137526247D01*
X76488095Y-137526247D02*
X76488095Y-137383390D01*
X76488095Y-137383390D02*
X76535714Y-137192914D01*
X76535714Y-137192914D02*
X76583333Y-137097676D01*
X76583333Y-137097676D02*
X76678571Y-137002438D01*
X76678571Y-137002438D02*
X76821428Y-136954819D01*
X76821428Y-136954819D02*
X76916666Y-136954819D01*
X76916666Y-136954819D02*
X77059523Y-137002438D01*
X77059523Y-137002438D02*
X77107142Y-137050057D01*
X78059523Y-137954819D02*
X77488095Y-137954819D01*
X77773809Y-137954819D02*
X77773809Y-136954819D01*
X77773809Y-136954819D02*
X77678571Y-137097676D01*
X77678571Y-137097676D02*
X77583333Y-137192914D01*
X77583333Y-137192914D02*
X77488095Y-137240533D01*
X78916666Y-136954819D02*
X78726190Y-136954819D01*
X78726190Y-136954819D02*
X78630952Y-137002438D01*
X78630952Y-137002438D02*
X78583333Y-137050057D01*
X78583333Y-137050057D02*
X78488095Y-137192914D01*
X78488095Y-137192914D02*
X78440476Y-137383390D01*
X78440476Y-137383390D02*
X78440476Y-137764342D01*
X78440476Y-137764342D02*
X78488095Y-137859580D01*
X78488095Y-137859580D02*
X78535714Y-137907200D01*
X78535714Y-137907200D02*
X78630952Y-137954819D01*
X78630952Y-137954819D02*
X78821428Y-137954819D01*
X78821428Y-137954819D02*
X78916666Y-137907200D01*
X78916666Y-137907200D02*
X78964285Y-137859580D01*
X78964285Y-137859580D02*
X79011904Y-137764342D01*
X79011904Y-137764342D02*
X79011904Y-137526247D01*
X79011904Y-137526247D02*
X78964285Y-137431009D01*
X78964285Y-137431009D02*
X78916666Y-137383390D01*
X78916666Y-137383390D02*
X78821428Y-137335771D01*
X78821428Y-137335771D02*
X78630952Y-137335771D01*
X78630952Y-137335771D02*
X78535714Y-137383390D01*
X78535714Y-137383390D02*
X78488095Y-137431009D01*
X78488095Y-137431009D02*
X78440476Y-137526247D01*
X94833333Y-135609580D02*
X94785714Y-135657200D01*
X94785714Y-135657200D02*
X94642857Y-135704819D01*
X94642857Y-135704819D02*
X94547619Y-135704819D01*
X94547619Y-135704819D02*
X94404762Y-135657200D01*
X94404762Y-135657200D02*
X94309524Y-135561961D01*
X94309524Y-135561961D02*
X94261905Y-135466723D01*
X94261905Y-135466723D02*
X94214286Y-135276247D01*
X94214286Y-135276247D02*
X94214286Y-135133390D01*
X94214286Y-135133390D02*
X94261905Y-134942914D01*
X94261905Y-134942914D02*
X94309524Y-134847676D01*
X94309524Y-134847676D02*
X94404762Y-134752438D01*
X94404762Y-134752438D02*
X94547619Y-134704819D01*
X94547619Y-134704819D02*
X94642857Y-134704819D01*
X94642857Y-134704819D02*
X94785714Y-134752438D01*
X94785714Y-134752438D02*
X94833333Y-134800057D01*
X95690476Y-134704819D02*
X95500000Y-134704819D01*
X95500000Y-134704819D02*
X95404762Y-134752438D01*
X95404762Y-134752438D02*
X95357143Y-134800057D01*
X95357143Y-134800057D02*
X95261905Y-134942914D01*
X95261905Y-134942914D02*
X95214286Y-135133390D01*
X95214286Y-135133390D02*
X95214286Y-135514342D01*
X95214286Y-135514342D02*
X95261905Y-135609580D01*
X95261905Y-135609580D02*
X95309524Y-135657200D01*
X95309524Y-135657200D02*
X95404762Y-135704819D01*
X95404762Y-135704819D02*
X95595238Y-135704819D01*
X95595238Y-135704819D02*
X95690476Y-135657200D01*
X95690476Y-135657200D02*
X95738095Y-135609580D01*
X95738095Y-135609580D02*
X95785714Y-135514342D01*
X95785714Y-135514342D02*
X95785714Y-135276247D01*
X95785714Y-135276247D02*
X95738095Y-135181009D01*
X95738095Y-135181009D02*
X95690476Y-135133390D01*
X95690476Y-135133390D02*
X95595238Y-135085771D01*
X95595238Y-135085771D02*
X95404762Y-135085771D01*
X95404762Y-135085771D02*
X95309524Y-135133390D01*
X95309524Y-135133390D02*
X95261905Y-135181009D01*
X95261905Y-135181009D02*
X95214286Y-135276247D01*
X77107142Y-136609580D02*
X77059523Y-136657200D01*
X77059523Y-136657200D02*
X76916666Y-136704819D01*
X76916666Y-136704819D02*
X76821428Y-136704819D01*
X76821428Y-136704819D02*
X76678571Y-136657200D01*
X76678571Y-136657200D02*
X76583333Y-136561961D01*
X76583333Y-136561961D02*
X76535714Y-136466723D01*
X76535714Y-136466723D02*
X76488095Y-136276247D01*
X76488095Y-136276247D02*
X76488095Y-136133390D01*
X76488095Y-136133390D02*
X76535714Y-135942914D01*
X76535714Y-135942914D02*
X76583333Y-135847676D01*
X76583333Y-135847676D02*
X76678571Y-135752438D01*
X76678571Y-135752438D02*
X76821428Y-135704819D01*
X76821428Y-135704819D02*
X76916666Y-135704819D01*
X76916666Y-135704819D02*
X77059523Y-135752438D01*
X77059523Y-135752438D02*
X77107142Y-135800057D01*
X78059523Y-136704819D02*
X77488095Y-136704819D01*
X77773809Y-136704819D02*
X77773809Y-135704819D01*
X77773809Y-135704819D02*
X77678571Y-135847676D01*
X77678571Y-135847676D02*
X77583333Y-135942914D01*
X77583333Y-135942914D02*
X77488095Y-135990533D01*
X78392857Y-135704819D02*
X79011904Y-135704819D01*
X79011904Y-135704819D02*
X78678571Y-136085771D01*
X78678571Y-136085771D02*
X78821428Y-136085771D01*
X78821428Y-136085771D02*
X78916666Y-136133390D01*
X78916666Y-136133390D02*
X78964285Y-136181009D01*
X78964285Y-136181009D02*
X79011904Y-136276247D01*
X79011904Y-136276247D02*
X79011904Y-136514342D01*
X79011904Y-136514342D02*
X78964285Y-136609580D01*
X78964285Y-136609580D02*
X78916666Y-136657200D01*
X78916666Y-136657200D02*
X78821428Y-136704819D01*
X78821428Y-136704819D02*
X78535714Y-136704819D01*
X78535714Y-136704819D02*
X78440476Y-136657200D01*
X78440476Y-136657200D02*
X78392857Y-136609580D01*
X94833333Y-138109580D02*
X94785714Y-138157200D01*
X94785714Y-138157200D02*
X94642857Y-138204819D01*
X94642857Y-138204819D02*
X94547619Y-138204819D01*
X94547619Y-138204819D02*
X94404762Y-138157200D01*
X94404762Y-138157200D02*
X94309524Y-138061961D01*
X94309524Y-138061961D02*
X94261905Y-137966723D01*
X94261905Y-137966723D02*
X94214286Y-137776247D01*
X94214286Y-137776247D02*
X94214286Y-137633390D01*
X94214286Y-137633390D02*
X94261905Y-137442914D01*
X94261905Y-137442914D02*
X94309524Y-137347676D01*
X94309524Y-137347676D02*
X94404762Y-137252438D01*
X94404762Y-137252438D02*
X94547619Y-137204819D01*
X94547619Y-137204819D02*
X94642857Y-137204819D01*
X94642857Y-137204819D02*
X94785714Y-137252438D01*
X94785714Y-137252438D02*
X94833333Y-137300057D01*
X95738095Y-137204819D02*
X95261905Y-137204819D01*
X95261905Y-137204819D02*
X95214286Y-137681009D01*
X95214286Y-137681009D02*
X95261905Y-137633390D01*
X95261905Y-137633390D02*
X95357143Y-137585771D01*
X95357143Y-137585771D02*
X95595238Y-137585771D01*
X95595238Y-137585771D02*
X95690476Y-137633390D01*
X95690476Y-137633390D02*
X95738095Y-137681009D01*
X95738095Y-137681009D02*
X95785714Y-137776247D01*
X95785714Y-137776247D02*
X95785714Y-138014342D01*
X95785714Y-138014342D02*
X95738095Y-138109580D01*
X95738095Y-138109580D02*
X95690476Y-138157200D01*
X95690476Y-138157200D02*
X95595238Y-138204819D01*
X95595238Y-138204819D02*
X95357143Y-138204819D01*
X95357143Y-138204819D02*
X95261905Y-138157200D01*
X95261905Y-138157200D02*
X95214286Y-138109580D01*
X84083333Y-124609580D02*
X84035714Y-124657200D01*
X84035714Y-124657200D02*
X83892857Y-124704819D01*
X83892857Y-124704819D02*
X83797619Y-124704819D01*
X83797619Y-124704819D02*
X83654762Y-124657200D01*
X83654762Y-124657200D02*
X83559524Y-124561961D01*
X83559524Y-124561961D02*
X83511905Y-124466723D01*
X83511905Y-124466723D02*
X83464286Y-124276247D01*
X83464286Y-124276247D02*
X83464286Y-124133390D01*
X83464286Y-124133390D02*
X83511905Y-123942914D01*
X83511905Y-123942914D02*
X83559524Y-123847676D01*
X83559524Y-123847676D02*
X83654762Y-123752438D01*
X83654762Y-123752438D02*
X83797619Y-123704819D01*
X83797619Y-123704819D02*
X83892857Y-123704819D01*
X83892857Y-123704819D02*
X84035714Y-123752438D01*
X84035714Y-123752438D02*
X84083333Y-123800057D01*
X84416667Y-123704819D02*
X85083333Y-123704819D01*
X85083333Y-123704819D02*
X84654762Y-124704819D01*
X110738095Y-109204819D02*
X110738095Y-110014342D01*
X110738095Y-110014342D02*
X110785714Y-110109580D01*
X110785714Y-110109580D02*
X110833333Y-110157200D01*
X110833333Y-110157200D02*
X110928571Y-110204819D01*
X110928571Y-110204819D02*
X111119047Y-110204819D01*
X111119047Y-110204819D02*
X111214285Y-110157200D01*
X111214285Y-110157200D02*
X111261904Y-110109580D01*
X111261904Y-110109580D02*
X111309523Y-110014342D01*
X111309523Y-110014342D02*
X111309523Y-109204819D01*
X112214285Y-109204819D02*
X112023809Y-109204819D01*
X112023809Y-109204819D02*
X111928571Y-109252438D01*
X111928571Y-109252438D02*
X111880952Y-109300057D01*
X111880952Y-109300057D02*
X111785714Y-109442914D01*
X111785714Y-109442914D02*
X111738095Y-109633390D01*
X111738095Y-109633390D02*
X111738095Y-110014342D01*
X111738095Y-110014342D02*
X111785714Y-110109580D01*
X111785714Y-110109580D02*
X111833333Y-110157200D01*
X111833333Y-110157200D02*
X111928571Y-110204819D01*
X111928571Y-110204819D02*
X112119047Y-110204819D01*
X112119047Y-110204819D02*
X112214285Y-110157200D01*
X112214285Y-110157200D02*
X112261904Y-110109580D01*
X112261904Y-110109580D02*
X112309523Y-110014342D01*
X112309523Y-110014342D02*
X112309523Y-109776247D01*
X112309523Y-109776247D02*
X112261904Y-109681009D01*
X112261904Y-109681009D02*
X112214285Y-109633390D01*
X112214285Y-109633390D02*
X112119047Y-109585771D01*
X112119047Y-109585771D02*
X111928571Y-109585771D01*
X111928571Y-109585771D02*
X111833333Y-109633390D01*
X111833333Y-109633390D02*
X111785714Y-109681009D01*
X111785714Y-109681009D02*
X111738095Y-109776247D01*
X64238095Y-91304819D02*
X64238095Y-90304819D01*
X64238095Y-90781009D02*
X64809523Y-90781009D01*
X64809523Y-91304819D02*
X64809523Y-90304819D01*
X65714285Y-90638152D02*
X65714285Y-91304819D01*
X65476190Y-90257200D02*
X65238095Y-90971485D01*
X65238095Y-90971485D02*
X65857142Y-90971485D01*
X84857142Y-125859580D02*
X84809523Y-125907200D01*
X84809523Y-125907200D02*
X84666666Y-125954819D01*
X84666666Y-125954819D02*
X84571428Y-125954819D01*
X84571428Y-125954819D02*
X84428571Y-125907200D01*
X84428571Y-125907200D02*
X84333333Y-125811961D01*
X84333333Y-125811961D02*
X84285714Y-125716723D01*
X84285714Y-125716723D02*
X84238095Y-125526247D01*
X84238095Y-125526247D02*
X84238095Y-125383390D01*
X84238095Y-125383390D02*
X84285714Y-125192914D01*
X84285714Y-125192914D02*
X84333333Y-125097676D01*
X84333333Y-125097676D02*
X84428571Y-125002438D01*
X84428571Y-125002438D02*
X84571428Y-124954819D01*
X84571428Y-124954819D02*
X84666666Y-124954819D01*
X84666666Y-124954819D02*
X84809523Y-125002438D01*
X84809523Y-125002438D02*
X84857142Y-125050057D01*
X85809523Y-125954819D02*
X85238095Y-125954819D01*
X85523809Y-125954819D02*
X85523809Y-124954819D01*
X85523809Y-124954819D02*
X85428571Y-125097676D01*
X85428571Y-125097676D02*
X85333333Y-125192914D01*
X85333333Y-125192914D02*
X85238095Y-125240533D01*
X86428571Y-124954819D02*
X86523809Y-124954819D01*
X86523809Y-124954819D02*
X86619047Y-125002438D01*
X86619047Y-125002438D02*
X86666666Y-125050057D01*
X86666666Y-125050057D02*
X86714285Y-125145295D01*
X86714285Y-125145295D02*
X86761904Y-125335771D01*
X86761904Y-125335771D02*
X86761904Y-125573866D01*
X86761904Y-125573866D02*
X86714285Y-125764342D01*
X86714285Y-125764342D02*
X86666666Y-125859580D01*
X86666666Y-125859580D02*
X86619047Y-125907200D01*
X86619047Y-125907200D02*
X86523809Y-125954819D01*
X86523809Y-125954819D02*
X86428571Y-125954819D01*
X86428571Y-125954819D02*
X86333333Y-125907200D01*
X86333333Y-125907200D02*
X86285714Y-125859580D01*
X86285714Y-125859580D02*
X86238095Y-125764342D01*
X86238095Y-125764342D02*
X86190476Y-125573866D01*
X86190476Y-125573866D02*
X86190476Y-125335771D01*
X86190476Y-125335771D02*
X86238095Y-125145295D01*
X86238095Y-125145295D02*
X86285714Y-125050057D01*
X86285714Y-125050057D02*
X86333333Y-125002438D01*
X86333333Y-125002438D02*
X86428571Y-124954819D01*
X64238095Y-146304819D02*
X64238095Y-145304819D01*
X64238095Y-145781009D02*
X64809523Y-145781009D01*
X64809523Y-146304819D02*
X64809523Y-145304819D01*
X65809523Y-146304819D02*
X65238095Y-146304819D01*
X65523809Y-146304819D02*
X65523809Y-145304819D01*
X65523809Y-145304819D02*
X65428571Y-145447676D01*
X65428571Y-145447676D02*
X65333333Y-145542914D01*
X65333333Y-145542914D02*
X65238095Y-145590533D01*
X77083333Y-135359580D02*
X77035714Y-135407200D01*
X77035714Y-135407200D02*
X76892857Y-135454819D01*
X76892857Y-135454819D02*
X76797619Y-135454819D01*
X76797619Y-135454819D02*
X76654762Y-135407200D01*
X76654762Y-135407200D02*
X76559524Y-135311961D01*
X76559524Y-135311961D02*
X76511905Y-135216723D01*
X76511905Y-135216723D02*
X76464286Y-135026247D01*
X76464286Y-135026247D02*
X76464286Y-134883390D01*
X76464286Y-134883390D02*
X76511905Y-134692914D01*
X76511905Y-134692914D02*
X76559524Y-134597676D01*
X76559524Y-134597676D02*
X76654762Y-134502438D01*
X76654762Y-134502438D02*
X76797619Y-134454819D01*
X76797619Y-134454819D02*
X76892857Y-134454819D01*
X76892857Y-134454819D02*
X77035714Y-134502438D01*
X77035714Y-134502438D02*
X77083333Y-134550057D01*
X77464286Y-134550057D02*
X77511905Y-134502438D01*
X77511905Y-134502438D02*
X77607143Y-134454819D01*
X77607143Y-134454819D02*
X77845238Y-134454819D01*
X77845238Y-134454819D02*
X77940476Y-134502438D01*
X77940476Y-134502438D02*
X77988095Y-134550057D01*
X77988095Y-134550057D02*
X78035714Y-134645295D01*
X78035714Y-134645295D02*
X78035714Y-134740533D01*
X78035714Y-134740533D02*
X77988095Y-134883390D01*
X77988095Y-134883390D02*
X77416667Y-135454819D01*
X77416667Y-135454819D02*
X78035714Y-135454819D01*
X94833333Y-102944819D02*
X94500000Y-102468628D01*
X94261905Y-102944819D02*
X94261905Y-101944819D01*
X94261905Y-101944819D02*
X94642857Y-101944819D01*
X94642857Y-101944819D02*
X94738095Y-101992438D01*
X94738095Y-101992438D02*
X94785714Y-102040057D01*
X94785714Y-102040057D02*
X94833333Y-102135295D01*
X94833333Y-102135295D02*
X94833333Y-102278152D01*
X94833333Y-102278152D02*
X94785714Y-102373390D01*
X94785714Y-102373390D02*
X94738095Y-102421009D01*
X94738095Y-102421009D02*
X94642857Y-102468628D01*
X94642857Y-102468628D02*
X94261905Y-102468628D01*
X95214286Y-102040057D02*
X95261905Y-101992438D01*
X95261905Y-101992438D02*
X95357143Y-101944819D01*
X95357143Y-101944819D02*
X95595238Y-101944819D01*
X95595238Y-101944819D02*
X95690476Y-101992438D01*
X95690476Y-101992438D02*
X95738095Y-102040057D01*
X95738095Y-102040057D02*
X95785714Y-102135295D01*
X95785714Y-102135295D02*
X95785714Y-102230533D01*
X95785714Y-102230533D02*
X95738095Y-102373390D01*
X95738095Y-102373390D02*
X95166667Y-102944819D01*
X95166667Y-102944819D02*
X95785714Y-102944819D01*
X92666666Y-151954819D02*
X92666666Y-152669104D01*
X92666666Y-152669104D02*
X92619047Y-152811961D01*
X92619047Y-152811961D02*
X92523809Y-152907200D01*
X92523809Y-152907200D02*
X92380952Y-152954819D01*
X92380952Y-152954819D02*
X92285714Y-152954819D01*
X93047619Y-151954819D02*
X93666666Y-151954819D01*
X93666666Y-151954819D02*
X93333333Y-152335771D01*
X93333333Y-152335771D02*
X93476190Y-152335771D01*
X93476190Y-152335771D02*
X93571428Y-152383390D01*
X93571428Y-152383390D02*
X93619047Y-152431009D01*
X93619047Y-152431009D02*
X93666666Y-152526247D01*
X93666666Y-152526247D02*
X93666666Y-152764342D01*
X93666666Y-152764342D02*
X93619047Y-152859580D01*
X93619047Y-152859580D02*
X93571428Y-152907200D01*
X93571428Y-152907200D02*
X93476190Y-152954819D01*
X93476190Y-152954819D02*
X93190476Y-152954819D01*
X93190476Y-152954819D02*
X93095238Y-152907200D01*
X93095238Y-152907200D02*
X93047619Y-152859580D01*
X69833333Y-135359580D02*
X69785714Y-135407200D01*
X69785714Y-135407200D02*
X69642857Y-135454819D01*
X69642857Y-135454819D02*
X69547619Y-135454819D01*
X69547619Y-135454819D02*
X69404762Y-135407200D01*
X69404762Y-135407200D02*
X69309524Y-135311961D01*
X69309524Y-135311961D02*
X69261905Y-135216723D01*
X69261905Y-135216723D02*
X69214286Y-135026247D01*
X69214286Y-135026247D02*
X69214286Y-134883390D01*
X69214286Y-134883390D02*
X69261905Y-134692914D01*
X69261905Y-134692914D02*
X69309524Y-134597676D01*
X69309524Y-134597676D02*
X69404762Y-134502438D01*
X69404762Y-134502438D02*
X69547619Y-134454819D01*
X69547619Y-134454819D02*
X69642857Y-134454819D01*
X69642857Y-134454819D02*
X69785714Y-134502438D01*
X69785714Y-134502438D02*
X69833333Y-134550057D01*
X70785714Y-135454819D02*
X70214286Y-135454819D01*
X70500000Y-135454819D02*
X70500000Y-134454819D01*
X70500000Y-134454819D02*
X70404762Y-134597676D01*
X70404762Y-134597676D02*
X70309524Y-134692914D01*
X70309524Y-134692914D02*
X70214286Y-134740533D01*
X106357142Y-144209580D02*
X106309523Y-144257200D01*
X106309523Y-144257200D02*
X106166666Y-144304819D01*
X106166666Y-144304819D02*
X106071428Y-144304819D01*
X106071428Y-144304819D02*
X105928571Y-144257200D01*
X105928571Y-144257200D02*
X105833333Y-144161961D01*
X105833333Y-144161961D02*
X105785714Y-144066723D01*
X105785714Y-144066723D02*
X105738095Y-143876247D01*
X105738095Y-143876247D02*
X105738095Y-143733390D01*
X105738095Y-143733390D02*
X105785714Y-143542914D01*
X105785714Y-143542914D02*
X105833333Y-143447676D01*
X105833333Y-143447676D02*
X105928571Y-143352438D01*
X105928571Y-143352438D02*
X106071428Y-143304819D01*
X106071428Y-143304819D02*
X106166666Y-143304819D01*
X106166666Y-143304819D02*
X106309523Y-143352438D01*
X106309523Y-143352438D02*
X106357142Y-143400057D01*
X107309523Y-144304819D02*
X106738095Y-144304819D01*
X107023809Y-144304819D02*
X107023809Y-143304819D01*
X107023809Y-143304819D02*
X106928571Y-143447676D01*
X106928571Y-143447676D02*
X106833333Y-143542914D01*
X106833333Y-143542914D02*
X106738095Y-143590533D01*
X107690476Y-143400057D02*
X107738095Y-143352438D01*
X107738095Y-143352438D02*
X107833333Y-143304819D01*
X107833333Y-143304819D02*
X108071428Y-143304819D01*
X108071428Y-143304819D02*
X108166666Y-143352438D01*
X108166666Y-143352438D02*
X108214285Y-143400057D01*
X108214285Y-143400057D02*
X108261904Y-143495295D01*
X108261904Y-143495295D02*
X108261904Y-143590533D01*
X108261904Y-143590533D02*
X108214285Y-143733390D01*
X108214285Y-143733390D02*
X107642857Y-144304819D01*
X107642857Y-144304819D02*
X108261904Y-144304819D01*
X74707142Y-146929580D02*
X74659523Y-146977200D01*
X74659523Y-146977200D02*
X74516666Y-147024819D01*
X74516666Y-147024819D02*
X74421428Y-147024819D01*
X74421428Y-147024819D02*
X74278571Y-146977200D01*
X74278571Y-146977200D02*
X74183333Y-146881961D01*
X74183333Y-146881961D02*
X74135714Y-146786723D01*
X74135714Y-146786723D02*
X74088095Y-146596247D01*
X74088095Y-146596247D02*
X74088095Y-146453390D01*
X74088095Y-146453390D02*
X74135714Y-146262914D01*
X74135714Y-146262914D02*
X74183333Y-146167676D01*
X74183333Y-146167676D02*
X74278571Y-146072438D01*
X74278571Y-146072438D02*
X74421428Y-146024819D01*
X74421428Y-146024819D02*
X74516666Y-146024819D01*
X74516666Y-146024819D02*
X74659523Y-146072438D01*
X74659523Y-146072438D02*
X74707142Y-146120057D01*
X75040476Y-146024819D02*
X75659523Y-146024819D01*
X75659523Y-146024819D02*
X75326190Y-146405771D01*
X75326190Y-146405771D02*
X75469047Y-146405771D01*
X75469047Y-146405771D02*
X75564285Y-146453390D01*
X75564285Y-146453390D02*
X75611904Y-146501009D01*
X75611904Y-146501009D02*
X75659523Y-146596247D01*
X75659523Y-146596247D02*
X75659523Y-146834342D01*
X75659523Y-146834342D02*
X75611904Y-146929580D01*
X75611904Y-146929580D02*
X75564285Y-146977200D01*
X75564285Y-146977200D02*
X75469047Y-147024819D01*
X75469047Y-147024819D02*
X75183333Y-147024819D01*
X75183333Y-147024819D02*
X75088095Y-146977200D01*
X75088095Y-146977200D02*
X75040476Y-146929580D01*
X75992857Y-146024819D02*
X76611904Y-146024819D01*
X76611904Y-146024819D02*
X76278571Y-146405771D01*
X76278571Y-146405771D02*
X76421428Y-146405771D01*
X76421428Y-146405771D02*
X76516666Y-146453390D01*
X76516666Y-146453390D02*
X76564285Y-146501009D01*
X76564285Y-146501009D02*
X76611904Y-146596247D01*
X76611904Y-146596247D02*
X76611904Y-146834342D01*
X76611904Y-146834342D02*
X76564285Y-146929580D01*
X76564285Y-146929580D02*
X76516666Y-146977200D01*
X76516666Y-146977200D02*
X76421428Y-147024819D01*
X76421428Y-147024819D02*
X76135714Y-147024819D01*
X76135714Y-147024819D02*
X76040476Y-146977200D01*
X76040476Y-146977200D02*
X75992857Y-146929580D01*
X111207142Y-146929580D02*
X111159523Y-146977200D01*
X111159523Y-146977200D02*
X111016666Y-147024819D01*
X111016666Y-147024819D02*
X110921428Y-147024819D01*
X110921428Y-147024819D02*
X110778571Y-146977200D01*
X110778571Y-146977200D02*
X110683333Y-146881961D01*
X110683333Y-146881961D02*
X110635714Y-146786723D01*
X110635714Y-146786723D02*
X110588095Y-146596247D01*
X110588095Y-146596247D02*
X110588095Y-146453390D01*
X110588095Y-146453390D02*
X110635714Y-146262914D01*
X110635714Y-146262914D02*
X110683333Y-146167676D01*
X110683333Y-146167676D02*
X110778571Y-146072438D01*
X110778571Y-146072438D02*
X110921428Y-146024819D01*
X110921428Y-146024819D02*
X111016666Y-146024819D01*
X111016666Y-146024819D02*
X111159523Y-146072438D01*
X111159523Y-146072438D02*
X111207142Y-146120057D01*
X111540476Y-146024819D02*
X112159523Y-146024819D01*
X112159523Y-146024819D02*
X111826190Y-146405771D01*
X111826190Y-146405771D02*
X111969047Y-146405771D01*
X111969047Y-146405771D02*
X112064285Y-146453390D01*
X112064285Y-146453390D02*
X112111904Y-146501009D01*
X112111904Y-146501009D02*
X112159523Y-146596247D01*
X112159523Y-146596247D02*
X112159523Y-146834342D01*
X112159523Y-146834342D02*
X112111904Y-146929580D01*
X112111904Y-146929580D02*
X112064285Y-146977200D01*
X112064285Y-146977200D02*
X111969047Y-147024819D01*
X111969047Y-147024819D02*
X111683333Y-147024819D01*
X111683333Y-147024819D02*
X111588095Y-146977200D01*
X111588095Y-146977200D02*
X111540476Y-146929580D01*
X112635714Y-147024819D02*
X112826190Y-147024819D01*
X112826190Y-147024819D02*
X112921428Y-146977200D01*
X112921428Y-146977200D02*
X112969047Y-146929580D01*
X112969047Y-146929580D02*
X113064285Y-146786723D01*
X113064285Y-146786723D02*
X113111904Y-146596247D01*
X113111904Y-146596247D02*
X113111904Y-146215295D01*
X113111904Y-146215295D02*
X113064285Y-146120057D01*
X113064285Y-146120057D02*
X113016666Y-146072438D01*
X113016666Y-146072438D02*
X112921428Y-146024819D01*
X112921428Y-146024819D02*
X112730952Y-146024819D01*
X112730952Y-146024819D02*
X112635714Y-146072438D01*
X112635714Y-146072438D02*
X112588095Y-146120057D01*
X112588095Y-146120057D02*
X112540476Y-146215295D01*
X112540476Y-146215295D02*
X112540476Y-146453390D01*
X112540476Y-146453390D02*
X112588095Y-146548628D01*
X112588095Y-146548628D02*
X112635714Y-146596247D01*
X112635714Y-146596247D02*
X112730952Y-146643866D01*
X112730952Y-146643866D02*
X112921428Y-146643866D01*
X112921428Y-146643866D02*
X113016666Y-146596247D01*
X113016666Y-146596247D02*
X113064285Y-146548628D01*
X113064285Y-146548628D02*
X113111904Y-146453390D01*
D12*
%TO.C,J4*%
X73890000Y-148890000D02*
X73890000Y-150140000D01*
X74190000Y-150500000D02*
X74800000Y-150500000D01*
X74190000Y-151800000D02*
X74800000Y-151800000D01*
X74800000Y-149800000D02*
X74800000Y-153300000D01*
X74800000Y-153300000D02*
X83700000Y-153300000D01*
X75140000Y-148890000D02*
X73890000Y-148890000D01*
X75650000Y-148990000D02*
X75650000Y-149190000D01*
X75950000Y-148990000D02*
X75650000Y-148990000D01*
X75950000Y-149090000D02*
X75650000Y-149090000D01*
X75950000Y-149190000D02*
X75950000Y-148990000D01*
X76750000Y-149190000D02*
X76750000Y-149800000D01*
X76750000Y-149800000D02*
X74800000Y-149800000D01*
X77150000Y-152800000D02*
X77350000Y-152800000D01*
X77150000Y-153300000D02*
X77150000Y-152800000D01*
X77250000Y-153300000D02*
X77250000Y-152800000D01*
X77350000Y-152800000D02*
X77350000Y-153300000D01*
X79150000Y-152800000D02*
X79350000Y-152800000D01*
X79150000Y-153300000D02*
X79150000Y-152800000D01*
X79250000Y-153300000D02*
X79250000Y-152800000D01*
X79350000Y-152800000D02*
X79350000Y-153300000D01*
X81150000Y-152800000D02*
X81350000Y-152800000D01*
X81150000Y-153300000D02*
X81150000Y-152800000D01*
X81250000Y-153300000D02*
X81250000Y-152800000D01*
X81350000Y-152800000D02*
X81350000Y-153300000D01*
X81750000Y-149800000D02*
X81750000Y-149190000D01*
X83700000Y-149800000D02*
X81750000Y-149800000D01*
X83700000Y-153300000D02*
X83700000Y-149800000D01*
X84310000Y-150500000D02*
X83700000Y-150500000D01*
X84310000Y-151800000D02*
X83700000Y-151800000D01*
X74190000Y-149190000D02*
X84310000Y-149190000D01*
X84310000Y-153910000D01*
X74190000Y-153910000D01*
X74190000Y-149190000D01*
D13*
%TO.C,U2*%
X89970800Y-127625100D02*
X89970800Y-132374900D01*
X89970800Y-132374900D02*
X90277651Y-132374900D01*
X90277651Y-127625100D02*
X89970800Y-127625100D01*
X99722349Y-132374900D02*
X100029200Y-132374900D01*
X100029200Y-127625100D02*
X99722349Y-127625100D01*
X100029200Y-132374900D02*
X100029200Y-127625100D01*
D14*
G36*
X96165479Y-126094001D02*
G01*
X95784479Y-126094001D01*
X95784479Y-125840001D01*
X96165479Y-125840001D01*
X96165479Y-126094001D01*
G37*
G36*
X96815465Y-134159999D02*
G01*
X96434465Y-134159999D01*
X96434465Y-133905999D01*
X96815465Y-133905999D01*
X96815465Y-134159999D01*
G37*
D12*
%TO.C,C37*%
X94984420Y-147490000D02*
X95265580Y-147490000D01*
X94984420Y-148510000D02*
X95265580Y-148510000D01*
%TO.C,C41*%
X108709420Y-147490000D02*
X108990580Y-147490000D01*
X108709420Y-148510000D02*
X108990580Y-148510000D01*
%TO.C,C19*%
X118607836Y-124140000D02*
X118392164Y-124140000D01*
X118607836Y-124860000D02*
X118392164Y-124860000D01*
%TO.C,C38*%
X105709420Y-147490000D02*
X105990580Y-147490000D01*
X105709420Y-148510000D02*
X105990580Y-148510000D01*
%TO.C,U4*%
X92640000Y-108215000D02*
X93590000Y-108215000D01*
X92640000Y-109165000D02*
X92640000Y-108215000D01*
X92640000Y-118435000D02*
X92640000Y-117485000D01*
X93590000Y-118435000D02*
X92640000Y-118435000D01*
X101910000Y-108215000D02*
X102860000Y-108215000D01*
X102860000Y-108215000D02*
X102860000Y-109165000D01*
X102860000Y-117485000D02*
X102860000Y-118435000D01*
X102860000Y-118435000D02*
X101910000Y-118435000D01*
X92000000Y-109165000D02*
X91660000Y-108695000D01*
X92340000Y-108695000D01*
X92000000Y-109165000D01*
G36*
X92000000Y-109165000D02*
G01*
X91660000Y-108695000D01*
X92340000Y-108695000D01*
X92000000Y-109165000D01*
G37*
D13*
%TO.C,U1*%
X72470800Y-127625100D02*
X72470800Y-132374900D01*
X72470800Y-132374900D02*
X72777651Y-132374900D01*
X72777651Y-127625100D02*
X72470800Y-127625100D01*
X82222349Y-132374900D02*
X82529200Y-132374900D01*
X82529200Y-127625100D02*
X82222349Y-127625100D01*
X82529200Y-132374900D02*
X82529200Y-127625100D01*
D14*
G36*
X78665479Y-126094001D02*
G01*
X78284479Y-126094001D01*
X78284479Y-125840001D01*
X78665479Y-125840001D01*
X78665479Y-126094001D01*
G37*
G36*
X79315465Y-134159999D02*
G01*
X78934465Y-134159999D01*
X78934465Y-133905999D01*
X79315465Y-133905999D01*
X79315465Y-134159999D01*
G37*
D12*
%TO.C,J5*%
X66435000Y-99740000D02*
X64565000Y-99740000D01*
X70370000Y-101900000D02*
X66760000Y-101900000D01*
X70390000Y-111100000D02*
X66760000Y-111100000D01*
X72585000Y-99740000D02*
X70715000Y-99740000D01*
X72910000Y-101200000D02*
X74600000Y-101200000D01*
X74600000Y-108100000D02*
X74600000Y-101200000D01*
X75300000Y-108100000D02*
X74600000Y-108100000D01*
X75300000Y-111100000D02*
X72910000Y-111100000D01*
X75300000Y-111100000D02*
X75300000Y-108100000D01*
%TO.C,C35*%
X97984420Y-147490000D02*
X98265580Y-147490000D01*
X97984420Y-148510000D02*
X98265580Y-148510000D01*
%TO.C,C26*%
X90215000Y-108682836D02*
X90215000Y-108467164D01*
X90935000Y-108682836D02*
X90935000Y-108467164D01*
%TO.C,C42*%
X65990000Y-121640580D02*
X65990000Y-121359420D01*
X67010000Y-121640580D02*
X67010000Y-121359420D01*
%TO.C,R5*%
X114272936Y-108765000D02*
X114727064Y-108765000D01*
X114272936Y-110235000D02*
X114727064Y-110235000D01*
%TO.C,J6*%
X90920000Y-93325000D02*
X90920000Y-98625000D01*
X91490000Y-93325000D02*
X90920000Y-93325000D01*
X91490000Y-98625000D02*
X90920000Y-98625000D01*
X94030000Y-93325000D02*
X93110000Y-93325000D01*
X94030000Y-98625000D02*
X93110000Y-98625000D01*
X96570000Y-93325000D02*
X95650000Y-93325000D01*
X96570000Y-98625000D02*
X95650000Y-98625000D01*
X99110000Y-93325000D02*
X98190000Y-93325000D01*
X99110000Y-98625000D02*
X98190000Y-98625000D01*
X101650000Y-93325000D02*
X100730000Y-93325000D01*
X101650000Y-98625000D02*
X100730000Y-98625000D01*
X104190000Y-93325000D02*
X103270000Y-93325000D01*
X104190000Y-98625000D02*
X103270000Y-98625000D01*
X106730000Y-93325000D02*
X105810000Y-93325000D01*
X106730000Y-98625000D02*
X105810000Y-98625000D01*
X108350000Y-91935000D02*
X108350000Y-93325000D01*
X108920000Y-93325000D02*
X108350000Y-93325000D01*
X108920000Y-93325000D02*
X108920000Y-98625000D01*
X108920000Y-98625000D02*
X108350000Y-98625000D01*
%TO.C,R4*%
X114727064Y-114265000D02*
X114272936Y-114265000D01*
X114727064Y-115735000D02*
X114272936Y-115735000D01*
%TO.C,J2*%
X101390000Y-148890000D02*
X101390000Y-150140000D01*
X101690000Y-150500000D02*
X102300000Y-150500000D01*
X101690000Y-151800000D02*
X102300000Y-151800000D01*
X102300000Y-149800000D02*
X102300000Y-153300000D01*
X102300000Y-153300000D02*
X111200000Y-153300000D01*
X102640000Y-148890000D02*
X101390000Y-148890000D01*
X103150000Y-148990000D02*
X103150000Y-149190000D01*
X103450000Y-148990000D02*
X103150000Y-148990000D01*
X103450000Y-149090000D02*
X103150000Y-149090000D01*
X103450000Y-149190000D02*
X103450000Y-148990000D01*
X104250000Y-149190000D02*
X104250000Y-149800000D01*
X104250000Y-149800000D02*
X102300000Y-149800000D01*
X104650000Y-152800000D02*
X104850000Y-152800000D01*
X104650000Y-153300000D02*
X104650000Y-152800000D01*
X104750000Y-153300000D02*
X104750000Y-152800000D01*
X104850000Y-152800000D02*
X104850000Y-153300000D01*
X106650000Y-152800000D02*
X106850000Y-152800000D01*
X106650000Y-153300000D02*
X106650000Y-152800000D01*
X106750000Y-153300000D02*
X106750000Y-152800000D01*
X106850000Y-152800000D02*
X106850000Y-153300000D01*
X108650000Y-152800000D02*
X108850000Y-152800000D01*
X108650000Y-153300000D02*
X108650000Y-152800000D01*
X108750000Y-153300000D02*
X108750000Y-152800000D01*
X108850000Y-152800000D02*
X108850000Y-153300000D01*
X109250000Y-149800000D02*
X109250000Y-149190000D01*
X111200000Y-149800000D02*
X109250000Y-149800000D01*
X111200000Y-153300000D02*
X111200000Y-149800000D01*
X111810000Y-150500000D02*
X111200000Y-150500000D01*
X111810000Y-151800000D02*
X111200000Y-151800000D01*
X101690000Y-149190000D02*
X111810000Y-149190000D01*
X111810000Y-153910000D01*
X101690000Y-153910000D01*
X101690000Y-149190000D01*
%TO.C,C36*%
X88984420Y-147490000D02*
X89265580Y-147490000D01*
X88984420Y-148510000D02*
X89265580Y-148510000D01*
%TO.C,C14*%
X111392164Y-135920000D02*
X111607836Y-135920000D01*
X111392164Y-136640000D02*
X111607836Y-136640000D01*
%TO.C,J1*%
X61200000Y-120970000D02*
X61200000Y-127870000D01*
X61200000Y-123320000D02*
X61700000Y-123320000D01*
X61200000Y-123420000D02*
X61700000Y-123420000D01*
X61200000Y-125320000D02*
X61700000Y-125320000D01*
X61200000Y-125420000D02*
X61700000Y-125420000D01*
X61200000Y-127870000D02*
X64700000Y-127870000D01*
X61700000Y-123320000D02*
X61700000Y-123520000D01*
X61700000Y-123520000D02*
X61200000Y-123520000D01*
X61700000Y-125320000D02*
X61700000Y-125520000D01*
X61700000Y-125520000D02*
X61200000Y-125520000D01*
X62700000Y-120360000D02*
X62700000Y-120970000D01*
X62700000Y-128480000D02*
X62700000Y-127870000D01*
X64000000Y-120360000D02*
X64000000Y-120970000D01*
X64000000Y-128480000D02*
X64000000Y-127870000D01*
X64700000Y-120970000D02*
X61200000Y-120970000D01*
X64700000Y-122920000D02*
X64700000Y-120970000D01*
X64700000Y-125920000D02*
X65310000Y-125920000D01*
X64700000Y-127870000D02*
X64700000Y-125920000D01*
X65310000Y-122120000D02*
X65510000Y-122120000D01*
X65310000Y-122920000D02*
X64700000Y-122920000D01*
X65410000Y-122120000D02*
X65410000Y-121820000D01*
X65510000Y-121820000D02*
X65310000Y-121820000D01*
X65510000Y-122120000D02*
X65510000Y-121820000D01*
X65610000Y-120060000D02*
X64360000Y-120060000D01*
X65610000Y-121310000D02*
X65610000Y-120060000D01*
X65310000Y-120360000D02*
X60590000Y-120360000D01*
X60590000Y-128480000D01*
X65310000Y-128480000D01*
X65310000Y-120360000D01*
%TO.C,C34*%
X92265580Y-147490000D02*
X91984420Y-147490000D01*
X92265580Y-148510000D02*
X91984420Y-148510000D01*
%TO.C,C40*%
X102709420Y-147490000D02*
X102990580Y-147490000D01*
X102709420Y-148510000D02*
X102990580Y-148510000D01*
%TO.C,C4*%
X92912164Y-136140000D02*
X93127836Y-136140000D01*
X92912164Y-136860000D02*
X93127836Y-136860000D01*
%TO.C,C30*%
X84209420Y-147490000D02*
X84490580Y-147490000D01*
X84209420Y-148510000D02*
X84490580Y-148510000D01*
%TO.C,C29*%
X98682836Y-120215000D02*
X98467164Y-120215000D01*
X98682836Y-120935000D02*
X98467164Y-120935000D01*
%TO.C,C22*%
X67290000Y-136090000D02*
X67290000Y-138440000D01*
X67290000Y-142910000D02*
X67290000Y-140560000D01*
X73045563Y-136090000D02*
X67290000Y-136090000D01*
X73045563Y-142910000D02*
X67290000Y-142910000D01*
X74110000Y-137154437D02*
X73045563Y-136090000D01*
X74110000Y-137154437D02*
X74110000Y-138440000D01*
X74110000Y-141845563D02*
X73045563Y-142910000D01*
X74110000Y-141845563D02*
X74110000Y-140560000D01*
X74743750Y-141741250D02*
X74743750Y-140953750D01*
X75137500Y-141347500D02*
X74350000Y-141347500D01*
%TO.C,C21*%
X103640000Y-108357836D02*
X103640000Y-108142164D01*
X104360000Y-108357836D02*
X104360000Y-108142164D01*
%TO.C,C20*%
X118392164Y-125140000D02*
X118607836Y-125140000D01*
X118392164Y-125860000D02*
X118607836Y-125860000D01*
%TO.C,C31*%
X81209420Y-147490000D02*
X81490580Y-147490000D01*
X81209420Y-148510000D02*
X81490580Y-148510000D01*
%TO.C,C24*%
X90215000Y-117967164D02*
X90215000Y-118182836D01*
X90935000Y-117967164D02*
X90935000Y-118182836D01*
%TO.C,C15*%
X111392164Y-136920000D02*
X111607836Y-136920000D01*
X111392164Y-137640000D02*
X111607836Y-137640000D01*
%TO.C,R1*%
X98370000Y-105653641D02*
X98370000Y-105346359D01*
X99130000Y-105653641D02*
X99130000Y-105346359D01*
%TO.C,C23*%
X101987164Y-121215000D02*
X102202836Y-121215000D01*
X101987164Y-121935000D02*
X102202836Y-121935000D01*
%TO.C,J7*%
X121080000Y-108080000D02*
X119380000Y-108080000D01*
X121080000Y-117420000D02*
X119380000Y-117420000D01*
%TO.C,C27*%
X99107836Y-121215000D02*
X98892164Y-121215000D01*
X99107836Y-121935000D02*
X98892164Y-121935000D01*
D13*
%TO.C,U3*%
X108470800Y-127625100D02*
X108470800Y-132374900D01*
X108470800Y-132374900D02*
X108777651Y-132374900D01*
X108777651Y-127625100D02*
X108470800Y-127625100D01*
X118222349Y-132374900D02*
X118529200Y-132374900D01*
X118529200Y-127625100D02*
X118222349Y-127625100D01*
X118529200Y-132374900D02*
X118529200Y-127625100D01*
D14*
G36*
X114665479Y-126094001D02*
G01*
X114284479Y-126094001D01*
X114284479Y-125840001D01*
X114665479Y-125840001D01*
X114665479Y-126094001D01*
G37*
G36*
X115315465Y-134159999D02*
G01*
X114934465Y-134159999D01*
X114934465Y-133905999D01*
X115315465Y-133905999D01*
X115315465Y-134159999D01*
G37*
D12*
%TO.C,C11*%
X99912164Y-125140000D02*
X100127836Y-125140000D01*
X99912164Y-125860000D02*
X100127836Y-125860000D01*
%TO.C,R3*%
X96370000Y-105653641D02*
X96370000Y-105346359D01*
X97130000Y-105653641D02*
X97130000Y-105346359D01*
D13*
%TO.C,U5*%
X81572900Y-111574800D02*
X83427100Y-111574800D01*
X83427100Y-108425200D02*
X81572900Y-108425200D01*
X83427100Y-110403860D02*
X83427100Y-109596140D01*
D14*
%TO.C,G\u002A\u002A\u002A*%
G36*
X117648577Y-146118350D02*
G01*
X117630512Y-146136416D01*
X117612446Y-146118350D01*
X117630512Y-146100285D01*
X117648577Y-146118350D01*
G37*
G36*
X118190540Y-139542532D02*
G01*
X118172475Y-139560598D01*
X118154409Y-139542532D01*
X118172475Y-139524467D01*
X118190540Y-139542532D01*
G37*
G36*
X118226671Y-139614794D02*
G01*
X118208606Y-139632859D01*
X118190540Y-139614794D01*
X118208606Y-139596729D01*
X118226671Y-139614794D01*
G37*
G36*
X119093812Y-144998293D02*
G01*
X119075746Y-145016359D01*
X119057681Y-144998293D01*
X119075746Y-144980228D01*
X119093812Y-144998293D01*
G37*
G36*
X119924822Y-140337411D02*
G01*
X119906756Y-140355477D01*
X119888691Y-140337411D01*
X119906756Y-140319346D01*
X119924822Y-140337411D01*
G37*
G36*
X120755832Y-139723187D02*
G01*
X120737766Y-139741252D01*
X120719701Y-139723187D01*
X120737766Y-139705121D01*
X120755832Y-139723187D01*
G37*
G36*
X121044879Y-139939972D02*
G01*
X121026813Y-139958037D01*
X121008748Y-139939972D01*
X121026813Y-139921906D01*
X121044879Y-139939972D01*
G37*
G36*
X121044879Y-140987767D02*
G01*
X121026813Y-141005832D01*
X121008748Y-140987767D01*
X121026813Y-140969702D01*
X121044879Y-140987767D01*
G37*
G36*
X121081010Y-140120626D02*
G01*
X121062944Y-140138692D01*
X121044879Y-140120626D01*
X121062944Y-140102561D01*
X121081010Y-140120626D01*
G37*
G36*
X117865011Y-145641466D02*
G01*
X117865362Y-145646517D01*
X117839699Y-145677077D01*
X117823649Y-145688230D01*
X117798925Y-145692489D01*
X117807716Y-145672297D01*
X117844096Y-145633509D01*
X117865011Y-145641466D01*
G37*
G36*
X120566696Y-139872235D02*
G01*
X120570032Y-139928368D01*
X120530269Y-140000586D01*
X120467381Y-140060276D01*
X120337446Y-140194020D01*
X120267230Y-140352788D01*
X120260136Y-140501987D01*
X120309744Y-140658394D01*
X120404460Y-140800568D01*
X120524755Y-140899460D01*
X120594060Y-140958004D01*
X120607237Y-141018751D01*
X120560550Y-141063697D01*
X120558983Y-141064310D01*
X120480773Y-141059586D01*
X120380724Y-141006273D01*
X120276282Y-140916433D01*
X120189105Y-140808575D01*
X120097671Y-140610581D01*
X120075345Y-140403593D01*
X120122931Y-140198176D01*
X120139801Y-140160487D01*
X120223115Y-140034119D01*
X120332014Y-139929691D01*
X120446328Y-139863862D01*
X120516213Y-139849645D01*
X120566696Y-139872235D01*
G37*
G36*
X118422810Y-141171002D02*
G01*
X118469662Y-141243048D01*
X118469224Y-141328677D01*
X118419229Y-141441346D01*
X118362162Y-141530959D01*
X118236708Y-141682785D01*
X118107168Y-141782382D01*
X117983141Y-141824125D01*
X117982788Y-141824070D01*
X117887535Y-141809157D01*
X117814486Y-141742363D01*
X117792006Y-141641765D01*
X117792486Y-141639333D01*
X117943231Y-141639333D01*
X117982788Y-141655039D01*
X118052082Y-141631229D01*
X118127713Y-141572569D01*
X118199690Y-141493416D01*
X118258019Y-141408131D01*
X118292711Y-141331072D01*
X118293771Y-141276600D01*
X118258551Y-141258749D01*
X118212280Y-141282574D01*
X118136350Y-141343842D01*
X118077897Y-141399021D01*
X117989968Y-141500936D01*
X117943751Y-141584615D01*
X117943231Y-141639333D01*
X117792486Y-141639333D01*
X117815916Y-141520718D01*
X117882035Y-141392579D01*
X117986184Y-141270704D01*
X118079318Y-141196379D01*
X118220572Y-141127519D01*
X118340873Y-141123323D01*
X118422810Y-141171002D01*
G37*
G36*
X118058669Y-139186564D02*
G01*
X118187201Y-139251685D01*
X118303618Y-139351320D01*
X118396399Y-139471593D01*
X118454027Y-139598629D01*
X118464980Y-139718553D01*
X118441436Y-139786416D01*
X118371630Y-139845438D01*
X118290828Y-139851047D01*
X118275226Y-139852130D01*
X118164095Y-139815335D01*
X118050105Y-139743896D01*
X117945126Y-139646657D01*
X117861025Y-139532459D01*
X117809673Y-139410146D01*
X117806090Y-139370911D01*
X117938773Y-139370911D01*
X117969587Y-139458883D01*
X118044941Y-139555944D01*
X118143383Y-139641744D01*
X118243460Y-139695930D01*
X118290828Y-139704883D01*
X118312920Y-139681498D01*
X118294383Y-139621358D01*
X118244261Y-139540189D01*
X118171599Y-139453715D01*
X118116804Y-139402313D01*
X118019481Y-139329837D01*
X117962271Y-139312403D01*
X117939639Y-139349033D01*
X117938773Y-139370911D01*
X117806090Y-139370911D01*
X117800422Y-139308832D01*
X117815199Y-139222012D01*
X117854402Y-139183363D01*
X117929541Y-139169831D01*
X118058669Y-139186564D01*
G37*
G36*
X117983415Y-140264172D02*
G01*
X118123880Y-140310618D01*
X118218720Y-140379198D01*
X118261283Y-140462689D01*
X118244915Y-140553864D01*
X118167602Y-140641901D01*
X118052060Y-140696178D01*
X117898420Y-140721471D01*
X117814778Y-140719782D01*
X117733423Y-140718140D01*
X117583811Y-140686548D01*
X117482532Y-140632650D01*
X117413000Y-140539850D01*
X117409906Y-140487193D01*
X117540185Y-140487193D01*
X117562491Y-140526831D01*
X117596257Y-140522345D01*
X117633555Y-140519820D01*
X117630256Y-140536545D01*
X117647336Y-140558131D01*
X117715725Y-140572558D01*
X117814778Y-140579355D01*
X117923852Y-140578049D01*
X118022304Y-140568167D01*
X118089489Y-140549236D01*
X118093181Y-140547143D01*
X118122620Y-140501339D01*
X118094796Y-140449022D01*
X118021720Y-140404248D01*
X117955301Y-140385789D01*
X117826145Y-140377056D01*
X117701600Y-140390908D01*
X117601498Y-140422500D01*
X117545674Y-140466987D01*
X117540185Y-140487193D01*
X117409906Y-140487193D01*
X117407518Y-140446559D01*
X117458510Y-140361865D01*
X117558401Y-140294852D01*
X117699617Y-140254608D01*
X117803980Y-140247084D01*
X117983415Y-140264172D01*
G37*
G36*
X117926412Y-134116510D02*
G01*
X117952507Y-134158462D01*
X117940562Y-134241089D01*
X117891417Y-134374785D01*
X117884564Y-134391184D01*
X117824031Y-134551568D01*
X117799056Y-134678290D01*
X117808719Y-134800065D01*
X117852104Y-134945612D01*
X117865651Y-134982522D01*
X117991944Y-135223635D01*
X118172638Y-135434897D01*
X118394318Y-135606867D01*
X118643565Y-135730109D01*
X118906963Y-135795182D01*
X119031925Y-135802988D01*
X119191508Y-135785919D01*
X119403387Y-135737118D01*
X119656828Y-135660187D01*
X119941097Y-135558730D01*
X120245459Y-135436353D01*
X120559179Y-135296658D01*
X120606739Y-135274263D01*
X120764043Y-135206828D01*
X122490113Y-135206828D01*
X122508179Y-135224894D01*
X122526244Y-135206828D01*
X122508179Y-135188763D01*
X122490113Y-135206828D01*
X120764043Y-135206828D01*
X120977385Y-135115370D01*
X121339140Y-134992792D01*
X121682905Y-134908203D01*
X121999585Y-134863276D01*
X122280082Y-134859684D01*
X122515299Y-134899101D01*
X122562375Y-134914549D01*
X122830024Y-135046736D01*
X123064190Y-135230536D01*
X123252495Y-135454048D01*
X123381255Y-135701869D01*
X123422171Y-135869557D01*
X123442662Y-136083582D01*
X123443157Y-136321093D01*
X123424085Y-136559241D01*
X123385875Y-136775175D01*
X123359337Y-136868848D01*
X123289453Y-137067452D01*
X123227302Y-137213713D01*
X123163718Y-137325546D01*
X123089534Y-137420866D01*
X123061022Y-137451902D01*
X122996590Y-137533532D01*
X122986300Y-137582984D01*
X122992806Y-137589525D01*
X123031778Y-137646708D01*
X123007486Y-137724831D01*
X122923223Y-137816706D01*
X122869488Y-137858567D01*
X122780000Y-137927526D01*
X122720946Y-137982031D01*
X122706899Y-138003569D01*
X122680904Y-138037040D01*
X122652009Y-138065219D01*
X122610571Y-138105631D01*
X122507376Y-138198568D01*
X122420965Y-138272845D01*
X122411084Y-138281339D01*
X122115269Y-138530868D01*
X122257528Y-138553556D01*
X122766541Y-138655143D01*
X123258495Y-138793005D01*
X123721175Y-138962455D01*
X124142365Y-139158805D01*
X124509849Y-139377370D01*
X124631821Y-139464482D01*
X124840526Y-139621836D01*
X124848606Y-140873863D01*
X124849936Y-141166021D01*
X124850083Y-141433488D01*
X124849125Y-141668127D01*
X124847142Y-141861801D01*
X124844213Y-142006372D01*
X124840415Y-142093701D01*
X124836586Y-142116857D01*
X124797518Y-142097729D01*
X124709125Y-142053787D01*
X124586667Y-141992629D01*
X124567638Y-141983102D01*
X124509082Y-141953784D01*
X124258174Y-141850666D01*
X124136833Y-141800798D01*
X124134068Y-141800171D01*
X123760484Y-141715509D01*
X123429516Y-141693480D01*
X123186501Y-141707376D01*
X122947853Y-141746201D01*
X122729113Y-141805417D01*
X122545823Y-141880483D01*
X122413524Y-141966862D01*
X122381613Y-141999562D01*
X122353803Y-142049415D01*
X122362638Y-142108425D01*
X122397687Y-142180879D01*
X122443548Y-142296465D01*
X122431173Y-142370725D01*
X122358182Y-142408181D01*
X122274462Y-142414936D01*
X122183828Y-142420897D01*
X122133579Y-142435802D01*
X122129922Y-142442034D01*
X122157123Y-142477134D01*
X122225850Y-142538406D01*
X122286896Y-142586467D01*
X122388400Y-142668515D01*
X122516809Y-142780107D01*
X122647716Y-142899908D01*
X122674186Y-142925016D01*
X122789609Y-143032598D01*
X122895139Y-143126156D01*
X122972945Y-143190036D01*
X122989800Y-143202135D01*
X123048291Y-143258025D01*
X123058506Y-143332934D01*
X123052641Y-143371789D01*
X123050415Y-143469352D01*
X123097846Y-143547014D01*
X123118372Y-143567337D01*
X123200919Y-143673850D01*
X123285591Y-143832828D01*
X123364036Y-144025237D01*
X123427903Y-144232043D01*
X123448720Y-144320259D01*
X123494679Y-144667320D01*
X123483338Y-144993450D01*
X123416556Y-145291117D01*
X123296194Y-145552789D01*
X123124113Y-145770935D01*
X123080333Y-145811607D01*
X122974896Y-145889875D01*
X122835127Y-145975335D01*
X122709478Y-146040574D01*
X122572257Y-146099554D01*
X122455638Y-146132761D01*
X122327181Y-146146879D01*
X122183869Y-146148858D01*
X121848643Y-146119472D01*
X121473400Y-146036733D01*
X121065022Y-145902264D01*
X120954552Y-145859144D01*
X120810823Y-145800127D01*
X120691446Y-145748926D01*
X120613111Y-145712809D01*
X120593243Y-145701774D01*
X120531012Y-145668868D01*
X120414908Y-145618413D01*
X120259561Y-145555851D01*
X120079603Y-145486625D01*
X119889668Y-145416180D01*
X119704385Y-145349957D01*
X119538388Y-145293399D01*
X119406309Y-145251951D01*
X119332879Y-145232914D01*
X119036428Y-145208071D01*
X118750489Y-145253083D01*
X118482646Y-145365606D01*
X118240486Y-145543291D01*
X118198420Y-145583808D01*
X118053126Y-145749849D01*
X117950891Y-145921622D01*
X117874836Y-146128984D01*
X117859866Y-146182627D01*
X117836443Y-146287909D01*
X117836785Y-146370421D01*
X117864350Y-146463243D01*
X117897474Y-146542420D01*
X117959480Y-146688475D01*
X117993072Y-146782465D01*
X118000694Y-146837666D01*
X117984790Y-146867355D01*
X117959708Y-146880556D01*
X117845566Y-146886812D01*
X117767382Y-146854479D01*
X117709682Y-146830618D01*
X117589372Y-146741396D01*
X117446675Y-146578984D01*
X117360323Y-146386746D01*
X117331601Y-146194133D01*
X117473739Y-146194133D01*
X117500648Y-146324817D01*
X117541441Y-146411929D01*
X117604483Y-146510793D01*
X117674536Y-146601210D01*
X117736362Y-146662981D01*
X117767382Y-146678379D01*
X117768813Y-146649105D01*
X117745903Y-146575784D01*
X117733032Y-146543440D01*
X117694005Y-146362128D01*
X117710775Y-146155391D01*
X117778717Y-145937446D01*
X117893212Y-145722511D01*
X118049636Y-145524800D01*
X118071500Y-145502413D01*
X118328254Y-145291928D01*
X118609609Y-145149276D01*
X118844799Y-145085418D01*
X118993026Y-145065918D01*
X119139017Y-145064294D01*
X119302913Y-145082193D01*
X119504854Y-145121261D01*
X119626742Y-145149332D01*
X119694366Y-145157779D01*
X119701679Y-145140865D01*
X119652715Y-145106112D01*
X119586931Y-145075120D01*
X119466788Y-145034524D01*
X119333493Y-145002301D01*
X119318780Y-144999676D01*
X119221889Y-144972523D01*
X119159791Y-144935124D01*
X119151973Y-144923334D01*
X119103526Y-144879467D01*
X119066041Y-144871835D01*
X118973235Y-144840581D01*
X118919012Y-144761715D01*
X118913158Y-144720086D01*
X118896007Y-144671229D01*
X118839996Y-144659556D01*
X118738289Y-144685898D01*
X118584049Y-144751086D01*
X118558122Y-144763242D01*
X118289369Y-144915039D01*
X118048728Y-145098898D01*
X117842099Y-145306106D01*
X117675384Y-145527949D01*
X117554485Y-145755710D01*
X117485302Y-145980677D01*
X117473739Y-146194133D01*
X117331601Y-146194133D01*
X117325440Y-146152816D01*
X117324193Y-146096107D01*
X117358967Y-145833461D01*
X117463692Y-145567921D01*
X117636382Y-145303456D01*
X117827332Y-145090159D01*
X118132482Y-144830001D01*
X118463350Y-144631907D01*
X118828699Y-144491725D01*
X119237289Y-144405301D01*
X119285772Y-144398832D01*
X119481382Y-144382947D01*
X119680425Y-144386644D01*
X119894954Y-144411968D01*
X120137021Y-144460963D01*
X120418675Y-144535673D01*
X120751969Y-144638142D01*
X120812648Y-144657822D01*
X121102503Y-144750681D01*
X121332050Y-144819782D01*
X121508699Y-144866587D01*
X121639863Y-144892554D01*
X121732951Y-144899147D01*
X121795374Y-144887824D01*
X121834542Y-144860048D01*
X121835110Y-144859371D01*
X121868760Y-144785728D01*
X121860277Y-144718683D01*
X121815904Y-144683754D01*
X121797107Y-144683933D01*
X121792206Y-144683980D01*
X121732750Y-144662134D01*
X121677986Y-144572178D01*
X121675606Y-144566554D01*
X121633087Y-144484210D01*
X121618095Y-144467126D01*
X121594672Y-144440435D01*
X121587436Y-144438265D01*
X121550408Y-144409557D01*
X121537340Y-144391928D01*
X121759556Y-144391928D01*
X121759725Y-144393101D01*
X121779033Y-144457241D01*
X121797107Y-144475923D01*
X121828337Y-144451608D01*
X121900020Y-144383854D01*
X122003187Y-144281942D01*
X122128870Y-144155153D01*
X122268103Y-144012768D01*
X122411917Y-143864069D01*
X122551344Y-143718336D01*
X122677416Y-143584851D01*
X122781166Y-143472894D01*
X122853626Y-143391746D01*
X122885827Y-143350689D01*
X122886655Y-143348320D01*
X122861071Y-143312708D01*
X122797712Y-143258834D01*
X122792017Y-143254642D01*
X122696481Y-143185049D01*
X122456049Y-143459381D01*
X122227872Y-143723133D01*
X122047955Y-143938963D01*
X121913733Y-144110316D01*
X121822637Y-144240632D01*
X121772100Y-144333355D01*
X121759556Y-144391928D01*
X121537340Y-144391928D01*
X121496576Y-144336938D01*
X121470495Y-144294020D01*
X121410384Y-144207433D01*
X121353963Y-144155813D01*
X121334973Y-144149496D01*
X121332783Y-144148440D01*
X121285098Y-144125451D01*
X121214999Y-144072277D01*
X121507065Y-144072277D01*
X121527302Y-144117560D01*
X121538241Y-144134622D01*
X121586388Y-144197039D01*
X121618095Y-144220708D01*
X121650629Y-144193328D01*
X121707221Y-144124689D01*
X121739972Y-144080038D01*
X121804554Y-143995431D01*
X121902924Y-143874516D01*
X122020627Y-143734787D01*
X122119940Y-143620141D01*
X122284837Y-143431608D01*
X122406651Y-143289422D01*
X122490460Y-143186054D01*
X122541342Y-143113979D01*
X122564376Y-143065670D01*
X122564640Y-143033601D01*
X122547212Y-143010245D01*
X122536972Y-143002063D01*
X122476649Y-142965118D01*
X122451232Y-142956899D01*
X122415890Y-142983944D01*
X122365764Y-143049081D01*
X122365149Y-143050018D01*
X122310916Y-143122053D01*
X122217544Y-143234976D01*
X122095346Y-143376981D01*
X121954634Y-143536265D01*
X121805719Y-143701025D01*
X121658914Y-143859455D01*
X121646466Y-143872673D01*
X121559354Y-143967486D01*
X121515318Y-144028136D01*
X121507065Y-144072277D01*
X121214999Y-144072277D01*
X121201584Y-144062101D01*
X121100919Y-143972192D01*
X121082057Y-143953983D01*
X120882290Y-143758748D01*
X120647439Y-143793466D01*
X120311144Y-143811709D01*
X120258042Y-143814590D01*
X119855562Y-143764947D01*
X119716781Y-143724706D01*
X121075614Y-143724706D01*
X121193792Y-143846635D01*
X121267630Y-143918643D01*
X121320313Y-143962416D01*
X121332783Y-143968564D01*
X121363688Y-143943101D01*
X121432778Y-143873611D01*
X121530646Y-143770445D01*
X121647886Y-143643951D01*
X121775091Y-143504479D01*
X121902854Y-143362377D01*
X122021768Y-143227997D01*
X122122425Y-143111687D01*
X122195420Y-143023795D01*
X122217647Y-142995043D01*
X122274474Y-142909542D01*
X122306300Y-142845174D01*
X122308808Y-142832455D01*
X122282660Y-142789331D01*
X122216492Y-142720768D01*
X122164284Y-142674845D01*
X122079942Y-142608694D01*
X122036212Y-142587704D01*
X122021137Y-142607456D01*
X122020412Y-142621668D01*
X121999609Y-142716710D01*
X121944002Y-142849952D01*
X121863793Y-143003061D01*
X121769183Y-143157700D01*
X121670374Y-143295537D01*
X121600924Y-143375556D01*
X121480137Y-143484705D01*
X121346361Y-143583955D01*
X121249933Y-143640593D01*
X121075614Y-143724706D01*
X119716781Y-143724706D01*
X119440806Y-143644684D01*
X119148415Y-143520853D01*
X118858051Y-143364687D01*
X118615689Y-143197348D01*
X118430514Y-143025720D01*
X118349999Y-142922519D01*
X118272946Y-142826167D01*
X118193492Y-142779219D01*
X118188196Y-142776090D01*
X118106206Y-142756757D01*
X118020970Y-142739927D01*
X118413949Y-142739927D01*
X118430516Y-142787581D01*
X118490744Y-142866924D01*
X118581657Y-142964769D01*
X118690280Y-143067930D01*
X118803635Y-143163220D01*
X118895092Y-143228872D01*
X119225507Y-143408792D01*
X119580553Y-143543984D01*
X119946881Y-143632373D01*
X120311144Y-143671879D01*
X120659994Y-143660426D01*
X120980083Y-143595937D01*
X121066282Y-143566772D01*
X121276881Y-143457970D01*
X121471853Y-143301758D01*
X121640175Y-143112393D01*
X121770819Y-142904137D01*
X121852761Y-142691248D01*
X121875889Y-142519690D01*
X121881536Y-142414745D01*
X121895877Y-142343753D01*
X121905314Y-142328753D01*
X121956479Y-142316169D01*
X122052065Y-142305260D01*
X122104034Y-142301804D01*
X122203326Y-142293573D01*
X122264236Y-142282568D01*
X122273328Y-142276886D01*
X122263920Y-142235104D01*
X122240585Y-142151713D01*
X122233323Y-142127204D01*
X122218237Y-142024078D01*
X122238630Y-141913936D01*
X122299473Y-141783560D01*
X122405740Y-141619728D01*
X122444456Y-141565861D01*
X122549967Y-141421337D01*
X122104257Y-141414356D01*
X121918714Y-141411450D01*
X121713161Y-141408896D01*
X121575682Y-141408160D01*
X121534212Y-141407938D01*
X121393734Y-141408537D01*
X121315860Y-141410366D01*
X121303590Y-141410654D01*
X121275420Y-141413604D01*
X121280538Y-141450989D01*
X121306363Y-141534839D01*
X121334783Y-141613566D01*
X121374772Y-141729872D01*
X121400511Y-141826010D01*
X121405808Y-141864328D01*
X121382814Y-141928785D01*
X121322819Y-142028575D01*
X121238553Y-142146606D01*
X121142748Y-142265784D01*
X121090969Y-142322282D01*
X121048135Y-142369020D01*
X120990682Y-142421631D01*
X120712607Y-142602455D01*
X120412831Y-142715572D01*
X120401329Y-142719912D01*
X120060671Y-142772691D01*
X119957700Y-142775711D01*
X119949863Y-142775062D01*
X119747808Y-142758316D01*
X119506755Y-142710349D01*
X119405818Y-142680856D01*
X119264619Y-142639599D01*
X119051478Y-142553855D01*
X119047478Y-142551818D01*
X119572654Y-142551818D01*
X119590204Y-142575830D01*
X119590793Y-142576062D01*
X119648730Y-142585023D01*
X119758514Y-142591818D01*
X119899735Y-142595337D01*
X119949863Y-142595591D01*
X120258042Y-142595591D01*
X120237216Y-142478165D01*
X120220147Y-142371228D01*
X120200751Y-142234763D01*
X120198407Y-142216861D01*
X120192409Y-142171053D01*
X120175184Y-142060334D01*
X120169390Y-142045942D01*
X120327928Y-142045942D01*
X120334654Y-142088492D01*
X120351298Y-142183988D01*
X120370684Y-142312015D01*
X120379196Y-142373739D01*
X120394614Y-142478153D01*
X120407572Y-142545525D01*
X120412831Y-142559460D01*
X120472193Y-142541597D01*
X120567688Y-142495194D01*
X120681671Y-142431034D01*
X120796493Y-142359898D01*
X120894509Y-142292566D01*
X120958072Y-142239819D01*
X120972617Y-142217463D01*
X120955482Y-142179934D01*
X120911486Y-142101156D01*
X120873275Y-142036629D01*
X120797615Y-141930273D01*
X120738707Y-141890816D01*
X120719799Y-141892934D01*
X120653766Y-141912506D01*
X120547909Y-141938498D01*
X120490207Y-141951336D01*
X120386503Y-141976631D01*
X120337790Y-142003423D01*
X120327928Y-142045942D01*
X120169390Y-142045942D01*
X120152393Y-142003718D01*
X120112839Y-141983266D01*
X120073723Y-141980873D01*
X119970021Y-141972762D01*
X119905488Y-141960623D01*
X119866495Y-141959978D01*
X119828439Y-141988045D01*
X119782968Y-142055784D01*
X119721731Y-142174152D01*
X119685929Y-142248700D01*
X119617430Y-142398876D01*
X119580700Y-142496374D01*
X119572654Y-142551818D01*
X119047478Y-142551818D01*
X119000245Y-142527763D01*
X118806929Y-142423059D01*
X118616160Y-142565140D01*
X118516752Y-142642619D01*
X118443693Y-142706025D01*
X118413949Y-142739927D01*
X118020970Y-142739927D01*
X117994569Y-142734714D01*
X117929207Y-142706699D01*
X117910843Y-142663344D01*
X117934087Y-142609452D01*
X118082148Y-142609452D01*
X118113657Y-142624937D01*
X118189843Y-142631710D01*
X118193492Y-142631722D01*
X118267401Y-142618894D01*
X118356430Y-142577019D01*
X118467302Y-142501008D01*
X118606743Y-142385772D01*
X118695815Y-142304439D01*
X118900547Y-142304439D01*
X119148535Y-142420487D01*
X119267800Y-142471553D01*
X119359092Y-142501711D01*
X119405818Y-142505702D01*
X119408378Y-142502833D01*
X119427658Y-142461278D01*
X119470340Y-142374301D01*
X119526944Y-142260749D01*
X119587990Y-142139470D01*
X119643998Y-142029310D01*
X119685488Y-141949116D01*
X119702237Y-141918622D01*
X119676413Y-141900906D01*
X119604930Y-141867240D01*
X119577545Y-141855551D01*
X119494617Y-141825009D01*
X119436152Y-141825353D01*
X119371596Y-141862490D01*
X119315597Y-141906197D01*
X119210496Y-141996702D01*
X119093500Y-142106591D01*
X119042343Y-142157902D01*
X118900547Y-142304439D01*
X118695815Y-142304439D01*
X118781476Y-142226221D01*
X118973869Y-142041117D01*
X119211229Y-141809054D01*
X120904851Y-141809054D01*
X120997910Y-141949676D01*
X121090969Y-142090298D01*
X121176317Y-141974616D01*
X121238395Y-141880534D01*
X121256021Y-141811208D01*
X121233198Y-141737789D01*
X121214181Y-141701786D01*
X121169259Y-141620925D01*
X121037055Y-141714989D01*
X120904851Y-141809054D01*
X119211229Y-141809054D01*
X119305561Y-141716827D01*
X119154523Y-141566006D01*
X119062487Y-141481231D01*
X119021550Y-141457523D01*
X119004120Y-141447428D01*
X118968713Y-141458540D01*
X118967354Y-141460166D01*
X118932884Y-141506755D01*
X118867082Y-141598643D01*
X118779911Y-141721832D01*
X118696372Y-141840821D01*
X118577843Y-142003902D01*
X118498597Y-142106624D01*
X118449777Y-142169907D01*
X118331170Y-142314628D01*
X118271835Y-142381839D01*
X118181885Y-142481894D01*
X118115007Y-142561392D01*
X118083234Y-142605894D01*
X118082148Y-142609452D01*
X117934087Y-142609452D01*
X117940199Y-142595282D01*
X118017998Y-142493147D01*
X118137065Y-142356441D01*
X118245693Y-142228900D01*
X118333244Y-142115724D01*
X118389808Y-142030414D01*
X118406123Y-141989925D01*
X118401073Y-141962431D01*
X118382390Y-141964194D01*
X118342495Y-142002395D01*
X118273809Y-142084219D01*
X118174794Y-142209142D01*
X118086761Y-142288218D01*
X117972952Y-142351762D01*
X117953241Y-142359187D01*
X117833629Y-142391216D01*
X117675056Y-142421580D01*
X117497553Y-142447847D01*
X117359530Y-142463290D01*
X117321153Y-142467584D01*
X117165891Y-142478357D01*
X117102267Y-142478010D01*
X117051798Y-142477735D01*
X117017891Y-142472764D01*
X116954961Y-142450829D01*
X116929649Y-142412224D01*
X116930845Y-142342190D01*
X117359530Y-142342190D01*
X117415496Y-142336026D01*
X117518281Y-142319113D01*
X117647233Y-142295465D01*
X117781699Y-142269097D01*
X117901025Y-142244022D01*
X117984559Y-142224254D01*
X118010890Y-142215596D01*
X118047691Y-142178380D01*
X118017230Y-142156195D01*
X117923196Y-142150371D01*
X117842392Y-142154896D01*
X117799736Y-142162712D01*
X117666596Y-142187109D01*
X117508728Y-142246695D01*
X117490116Y-142256793D01*
X117407423Y-142306076D01*
X117362310Y-142336950D01*
X117359530Y-142342190D01*
X116930845Y-142342190D01*
X116930994Y-142333449D01*
X116935290Y-142295695D01*
X116948468Y-142236899D01*
X117078814Y-142236899D01*
X117102267Y-142265726D01*
X117166072Y-142257891D01*
X117279349Y-142213753D01*
X117350498Y-142181395D01*
X117540185Y-142093083D01*
X117544459Y-141775276D01*
X117545648Y-141738235D01*
X117653630Y-141738235D01*
X117653981Y-141865514D01*
X117654824Y-141875343D01*
X117669671Y-141958195D01*
X117708493Y-141995755D01*
X117794961Y-142010100D01*
X117799736Y-142010502D01*
X117925095Y-142007747D01*
X118061056Y-141986638D01*
X118081811Y-141981456D01*
X118148589Y-141958487D01*
X118209260Y-141922091D01*
X118267908Y-141867896D01*
X118498597Y-141867896D01*
X118532320Y-141861815D01*
X118552660Y-141836541D01*
X118589392Y-141780778D01*
X118654607Y-141687675D01*
X118729439Y-141583926D01*
X118821175Y-141452309D01*
X118868775Y-141369352D01*
X118871156Y-141337298D01*
X118843190Y-141347658D01*
X118831191Y-141359684D01*
X118800744Y-141390199D01*
X118737617Y-141471490D01*
X118664990Y-141574653D01*
X118594043Y-141682806D01*
X118535958Y-141779069D01*
X118501916Y-141846563D01*
X118498597Y-141867896D01*
X118267908Y-141867896D01*
X118274585Y-141861726D01*
X118355323Y-141766853D01*
X118462234Y-141626929D01*
X118511132Y-141560879D01*
X118791470Y-141180418D01*
X118671660Y-141060608D01*
X118581721Y-140945538D01*
X118551919Y-140834821D01*
X118551849Y-140828791D01*
X118540001Y-140751166D01*
X118511322Y-140716872D01*
X118509655Y-140716786D01*
X118459315Y-140733570D01*
X118363547Y-140777905D01*
X118239244Y-140840762D01*
X118103300Y-140913115D01*
X117972606Y-140985936D01*
X117864056Y-141050197D01*
X117806943Y-141088544D01*
X117794542Y-141096870D01*
X117787438Y-141102743D01*
X117753856Y-141164154D01*
X117720308Y-141278079D01*
X117690170Y-141424847D01*
X117666819Y-141584790D01*
X117653630Y-141738235D01*
X117545648Y-141738235D01*
X117549558Y-141616444D01*
X117559368Y-141472938D01*
X117572050Y-141369374D01*
X117576315Y-141349076D01*
X117596612Y-141267453D01*
X117606855Y-141222722D01*
X117606872Y-141222618D01*
X117588609Y-141235319D01*
X117539360Y-141289007D01*
X117518980Y-141312945D01*
X117459571Y-141399275D01*
X117382445Y-141532359D01*
X117297657Y-141692241D01*
X117215262Y-141858964D01*
X117145317Y-142012572D01*
X117097877Y-142133108D01*
X117086596Y-142171053D01*
X117078814Y-142236899D01*
X116948468Y-142236899D01*
X116982454Y-142085264D01*
X117073287Y-141843675D01*
X117200014Y-141590512D01*
X117247909Y-141508550D01*
X117313794Y-141396134D01*
X117359823Y-141310260D01*
X117377532Y-141266893D01*
X117377079Y-141264854D01*
X117340897Y-141270653D01*
X117285035Y-141296075D01*
X117199647Y-141320872D01*
X117119202Y-141309171D01*
X117091086Y-141305082D01*
X117071414Y-141299427D01*
X116933924Y-141242717D01*
X116774520Y-141152777D01*
X116606794Y-141040233D01*
X116444335Y-140915712D01*
X116300735Y-140789839D01*
X116189583Y-140673240D01*
X116124472Y-140576543D01*
X116115746Y-140552212D01*
X116114884Y-140443629D01*
X116123518Y-140424420D01*
X116221408Y-140424420D01*
X116564651Y-140426632D01*
X116766927Y-140432642D01*
X116902202Y-140448410D01*
X116975228Y-140475135D01*
X116990755Y-140514016D01*
X116982653Y-140532092D01*
X116934070Y-140552232D01*
X116822838Y-140566282D01*
X116658397Y-140573196D01*
X116607682Y-140573697D01*
X116257539Y-140575131D01*
X116427718Y-140731815D01*
X116595049Y-140873756D01*
X116767589Y-140999205D01*
X116929556Y-141098057D01*
X117065166Y-141160206D01*
X117119202Y-141174531D01*
X117229084Y-141172924D01*
X117360618Y-141129978D01*
X117431064Y-141096528D01*
X117623304Y-140999113D01*
X117482384Y-140935665D01*
X117379113Y-140872812D01*
X117261977Y-140777939D01*
X117187909Y-140704981D01*
X117108003Y-140614919D01*
X117052468Y-140546517D01*
X117034352Y-140517079D01*
X117048306Y-140473118D01*
X117180906Y-140473118D01*
X117252727Y-140564423D01*
X117418405Y-140723062D01*
X117623283Y-140838936D01*
X117676766Y-140858688D01*
X117746515Y-140878657D01*
X117806943Y-140882476D01*
X117876539Y-140865787D01*
X117973793Y-140824235D01*
X118111819Y-140756164D01*
X118193789Y-140714096D01*
X118679161Y-140714096D01*
X118681209Y-140801379D01*
X118720206Y-140905695D01*
X118780695Y-140994710D01*
X118831191Y-141032106D01*
X118895026Y-141021494D01*
X118974561Y-140944084D01*
X118982858Y-140933443D01*
X119051235Y-140847725D01*
X119106820Y-140783932D01*
X119117181Y-140773538D01*
X119138061Y-140737527D01*
X119107722Y-140709453D01*
X119018831Y-140685876D01*
X118888775Y-140666426D01*
X118777363Y-140655604D01*
X118717014Y-140662527D01*
X118687747Y-140691740D01*
X118679161Y-140714096D01*
X118193789Y-140714096D01*
X118251289Y-140684586D01*
X118338156Y-140633064D01*
X118384838Y-140590129D01*
X118403755Y-140544309D01*
X118407325Y-140484136D01*
X118407325Y-140483231D01*
X118406692Y-140472265D01*
X118551849Y-140472265D01*
X118567577Y-140498618D01*
X118622042Y-140518133D01*
X118726163Y-140533112D01*
X118890860Y-140545858D01*
X118904963Y-140546728D01*
X119114184Y-140562442D01*
X119258404Y-140580791D01*
X119344870Y-140603209D01*
X119380832Y-140631128D01*
X119382859Y-140641177D01*
X119360450Y-140678368D01*
X119301231Y-140753687D01*
X119217218Y-140851988D01*
X119202205Y-140868920D01*
X119115343Y-140969395D01*
X119051332Y-141049190D01*
X119022178Y-141093218D01*
X119021550Y-141095953D01*
X119046184Y-141092464D01*
X119112310Y-141049251D01*
X119208265Y-140975543D01*
X119322386Y-140880567D01*
X119443009Y-140773552D01*
X119518350Y-140702893D01*
X119611159Y-140608665D01*
X119678757Y-140530493D01*
X119707772Y-140483972D01*
X119708037Y-140481659D01*
X119683633Y-140437474D01*
X119620483Y-140363265D01*
X119554480Y-140296659D01*
X119440379Y-140192262D01*
X119319152Y-140088064D01*
X119204739Y-139995249D01*
X119111391Y-139925238D01*
X119374604Y-139925238D01*
X119595517Y-140155295D01*
X119723977Y-140297366D01*
X119797082Y-140409172D01*
X119814823Y-140506906D01*
X119777193Y-140606760D01*
X119684186Y-140724927D01*
X119595227Y-140818017D01*
X119489226Y-140927972D01*
X119428235Y-141000929D01*
X119404710Y-141049490D01*
X119411107Y-141086256D01*
X119423605Y-141104707D01*
X119590918Y-141263810D01*
X119802169Y-141385666D01*
X120033874Y-141459037D01*
X120198407Y-141475534D01*
X120479244Y-141445653D01*
X120721218Y-141355206D01*
X120911808Y-141213995D01*
X121476741Y-141213995D01*
X121507677Y-141247028D01*
X121575682Y-141258749D01*
X121641564Y-141255688D01*
X121641979Y-141238139D01*
X121603179Y-141207756D01*
X121539172Y-141174583D01*
X121505946Y-141173758D01*
X121476741Y-141213995D01*
X120911808Y-141213995D01*
X120926675Y-141202980D01*
X121074416Y-141024025D01*
X121097795Y-140987767D01*
X121297795Y-140987767D01*
X121315860Y-141005832D01*
X121333926Y-140987767D01*
X121315860Y-140969702D01*
X121297795Y-140987767D01*
X121097795Y-140987767D01*
X121139508Y-140923074D01*
X121166701Y-140863066D01*
X121160651Y-140826543D01*
X121133757Y-140801585D01*
X121072669Y-140751856D01*
X120984332Y-140674364D01*
X120932599Y-140627209D01*
X120859002Y-140554197D01*
X121044493Y-140554197D01*
X121143376Y-140626458D01*
X121210176Y-140678470D01*
X121316628Y-140764937D01*
X121447471Y-140873341D01*
X121572789Y-140978734D01*
X121713582Y-141097009D01*
X121814336Y-141176179D01*
X121889940Y-141224093D01*
X121955288Y-141248594D01*
X122025271Y-141257530D01*
X122104257Y-141258749D01*
X122218490Y-141252964D01*
X122300683Y-141238060D01*
X122326675Y-141223992D01*
X122356475Y-141150772D01*
X122391680Y-141028311D01*
X122427340Y-140878883D01*
X122458504Y-140724762D01*
X122480222Y-140588222D01*
X122487590Y-140500000D01*
X122479546Y-140371976D01*
X122457312Y-140216430D01*
X122437055Y-140116963D01*
X122393123Y-139940842D01*
X122353703Y-139823639D01*
X122309097Y-139753421D01*
X122249608Y-139718257D01*
X122165536Y-139706214D01*
X122102316Y-139705121D01*
X122021274Y-139706657D01*
X121955729Y-139716251D01*
X121892192Y-139741385D01*
X121817170Y-139789543D01*
X121717173Y-139868204D01*
X121578708Y-139984852D01*
X121542927Y-140015348D01*
X121538925Y-140018712D01*
X121421744Y-140117221D01*
X121403675Y-140132411D01*
X121281234Y-140232246D01*
X121187494Y-140305377D01*
X121134344Y-140342329D01*
X121130046Y-140344391D01*
X121078745Y-140373584D01*
X121097446Y-140394254D01*
X121184354Y-140406079D01*
X121337677Y-140408735D01*
X121469416Y-140405489D01*
X121716329Y-140400872D01*
X121894382Y-140407498D01*
X122006140Y-140425633D01*
X122054167Y-140455539D01*
X122056543Y-140466052D01*
X122039100Y-140493707D01*
X121981525Y-140514459D01*
X121875947Y-140529385D01*
X121714494Y-140539564D01*
X121489295Y-140546072D01*
X121469224Y-140546450D01*
X121044493Y-140554197D01*
X120859002Y-140554197D01*
X120853530Y-140548769D01*
X120802513Y-140488012D01*
X120791963Y-140466754D01*
X120818758Y-140431362D01*
X120889102Y-140367375D01*
X120987932Y-140288466D01*
X120990782Y-140286311D01*
X121189600Y-140136201D01*
X121161180Y-140080493D01*
X121119368Y-139998535D01*
X121002729Y-139833406D01*
X120922545Y-139760350D01*
X121487905Y-139760350D01*
X121495089Y-139775077D01*
X121538925Y-139793137D01*
X121598067Y-139769242D01*
X121677169Y-139724775D01*
X121592772Y-139712029D01*
X121520021Y-139709067D01*
X121489794Y-139717863D01*
X121487905Y-139760350D01*
X120922545Y-139760350D01*
X120836103Y-139681592D01*
X120785919Y-139650925D01*
X124549573Y-139650925D01*
X124567638Y-139668990D01*
X124585704Y-139650925D01*
X124567638Y-139632859D01*
X124549573Y-139650925D01*
X120785919Y-139650925D01*
X120701636Y-139599421D01*
X120641492Y-139562668D01*
X120616437Y-139551153D01*
X120512938Y-139513213D01*
X120404804Y-139494466D01*
X120266076Y-139491769D01*
X120162966Y-139496231D01*
X119901997Y-139534585D01*
X119869858Y-139547551D01*
X119689029Y-139620501D01*
X119513904Y-139758656D01*
X119476494Y-139801096D01*
X119460026Y-139819778D01*
X119374604Y-139925238D01*
X119111391Y-139925238D01*
X119111076Y-139925002D01*
X119052103Y-139888507D01*
X119042446Y-139885776D01*
X119052066Y-139910572D01*
X119100402Y-139976520D01*
X119177944Y-140070956D01*
X119205983Y-140103528D01*
X119299165Y-140219018D01*
X119353792Y-140305004D01*
X119363593Y-140351446D01*
X119362020Y-140353384D01*
X119309034Y-140374123D01*
X119204412Y-140395629D01*
X119068710Y-140415491D01*
X118922483Y-140431299D01*
X118786287Y-140440644D01*
X118751869Y-140440797D01*
X118680679Y-140441114D01*
X118646085Y-140437329D01*
X118572686Y-140436372D01*
X118551849Y-140472265D01*
X118406692Y-140472265D01*
X118403827Y-140422587D01*
X118385024Y-140376518D01*
X118338453Y-140333452D01*
X118251654Y-140281818D01*
X118114239Y-140211091D01*
X117821153Y-140063306D01*
X117650854Y-140119870D01*
X117509072Y-140188214D01*
X117367743Y-140290560D01*
X117330731Y-140324776D01*
X117180906Y-140473118D01*
X117048306Y-140473118D01*
X117063403Y-140425555D01*
X117140716Y-140314421D01*
X117251539Y-140199429D01*
X117381115Y-140096330D01*
X117487342Y-140033499D01*
X117630512Y-139963243D01*
X117589847Y-139945143D01*
X117421729Y-139870313D01*
X117301786Y-139821193D01*
X117201203Y-139787511D01*
X117149926Y-139777383D01*
X117070844Y-139799332D01*
X116952079Y-139858787D01*
X116808755Y-139946163D01*
X116655995Y-140051873D01*
X116508926Y-140166330D01*
X116434502Y-140230843D01*
X116221408Y-140424420D01*
X116123518Y-140424420D01*
X116167651Y-140326239D01*
X116277576Y-140195822D01*
X116448186Y-140048157D01*
X116672611Y-139886069D01*
X116868972Y-139762811D01*
X117026885Y-139688556D01*
X117157536Y-139659790D01*
X117272109Y-139672996D01*
X117308678Y-139686124D01*
X117433062Y-139738095D01*
X117342854Y-139619827D01*
X117263248Y-139497370D01*
X117176400Y-139334968D01*
X117091176Y-139152831D01*
X117016444Y-138971172D01*
X116961069Y-138810201D01*
X116956139Y-138788398D01*
X117079721Y-138788398D01*
X117119746Y-138909523D01*
X117167378Y-139025286D01*
X117218080Y-139133170D01*
X117286582Y-139263753D01*
X117364179Y-139402283D01*
X117442164Y-139534005D01*
X117511833Y-139644168D01*
X117564481Y-139718018D01*
X117589847Y-139741252D01*
X117592161Y-139710225D01*
X117579395Y-139633019D01*
X117573372Y-139605761D01*
X117558068Y-139503409D01*
X117546618Y-139357849D01*
X117541255Y-139199670D01*
X117653595Y-139199670D01*
X117664616Y-139343666D01*
X117684771Y-139500761D01*
X117710939Y-139651200D01*
X117740004Y-139775229D01*
X117768846Y-139853092D01*
X117777374Y-139864888D01*
X117828106Y-139900507D01*
X117928167Y-139959617D01*
X118062224Y-140033458D01*
X118188957Y-140099983D01*
X118551849Y-140286388D01*
X118551849Y-140246202D01*
X118678467Y-140246202D01*
X118681017Y-140255622D01*
X118704611Y-140299370D01*
X118751869Y-140315172D01*
X118844293Y-140308789D01*
X118867831Y-140305667D01*
X118983786Y-140291815D01*
X119078765Y-140283917D01*
X119101100Y-140283215D01*
X119135709Y-140276672D01*
X119136258Y-140248249D01*
X119098810Y-140184758D01*
X119051667Y-140117654D01*
X118999657Y-140047758D01*
X118981986Y-140024010D01*
X118927537Y-139956913D01*
X118906368Y-139935776D01*
X118873339Y-139935185D01*
X118845970Y-139934695D01*
X118779584Y-139984213D01*
X118720606Y-140065313D01*
X118682435Y-140158981D01*
X118678467Y-140246202D01*
X118551849Y-140246202D01*
X118551849Y-140153238D01*
X118566865Y-140047645D01*
X118622436Y-139958154D01*
X118671834Y-139907987D01*
X118791818Y-139795884D01*
X118523124Y-139422839D01*
X118398759Y-139257949D01*
X118289144Y-139127594D01*
X118238163Y-139076706D01*
X118473318Y-139076706D01*
X118482134Y-139109723D01*
X118524257Y-139184012D01*
X118588706Y-139283744D01*
X118664503Y-139393089D01*
X118740665Y-139496219D01*
X118806215Y-139577305D01*
X118850170Y-139620517D01*
X118850835Y-139620937D01*
X118873339Y-139629041D01*
X118868399Y-139605491D01*
X118831989Y-139543168D01*
X118760086Y-139434956D01*
X118679612Y-139318205D01*
X118596503Y-139204476D01*
X118527144Y-139120397D01*
X118482312Y-139078585D01*
X118473318Y-139076706D01*
X118238163Y-139076706D01*
X118202910Y-139041517D01*
X118159256Y-139012067D01*
X118068189Y-138989475D01*
X117940977Y-138973522D01*
X117940300Y-138973485D01*
X117865362Y-138969390D01*
X117666643Y-138964438D01*
X117654824Y-139088526D01*
X117653595Y-139199670D01*
X117541255Y-139199670D01*
X117541202Y-139198119D01*
X117541047Y-139175414D01*
X117540185Y-138880557D01*
X117386628Y-138808417D01*
X117229165Y-138738304D01*
X117129087Y-138708073D01*
X117081053Y-138723009D01*
X117079721Y-138788398D01*
X116956139Y-138788398D01*
X116933917Y-138690131D01*
X116933584Y-138686880D01*
X116930172Y-138639329D01*
X117367003Y-138639329D01*
X117388975Y-138659567D01*
X117456756Y-138699856D01*
X117493461Y-138719422D01*
X117596127Y-138761278D01*
X117716492Y-138794113D01*
X117837050Y-138815607D01*
X117940300Y-138823438D01*
X118008737Y-138815286D01*
X118025317Y-138789947D01*
X117981431Y-138760084D01*
X117879062Y-138726427D01*
X117731549Y-138693141D01*
X117692167Y-138685893D01*
X117551004Y-138662077D01*
X117440053Y-138645534D01*
X117376026Y-138638657D01*
X117367003Y-138639329D01*
X116930172Y-138639329D01*
X116926206Y-138584064D01*
X116938151Y-138531403D01*
X116981361Y-138507169D01*
X117039024Y-138495033D01*
X117133513Y-138490352D01*
X117275076Y-138498503D01*
X117444649Y-138516691D01*
X117623168Y-138542120D01*
X117791568Y-138571996D01*
X117930785Y-138603523D01*
X118021754Y-138633906D01*
X118034802Y-138641045D01*
X118104234Y-138699539D01*
X118190162Y-138789514D01*
X118230536Y-138837383D01*
X118319837Y-138937713D01*
X118379507Y-138980920D01*
X118406198Y-138964843D01*
X118407325Y-138951475D01*
X118384711Y-138913459D01*
X118323376Y-138834028D01*
X118233080Y-138725352D01*
X118139336Y-138617361D01*
X118011126Y-138466496D01*
X117934390Y-138358579D01*
X117932540Y-138353564D01*
X118082148Y-138353564D01*
X118104755Y-138388458D01*
X118164865Y-138462359D01*
X118250907Y-138561232D01*
X118279945Y-138593552D01*
X118382601Y-138714298D01*
X118508132Y-138872810D01*
X118639244Y-139046784D01*
X118738699Y-139185205D01*
X118999657Y-139558285D01*
X119150766Y-139409371D01*
X119301875Y-139260458D01*
X119198171Y-139156939D01*
X120903446Y-139156939D01*
X121033605Y-139256216D01*
X121114928Y-139315120D01*
X121161180Y-139332736D01*
X121193720Y-139312921D01*
X121212714Y-139288551D01*
X121253900Y-139210351D01*
X121250207Y-139132225D01*
X121198835Y-139031671D01*
X121176581Y-138997983D01*
X121091498Y-138872772D01*
X120997472Y-139014856D01*
X120903446Y-139156939D01*
X119198171Y-139156939D01*
X118990720Y-138949859D01*
X118846586Y-138809721D01*
X118698073Y-138671591D01*
X118690591Y-138664956D01*
X118904905Y-138664956D01*
X119116784Y-138880548D01*
X119247616Y-139010525D01*
X119342693Y-139093728D01*
X119414743Y-139136964D01*
X119476494Y-139147041D01*
X119540675Y-139130766D01*
X119565310Y-139120440D01*
X119638704Y-139080568D01*
X119671758Y-139048020D01*
X119671906Y-139046543D01*
X119657168Y-139003877D01*
X119617850Y-138913063D01*
X119561290Y-138790779D01*
X119536654Y-138739218D01*
X119474950Y-138611321D01*
X119426383Y-138510888D01*
X119398560Y-138453637D01*
X119394958Y-138446379D01*
X119361914Y-138454795D01*
X119280483Y-138488237D01*
X119167135Y-138539859D01*
X119146709Y-138549554D01*
X118904905Y-138664956D01*
X118690591Y-138664956D01*
X118564750Y-138553357D01*
X118482933Y-138485704D01*
X118337731Y-138386676D01*
X118221371Y-138336975D01*
X118184225Y-138332148D01*
X118110838Y-138338715D01*
X118082148Y-138353564D01*
X117932540Y-138353564D01*
X117907997Y-138287014D01*
X117930816Y-138245210D01*
X118001714Y-138226572D01*
X118071766Y-138223756D01*
X118144355Y-138212155D01*
X118407325Y-138212155D01*
X118434234Y-138252094D01*
X118504806Y-138319398D01*
X118603816Y-138399556D01*
X118604684Y-138400212D01*
X118802042Y-138549219D01*
X119011156Y-138443687D01*
X119056179Y-138425232D01*
X119558306Y-138425232D01*
X119566359Y-138469910D01*
X119600849Y-138550510D01*
X119664606Y-138680276D01*
X119677622Y-138706307D01*
X119743157Y-138836617D01*
X119795563Y-138939517D01*
X119827189Y-139000048D01*
X119832791Y-139009720D01*
X119869858Y-139010738D01*
X119954530Y-139002799D01*
X120004081Y-138996484D01*
X120167409Y-138974098D01*
X120174540Y-138926429D01*
X120335645Y-138926429D01*
X120338046Y-138978558D01*
X120338726Y-138979914D01*
X120383018Y-139003729D01*
X120469954Y-139026014D01*
X120493002Y-139029942D01*
X120603577Y-139049730D01*
X120693778Y-139070295D01*
X120701636Y-139072540D01*
X120755513Y-139071812D01*
X120809555Y-139026807D01*
X120870460Y-138938933D01*
X120926470Y-138845141D01*
X120962692Y-138777250D01*
X120969819Y-138758525D01*
X120945388Y-138723066D01*
X120880985Y-138665345D01*
X120855192Y-138645365D01*
X120726333Y-138558454D01*
X120599521Y-138488839D01*
X120495956Y-138447393D01*
X120455809Y-138440541D01*
X120420495Y-138471859D01*
X120387987Y-138568413D01*
X120362968Y-138695742D01*
X120344536Y-138825313D01*
X120335645Y-138926429D01*
X120174540Y-138926429D01*
X120203264Y-138734417D01*
X120228710Y-138568595D01*
X120239828Y-138461896D01*
X120228402Y-138401442D01*
X120186214Y-138374353D01*
X120105049Y-138367751D01*
X119976689Y-138368755D01*
X119969985Y-138368772D01*
X119824094Y-138371714D01*
X119697990Y-138379020D01*
X119616297Y-138389192D01*
X119610193Y-138390655D01*
X119573861Y-138403229D01*
X119558306Y-138425232D01*
X119056179Y-138425232D01*
X119368833Y-138297075D01*
X119725933Y-138216580D01*
X120075885Y-138202583D01*
X120412118Y-138255462D01*
X120670810Y-138347995D01*
X120845662Y-138450498D01*
X121025519Y-138593372D01*
X121188255Y-138756247D01*
X121311740Y-138918754D01*
X121335423Y-138959816D01*
X121374431Y-139043152D01*
X121392027Y-139119345D01*
X121386532Y-139205641D01*
X121356268Y-139319285D01*
X121299555Y-139477522D01*
X121280035Y-139528707D01*
X121280021Y-139561448D01*
X121322589Y-139575871D01*
X121421744Y-139576326D01*
X121432016Y-139575912D01*
X121536427Y-139572742D01*
X121691868Y-139569542D01*
X121877109Y-139566690D01*
X122065576Y-139564610D01*
X122238499Y-139561630D01*
X122381818Y-139556352D01*
X122481984Y-139549485D01*
X122525452Y-139541735D01*
X122526244Y-139540550D01*
X122507360Y-139503068D01*
X122457482Y-139422508D01*
X122438532Y-139393744D01*
X124188264Y-139393744D01*
X124213700Y-139426717D01*
X124224395Y-139434140D01*
X124258174Y-139443347D01*
X124260526Y-139438404D01*
X124235091Y-139405432D01*
X124224395Y-139398009D01*
X124190617Y-139388802D01*
X124188264Y-139393744D01*
X122438532Y-139393744D01*
X122417538Y-139361878D01*
X124116003Y-139361878D01*
X124134068Y-139379943D01*
X124152133Y-139361878D01*
X124134068Y-139343813D01*
X124116003Y-139361878D01*
X122417538Y-139361878D01*
X122386777Y-139315187D01*
X122375074Y-139297893D01*
X122273417Y-139124872D01*
X122226255Y-138978691D01*
X122229737Y-138843554D01*
X122248350Y-138777744D01*
X122258211Y-138731478D01*
X122236104Y-138703259D01*
X122167217Y-138683227D01*
X122085126Y-138669097D01*
X122025879Y-138659693D01*
X121893954Y-138638753D01*
X121872548Y-138415303D01*
X121813630Y-138162239D01*
X121692774Y-137922868D01*
X121520285Y-137709294D01*
X121306469Y-137533618D01*
X121061632Y-137407944D01*
X120995561Y-137385381D01*
X120756560Y-137333784D01*
X120477501Y-137308104D01*
X120185915Y-137308687D01*
X119909328Y-137335879D01*
X119744168Y-137369665D01*
X119476222Y-137457821D01*
X119202269Y-137579322D01*
X118944013Y-137722646D01*
X118723155Y-137876275D01*
X118619795Y-137966485D01*
X118521320Y-138066725D01*
X118447079Y-138150821D01*
X118409557Y-138204338D01*
X118407325Y-138212155D01*
X118144355Y-138212155D01*
X118173463Y-138207503D01*
X118256950Y-138147578D01*
X118293160Y-138106627D01*
X118507305Y-137873986D01*
X118741232Y-137679564D01*
X119010553Y-137512727D01*
X119330881Y-137362843D01*
X119461138Y-137311198D01*
X119578868Y-137267610D01*
X119647728Y-137245949D01*
X121082491Y-137245949D01*
X121113191Y-137271305D01*
X121190457Y-137314625D01*
X121257804Y-137347705D01*
X121379931Y-137419838D01*
X121514125Y-137521257D01*
X121601248Y-137600621D01*
X121696666Y-137712902D01*
X121795529Y-137855070D01*
X121887494Y-138008867D01*
X121962218Y-138156034D01*
X122009358Y-138278313D01*
X122020412Y-138340561D01*
X122025879Y-138379552D01*
X122051749Y-138378905D01*
X122112225Y-138334954D01*
X122144262Y-138308609D01*
X122219987Y-138239339D01*
X122265303Y-138185706D01*
X122270720Y-138172843D01*
X122251753Y-138128923D01*
X122199713Y-138046973D01*
X122134258Y-137956057D01*
X122056238Y-137859907D01*
X121942162Y-137728277D01*
X121806437Y-137577411D01*
X121663469Y-137423556D01*
X121641205Y-137400084D01*
X121287222Y-137028047D01*
X121184116Y-137126829D01*
X121118990Y-137194204D01*
X121084309Y-137239824D01*
X121082491Y-137245949D01*
X119647728Y-137245949D01*
X119677725Y-137236513D01*
X119774235Y-137215603D01*
X119884923Y-137202579D01*
X120026316Y-137195141D01*
X120214939Y-137190985D01*
X120335827Y-137189374D01*
X120909420Y-137182381D01*
X121077750Y-137016582D01*
X121135482Y-136964694D01*
X121437037Y-136964694D01*
X121760174Y-137298717D01*
X121902169Y-137449819D01*
X122042681Y-137606801D01*
X122164495Y-137750018D01*
X122243363Y-137850156D01*
X122326354Y-137960209D01*
X122381080Y-138020561D01*
X122420965Y-138040533D01*
X122459433Y-138029449D01*
X122481643Y-138015630D01*
X122506701Y-138000634D01*
X122524803Y-137987217D01*
X122531513Y-137968838D01*
X122522397Y-137938955D01*
X122493020Y-137891026D01*
X122438947Y-137818510D01*
X122355743Y-137714865D01*
X122238975Y-137573549D01*
X122084206Y-137388020D01*
X121935073Y-137209389D01*
X121796442Y-137042894D01*
X121697034Y-136925025D01*
X121628956Y-136849624D01*
X121584314Y-136810528D01*
X121555212Y-136801578D01*
X121533758Y-136816614D01*
X121512056Y-136849474D01*
X121499449Y-136869440D01*
X121437037Y-136964694D01*
X121135482Y-136964694D01*
X121173066Y-136930915D01*
X121255635Y-136871025D01*
X121303685Y-136850783D01*
X121355854Y-136820492D01*
X121404202Y-136746976D01*
X121406784Y-136740951D01*
X121457499Y-136649751D01*
X121491918Y-136611546D01*
X121723361Y-136611546D01*
X121727139Y-136657439D01*
X121755634Y-136723177D01*
X121812910Y-136814247D01*
X121903029Y-136936136D01*
X122030057Y-137094332D01*
X122198055Y-137294324D01*
X122411087Y-137541598D01*
X122417505Y-137548985D01*
X122652009Y-137818867D01*
X122751716Y-137747869D01*
X122819101Y-137694494D01*
X122851024Y-137658596D01*
X122851422Y-137656488D01*
X122827867Y-137623849D01*
X122763942Y-137550754D01*
X122669759Y-137448453D01*
X122569494Y-137342804D01*
X122508179Y-137278845D01*
X122420208Y-137187081D01*
X122256036Y-137015174D01*
X122103068Y-136854427D01*
X122039669Y-136787554D01*
X121932546Y-136676944D01*
X121843139Y-136589431D01*
X121783268Y-136536322D01*
X121765780Y-136525605D01*
X121740046Y-136556293D01*
X121723361Y-136611546D01*
X121491918Y-136611546D01*
X121513675Y-136587395D01*
X121572589Y-136524162D01*
X121626722Y-136435278D01*
X121687917Y-136352599D01*
X121749549Y-136326820D01*
X121813570Y-136301426D01*
X121830520Y-136239935D01*
X121796567Y-136164146D01*
X121781160Y-136146991D01*
X121744092Y-136119376D01*
X121694418Y-136104717D01*
X121623793Y-136104654D01*
X121523875Y-136120827D01*
X121386319Y-136154877D01*
X121202783Y-136208445D01*
X120964923Y-136283170D01*
X120773170Y-136345187D01*
X120545953Y-136416743D01*
X120322097Y-136482888D01*
X120118408Y-136538973D01*
X119951694Y-136580344D01*
X119849997Y-136600719D01*
X119471856Y-136624278D01*
X119085638Y-136583066D01*
X118704783Y-136481296D01*
X118528245Y-136404197D01*
X118342732Y-136323179D01*
X118012925Y-136112930D01*
X117845699Y-135972478D01*
X117613266Y-135727235D01*
X117443893Y-135478508D01*
X117329063Y-135212910D01*
X117300961Y-135116501D01*
X117269207Y-134984116D01*
X117258543Y-134893795D01*
X117449857Y-134893795D01*
X117458730Y-135061778D01*
X117492056Y-135202293D01*
X117556001Y-135350754D01*
X117669561Y-135533160D01*
X117829552Y-135725742D01*
X118016535Y-135908965D01*
X118211070Y-136063294D01*
X118349200Y-136147795D01*
X118461848Y-136204050D01*
X118528245Y-136228423D01*
X118565399Y-136223959D01*
X118590321Y-136193699D01*
X118591767Y-136191186D01*
X118650950Y-136144989D01*
X118711156Y-136148636D01*
X118808810Y-136141300D01*
X118851186Y-136112713D01*
X118923895Y-136075243D01*
X119052345Y-136057772D01*
X119133550Y-136055904D01*
X119292902Y-136046759D01*
X119393976Y-136017725D01*
X119424325Y-135996879D01*
X119472424Y-135937055D01*
X119455937Y-135905670D01*
X119377373Y-135904329D01*
X119301776Y-135918544D01*
X119024240Y-135947347D01*
X118743696Y-135911288D01*
X118471986Y-135816227D01*
X118220951Y-135668023D01*
X118002434Y-135472534D01*
X117828276Y-135235619D01*
X117794078Y-135172622D01*
X117697395Y-134936398D01*
X117654310Y-134719197D01*
X117666040Y-134530790D01*
X117701792Y-134431913D01*
X117734378Y-134352928D01*
X117727600Y-134325441D01*
X117688949Y-134345940D01*
X117625918Y-134410911D01*
X117558250Y-134499215D01*
X117497171Y-134596152D01*
X117464339Y-134685819D01*
X117451459Y-134798405D01*
X117449857Y-134893795D01*
X117258543Y-134893795D01*
X117258016Y-134889328D01*
X117267367Y-134800468D01*
X117297241Y-134685866D01*
X117300686Y-134674059D01*
X117378210Y-134488202D01*
X117489199Y-134325878D01*
X117621099Y-134199829D01*
X117761360Y-134122797D01*
X117861436Y-134104837D01*
X117926412Y-134116510D01*
G37*
D12*
%TO.C,C28*%
X99087836Y-122140000D02*
X98872164Y-122140000D01*
X99087836Y-122860000D02*
X98872164Y-122860000D01*
%TO.C,C3*%
X85090000Y-136090000D02*
X85090000Y-138440000D01*
X85090000Y-142910000D02*
X85090000Y-140560000D01*
X90845563Y-136090000D02*
X85090000Y-136090000D01*
X90845563Y-142910000D02*
X85090000Y-142910000D01*
X91910000Y-137154437D02*
X90845563Y-136090000D01*
X91910000Y-137154437D02*
X91910000Y-138440000D01*
X91910000Y-141845563D02*
X90845563Y-142910000D01*
X91910000Y-141845563D02*
X91910000Y-140560000D01*
X92543750Y-141741250D02*
X92543750Y-140953750D01*
X92937500Y-141347500D02*
X92150000Y-141347500D01*
%TO.C,C9*%
X100127836Y-124140000D02*
X99912164Y-124140000D01*
X100127836Y-124860000D02*
X99912164Y-124860000D01*
%TO.C,C25*%
X93162836Y-105715000D02*
X92947164Y-105715000D01*
X93162836Y-106435000D02*
X92947164Y-106435000D01*
%TO.C,C18*%
X108915580Y-134490000D02*
X108634420Y-134490000D01*
X108915580Y-135510000D02*
X108634420Y-135510000D01*
%TO.C,C8*%
X90365580Y-134490000D02*
X90084420Y-134490000D01*
X90365580Y-135510000D02*
X90084420Y-135510000D01*
%TO.C,C32*%
X78490580Y-147490000D02*
X78209420Y-147490000D01*
X78490580Y-148510000D02*
X78209420Y-148510000D01*
%TO.C,C16*%
X75142164Y-136890000D02*
X75357836Y-136890000D01*
X75142164Y-137610000D02*
X75357836Y-137610000D01*
%TO.C,C6*%
X92912164Y-135140000D02*
X93127836Y-135140000D01*
X92912164Y-135860000D02*
X93127836Y-135860000D01*
%TO.C,C13*%
X75142164Y-135890000D02*
X75357836Y-135890000D01*
X75142164Y-136610000D02*
X75357836Y-136610000D01*
%TO.C,C5*%
X92912164Y-137140000D02*
X93127836Y-137140000D01*
X92912164Y-137860000D02*
X93127836Y-137860000D01*
%TO.C,C7*%
X82627836Y-124140000D02*
X82412164Y-124140000D01*
X82627836Y-124860000D02*
X82412164Y-124860000D01*
%TO.C,U6*%
X111952500Y-110690000D02*
X113772500Y-110690000D01*
X111952500Y-110740000D02*
X111952500Y-110690000D01*
X111952500Y-113810000D02*
X111952500Y-113760000D01*
X113772500Y-110690000D02*
X113772500Y-110740000D01*
X113772500Y-113760000D02*
X113772500Y-113810000D01*
X113772500Y-113810000D02*
X111952500Y-113810000D01*
X111412500Y-110740000D02*
X111172500Y-110410000D01*
X111652500Y-110410000D01*
X111412500Y-110740000D01*
G36*
X111412500Y-110740000D02*
G01*
X111172500Y-110410000D01*
X111652500Y-110410000D01*
X111412500Y-110740000D01*
G37*
%TO.C,C10*%
X83162164Y-125140000D02*
X83377836Y-125140000D01*
X83162164Y-125860000D02*
X83377836Y-125860000D01*
%TO.C,C2*%
X75142164Y-134890000D02*
X75357836Y-134890000D01*
X75142164Y-135610000D02*
X75357836Y-135610000D01*
%TO.C,C17*%
X111392164Y-134890000D02*
X111607836Y-134890000D01*
X111392164Y-135610000D02*
X111607836Y-135610000D01*
%TO.C,R2*%
X94870000Y-104153641D02*
X94870000Y-103846359D01*
X95630000Y-104153641D02*
X95630000Y-103846359D01*
%TO.C,J3*%
X87640000Y-148890000D02*
X87640000Y-150140000D01*
X87940000Y-150500000D02*
X88550000Y-150500000D01*
X87940000Y-151800000D02*
X88550000Y-151800000D01*
X88550000Y-149800000D02*
X88550000Y-153300000D01*
X88550000Y-153300000D02*
X97450000Y-153300000D01*
X88890000Y-148890000D02*
X87640000Y-148890000D01*
X89400000Y-148990000D02*
X89400000Y-149190000D01*
X89700000Y-148990000D02*
X89400000Y-148990000D01*
X89700000Y-149090000D02*
X89400000Y-149090000D01*
X89700000Y-149190000D02*
X89700000Y-148990000D01*
X90500000Y-149190000D02*
X90500000Y-149800000D01*
X90500000Y-149800000D02*
X88550000Y-149800000D01*
X90900000Y-152800000D02*
X91100000Y-152800000D01*
X90900000Y-153300000D02*
X90900000Y-152800000D01*
X91000000Y-153300000D02*
X91000000Y-152800000D01*
X91100000Y-152800000D02*
X91100000Y-153300000D01*
X92900000Y-152800000D02*
X93100000Y-152800000D01*
X92900000Y-153300000D02*
X92900000Y-152800000D01*
X93000000Y-153300000D02*
X93000000Y-152800000D01*
X93100000Y-152800000D02*
X93100000Y-153300000D01*
X94900000Y-152800000D02*
X95100000Y-152800000D01*
X94900000Y-153300000D02*
X94900000Y-152800000D01*
X95000000Y-153300000D02*
X95000000Y-152800000D01*
X95100000Y-152800000D02*
X95100000Y-153300000D01*
X95500000Y-149800000D02*
X95500000Y-149190000D01*
X97450000Y-149800000D02*
X95500000Y-149800000D01*
X97450000Y-153300000D02*
X97450000Y-149800000D01*
X98060000Y-150500000D02*
X97450000Y-150500000D01*
X98060000Y-151800000D02*
X97450000Y-151800000D01*
X87940000Y-149190000D02*
X98060000Y-149190000D01*
X98060000Y-153910000D01*
X87940000Y-153910000D01*
X87940000Y-149190000D01*
%TO.C,C1*%
X72640580Y-134490000D02*
X72359420Y-134490000D01*
X72640580Y-135510000D02*
X72359420Y-135510000D01*
%TO.C,C12*%
X103590000Y-136090000D02*
X103590000Y-138440000D01*
X103590000Y-142910000D02*
X103590000Y-140560000D01*
X109345563Y-136090000D02*
X103590000Y-136090000D01*
X109345563Y-142910000D02*
X103590000Y-142910000D01*
X110410000Y-137154437D02*
X109345563Y-136090000D01*
X110410000Y-137154437D02*
X110410000Y-138440000D01*
X110410000Y-141845563D02*
X109345563Y-142910000D01*
X110410000Y-141845563D02*
X110410000Y-140560000D01*
X111043750Y-141741250D02*
X111043750Y-140953750D01*
X111437500Y-141347500D02*
X110650000Y-141347500D01*
%TO.C,C33*%
X75209420Y-147490000D02*
X75490580Y-147490000D01*
X75209420Y-148510000D02*
X75490580Y-148510000D01*
%TO.C,C39*%
X111709420Y-147490000D02*
X111990580Y-147490000D01*
X111709420Y-148510000D02*
X111990580Y-148510000D01*
%TD*%
M02*
