M48
; DRILL file {KiCad 9.0.7} date 2026-03-25T10:49:29+0100
; FORMAT={-:-/ absolute / metric / decimal}
; #@! TF.CreationDate,2026-03-25T10:49:29+01:00
; #@! TF.GenerationSoftware,Kicad,Pcbnew,9.0.7
; #@! TF.FileFunction,Plated,1,4,PTH
FMAT,2
METRIC
; #@! TA.AperFunction,Plated,PTH,ViaDrill
T1C0.300
; #@! TA.AperFunction,Plated,PTH,ViaDrill
T2C0.400
; #@! TA.AperFunction,Plated,PTH,ViaDrill
T3C0.600
; #@! TA.AperFunction,Plated,PTH,ComponentDrill
T4C0.600
; #@! TA.AperFunction,Plated,PTH,ComponentDrill
T5C0.750
; #@! TA.AperFunction,Plated,PTH,ComponentDrill
T6C3.200
%
G90
G05
T1
X65.0Y-129.25
X76.0Y-139.75
X76.25Y-146.5
X77.75Y-146.5
X80.5Y-146.5
X83.5Y-146.5
X90.25Y-146.75
X91.25Y-146.75
X91.5Y-118.555
X93.5Y-139.5
X94.25Y-146.75
X94.5Y-109.75
X97.25Y-146.75
X97.75Y-121.75
X98.837Y-124.35
X103.75Y-146.25
X106.5Y-146.25
X108.25Y-146.25
X111.0Y-146.25
X112.069Y-134.181
X113.175Y-131.875
X113.754Y-134.25
X115.25Y-131.75
X115.75Y-117.75
T2
X64.75Y-139.5
X65.0Y-135.0
X65.0Y-145.0
X65.5Y-114.75
X66.5Y-119.5
X66.75Y-99.0
X67.75Y-122.25
X68.0Y-99.0
X68.0Y-100.25
X69.25Y-96.5
X69.25Y-97.75
X69.25Y-99.0
X69.25Y-100.25
X69.7Y-137.7
X70.0Y-115.0
X70.0Y-120.0
X70.0Y-130.0
X70.0Y-135.0
X70.0Y-145.0
X70.0Y-150.0
X70.5Y-96.5
X70.5Y-97.75
X70.5Y-99.0
X71.75Y-96.5
X71.75Y-97.75
X71.75Y-99.0
X73.0Y-96.5
X73.0Y-97.75
X73.0Y-99.0
X74.25Y-96.5
X74.25Y-97.75
X74.25Y-99.0
X74.25Y-100.0
X74.75Y-125.25
X74.809Y-146.809
X75.0Y-105.0
X75.0Y-110.0
X75.0Y-115.0
X75.0Y-120.0
X75.0Y-130.0
X75.948Y-129.052
X75.975Y-134.112
X76.5Y-143.0
X77.25Y-125.25
X77.476Y-131.677
X77.5Y-130.25
X78.25Y-134.249
X78.5Y-124.5
X78.816Y-146.434
X79.225Y-131.75
X79.25Y-125.25
X79.292Y-123.042
X79.5Y-109.0
X79.5Y-111.0
X79.5Y-130.25
X80.0Y-100.0
X80.0Y-105.0
X80.5Y-124.25
X81.5Y-123.5
X82.434Y-146.434
X82.6Y-139.5
X84.25Y-122.5
X84.441Y-146.309
X84.75Y-124.25
X85.0Y-100.0
X85.0Y-105.0
X85.0Y-115.0
X85.0Y-130.0
X85.0Y-135.0
X85.0Y-145.0
X85.0Y-150.0
X85.97Y-119.72
X86.328Y-122.578
X86.75Y-123.578
X87.25Y-107.5
X87.6Y-137.6
X88.799Y-113.97
X89.184Y-146.684
X89.305Y-99.055
X89.5Y-111.25
X90.0Y-95.0
X90.0Y-100.0
X90.0Y-130.0
X90.25Y-112.5
X90.25Y-113.5
X91.25Y-105.75
X91.375Y-129.625
X92.191Y-146.559
X92.5Y-129.25
X92.75Y-105.0
X92.75Y-121.25
X93.431Y-128.885
X93.53Y-122.78
X93.865Y-134.494
X94.0Y-104.75
X94.0Y-115.0
X94.25Y-103.5
X94.75Y-91.25
X94.775Y-131.75
X95.405Y-120.905
X95.875Y-134.252
X96.0Y-125.0
X96.309Y-146.559
X96.5Y-130.725
X96.828Y-131.719
X97.0Y-104.0
X97.175Y-125.25
X97.25Y-101.5
X97.25Y-122.845
X98.0Y-124.5
X98.191Y-146.559
X100.0Y-91.25
X100.0Y-105.0
X100.0Y-106.0
X100.0Y-110.0
X100.0Y-135.0
X100.0Y-140.0
X100.0Y-145.0
X100.0Y-150.0
X101.75Y-139.5
X102.5Y-91.25
X102.559Y-146.309
X104.5Y-118.25
X104.691Y-146.059
X105.0Y-105.0
X105.0Y-125.0
X105.0Y-135.0
X105.0Y-145.0
X105.5Y-113.0
X105.725Y-137.975
X106.141Y-120.109
X107.5Y-102.5
X107.75Y-119.5
X109.934Y-146.184
X110.0Y-95.0
X110.0Y-100.0
X110.0Y-105.0
X110.0Y-110.0
X110.0Y-115.0
X110.0Y-130.0
X110.25Y-112.25
X110.743Y-128.261
X110.75Y-124.5
X110.75Y-125.5
X112.0Y-128.75
X112.0Y-130.75
X112.066Y-146.184
X112.25Y-139.5
X113.28Y-124.47
X113.75Y-128.75
X115.0Y-95.0
X115.0Y-100.0
X115.0Y-105.0
X115.0Y-120.0
X115.0Y-140.0
X115.0Y-145.0
X115.0Y-150.0
X115.5Y-108.0
X115.5Y-112.5
X115.5Y-116.5
X116.0Y-130.5
X116.5Y-124.5
X117.055Y-123.668
X120.0Y-100.0
X120.0Y-105.0
X120.0Y-110.0
X120.0Y-115.0
X120.0Y-120.0
X120.0Y-130.0
X120.0Y-135.0
X120.25Y-108.43
X120.25Y-117.07
T3
X78.25Y-110.0
X85.5Y-109.0
X89.0Y-109.0
X89.0Y-117.5
X101.051Y-122.732
X105.0Y-91.25
X106.5Y-107.5
X118.25Y-107.25
X120.25Y-125.5
T5
X63.5Y-122.42
X63.5Y-124.42
X63.5Y-126.42
X76.25Y-151.0
X78.25Y-151.0
X80.25Y-151.0
X82.25Y-151.0
X90.0Y-151.0
X92.0Y-151.0
X94.0Y-151.0
X96.0Y-151.0
X103.75Y-151.0
X105.75Y-151.0
X107.75Y-151.0
X109.75Y-151.0
T6
X65.0Y-95.0
X65.0Y-150.0
X120.0Y-95.0
X120.0Y-150.0
T4
G00X117.525Y-108.43
M15
G01X118.625Y-108.43
M16
G05
G00X117.525Y-117.07
M15
G01X118.625Y-117.07
M16
G05
G00X121.855Y-108.43
M15
G01X122.655Y-108.43
M16
G05
G00X121.855Y-117.07
M15
G01X122.655Y-117.07
M16
G05
M30
